<?xml version="1.0" encoding="utf-8"?>
<!-- Generator: Adobe Illustrator 17.1.0, SVG Export Plug-In . SVG Version: 6.00 Build 0)  -->
<!DOCTYPE svg PUBLIC "-//W3C//DTD SVG 1.1//EN" "http://www.w3.org/Graphics/SVG/1.1/DTD/svg11.dtd">
<svg version="1.1" id="Layer_1" xmlns="http://www.w3.org/2000/svg" xmlns:xlink="http://www.w3.org/1999/xlink" x="0px" y="0px"
	 viewBox="0 0 159 239" enable-background="new 0 0 159 239" xml:space="preserve">
<g>
	<path fill="#EF9754" d="M158.7,220.2c0,0,0,18.6-66,18.6s-66-18.6-66-18.6v-57.8c0-36.1,29.3-65.4,65.4-65.4h1.3
		c36.1,0,65.4,29.3,65.4,65.4V220.2z"/>
	<path fill="#DE7E2B" d="M129.9,209.5v-57.8c0-22.5-11.4-42.4-28.7-54.1c-2.6-0.3-5.2-0.5-7.8-0.5h-1.3c-36.1,0-65.4,29.3-65.4,65.4
		v57.8c0,0,0,2.5,3.3,5.7c8.7,1.3,19.8,2.2,34,2.2C129.9,228.1,129.9,209.5,129.9,209.5z"/>
	<g>
		<circle fill="#DE7E2B" cx="130.2" cy="22.3" r="22.2"/>
		<circle fill="#FFFFFF" cx="130.2" cy="22.3" r="18.9"/>
		<path fill="#1E1E1E" d="M132.8,23.1c-3,0-5.4-2.4-5.4-5.4c0-0.2,0-0.4,0-0.6c-2.1,0.8-3.5,2.7-3.5,5.1c0,3,2.4,5.4,5.4,5.4
			c2.8,0,5-2.1,5.4-4.8C134,23,133.4,23.1,132.8,23.1z"/>
	</g>
	<g>
		<g>
			<path fill="#DE7E2B" d="M58.9,114C57.2,75.3,33,63.5,32.8,63.4l4.2-9.1c0.3,0.1,7.9,3.8,15.5,13c6.9,8.3,15.3,23.1,16.4,46.3
				L58.9,114z"/>
		</g>
	</g>
	<g>
		<circle fill="#DE7E2B" cx="22.5" cy="44.6" r="22.2"/>
		<circle fill="#FFFFFF" cx="22.5" cy="44.6" r="18.9"/>
		<path fill="#1E1E1E" d="M25.1,45.3c-3,0-5.4-2.4-5.4-5.4c0-0.2,0-0.4,0-0.6c-2.1,0.8-3.5,2.7-3.5,5.1c0,3,2.4,5.4,5.4,5.4
			c2.8,0,5-2.1,5.4-4.8C26.3,45.2,25.7,45.3,25.1,45.3z"/>
	</g>
	<g>
		<g>
			
				<rect x="114.8" y="42.1" transform="matrix(0.987 0.1606 -0.1606 0.987 14.4065 -18.1928)" fill="#DE7E2B" width="10" height="76"/>
		</g>
	</g>
	<g>
		<path opacity="0.5" fill="#8D4A99" d="M49.4,149.9c0,0,34.5-1.9,58.5-15.5s29.2,8,29.2,27.7s0,17.8,0,17.8s7,31-35.7,22.1
			s-52-14.1-52-24.4S35.4,156.5,49.4,149.9z"/>
		<path fill="#FFFFFF" d="M133.7,139.7c-3.8-9-11.4-13.4-25.7-5.3c-24,13.6-58.5,15.5-58.5,15.5c-5.1,2.4-6.5,5.3-6.2,8.6l1.5,5.3
			L59,170l9.8-11.4l11.7,17.5L96,148.3l10.3,18.6l8.5-18.6l9,6.6L133.7,139.7z"/>
		<path fill="#FFFFFF" d="M137.1,180c0-0.3,0-1.7,0-8.6l-7.5,10.3l-14.8-10.3l-5,17.5l-17.1-12.7l-13.1,12.7l-13.8-14L50,181.7
			c2.6,7.8,14.7,12.7,51.4,20.4C144.2,210.9,137.1,180,137.1,180z"/>
	</g>
</g>
</svg>
