<?xml version="1.0" encoding="utf-8"?>
<!-- Generator: Adobe Illustrator 17.1.0, SVG Export Plug-In . SVG Version: 6.00 Build 0)  -->
<!DOCTYPE svg PUBLIC "-//W3C//DTD SVG 1.1//EN" "http://www.w3.org/Graphics/SVG/1.1/DTD/svg11.dtd">
<svg version="1.1" id="Layer_1" xmlns="http://www.w3.org/2000/svg" xmlns:xlink="http://www.w3.org/1999/xlink" x="0px" y="0px"
	 viewBox="0 0 172 386" enable-background="new 0 0 172 386" xml:space="preserve">
<g>
	<path fill="#DE7E2B" d="M167.5,188.2c-22.3,5.4-27.6-49.2-27.6-49.2h-0.1c-0.2-5.9-1.4-11.6-3.3-16.8c25.4-6.1,44.5-24.2,31-20.9
		c-22.3,5.4-27.6-49.2-27.6-49.2h-0.1c-1-28.9-24.7-52-53.9-52c-29.1,0-52.8,23.1-53.9,52h0c0,0-5.3,54.6-27.6,49.2
		c-13.5-3.3,5.6,14.8,31,20.9c-2,5.3-3.1,10.9-3.3,16.9h0c0,0-5.3,54.6-27.6,49.2C-9,185,10,203,35.4,209.1
		c-2,5.3-3.1,10.9-3.3,16.9h0c0,0-5.3,54.6-27.6,49.2c-13.5-3.3,5.7,15,31.3,21c-2.2,5.5-3.5,11.5-3.7,17.8h0
		c0,0-5.3,54.6-27.6,49.2c-22.3-5.4,44.2,47.4,81.5,8.3v-1.6c0,0,0,0,0.1,0v0v1.6c37.3,39.1,103.8-13.6,81.5-8.3
		c-22.3,5.4-27.6-49.2-27.6-49.2h-0.1c-0.2-6.2-1.5-12.2-3.7-17.7c25.6-6,44.9-24.2,31.4-21c-22.3,5.4-27.6-49.2-27.6-49.2h-0.1
		c-0.2-5.9-1.4-11.6-3.3-16.8C161.9,203,181,185,167.5,188.2z"/>
	<g>
		<path fill="#EF9754" d="M167.5,188.2c-22.3,5.4-27.6-49.2-27.6-49.2h-0.1c-0.2-5.7-1.3-11.2-3.1-16.3c-4.6,2.1-9.8,3.9-15.2,5.2
			c2,5.3,3.1,10.9,3.3,16.8h0.1c0,0,5.3,54.6,27.6,49.2c10-2.4,2,7-13.2,14.4C163.3,201.7,180.5,185.1,167.5,188.2z"/>
		<path fill="#79B4BA" d="M3.6,188c-3.7-0.7-4.3,0.6-2.7,2.8C1.8,190,2.7,189.1,3.6,188z"/>
		<path fill="#79B4BA" d="M0.9,365.7c0.9-0.8,1.8-1.8,2.7-2.8C-0.2,362.1-0.8,363.4,0.9,365.7z"/>
		<path fill="#EF9754" d="M70.9,5.9c29.1,0,52.8,23.1,53.9,52h0.1c0,0,5.3,54.6,27.6,49.2c10-2.4,2,7-13.2,14.4
			c24-6.6,41.2-23.3,28.2-20.2c-22.3,5.4-27.6-49.2-27.6-49.2h-0.1c-1-28.9-24.7-52-53.9-52c-9.6,0-18.7,2.5-26.5,6.9
			C63.2,6.3,67,5.9,70.9,5.9z"/>
		<path fill="#EF9754" d="M139.3,295.3c24-6.6,41.2-23.3,28.2-20.2c-22.3,5.4-27.6-49.2-27.6-49.2h-0.1c-0.2-5.7-1.3-11.2-3.1-16.3
			c-4.6,2.1-9.8,3.9-15.2,5.2c2,5.3,3.1,10.9,3.3,16.8h0.1c0,0,5.3,54.6,27.6,49.2C162.6,278.4,154.5,287.8,139.3,295.3z"/>
		<path fill="#EF9754" d="M167.5,363c-22.3,5.4-27.6-49.2-27.6-49.2h-0.1c-0.2-6-1.4-11.8-3.5-17.2c-4.6,2.1-9.8,3.9-15.2,5.2
			c2.2,5.5,3.4,11.5,3.7,17.7h0.1c0,0,5.3,54.6,27.6,49.2c10-2.4,2,7-13.2,14.4C163.3,376.5,180.5,359.9,167.5,363z"/>
		<path fill="#79B4BA" d="M3.6,101.1c-3.7-0.7-4.3,0.6-2.7,2.8C1.8,103.1,2.7,102.2,3.6,101.1z"/>
		<path fill="#79B4BA" d="M3.6,274.9c-3.7-0.7-4.3,0.6-2.7,2.8C1.8,276.9,2.7,276,3.6,274.9z"/>
	</g>
	<g opacity="0.5">
		<path fill="#BA5C15" d="M4.5,188.2c22.3,5.4,27.6-49.2,27.6-49.2h0.1c0.2-5.7,1.3-11.2,3.1-16.3c4.6,2.1,9.8,3.9,15.2,5.2
			c-2,5.3-3.1,10.9-3.3,16.8h-0.1c0,0-5.3,54.6-27.6,49.2c-10-2.4-2,7,13.2,14.4C8.7,201.7-8.5,185.1,4.5,188.2z"/>
		<path fill="#79B4BA" d="M168.4,188c3.7-0.7,4.3,0.6,2.7,2.8C170.2,190,169.3,189.1,168.4,188z"/>
		<path fill="#79B4BA" d="M171.1,365.7c-0.9-0.8-1.8-1.8-2.7-2.8C172.2,362.1,172.8,363.4,171.1,365.7z"/>
		<path fill="#BA5C15" d="M101.1,5.9c-29.1,0-52.8,23.1-53.9,52h-0.1c0,0-5.3,54.6-27.6,49.2c-10-2.4-2,7,13.2,14.4
			c-24-6.6-41.2-23.3-28.2-20.2c22.3,5.4,27.6-49.2,27.6-49.2h0.1c1-28.9,24.7-52,53.9-52c9.6,0,18.7,2.5,26.5,6.9
			C108.8,6.3,105,5.9,101.1,5.9z"/>
		<path fill="#BA5C15" d="M32.7,295.3c-24-6.6-41.2-23.3-28.2-20.2c22.3,5.4,27.6-49.2,27.6-49.2h0.1c0.2-5.7,1.3-11.2,3.1-16.3
			c4.6,2.1,9.8,3.9,15.2,5.2c-2,5.3-3.1,10.9-3.3,16.8h-0.1c0,0-5.3,54.6-27.6,49.2C9.4,278.4,17.5,287.8,32.7,295.3z"/>
		<path fill="#BA5C15" d="M4.5,363c22.3,5.4,27.6-49.2,27.6-49.2h0.1c0.2-6,1.4-11.8,3.5-17.2c4.6,2.1,9.8,3.9,15.2,5.2
			c-2.2,5.5-3.4,11.5-3.7,17.7h-0.1c0,0-5.3,54.6-27.6,49.2c-10-2.4-2,7,13.2,14.4C8.7,376.5-8.5,359.9,4.5,363z"/>
		<path fill="#79B4BA" d="M168.4,101.1c3.7-0.7,4.3,0.6,2.7,2.8C170.2,103.1,169.3,102.2,168.4,101.1z"/>
		<path fill="#79B4BA" d="M168.4,274.9c3.7-0.7,4.3,0.6,2.7,2.8C170.2,276.9,169.3,276,168.4,274.9z"/>
	</g>
	<g>
		<circle fill="#BA5C15" cx="86" cy="89.1" r="34.7"/>
		<circle fill="#FFFFFF" cx="86" cy="89.1" r="29.6"/>
		<path fill="#1E1E1E" d="M90,90.3c-4.7,0-8.4-3.8-8.4-8.4c0-0.3,0-0.6,0.1-1c-3.2,1.2-5.5,4.3-5.5,7.9c0,4.7,3.8,8.4,8.4,8.4
			c4.3,0,7.9-3.3,8.4-7.5C92,90.2,91,90.3,90,90.3z"/>
	</g>
	<g>
		<circle fill="#BA5C15" cx="86" cy="166.1" r="34.7"/>
		<circle fill="#FFFFFF" cx="86" cy="166.1" r="29.6"/>
		<path fill="#1E1E1E" d="M90,167.3c-4.7,0-8.4-3.8-8.4-8.4c0-0.3,0-0.6,0.1-1c-3.2,1.2-5.5,4.3-5.5,7.9c0,4.7,3.8,8.4,8.4,8.4
			c4.3,0,7.9-3.3,8.4-7.5C92,167.1,91,167.3,90,167.3z"/>
	</g>
	<g>
		<circle fill="#BA5C15" cx="86" cy="243" r="34.7"/>
		<circle fill="#FFFFFF" cx="86" cy="243" r="29.6"/>
		<path fill="#1E1E1E" d="M90,244.2c-4.7,0-8.4-3.8-8.4-8.4c0-0.3,0-0.6,0.1-1c-3.2,1.2-5.5,4.3-5.5,7.9c0,4.7,3.8,8.4,8.4,8.4
			c4.3,0,7.9-3.3,8.4-7.5C92,244,91,244.2,90,244.2z"/>
	</g>
	<path fill="none" stroke="#FFFFFF" stroke-width="4" stroke-miterlimit="10" d="M51.2,296.8c0,0,5.1,23.6,33.2,23.6
		s33.3-23.6,33.3-23.6"/>
</g>
</svg>
