<?xml version="1.0" encoding="utf-8"?>
<!-- Generator: Adobe Illustrator 17.1.0, SVG Export Plug-In . SVG Version: 6.00 Build 0)  -->
<!DOCTYPE svg PUBLIC "-//W3C//DTD SVG 1.1//EN" "http://www.w3.org/Graphics/SVG/1.1/DTD/svg11.dtd">
<svg version="1.1" id="Layer_1" xmlns="http://www.w3.org/2000/svg" xmlns:xlink="http://www.w3.org/1999/xlink" x="0px" y="0px"
	 viewBox="0 0 366 326" enable-background="new 0 0 366 326" xml:space="preserve">
<g>
	<path fill="#DE7E2B" d="M350.1,290.8c-55.4-8.1-94.8,38-94.8-214.7c0-61.3-72.3-75.7-72.3-75.7c0,0-72.3,14.4-72.3,75.7
		c0,252.7-39.4,206.7-94.8,214.7c-22.3,3.2-25.6,33.3,19.7,34.6c34.9,1,95.2,0.1,126.7-24.9v4.7c0,11.3,9.2,20.4,20.4,20.4h0.4
		c11.3,0,20.4-9.2,20.4-20.4v-4.7c31.6,24.9,91.8,25.9,126.7,24.9C375.7,324.1,372.3,294,350.1,290.8z"/>
	<g>
		<g>
			<path fill="#EF9754" d="M350.1,290.8c-55.4-8.1-94.8,38-94.8-214.7c0-61.3-72.3-75.7-72.3-75.7c0,0-3.4,0.7-8.7,2.4
				c19.2,6.1,63.5,25.3,63.5,73.3c0,252.7,39.4,206.7,94.8,214.7c22.3,3.2,25.6,33.3-19.7,34.6c-2.4,0.1-4.9,0.1-7.5,0.2
				c9.1,0.2,17.6,0,24.9-0.2C375.7,324.1,372.3,294,350.1,290.8z"/>
		</g>
	</g>
	<g>
		<path fill="#BA5C15" d="M15.9,290.8c55.4-8.1,94.8,38,94.8-214.7c0-61.3,72.3-75.7,72.3-75.7c0,0,3.4,0.7,8.7,2.4
			c-19.2,6.1-63.5,25.3-63.5,73.3c0,252.7-39.4,206.7-94.8,214.7c-22.3,3.2-25.6,33.3,19.7,34.6c2.4,0.1,4.9,0.1,7.5,0.2
			c-9.1,0.2-17.6,0-24.9-0.2C-9.7,324.1-6.3,294,15.9,290.8z"/>
	</g>
	<g>
		<circle opacity="0.5" fill="#8D4A99" cx="153.3" cy="75" r="18.4"/>
		<circle fill="#FFFFFF" cx="153.3" cy="72.2" r="15.7"/>
		<path fill="#1E1E1E" d="M155.4,72.9c-2.5,0-4.5-2-4.5-4.5c0-0.2,0-0.3,0-0.5c-1.7,0.6-2.9,2.3-2.9,4.2c0,2.5,2,4.5,4.5,4.5
			c2.3,0,4.2-1.7,4.4-3.9C156.5,72.8,156,72.9,155.4,72.9z"/>
	</g>
	<g>
		<circle opacity="0.5" fill="#8D4A99" cx="209.8" cy="102.4" r="26.8"/>
		<circle fill="#FFFFFF" cx="209.8" cy="98.4" r="22.9"/>
		<path fill="#1E1E1E" d="M212.9,99.4c-3.6,0-6.5-2.9-6.5-6.5c0-0.3,0-0.5,0-0.7c-2.5,0.9-4.3,3.3-4.3,6.1c0,3.6,2.9,6.5,6.5,6.5
			c3.3,0,6.1-2.5,6.5-5.8C214.4,99.2,213.7,99.4,212.9,99.4z"/>
	</g>
	<circle opacity="0.5" fill="#8D4A99" cx="208.7" cy="226.4" r="43.1"/>
	<circle fill="#FFFFFF" cx="208.7" cy="220.1" r="36.8"/>
	<path fill="#1E1E1E" d="M213.7,221.6c-5.8,0-10.5-4.7-10.5-10.5c0-0.4,0-0.8,0.1-1.2c-4,1.5-6.9,5.3-6.9,9.8
		c0,5.8,4.7,10.5,10.5,10.5c5.4,0,9.8-4.1,10.4-9.3C216.1,221.3,214.9,221.6,213.7,221.6z"/>
	<path opacity="0.5" fill="#8D4A99" d="M187.6,17.1c0,0-9.7,1.9-9.8,8.4c-0.1,6.5,4.5,2.4,11.4,9.4c6.9,7,8.3,18.3,18.3,16.3
		s23-9.9,18-16.3c-5-6.4-19.1-1.8-20.7-9.8S196.8,16.7,187.6,17.1z"/>
	<path opacity="0.5" fill="#8D4A99" d="M129.4,135.9c0,0,1.9,9.7,8.4,9.8s2.4-4.5,9.5-11.3c7-6.9,18.3-8.3,16.3-18.3
		s-9.9-23-16.3-18c-6.4,5-1.8,19.1-9.9,20.6C129.4,120.2,129,126.7,129.4,135.9z"/>
	<path opacity="0.5" fill="#8D4A99" d="M126,240.2c0,0-6.4,7.6-2.4,12.7c4,5.1,5-0.9,14.8,0.3c9.8,1.1,18,9.1,24.5,1.2
		s11.7-22.1,3.8-24c-7.9-1.9-16,10.6-22.3,5.3S132.9,234.1,126,240.2z"/>
	<path opacity="0.5" fill="#8D4A99" d="M226.1,169.7c0,0,4.9,3.6,7.9,1c3-2.6-0.8-3-0.4-9.1c0.3-6,4.8-11.4-0.2-15.1
		c-5.1-3.7-14-6.3-14.9-1.4c-0.8,4.9,7.1,9.4,4.1,13.5C219.6,162.6,222.1,165.7,226.1,169.7z"/>
	<g>
		<circle opacity="0.5" fill="#8D4A99" cx="154.2" cy="153" r="26.9"/>
		<circle fill="#FFFFFF" cx="154.2" cy="149.2" r="22.9"/>
		<path fill="#1E1E1E" d="M157.3,150.1c-3.6,0-6.5-2.9-6.5-6.5c0-0.3,0-0.5,0-0.7c-2.5,0.9-4.3,3.3-4.3,6.1c0,3.6,2.9,6.5,6.5,6.5
			c3.4,0,6.1-2.5,6.5-5.8C158.8,150,158.1,150.1,157.3,150.1z"/>
	</g>
</g>
</svg>
