<?xml version="1.0" encoding="utf-8"?>
<!-- Generator: Adobe Illustrator 17.1.0, SVG Export Plug-In . SVG Version: 6.00 Build 0)  -->
<!DOCTYPE svg PUBLIC "-//W3C//DTD SVG 1.1//EN" "http://www.w3.org/Graphics/SVG/1.1/DTD/svg11.dtd">
<svg version="1.1" id="Layer_1" xmlns="http://www.w3.org/2000/svg" xmlns:xlink="http://www.w3.org/1999/xlink" x="0px" y="0px"
	 viewBox="0 0 100 89" enable-background="new 0 0 100 89" xml:space="preserve">
<g>
	<circle fill="#D2D3D5" cx="44.3" cy="14.1" r="13.8"/>
	<path fill="#D2D3D5" d="M96.3,59.3c6-10.4,4.4-23.1-3.1-31.7c2.2-8-1.1-16.7-8.6-21C76.7,2,66.8,4,61.2,10.7
		C41.5,0.1,16.8,7.1,5.6,26.6C-5.8,46.4,1,71.8,20.9,83.2C38.9,93.5,61.4,88.8,74,73C82.9,72.5,91.5,67.6,96.3,59.3z"/>
	<path fill="#B2B4B3" d="M96,31.4c-0.6,2.9-1.6,5.7-3.1,8.3C88.1,48.1,79.5,53,70.5,53.5C58,69.3,35.5,74,17.4,63.6
		c-8-4.6-13.9-11.4-17.3-19.2c-1,15.3,6.5,30.6,20.7,38.8C38.9,93.5,61.4,88.8,74,73c9-0.5,17.5-5.4,22.3-13.8
		C101.4,50.3,101,39.7,96,31.4z"/>
	<g>
		<circle fill="#B2B4B3" cx="44.3" cy="14.1" r="11.4"/>
		<path fill="#727D83" d="M34.3,12.8c3.1-5.5,10.1-7.3,15.6-4.2c3.1,1.8,5,4.8,5.6,8c1.1-4.8-1-9.8-5.4-12.4
			C44.5,1.1,37.5,3,34.4,8.4C33,10.8,32.6,13.5,33,16C33.3,14.9,33.7,13.8,34.3,12.8z"/>
		<path fill="#B5B7B6" d="M56.3,19.8c-3.7,6.5-12,8.7-18.5,5c-3.7-2.1-6-5.6-6.6-9.5C30,20.9,32.4,27,37.7,30
			c6.5,3.7,14.8,1.5,18.5-5c1.6-2.8,2.1-6,1.6-9C57.5,17.3,57,18.6,56.3,19.8z"/>
	</g>
	<g>
		<circle fill="#B2B4B3" cx="15.4" cy="47.9" r="5.6"/>
		<path fill="#727D83" d="M10.5,47.3c1.5-2.7,4.9-3.6,7.6-2.1c1.5,0.9,2.4,2.3,2.7,3.9c0.5-2.3-0.5-4.8-2.7-6
			c-2.7-1.5-6.1-0.6-7.6,2.1c-0.7,1.2-0.9,2.5-0.7,3.7C10,48.3,10.2,47.8,10.5,47.3z"/>
		<path fill="#B5B7B6" d="M21.2,50.7c-1.8,3.2-5.8,4.2-9,2.4c-1.8-1-2.9-2.7-3.2-4.6c-0.6,2.7,0.6,5.7,3.2,7.2
			c3.2,1.8,7.2,0.7,9-2.4c0.8-1.4,1-2.9,0.8-4.4C21.8,49.5,21.6,50.1,21.2,50.7z"/>
	</g>
	<g>
		<circle fill="#B2B4B3" cx="63.6" cy="46.2" r="8.1"/>
		<path fill="#727D83" d="M56.5,45.3c2.2-3.9,7.2-5.2,11.1-3c2.2,1.3,3.6,3.4,4,5.7c0.8-3.4-0.7-7-3.9-8.8c-3.9-2.2-8.8-0.9-11.1,3
			c-1,1.7-1.3,3.6-1,5.4C55.8,46.8,56,46.1,56.5,45.3z"/>
		<path fill="#B5B7B6" d="M72.2,50.3c-2.6,4.6-8.5,6.2-13.1,3.6c-2.6-1.5-4.2-4-4.7-6.8c-0.9,4,0.8,8.3,4.6,10.5
			c4.6,2.6,10.5,1.1,13.1-3.6c1.2-2,1.5-4.3,1.1-6.4C73,48.5,72.7,49.4,72.2,50.3z"/>
	</g>
	<g>
		<circle fill="#B2B4B3" cx="38.7" cy="67.7" r="8.1"/>
		<path fill="#727D83" d="M31.6,66.8c2.2-3.9,7.2-5.2,11.1-3c2.2,1.3,3.6,3.4,4,5.7c0.8-3.4-0.7-7-3.9-8.8c-3.9-2.2-8.8-0.9-11.1,3
			c-1,1.7-1.3,3.6-1,5.4C30.9,68.3,31.2,67.5,31.6,66.8z"/>
	</g>
</g>
</svg>
