<?xml version="1.0" encoding="utf-8"?>
<!-- Generator: Adobe Illustrator 17.1.0, SVG Export Plug-In . SVG Version: 6.00 Build 0)  -->
<!DOCTYPE svg PUBLIC "-//W3C//DTD SVG 1.1//EN" "http://www.w3.org/Graphics/SVG/1.1/DTD/svg11.dtd">
<svg version="1.1" id="Layer_1" xmlns="http://www.w3.org/2000/svg" xmlns:xlink="http://www.w3.org/1999/xlink" x="0px" y="0px"
	 viewBox="0 0 195 190" enable-background="new 0 0 195 190" xml:space="preserve">
<g>
	<g>
		<path fill="#B2B2B2" d="M60.7,72.2c0,0-0.1,0-0.1,0c0,0-0.1,0-0.1-0.1L60.7,72.2z"/>
		<path fill="#B2B2B2" d="M53.1,89.7c0,0,0.1,0,0.1,0c0,0,0.1,0,0.1,0.1L53.1,89.7z"/>
		<path fill="#B2B2B2" d="M48.6,87.9c0,0,0.1,0,0.1,0c0,0,0.1,0,0.1,0.1L48.6,87.9z"/>
		<path fill="#B2B2B2" d="M56.1,70.3c0,0-0.1,0-0.1,0c0,0-0.1,0-0.1-0.1L56.1,70.3z"/>
		<path fill="#B2B2B2" d="M51.6,68.4c0,0-0.1,0-0.1,0c0,0-0.1,0-0.1-0.1L51.6,68.4z"/>
		<path fill="#B2B2B2" d="M44,86c0,0,0.1,0,0.1,0c0,0,0.1,0,0.1,0.1L44,86z"/>
		<path fill="#B2B2B2" d="M47.1,66.6c0,0-0.1,0-0.1,0c0,0-0.1,0-0.1-0.1L47.1,66.6z"/>
		<path fill="#B2B2B2" d="M39.5,84.1c0,0,0.1,0,0.1,0c0,0,0.1,0,0.1,0.1L39.5,84.1z"/>
		<path fill="#B2B2B2" d="M42.6,64.7c0,0-0.1,0-0.1,0c0,0-0.1,0-0.1-0.1L42.6,64.7z"/>
		<path fill="#B2B2B2" d="M35,82.3c0,0,0.1,0,0.1,0c0,0,0.1,0,0.1,0.1L35,82.3z"/>
		<path fill="#B2B2B2" d="M38.1,62.8c0,0-0.1,0-0.1,0c0,0-0.1,0-0.1-0.1L38.1,62.8z"/>
		<path fill="#B2B2B2" d="M30.5,80.4c0,0,0.1,0,0.1,0c0,0,0.1,0,0.1,0.1L30.5,80.4z"/>
		<path fill="#B2B2B2" d="M86.9,83c0,0-0.1,0-0.1,0c0,0-0.1,0-0.1-0.1L86.9,83z"/>
		<path fill="#B2B2B2" d="M79.4,100.6c0,0,0.1,0,0.1,0c0,0,0.1,0,0.1,0.1L79.4,100.6z"/>
		<path fill="#B2B2B2" d="M89.4,89.5L86,97.9c-1,2.5-3.9,3.7-6.4,2.8c-0.8-0.4-1.5-0.9-2-1.6c-0.8,0.1-1.7,0-2.5-0.3
			c-0.8-0.4-1.5-0.9-2-1.6c-0.8,0.1-1.7,0-2.5-0.3c-0.8-0.4-1.5-0.9-2-1.6c-0.8,0.1-1.7,0-2.5-0.3c-0.8-0.4-1.5-0.9-2-1.6
			c-0.8,0.1-1.7,0-2.5-0.3c-0.8-0.4-1.5-0.9-2-1.6c-0.8,0.1-1.7,0-2.5-0.3c-0.6-0.3-1.2-0.7-1.7-1.2c-0.7,0-1.4-0.1-2-0.3
			c-0.8-0.4-1.5-0.9-2-1.6c-0.8,0.1-1.7,0-2.5-0.3c-0.8-0.4-1.5-0.9-2-1.6c-0.8,0.1-1.7,0-2.5-0.3c-0.8-0.4-1.5-0.9-2-1.6
			c-0.8,0.1-1.7,0-2.5-0.3c-0.8-0.4-1.5-0.9-2-1.6c-0.8,0.1-1.7,0-2.5-0.3c-0.8-0.4-1.5-0.9-2-1.6c-0.8,0.1-1.7,0-2.5-0.3
			c-2.5-1.1-3.6-4-2.6-6.5l3.5-8.4c1-2.5,3.9-3.7,6.4-2.8c0.8,0.4,1.5,0.9,2,1.6c0.8-0.1,1.7,0,2.5,0.3c0.8,0.4,1.5,0.9,2,1.6
			c0.8-0.1,1.7,0,2.5,0.3c0.8,0.4,1.5,0.9,2,1.6c0.8-0.1,1.7,0,2.5,0.3c0.8,0.4,1.5,0.9,2,1.6c0.8-0.1,1.7,0,2.5,0.3
			c0.8,0.4,1.5,0.9,2,1.6c0.8-0.1,1.7,0,2.5,0.3c0.6,0.3,1.2,0.7,1.7,1.2c0.7,0,1.4,0.1,2,0.3c0.8,0.4,1.5,0.9,2,1.6
			c0.8-0.1,1.7,0,2.5,0.3c0.8,0.4,1.5,0.9,2,1.6c0.8-0.1,1.7,0,2.5,0.3c0.8,0.4,1.5,0.9,2,1.6c0.8-0.1,1.7,0,2.5,0.3
			c0.8,0.4,1.5,0.9,2,1.6c0.8-0.1,1.7,0,2.5,0.3c0.8,0.4,1.5,0.9,2,1.6c0.8-0.1,1.7,0,2.5,0.3C89.3,84.1,90.5,86.9,89.4,89.5z"/>
		<path fill="#B2B2B2" d="M74.8,98.7c0,0,0.1,0,0.1,0c0,0,0.1,0,0.1,0.1L74.8,98.7z"/>
		<path fill="#B2B2B2" d="M82.4,81.1c0,0-0.1,0-0.1,0c0,0-0.1,0-0.1-0.1L82.4,81.1z"/>
		<path fill="#B2B2B2" d="M77.9,79.3c0,0-0.1,0-0.1,0c0,0-0.1,0-0.1-0.1L77.9,79.3z"/>
		<path fill="#B2B2B2" d="M70.3,96.9c0,0,0.1,0,0.1,0c0,0,0.1,0,0.1,0.1L70.3,96.9z"/>
		<path fill="#B2B2B2" d="M73.4,77.4c0,0-0.1,0-0.1,0c0,0-0.1,0-0.1-0.1L73.4,77.4z"/>
		<path fill="#B2B2B2" d="M65.8,95c0,0,0.1,0,0.1,0c0,0,0.1,0,0.1,0.1L65.8,95z"/>
		<path fill="#B2B2B2" d="M68.9,75.5c0,0-0.1,0-0.1,0c0,0-0.1,0-0.1-0.1L68.9,75.5z"/>
		<path fill="#B2B2B2" d="M61.3,93.1c0,0,0.1,0,0.1,0c0,0,0.1,0,0.1,0.1L61.3,93.1z"/>
		<path fill="#B2B2B2" d="M64.3,73.7c0,0-0.1,0-0.1,0c0,0-0.1,0-0.1-0.1L64.3,73.7z"/>
		<path fill="#B2B2B2" d="M56.8,91.3c0,0,0.1,0,0.1,0c0,0,0.1,0,0.1,0.1L56.8,91.3z"/>
	</g>
	<g>
		<path d="M21.6,75l5.7-13.2c0.5-1.2,1.9-1.7,3-1.2c1.2,0.5,1.7,1.9,1.2,3l-5.7,13.2c-0.5,1.2-1.9,1.7-3,1.2S21.1,76.1,21.6,75z"/>
		<path fill="#B2B2B2" d="M0.6,58.6c1.7-3.8,6.1-5.6,10-4l3.9,1.7L14.2,56c-1.2-1.5-0.9-3.8,0.7-4.9c1-0.8,2.4-0.9,3.5-0.4
			c0.6,0.2,1,0.6,1.4,1.1l6.6,8.7l-6.4,14.8L4.6,68.5C0.7,66.9-1,62.4,0.6,58.6z"/>
		<path fill="#FFBE08" d="M30.9,59.3c1.9,0.8,2.7,3,1.9,4.9l-5.7,13.2c-0.8,1.9-3,2.7-4.9,1.9c-1.6-0.7-2.5-2.4-2.2-4.1l6.4-14.8
			C27.5,59.1,29.3,58.6,30.9,59.3z"/>
	</g>
	<g>
		<path fill="#B2B2B2" d="M135.3,71.1c0,0,0.1,0,0.1-0.1c0,0,0.1,0,0.1-0.1L135.3,71.1z"/>
		<path fill="#B2B2B2" d="M143.4,88.4c0,0-0.1,0-0.1,0.1c0,0-0.1,0-0.1,0.1L143.4,88.4z"/>
		<path fill="#B2B2B2" d="M147.9,86.5c0,0-0.1,0-0.1,0.1c0,0-0.1,0-0.1,0.1L147.9,86.5z"/>
		<path fill="#B2B2B2" d="M139.8,69.1c0,0,0.1,0,0.1-0.1c0,0,0.1,0,0.1-0.1L139.8,69.1z"/>
		<path fill="#B2B2B2" d="M144.3,67.1c0,0,0.1,0,0.1-0.1c0,0,0.1,0,0.1-0.1L144.3,67.1z"/>
		<path fill="#B2B2B2" d="M152.4,84.5c0,0-0.1,0-0.1,0.1c0,0-0.1,0-0.1,0.1L152.4,84.5z"/>
		<path fill="#B2B2B2" d="M148.7,65.1c0,0,0.1,0,0.1-0.1c0,0,0.1,0,0.1-0.1L148.7,65.1z"/>
		<path fill="#B2B2B2" d="M156.8,82.5c0,0-0.1,0-0.1,0.1c0,0-0.1,0-0.1,0.1L156.8,82.5z"/>
		<path fill="#B2B2B2" d="M153.2,63.1c0,0,0.1,0,0.1-0.1c0,0,0.1,0,0.1-0.1L153.2,63.1z"/>
		<path fill="#B2B2B2" d="M161.3,80.5c0,0-0.1,0-0.1,0.1c0,0-0.1,0-0.1,0.1L161.3,80.5z"/>
		<path fill="#B2B2B2" d="M157.7,61.1c0,0,0.1,0,0.1-0.1c0,0,0.1,0,0.1-0.1L157.7,61.1z"/>
		<path fill="#B2B2B2" d="M165.8,78.5c0,0-0.1,0-0.1,0.1c0,0-0.1,0-0.1,0.1L165.8,78.5z"/>
		<path fill="#B2B2B2" d="M109.4,82.7c0,0,0.1,0,0.1-0.1c0,0,0.1,0,0.1-0.1L109.4,82.7z"/>
		<path fill="#B2B2B2" d="M117.5,100c0,0-0.1,0-0.1,0.1c0,0-0.1,0-0.1,0.1L117.5,100z"/>
		<path fill="#B2B2B2" d="M107.1,89.2l3.7,8.3c1.1,2.5,4,3.6,6.5,2.6c0.8-0.4,1.5-1,1.9-1.7c0.8,0.1,1.7,0,2.5-0.3
			c0.8-0.4,1.5-1,1.9-1.7c0.8,0.1,1.7,0,2.5-0.3c0.8-0.4,1.5-1,1.9-1.7c0.8,0.1,1.7,0,2.5-0.3c0.8-0.4,1.5-1,1.9-1.7
			c0.8,0.1,1.7,0,2.5-0.3c0.8-0.4,1.5-1,1.9-1.7c0.8,0.1,1.7,0,2.5-0.3c0.6-0.3,1.2-0.7,1.6-1.2c0.7,0,1.4-0.1,2-0.4
			c0.8-0.4,1.5-1,1.9-1.7c0.8,0.1,1.7,0,2.5-0.3c0.8-0.4,1.5-1,1.9-1.7c0.8,0.1,1.7,0,2.5-0.3c0.8-0.4,1.5-1,1.9-1.7
			c0.8,0.1,1.7,0,2.5-0.3c0.8-0.4,1.5-1,1.9-1.7c0.8,0.1,1.7,0,2.5-0.3c0.8-0.4,1.5-1,1.9-1.7c0.8,0.1,1.7,0,2.5-0.3
			c2.4-1.2,3.5-4.1,2.4-6.6l-3.7-8.3c-1.1-2.5-4-3.6-6.5-2.6c-0.8,0.4-1.5,1-1.9,1.7c-0.8-0.1-1.7,0-2.5,0.3c-0.8,0.4-1.5,1-1.9,1.7
			c-0.8-0.1-1.7,0-2.5,0.3c-0.8,0.4-1.5,1-1.9,1.7c-0.8-0.1-1.7,0-2.5,0.3c-0.8,0.4-1.5,1-1.9,1.7c-0.8-0.1-1.7,0-2.5,0.3
			c-0.8,0.4-1.5,1-1.9,1.7c-0.8-0.1-1.7,0-2.5,0.3c-0.6,0.3-1.2,0.7-1.6,1.2c-0.7,0-1.4,0.1-2,0.4c-0.8,0.4-1.5,1-1.9,1.7
			c-0.8-0.1-1.7,0-2.5,0.3c-0.8,0.4-1.5,1-1.9,1.7c-0.8-0.1-1.7,0-2.5,0.3c-0.8,0.4-1.5,1-1.9,1.7c-0.8-0.1-1.7,0-2.5,0.3
			c-0.8,0.4-1.5,1-1.9,1.7c-0.8-0.1-1.7,0-2.5,0.3c-0.8,0.4-1.5,1-1.9,1.7c-0.8-0.1-1.7,0-2.5,0.3C107.1,83.8,106,86.7,107.1,89.2z"
			/>
		<path fill="#B2B2B2" d="M121.9,98.1c0,0-0.1,0-0.1,0.1c0,0-0.1,0-0.1,0.1L121.9,98.1z"/>
		<path fill="#B2B2B2" d="M113.9,80.7c0,0,0.1,0,0.1-0.1c0,0,0.1,0,0.1-0.1L113.9,80.7z"/>
		<path fill="#B2B2B2" d="M118.3,78.7c0,0,0.1,0,0.1-0.1c0,0,0.1,0,0.1-0.1L118.3,78.7z"/>
		<path fill="#B2B2B2" d="M126.4,96.1c0,0-0.1,0-0.1,0.1c0,0-0.1,0-0.1,0.1L126.4,96.1z"/>
		<path fill="#B2B2B2" d="M122.8,76.7c0,0,0.1,0,0.1-0.1c0,0,0.1,0,0.1-0.1L122.8,76.7z"/>
		<path fill="#B2B2B2" d="M130.9,94.1c0,0-0.1,0-0.1,0.1c0,0-0.1,0-0.1,0.1L130.9,94.1z"/>
		<path fill="#B2B2B2" d="M127.3,74.7c0,0,0.1,0,0.1-0.1c0,0,0.1,0,0.1-0.1L127.3,74.7z"/>
		<path fill="#B2B2B2" d="M135.3,92.1c0,0-0.1,0-0.1,0.1c0,0-0.1,0-0.1,0.1L135.3,92.1z"/>
		<path fill="#B2B2B2" d="M131.7,72.7c0,0,0.1,0,0.1-0.1c0,0,0.1,0,0.1-0.1L131.7,72.7z"/>
		<path fill="#B2B2B2" d="M139.8,90.1c0,0-0.1,0-0.1,0.1c0,0-0.1,0-0.1,0.1L139.8,90.1z"/>
	</g>
	<g>
		<path fill="#B2B2B2" d="M55,105c0-0.2,0-0.5,0-0.7c0-0.2,0-0.4,0-0.7L55,105z"/>
		<path fill="#B2B2B2" d="M143.1,102.4c0,0.2,0,0.5,0,0.7c0,0.2,0,0.4,0,0.7L143.1,102.4z"/>
		<path fill="#B2B2B2" d="M135,86.4c-2.1-8.5-9.9-14.7-19-14.6l-34.9,0.5c-9.1,0.1-16.7,6.6-18.6,15.1c-4.6,4.2-7.5,10.2-7.6,16.8
			c0.3,7.3,4,13.8,9.6,17.8c3.3,6.3,9.9,10.6,17.5,10.5l34.9-0.5c7.6-0.1,14.1-4.6,17.2-11c5.4-4.2,8.9-10.7,9-18.1
			C142.8,96.4,139.8,90.5,135,86.4z"/>
	</g>
	<g>
		<path fill="#B2B2B2" d="M55,105c0-0.2,0-0.5,0-0.7c0-0.2,0-0.4,0-0.7L55,105z"/>
		<path fill="#B2B2B2" d="M143.1,102.4c0,0.2,0,0.5,0,0.7c0,0.2,0,0.4,0,0.7L143.1,102.4z"/>
		<path fill="#B2B2B2" d="M135,86.4c-2.1-8.5-9.9-14.7-19-14.6l-34.9,0.5c-9.1,0.1-16.7,6.6-18.6,15.1c-4.6,4.2-7.5,10.2-7.6,16.8
			c0.3,7.3,4,13.8,9.6,17.8c3.3,6.3,9.9,10.6,17.5,10.5l34.9-0.5c7.6-0.1,14.1-4.6,17.2-11c5.4-4.2,8.9-10.7,9-18.1
			C142.8,96.4,139.8,90.5,135,86.4z"/>
	</g>
	<path fill="#8C8C8C" d="M135.3,86.4c-2.1-8.5-9.9-14.7-19-14.6l-4.3,0.1c9.1-0.1,16.9,6.1,19,14.6c4.7,4,7.8,9.9,8.1,16.6
		c0-0.2,0-0.4,0-0.7l0,1.4c0-0.2,0-0.5,0-0.7c-0.1,7.3-3.6,13.9-9,18.1c-3.1,6.4-9.6,10.9-17.2,11l4.3-0.1c7.6-0.1,14.1-4.6,17.2-11
		c5.4-4.2,8.9-10.7,9-18.1C143.1,96.4,140,90.5,135.3,86.4z"/>
	<path fill="#C1C1C1" d="M62.7,87.5c1.9-8.6,9.5-15,18.6-15.1l4.3-0.1c-9.1,0.1-16.7,6.6-18.6,15.1c-4.6,4.2-7.5,10.2-7.6,16.8
		c0-0.2,0-0.4,0-0.7l0,1.4c0-0.2,0-0.5,0-0.7c0.3,7.3,4,13.8,9.6,17.8c3.3,6.3,9.9,10.6,17.5,10.5l-4.3,0.1
		c-7.6,0.1-14.2-4.2-17.5-10.5c-5.5-4-9.2-10.5-9.6-17.8C55.2,97.6,58.1,91.7,62.7,87.5z"/>
	<path fill="#B2B2B2" d="M65.5,58.3l0.7,0c2.1,3.2,4.7,6,7.6,8.4l48.3-0.7c2.9-2.5,5.3-5.4,7.3-8.6l0.7,0c4-0.1,7.1-3.3,7.1-7.3
		l-0.4-26c-0.1-4-3.3-7.1-7.3-7.1l-0.7,0C122,6.7,110.3,0,97,0.1S72.1,7.4,65.6,17.9l-0.7,0c-4,0.1-7.1,3.3-7.1,7.3l0.4,26
		C58.3,55.2,61.6,58.3,65.5,58.3z"/>
	<path fill="#8C8C8C" d="M129.5,17l-0.7,0C122,6.7,110.3,0,97,0.1c-0.9,0-1.8,0.1-2.7,0.1C106.4,1,117,7.5,123.4,17.1l0.7,0
		c4-0.1,7.2,3.1,7.3,7.1l0.4,26c0.1,4-3.1,7.2-7.1,7.3l-0.7,0c-2,3.2-4.5,6.1-7.3,8.6l5.5-0.1c2.9-2.5,5.3-5.4,7.3-8.6l0.7,0
		c4-0.1,7.1-3.3,7.1-7.3l-0.4-26C136.7,20.1,133.5,16.9,129.5,17z"/>
	<path fill="#C1C1C1" d="M65,17.9l0.7,0C72.1,7.4,83.7,0.3,97,0.1c0.9,0,1.8,0,2.7,0.1c-12.1,1-22.6,7.8-28.6,17.6l-0.7,0
		c-4,0.1-7.1,3.3-7.1,7.3l0.4,26c0.1,4,3.3,7.1,7.3,7.1l0.7,0c2.1,3.2,4.7,6,7.6,8.4l-5.5,0.1c-2.9-2.4-5.5-5.2-7.6-8.4l-0.7,0
		c-4,0.1-7.2-3.1-7.3-7.1l-0.4-26C57.8,21.2,61,18,65,17.9z"/>
	<path fill="#A3DAE3" d="M96.7,21.8c-25.9,0.4-28.5,10.5-28.5,10.5s0,0.5,0,1.3c0,1,0,2.4,0.1,3.9l0.1,7.2l0.1,3.9
		c0,0.8,0,1.3,0,1.3s0.4,10.1,30,9.7c25.9-0.4,28.5-10.5,28.5-10.5s0-0.5,0-1.3l-0.1-3.9l-0.1-7.2c0-1.6,0-3-0.1-3.9
		c0-0.8,0-1.3,0-1.3S126.2,21.4,96.7,21.8z"/>
	<path fill="#FFBE08" d="M122.1,74.6l-48,0.7c-2.4,0-4.3-1.8-4.3-4.2l0-0.1c0-2.4,1.8-4.3,4.2-4.3l48-0.7c2.4,0,4.3,1.8,4.3,4.2
		l0,0.1C126.4,72.6,124.5,74.6,122.1,74.6z"/>
	<path opacity="0.63" fill="#FFFFFF" d="M104.6,25.4c0,0,19.3,1.6,19.4,7.5c0.1,5.9,0.2,15,0.2,15s0,2.2-1.8,2.3
		s-9.6-21.7-16.4-21.6C99.1,28.7,101.7,25.1,104.6,25.4z"/>
	<g>
		<path d="M172.7,75.9c-1.1,0.5-2.5,0-3.1-1.1l-6.1-13c-0.5-1.1,0-2.5,1.1-3.1c1.1-0.5,2.5,0,3.1,1.1l6.1,13
			C174.3,73.9,173.8,75.3,172.7,75.9z"/>
		<path fill="#B2B2B2" d="M194.3,55.8c-1.8-3.8-6.3-5.4-10.1-3.7l-3.8,1.8l0.2-0.3c1.1-1.6,0.8-3.8-0.8-4.9c-1-0.7-2.4-0.9-3.5-0.3
			c-0.5,0.3-1,0.6-1.4,1.1l-6.4,8.9l6.8,14.6l15.3-7.1C194.4,64.1,196.1,59.6,194.3,55.8z"/>
		<path fill="#FFBE08" d="M164,57.4c-1.9,0.9-2.7,3.1-1.8,4.9l6.1,13c0.9,1.9,3.1,2.7,4.9,1.8c1.6-0.7,2.4-2.5,2.1-4.1l-6.8-14.6
			C167.5,57.1,165.6,56.6,164,57.4z"/>
	</g>
	<g>
		<g>
			<path fill="#B2B2B2" d="M96.9,136.6c0,0.1,0,0.1,0,0.2c0,0.1,0,0.1,0,0.2L96.9,136.6z"/>
			<path fill="#B2B2B2" d="M70.4,137.4c0-0.1,0-0.1,0-0.2c0-0.1,0-0.1,0-0.2L70.4,137.4z"/>
			<path fill="#B2B2B2" d="M96.9,136.8c-0.2-3.8-3.3-6.7-7.1-6.7l-12.6,0.2c-3.8,0.1-6.8,3.1-6.9,6.9c0.1,1.2,0.4,2.4,1,3.4
				c-0.6,1-0.9,2.2-0.9,3.4c0.1,1.2,0.4,2.4,1,3.4c-0.6,1-0.9,2.2-0.9,3.4c0.1,1.2,0.4,2.4,1,3.4c-0.6,1-0.9,2.2-0.9,3.4
				c0.1,1.2,0.4,2.4,1,3.4c-0.6,1-0.9,2.2-0.9,3.4c0.1,1.2,0.4,2.4,1,3.4c-0.6,1-0.9,2.2-0.9,3.4c0.2,3.8,3.3,6.7,7.1,6.7l12.6-0.2
				c3.8-0.1,6.8-3.1,6.9-6.9c-0.1-1.2-0.4-2.4-1-3.4c0.6-1,0.9-2.2,0.9-3.4c-0.1-1.2-0.4-2.4-1-3.4c0.6-1,0.9-2.2,0.9-3.4
				c-0.1-1.2-0.4-2.4-1-3.4c0.6-1,0.9-2.2,0.9-3.4c-0.1-1.2-0.4-2.4-1-3.4c0.6-1,0.9-2.2,0.9-3.4c-0.1-1.2-0.4-2.4-1-3.4
				C96.6,139.2,96.9,138.1,96.9,136.8z"/>
			<path fill="#B2B2B2" d="M70.5,144.2c0-0.1,0-0.1,0-0.2c0-0.1,0-0.1,0-0.2L70.5,144.2z"/>
			<path fill="#B2B2B2" d="M97,143.4c0,0.1,0,0.1,0,0.2c0,0.1,0,0.1,0,0.2L97,143.4z"/>
			<path fill="#B2B2B2" d="M97.1,150.2c0,0.1,0,0.1,0,0.2c0,0.1,0,0.1,0,0.2L97.1,150.2z"/>
			<path fill="#B2B2B2" d="M70.6,151c0-0.1,0-0.1,0-0.2c0-0.1,0-0.1,0-0.2L70.6,151z"/>
			<path fill="#B2B2B2" d="M97.2,157c0,0.1,0,0.1,0,0.2c0,0.1,0,0.1,0,0.2L97.2,157z"/>
			<path fill="#B2B2B2" d="M70.7,157.8c0-0.1,0-0.1,0-0.2c0-0.1,0-0.1,0-0.2L70.7,157.8z"/>
			<path fill="#B2B2B2" d="M97.3,163.8c0,0.1,0,0.1,0,0.2c0,0.1,0,0.1,0,0.2L97.3,163.8z"/>
			<path fill="#B2B2B2" d="M70.8,164.5c0-0.1,0-0.1,0-0.2c0-0.1,0-0.1,0-0.2L70.8,164.5z"/>
			<path fill="#B2B2B2" d="M97.4,170.5c0,0.1,0,0.1,0,0.2c0,0.1,0,0.1,0,0.2L97.4,170.5z"/>
			<path fill="#B2B2B2" d="M70.9,171.3c0-0.1,0-0.1,0-0.2c0-0.1,0-0.1,0-0.2L70.9,171.3z"/>
		</g>
		<path fill="#C1C1C1" d="M77.3,130.3l3.7-0.1c-3.8,0.1-6.8,3.1-6.9,6.9c0-0.1,0-0.1,0-0.2l0,0.4c0-0.1,0-0.1,0-0.2
			c0.1,1.2,0.4,2.4,1,3.4c-0.6,1-0.9,2.2-0.9,3.4c0-0.1,0-0.1,0-0.2l0,0.4c0-0.1,0-0.1,0-0.2c0.1,1.2,0.4,2.4,1,3.4
			c-0.6,1-0.9,2.2-0.9,3.4c0-0.1,0-0.1,0-0.2l0,0.4c0-0.1,0-0.1,0-0.2c0.1,1.2,0.4,2.4,1,3.4c-0.6,1-0.9,2.2-0.9,3.4
			c0-0.1,0-0.1,0-0.2l0,0.4c0-0.1,0-0.1,0-0.2c0.1,1.2,0.4,2.4,1,3.4c-0.6,1-0.9,2.2-0.9,3.4c0-0.1,0-0.1,0-0.2l0,0.4
			c0-0.1,0-0.1,0-0.2c0.1,1.2,0.4,2.4,1,3.4c-0.6,1-0.9,2.2-0.9,3.4c0-0.1,0-0.1,0-0.2l0,0.4c0-0.1,0-0.1,0-0.2
			c0.2,3.8,3.3,6.7,7.1,6.7l-3.7,0.1c-3.8,0.1-6.9-2.9-7.1-6.7c0-1.2,0.4-2.4,0.9-3.4c-0.6-1-1-2.1-1-3.4c0-1.2,0.4-2.4,0.9-3.4
			c-0.6-1-1-2.1-1-3.4c0-1.2,0.4-2.4,0.9-3.4c-0.6-1-1-2.1-1-3.4c0-1.2,0.4-2.4,0.9-3.4c-0.6-1-1-2.1-1-3.4c0-1.2,0.4-2.4,0.9-3.4
			c-0.6-1-1-2.1-1-3.4C70.5,133.4,73.5,130.4,77.3,130.3z"/>
		<path fill="#8C8C8C" d="M96.3,134.2l-3.7,0.1c0.4,0.8,0.6,1.7,0.6,2.6c0-0.1,0-0.1,0-0.2l0,0.4c0-0.1,0-0.1,0-0.2
			c0,1.2-0.4,2.4-0.9,3.4c0.6,1,1,2.1,1,3.4c0-0.1,0-0.1,0-0.2l0,0.4c0-0.1,0-0.1,0-0.2c0,1.2-0.4,2.4-0.9,3.4c0.6,1,1,2.1,1,3.4
			c0-0.1,0-0.1,0-0.2l0,0.4c0-0.1,0-0.1,0-0.2c0,1.2-0.4,2.4-0.9,3.4c0.6,1,1,2.1,1,3.4c0-0.1,0-0.1,0-0.2l0,0.4c0-0.1,0-0.1,0-0.2
			c0,1.2-0.4,2.4-0.9,3.4c0.6,1,1,2.1,1,3.4c0-0.1,0-0.1,0-0.2l0,0.4c0-0.1,0-0.1,0-0.2c0,1.2-0.4,2.4-0.9,3.4c0.6,1,1,2.1,1,3.4
			c0-0.1,0-0.1,0-0.2l0,0.4c0-0.1,0-0.1,0-0.2c-0.1,3.8-3.1,6.8-6.9,6.9l3.7-0.1c3.8-0.1,6.8-3.1,6.9-6.9c-0.1-1.2-0.4-2.4-1-3.4
			c0.6-1,0.9-2.2,0.9-3.4c-0.1-1.2-0.4-2.4-1-3.4c0.6-1,0.9-2.2,0.9-3.4c-0.1-1.2-0.4-2.4-1-3.4c0.6-1,0.9-2.2,0.9-3.4
			c-0.1-1.2-0.4-2.4-1-3.4c0.6-1,0.9-2.2,0.9-3.4c-0.1-1.2-0.4-2.4-1-3.4c0.6-1,0.9-2.2,0.9-3.4C96.9,135.9,96.7,135,96.3,134.2z"/>
	</g>
	
		<rect x="92.6" y="166.2" transform="matrix(0.9999 -1.435587e-02 1.435587e-02 0.9999 -2.5073 1.3816)" fill="#8C8C8C" width="4.9" height="18.3"/>
	<g>
		<g>
			<path fill="#FFBE08" d="M97,189.4l-30.5,0.4c-1.5,0-2.7-1.1-2.7-2.4l0,0c0-1.3,1.2-2.5,2.7-2.5l30.5-0.4c1.5,0,2.7,1.1,2.7,2.4
				l0,0C99.7,188.2,98.5,189.3,97,189.4z"/>
			<g>
				<path fill="#FFBE08" d="M97,189.4l-35,0.5c-1.5,0-2.7-1.1-2.7-2.4l0,0c0-1.3,1.2-2.5,2.7-2.5l35-0.5c1.5,0,2.7,1.1,2.7,2.4l0,0
					C99.7,188.2,98.5,189.3,97,189.4z"/>
				<path fill="#B2B2B2" d="M62.3,184.9l35.1-0.5c0.1,0,0.1,0,0.2,0l-0.2-10.9l-29.2,0.4c-4.3,0.1-7.7,3.6-7.7,7.9
					c0,1.2,0.3,2.3,0.8,3.3C61.6,185,62,184.9,62.3,184.9z"/>
				
					<rect x="70.2" y="166.2" transform="matrix(0.9999 -1.435587e-02 1.435587e-02 0.9999 -2.4464 1.2201)" fill="#B2B2B2" width="27.2" height="9.7"/>
				<path fill="#FFBE08" d="M97.1,166.2l-27,0.4c-0.8,0-1.4-0.5-1.4-1.2l0,0c0-0.7,0.6-1.3,1.4-1.3l27-0.4c0.8,0,1.4,0.5,1.4,1.2
					l0,0C98.5,165.6,97.9,166.2,97.1,166.2z"/>
			</g>
		</g>
		<path fill="#C1C1C1" d="M67.8,174c-4.1,0.1-7.4,3.4-7.3,7.5c0,1.2,0.3,2.4,0.9,3.4l1.8,0c-0.1-0.5-0.2-1.1-0.2-1.7
			c-0.1-4.1,3.2-7.5,7.3-7.5c1.1,0,2.1,0.2,3,0.6C71.9,174.9,69.9,174,67.8,174z"/>
	</g>
	<g>
		<g>
			<path fill="#B2B2B2" d="M127.7,136.2c0,0.1,0,0.1,0,0.2c0,0.1,0,0.1,0,0.2L127.7,136.2z"/>
			<path fill="#B2B2B2" d="M101.1,137c0-0.1,0-0.1,0-0.2c0-0.1,0-0.1,0-0.2L101.1,137z"/>
			<path fill="#B2B2B2" d="M127.7,136.4c-0.2-3.8-3.3-6.7-7.1-6.7l-12.6,0.2c-3.8,0.1-6.8,3.1-6.9,6.9c0.1,1.2,0.4,2.4,1,3.4
				c-0.6,1-0.9,2.2-0.9,3.4c0.1,1.2,0.4,2.4,1,3.4c-0.6,1-0.9,2.2-0.9,3.4c0.1,1.2,0.4,2.4,1,3.4c-0.6,1-0.9,2.2-0.9,3.4
				c0.1,1.2,0.4,2.4,1,3.4c-0.6,1-0.9,2.2-0.9,3.4c0.1,1.2,0.4,2.4,1,3.4c-0.6,1-0.9,2.2-0.9,3.4c0.2,3.8,3.3,6.7,7.1,6.7l12.6-0.2
				c3.8-0.1,6.8-3.1,6.9-6.9c-0.1-1.2-0.4-2.4-1-3.4c0.6-1,0.9-2.2,0.9-3.4c-0.1-1.2-0.4-2.4-1-3.4c0.6-1,0.9-2.2,0.9-3.4
				c-0.1-1.2-0.4-2.4-1-3.4c0.6-1,0.9-2.2,0.9-3.4c-0.1-1.2-0.4-2.4-1-3.4c0.6-1,0.9-2.2,0.9-3.4c-0.1-1.2-0.4-2.4-1-3.4
				C127.3,138.8,127.6,137.6,127.7,136.4z"/>
			<path fill="#B2B2B2" d="M101.2,143.8c0-0.1,0-0.1,0-0.2c0-0.1,0-0.1,0-0.2L101.2,143.8z"/>
			<path fill="#B2B2B2" d="M127.8,143c0,0.1,0,0.1,0,0.2c0,0.1,0,0.1,0,0.2L127.8,143z"/>
			<path fill="#B2B2B2" d="M127.9,149.7c0,0.1,0,0.1,0,0.2c0,0.1,0,0.1,0,0.2L127.9,149.7z"/>
			<path fill="#B2B2B2" d="M101.3,150.5c0-0.1,0-0.1,0-0.2c0-0.1,0-0.1,0-0.2L101.3,150.5z"/>
			<path fill="#B2B2B2" d="M128,156.5c0,0.1,0,0.1,0,0.2c0,0.1,0,0.1,0,0.2L128,156.5z"/>
			<path fill="#B2B2B2" d="M101.4,157.3c0-0.1,0-0.1,0-0.2c0-0.1,0-0.1,0-0.2L101.4,157.3z"/>
			<path fill="#B2B2B2" d="M128.1,163.3c0,0.1,0,0.1,0,0.2c0,0.1,0,0.1,0,0.2L128.1,163.3z"/>
			<path fill="#B2B2B2" d="M101.5,164.1c0-0.1,0-0.1,0-0.2c0-0.1,0-0.1,0-0.2L101.5,164.1z"/>
			<path fill="#B2B2B2" d="M128.2,170.1c0,0.1,0,0.1,0,0.2c0,0.1,0,0.1,0,0.2L128.2,170.1z"/>
			<path fill="#B2B2B2" d="M101.6,170.9c0-0.1,0-0.1,0-0.2c0-0.1,0-0.1,0-0.2L101.6,170.9z"/>
		</g>
		<path fill="#C1C1C1" d="M108,129.9l3.7-0.1c-3.8,0.1-6.8,3.1-6.9,6.9c0-0.1,0-0.1,0-0.2l0,0.4c0-0.1,0-0.1,0-0.2
			c0.1,1.2,0.4,2.4,1,3.4c-0.6,1-0.9,2.2-0.9,3.4c0-0.1,0-0.1,0-0.2l0,0.4c0-0.1,0-0.1,0-0.2c0.1,1.2,0.4,2.4,1,3.4
			c-0.6,1-0.9,2.2-0.9,3.4c0-0.1,0-0.1,0-0.2l0,0.4c0-0.1,0-0.1,0-0.2c0.1,1.2,0.4,2.4,1,3.4c-0.6,1-0.9,2.2-0.9,3.4
			c0-0.1,0-0.1,0-0.2l0,0.4c0-0.1,0-0.1,0-0.2c0.1,1.2,0.4,2.4,1,3.4c-0.6,1-0.9,2.2-0.9,3.4c0-0.1,0-0.1,0-0.2l0,0.4
			c0-0.1,0-0.1,0-0.2c0.1,1.2,0.4,2.4,1,3.4c-0.6,1-0.9,2.2-0.9,3.4c0-0.1,0-0.1,0-0.2l0,0.4c0-0.1,0-0.1,0-0.2
			c0.2,3.8,3.3,6.7,7.1,6.7l-3.7,0.1c-3.8,0.1-6.9-2.9-7.1-6.7c0-1.2,0.4-2.4,0.9-3.4c-0.6-1-1-2.1-1-3.4c0-1.2,0.4-2.4,0.9-3.4
			c-0.6-1-1-2.1-1-3.4c0-1.2,0.4-2.4,0.9-3.4c-0.6-1-1-2.1-1-3.4c0-1.2,0.4-2.4,0.9-3.4c-0.6-1-1-2.1-1-3.4c0-1.2,0.4-2.4,0.9-3.4
			c-0.6-1-1-2.1-1-3.4C101.2,133,104.2,129.9,108,129.9z"/>
		<path fill="#8C8C8C" d="M127,133.7l-3.7,0.1c0.4,0.8,0.6,1.7,0.6,2.6c0-0.1,0-0.1,0-0.2l0,0.4c0-0.1,0-0.1,0-0.2
			c0,1.2-0.4,2.4-0.9,3.4c0.6,1,1,2.1,1,3.4c0-0.1,0-0.1,0-0.2l0,0.4c0-0.1,0-0.1,0-0.2c0,1.2-0.4,2.4-0.9,3.4c0.6,1,1,2.1,1,3.4
			c0-0.1,0-0.1,0-0.2l0,0.4c0-0.1,0-0.1,0-0.2c0,1.2-0.4,2.4-0.9,3.4c0.6,1,1,2.1,1,3.4c0-0.1,0-0.1,0-0.2l0,0.4c0-0.1,0-0.1,0-0.2
			c0,1.2-0.4,2.4-0.9,3.4c0.6,1,1,2.1,1,3.4c0-0.1,0-0.1,0-0.2l0,0.4c0-0.1,0-0.1,0-0.2c0,1.2-0.4,2.4-0.9,3.4c0.6,1,1,2.1,1,3.4
			c0-0.1,0-0.1,0-0.2l0,0.4c0-0.1,0-0.1,0-0.2c-0.1,3.8-3.1,6.8-6.9,6.9l3.7-0.1c3.8-0.1,6.8-3.1,6.9-6.9c-0.1-1.2-0.4-2.4-1-3.4
			c0.6-1,0.9-2.2,0.9-3.4c-0.1-1.2-0.4-2.4-1-3.4c0.6-1,0.9-2.2,0.9-3.4c-0.1-1.2-0.4-2.4-1-3.4c0.6-1,0.9-2.2,0.9-3.4
			c-0.1-1.2-0.4-2.4-1-3.4c0.6-1,0.9-2.2,0.9-3.4c-0.1-1.2-0.4-2.4-1-3.4c0.6-1,0.9-2.2,0.9-3.4C127.6,135.4,127.4,134.6,127,133.7z
			"/>
	</g>
	<g>
		<g>
			<path fill="#FFBE08" d="M102.2,189.3l30.5-0.4c1.5,0,2.7-1.1,2.7-2.5l0,0c0-1.3-1.2-2.4-2.7-2.4l-30.5,0.4
				c-1.5,0-2.7,1.1-2.7,2.5l0,0C99.5,188.2,100.7,189.3,102.2,189.3z"/>
			<g>
				<path fill="#FFBE08" d="M102.2,189.3l35-0.5c1.5,0,2.7-1.1,2.7-2.5l0,0c0-1.3-1.2-2.4-2.7-2.4l-35,0.5c-1.5,0-2.7,1.1-2.7,2.5
					l0,0C99.5,188.2,100.7,189.3,102.2,189.3z"/>
				<path fill="#B2B2B2" d="M136.7,183.8l-35.1,0.5c-0.1,0-0.1,0-0.2,0l-0.2-10.9l29.2-0.4c4.3-0.1,7.8,3.4,7.9,7.7
					c0,1.2-0.2,2.3-0.7,3.4C137.4,183.9,137.1,183.8,136.7,183.8z"/>
				
					<rect x="101.3" y="165.7" transform="matrix(-0.9999 1.435579e-02 -1.435579e-02 -0.9999 232.2068 339.4659)" fill="#B2B2B2" width="27.2" height="9.7"/>
				<path fill="#FFBE08" d="M101.4,166.1l27-0.4c0.8,0,1.4-0.6,1.4-1.3l0,0c0-0.7-0.6-1.3-1.4-1.2l-27,0.4c-0.8,0-1.4,0.6-1.4,1.3
					l0,0C100,165.6,100.7,166.1,101.4,166.1z"/>
			</g>
		</g>
		<path fill="#C1C1C1" d="M130.9,173.1c4.1-0.1,7.5,3.2,7.5,7.3c0,1.2-0.3,2.4-0.8,3.4l-1.8,0c0.1-0.5,0.2-1.1,0.2-1.7
			c-0.1-4.1-3.4-7.4-7.5-7.3c-1.1,0-2.1,0.3-3,0.7C126.9,174.1,128.8,173.2,130.9,173.1z"/>
	</g>
</g>
</svg>
