<?xml version="1.0" encoding="utf-8"?>
<!-- Generator: Adobe Illustrator 17.1.0, SVG Export Plug-In . SVG Version: 6.00 Build 0)  -->
<!DOCTYPE svg PUBLIC "-//W3C//DTD SVG 1.1//EN" "http://www.w3.org/Graphics/SVG/1.1/DTD/svg11.dtd">
<svg version="1.1" id="Layer_1" xmlns="http://www.w3.org/2000/svg" xmlns:xlink="http://www.w3.org/1999/xlink" x="0px" y="0px"
	 viewBox="0 0 291 384" enable-background="new 0 0 291 384" xml:space="preserve">
<g>
	<g>
		<g>
			<path fill="#B2B2B2" d="M183.6,231.5c0,0,0.1-0.1,0.1-0.1c0,0,0.1-0.1,0.1-0.1L183.6,231.5z"/>
			<path fill="#B2B2B2" d="M200.2,249.7c0,0-0.1,0.1-0.1,0.1c0,0-0.1,0.1-0.1,0.1L200.2,249.7z"/>
			<path fill="#B2B2B2" d="M204.9,245.5c0,0-0.1,0.1-0.1,0.1c0,0-0.1,0.1-0.1,0.1L204.9,245.5z"/>
			<path fill="#B2B2B2" d="M188.3,227.3c0,0,0.1-0.1,0.1-0.1c0,0,0.1-0.1,0.1-0.1L188.3,227.3z"/>
			<path fill="#B2B2B2" d="M193,223.1c0,0,0.1-0.1,0.1-0.1c0,0,0.1-0.1,0.1-0.1L193,223.1z"/>
			<path fill="#B2B2B2" d="M209.6,241.3c0,0-0.1,0.1-0.1,0.1c0,0-0.1,0.1-0.1,0.1L209.6,241.3z"/>
			<path fill="#B2B2B2" d="M197.7,219c0,0,0.1-0.1,0.1-0.1c0,0,0.1-0.1,0.1-0.1L197.7,219z"/>
			<path fill="#B2B2B2" d="M214.3,237.1c0,0-0.1,0.1-0.1,0.1c0,0-0.1,0.1-0.1,0.1L214.3,237.1z"/>
			<path fill="#B2B2B2" d="M202.4,214.8c0,0,0.1-0.1,0.1-0.1c0,0,0.1-0.1,0.1-0.1L202.4,214.8z"/>
			<path fill="#B2B2B2" d="M219,233c0,0-0.1,0.1-0.1,0.1c0,0-0.1,0.1-0.1,0.1L219,233z"/>
			<path fill="#B2B2B2" d="M207.1,210.6c0,0,0.1-0.1,0.1-0.1c0,0,0.1-0.1,0.1-0.1L207.1,210.6z"/>
			<path fill="#B2B2B2" d="M223.7,228.8c0,0-0.1,0.1-0.1,0.1c0,0-0.1,0.1-0.1,0.1L223.7,228.8z"/>
			<path fill="#B2B2B2" d="M156.2,255.8c0,0,0.1-0.1,0.1-0.1c0,0,0.1-0.1,0.1-0.1L156.2,255.8z"/>
			<path fill="#B2B2B2" d="M172.8,273.9c0,0-0.1,0.1-0.1,0.1c0,0-0.1,0.1-0.1,0.1L172.8,273.9z"/>
			<path fill="#B2B2B2" d="M155.9,264.7l7.7,8.7c2.3,2.6,6.3,2.9,9,0.7c0.8-0.8,1.4-1.7,1.7-2.8c1.1-0.2,2.1-0.7,3-1.4
				c0.8-0.8,1.4-1.7,1.7-2.8c1.1-0.2,2.1-0.7,3-1.4c0.8-0.8,1.4-1.7,1.7-2.8c1.1-0.2,2.1-0.7,3-1.4c0.8-0.8,1.4-1.7,1.7-2.8
				c1.1-0.2,2.1-0.7,3-1.4c0.8-0.8,1.4-1.7,1.7-2.8c1.1-0.2,2.1-0.7,3-1.4c0.7-0.6,1.2-1.4,1.5-2.2c0.8-0.2,1.6-0.7,2.3-1.2
				c0.8-0.8,1.4-1.7,1.7-2.8c1.1-0.2,2.1-0.7,3-1.4c0.8-0.8,1.4-1.7,1.7-2.8c1.1-0.2,2.1-0.7,3-1.4c0.8-0.8,1.4-1.7,1.7-2.8
				c1.1-0.2,2.1-0.7,3-1.4c0.8-0.8,1.4-1.7,1.7-2.8c1.1-0.2,2.1-0.7,3-1.4c0.8-0.8,1.4-1.7,1.7-2.8c1.1-0.2,2.1-0.7,3-1.4
				c2.5-2.4,2.7-6.4,0.4-9l-7.7-8.7c-2.3-2.6-6.3-2.9-9-0.7c-0.8,0.8-1.4,1.7-1.7,2.8c-1.1,0.2-2.1,0.7-3,1.4
				c-0.8,0.8-1.4,1.7-1.7,2.8c-1.1,0.2-2.1,0.7-3,1.4c-0.8,0.8-1.4,1.7-1.7,2.8c-1.1,0.2-2.1,0.7-3,1.4c-0.8,0.8-1.4,1.7-1.7,2.8
				c-1.1,0.2-2.1,0.7-3,1.4c-0.8,0.8-1.4,1.7-1.7,2.8c-1.1,0.2-2.1,0.7-3,1.4c-0.7,0.6-1.2,1.4-1.5,2.2c-0.8,0.2-1.6,0.7-2.3,1.2
				c-0.8,0.8-1.4,1.7-1.7,2.8c-1.1,0.2-2.1,0.7-3,1.4c-0.8,0.8-1.4,1.7-1.7,2.8c-1.1,0.2-2.1,0.7-3,1.4c-0.8,0.8-1.4,1.7-1.7,2.8
				c-1.1,0.2-2.1,0.7-3,1.4c-0.8,0.8-1.4,1.7-1.7,2.8c-1.1,0.2-2.1,0.7-3,1.4c-0.8,0.8-1.4,1.7-1.7,2.8c-1.1,0.2-2.1,0.7-3,1.4
				C153.8,258,153.6,262,155.9,264.7z"/>
			<path fill="#B2B2B2" d="M177.5,269.8c0,0-0.1,0.1-0.1,0.1c0,0-0.1,0.1-0.1,0.1L177.5,269.8z"/>
			<path fill="#B2B2B2" d="M160.9,251.6c0,0,0.1-0.1,0.1-0.1c0,0,0.1-0.1,0.1-0.1L160.9,251.6z"/>
			<path fill="#B2B2B2" d="M165.6,247.4c0,0,0.1-0.1,0.1-0.1c0,0,0.1-0.1,0.1-0.1L165.6,247.4z"/>
			<path fill="#B2B2B2" d="M182.3,265.6c0,0-0.1,0.1-0.1,0.1c0,0-0.1,0.1-0.1,0.1L182.3,265.6z"/>
			<path fill="#B2B2B2" d="M170.3,243.2c0,0,0.1-0.1,0.1-0.1c0,0,0.1-0.1,0.1-0.1L170.3,243.2z"/>
			<path fill="#B2B2B2" d="M187,261.4c0,0-0.1,0.1-0.1,0.1c0,0-0.1,0.1-0.1,0.1L187,261.4z"/>
			<path fill="#B2B2B2" d="M175,239.1c0,0,0.1-0.1,0.1-0.1c0,0,0.1-0.1,0.1-0.1L175,239.1z"/>
			<path fill="#B2B2B2" d="M191.7,257.2c0,0-0.1,0.1-0.1,0.1c0,0-0.1,0.1-0.1,0.1L191.7,257.2z"/>
			<path fill="#B2B2B2" d="M179.7,234.9c0,0,0.1-0.1,0.1-0.1c0,0,0.1-0.1,0.1-0.1L179.7,234.9z"/>
			<path fill="#B2B2B2" d="M196.4,253.1c0,0-0.1,0.1-0.1,0.1c0,0-0.1,0.1-0.1,0.1L196.4,253.1z"/>
		</g>
		<g>
			<path d="M231.2,222.9c-1.2,1.1-3.1,1-4.2-0.2l-12.5-13.7c-1.1-1.2-1-3.1,0.2-4.2c1.2-1.1,3.1-1,4.2,0.2l12.5,13.7
				C232.5,219.9,232.4,221.8,231.2,222.9z"/>
			<path fill="#B2B2B2" d="M250,189.9c-3.6-4-9.8-4.2-13.8-0.6l-4,3.7l0.2-0.5c0.8-2.4-0.5-4.9-2.9-5.7c-1.6-0.5-3.3-0.1-4.5,1
				c-0.6,0.5-1,1.2-1.2,1.9l-4.4,13.4l14,15.3l16-14.7C253.3,200.1,253.6,193.9,250,189.9z"/>
			<path fill="#FFBE08" d="M213.4,203.5c-1.9,1.8-2.1,4.8-0.3,6.8l12.5,13.7c1.8,1.9,4.8,2.1,6.7,0.3c1.7-1.5,2-4,0.9-5.8l-14-15.3
				C217.6,201.9,215.1,202,213.4,203.5z"/>
		</g>
	</g>
	<g>
		<path fill="#A3DAE3" d="M209,174.9l-8.1,3.9l0.6,44.4l4.1,4.2c6.5-7.9,10.4-18.1,10.3-29.2C215.8,189.7,213.3,181.7,209,174.9z"/>
		<g>
			<path fill="#C1C1C1" d="M200.9,178.8l8.1-3.9c-8.1-12.8-22.5-21.3-38.7-21.1c-24.9,0.3-44.8,20.8-44.5,45.6
				c0.2,14.9,7.6,28,18.8,36.1l53.3-0.7c2.8-2.1,5.4-4.6,7.6-7.3l-4.1-4.2L200.9,178.8z"/>
			<path fill="#C1C1C1" d="M200.9,178.8l8.1-3.9c-8.1-12.8-22.5-21.3-38.7-21.1c-24.9,0.3-44.8,20.8-44.5,45.6
				c0.2,14.9,7.6,28,18.8,36.1l53.3-0.7c2.8-2.1,5.4-4.6,7.6-7.3l-4.1-4.2L200.9,178.8z"/>
			<path fill="#8C8C8C" d="M141.1,199.3c-0.3-22.3,15.7-41,36.9-44.9c-2.5-0.4-5.1-0.6-7.7-0.6c-24.9,0.3-44.8,20.8-44.5,45.6
				c0.2,14.9,7.6,28,18.8,36.1l15.3-0.2C148.7,227.3,141.3,214.1,141.1,199.3z"/>
			<path fill="#8C8C8C" d="M184.9,225.5l-31.9,0.4c-4,0.1-7.4-5-7.5-11.3l-0.4-29.8c-0.1-6.3,3.1-11.5,7.2-11.5l31.9-0.4
				c4-0.1,7.4,5,7.5,11.3L192,214C192.1,220.3,188.9,225.4,184.9,225.5z"/>
			<path fill="#FFBE08" d="M197.3,242.4l-51,1.4c-2.5,0.1-4.6-1.9-4.6-4.4l0-0.1c-0.1-2.5,1.9-4.6,4.4-4.6l51-1.4
				c2.5-0.1,4.6,1.9,4.6,4.4l0,0.1C201.7,240.3,199.8,242.4,197.3,242.4z"/>
			<g>
				
					<rect x="149" y="179.8" transform="matrix(0.9999 -1.292585e-02 1.292585e-02 0.9999 -2.328 2.1912)" fill="#C1C1C1" width="38.6" height="2.7"/>
				
					<rect x="149.1" y="185.9" transform="matrix(0.9999 -1.292585e-02 1.292585e-02 0.9999 -2.4063 2.1927)" fill="#C1C1C1" width="38.6" height="2.7"/>
				
					<rect x="149.2" y="192" transform="matrix(0.9999 -1.292585e-02 1.292585e-02 0.9999 -2.4846 2.1942)" fill="#C1C1C1" width="38.6" height="2.7"/>
				
					<rect x="149.3" y="198" transform="matrix(0.9999 -1.292585e-02 1.292585e-02 0.9999 -2.5628 2.1958)" fill="#C1C1C1" width="38.6" height="2.7"/>
				
					<rect x="149.4" y="204.1" transform="matrix(0.9999 -1.292585e-02 1.292585e-02 0.9999 -2.6411 2.1973)" fill="#C1C1C1" width="38.6" height="2.7"/>
				
					<rect x="149.4" y="210.1" transform="matrix(0.9999 -1.292585e-02 1.292585e-02 0.9999 -2.7194 2.1988)" fill="#C1C1C1" width="38.6" height="2.7"/>
				
					<rect x="149.5" y="216.2" transform="matrix(0.9999 -1.292585e-02 1.292585e-02 0.9999 -2.7977 2.2003)" fill="#C1C1C1" width="38.6" height="2.7"/>
			</g>
			<polygon fill="#606060" points="184.3,185.7 152.5,186.1 149.1,182.8 187.7,182.3 			"/>
			<polygon fill="#606060" points="184.4,191.8 152.6,192.2 149.1,188.8 187.7,188.3 			"/>
			<polygon fill="#606060" points="184.5,197.8 152.6,198.2 149.2,194.9 187.8,194.4 			"/>
			<polygon fill="#606060" points="184.6,203.9 152.7,204.3 149.3,201 187.9,200.5 			"/>
			<polygon fill="#606060" points="184.6,209.9 152.8,210.3 149.4,207 188,206.5 			"/>
			<polygon fill="#606060" points="184.7,216 152.9,216.4 149.5,213.1 188.1,212.6 			"/>
			<polygon fill="#606060" points="184.8,222 153,222.5 149.5,219.1 188.1,218.6 			"/>
		</g>
	</g>
	<g>
		<polygon fill="#C1C1C1" points="290.8,302 286.9,303.9 143,8.2 146.9,6.3 		"/>
		
			<rect x="107.8" y="26" transform="matrix(-0.898 0.4401 -0.4401 -0.898 286.4998 55.9105)" fill="#C1C1C1" width="57.9" height="70.4"/>
		
			<rect x="73.6" y="33.9" transform="matrix(-0.898 0.4401 -0.4401 -0.898 259.2767 78.0839)" fill="#DE7E2B" width="93.9" height="70.4"/>
		<polygon fill="#BA5C15" points="102.6,139.1 135,123.2 104.2,60.4 62.9,58.2 		"/>
		
			<rect x="9.8" y="82.2" transform="matrix(-0.898 0.4401 -0.4401 -0.898 180.127 193.0882)" fill="#EF9754" width="115.7" height="70.4"/>
		<circle fill="#C1C1C1" cx="145" cy="7.3" r="6.8"/>
	</g>
	<path fill="#B2B2B2" d="M284.5,240.5c-1-5.3-6-8.8-11.3-7.9l-5.4,1l0.4-0.3c1.9-1.6,2.2-4.4,0.6-6.4c-1-1.3-2.7-1.9-4.3-1.6
		c-0.8,0.1-1.5,0.5-2.1,1l-10.9,9l3.7,20.4l21.4-3.8C281.9,250.9,285.4,245.8,284.5,240.5z"/>
	<g>
		<g>
			<g>
				<g>
					<path fill="#B2B2B2" d="M182.4,318.4c0.1,0.1,0.1,0.1,0.2,0.2c0.1,0.1,0.1,0.1,0.2,0.2L182.4,318.4z"/>
					<path fill="#B2B2B2" d="M206.5,294.1c-0.1-0.1-0.1-0.1-0.2-0.2c-0.1-0.1-0.1-0.1-0.2-0.2L206.5,294.1z"/>
					<path fill="#B2B2B2" d="M182.6,318.5c-3.4-3.5-3.4-9-0.1-12.5l11.2-11.7c3.4-3.5,8.9-3.7,12.5-0.4c1.1,1.1,1.9,2.5,2.3,3.9
						c1.5,0.3,2.9,1,4,2.1c1.1,1.1,1.9,2.5,2.3,3.9c1.5,0.3,2.9,1,4,2.1c1.1,1.1,1.9,2.5,2.3,3.9c1.5,0.3,2.9,1,4,2.1
						c1.1,1.1,1.9,2.5,2.3,3.9c1.5,0.3,2.9,1,4,2.1c1.1,1.1,1.9,2.5,2.3,3.9c1.5,0.3,2.9,1,4,2.1c3.4,3.5,3.4,9,0.1,12.5l-11.2,11.7
						c-3.4,3.5-8.9,3.7-12.5,0.4c-1.1-1.1-1.9-2.5-2.3-3.9c-1.5-0.3-2.9-1-4-2.1c-1.1-1.1-1.9-2.5-2.3-3.9c-1.5-0.3-2.9-1-4-2.1
						c-1.1-1.1-1.9-2.5-2.3-3.9c-1.5-0.3-2.9-1-4-2.1c-1.1-1.1-1.9-2.5-2.3-3.9c-1.5-0.3-2.9-1-4-2.1c-1.1-1.1-1.9-2.5-2.3-3.9
						C185.2,320.3,183.8,319.6,182.6,318.5z"/>
					<path fill="#B2B2B2" d="M212.8,300.2c-0.1-0.1-0.1-0.1-0.2-0.2c-0.1-0.1-0.1-0.1-0.2-0.2L212.8,300.2z"/>
					<path fill="#B2B2B2" d="M188.7,324.4c0.1,0.1,0.1,0.1,0.2,0.2c0.1,0.1,0.1,0.1,0.2,0.2L188.7,324.4z"/>
					<path fill="#B2B2B2" d="M195,330.5c0.1,0.1,0.1,0.1,0.2,0.2c0.1,0.1,0.1,0.1,0.2,0.2L195,330.5z"/>
					<path fill="#B2B2B2" d="M219.1,306.2c-0.1-0.1-0.1-0.1-0.2-0.2c-0.1-0.1-0.1-0.1-0.2-0.2L219.1,306.2z"/>
					<path fill="#B2B2B2" d="M201.3,336.5c0.1,0.1,0.1,0.1,0.2,0.2c0.1,0.1,0.1,0.1,0.2,0.2L201.3,336.5z"/>
					<path fill="#B2B2B2" d="M225.4,312.3c-0.1-0.1-0.1-0.1-0.2-0.2c-0.1-0.1-0.1-0.1-0.2-0.2L225.4,312.3z"/>
					<path fill="#B2B2B2" d="M207.6,342.6c0.1,0.1,0.1,0.1,0.2,0.2c0.1,0.1,0.1,0.1,0.2,0.2L207.6,342.6z"/>
					<path fill="#B2B2B2" d="M231.6,318.3c-0.1-0.1-0.1-0.1-0.2-0.2c-0.1-0.1-0.1-0.1-0.2-0.2L231.6,318.3z"/>
					<path fill="#B2B2B2" d="M213.8,348.6c0.1,0.1,0.1,0.1,0.2,0.2c0.1,0.1,0.1,0.1,0.2,0.2L213.8,348.6z"/>
					<path fill="#B2B2B2" d="M237.9,324.4c-0.1-0.1-0.1-0.1-0.2-0.2c-0.1-0.1-0.1-0.1-0.2-0.2L237.9,324.4z"/>
				</g>
				<path fill="#C1C1C1" d="M193.8,294.4l-3.3,3.5c3.4-3.5,8.9-3.7,12.5-0.4c-0.1-0.1-0.1-0.1-0.2-0.2l0.4,0.4
					c-0.1-0.1-0.1-0.1-0.2-0.2c1.1,1.1,1.9,2.5,2.3,3.9c1.5,0.3,2.9,1,4,2.1c-0.1-0.1-0.1-0.1-0.2-0.2l0.4,0.4
					c-0.1-0.1-0.1-0.1-0.2-0.2c1.1,1.1,1.9,2.5,2.3,3.9c1.5,0.3,2.9,1,4,2.1c-0.1-0.1-0.1-0.1-0.2-0.2l0.4,0.4
					c-0.1-0.1-0.1-0.1-0.2-0.2c1.1,1.1,1.9,2.5,2.3,3.9c1.5,0.3,2.9,1,4,2.1c-0.1-0.1-0.1-0.1-0.2-0.2l0.4,0.4
					c-0.1-0.1-0.1-0.1-0.2-0.2c1.1,1.1,1.9,2.5,2.3,3.9c1.5,0.3,2.9,1,4,2.1c-0.1-0.1-0.1-0.1-0.2-0.2l0.4,0.4
					c-0.1-0.1-0.1-0.1-0.2-0.2c1.1,1.1,1.9,2.5,2.3,3.9c1.5,0.3,2.9,1,4,2.1c-0.1-0.1-0.1-0.1-0.2-0.2l0.4,0.4
					c-0.1-0.1-0.1-0.1-0.2-0.2c3.4,3.5,3.4,9,0.1,12.5l3.3-3.5c3.4-3.5,3.3-9.1-0.1-12.5c-1.2-1.1-2.6-1.8-4-2.1
					c-0.4-1.4-1.1-2.8-2.3-3.9c-1.2-1.1-2.6-1.8-4-2.1c-0.4-1.4-1.1-2.8-2.3-3.9c-1.2-1.1-2.6-1.8-4-2.1c-0.4-1.4-1.1-2.8-2.3-3.9
					c-1.2-1.1-2.6-1.8-4-2.1c-0.4-1.4-1.1-2.8-2.3-3.9c-1.2-1.1-2.6-1.8-4-2.1c-0.4-1.4-1.1-2.8-2.3-3.9
					C202.7,290.7,197.2,290.8,193.8,294.4z"/>
				<path fill="#8C8C8C" d="M180.7,315.6l3.3-3.5c0.4,1.1,1.1,2.1,1.9,2.9c-0.1-0.1-0.1-0.1-0.2-0.2l0.4,0.4
					c-0.1-0.1-0.1-0.1-0.2-0.2c1.2,1.1,2.6,1.8,4,2.1c0.4,1.4,1.1,2.8,2.3,3.9c-0.1-0.1-0.1-0.1-0.2-0.2l0.4,0.4
					c-0.1-0.1-0.1-0.1-0.2-0.2c1.2,1.1,2.6,1.8,4,2.1c0.4,1.4,1.1,2.8,2.3,3.9c-0.1-0.1-0.1-0.1-0.2-0.2l0.4,0.4
					c-0.1-0.1-0.1-0.1-0.2-0.2c1.2,1.1,2.6,1.8,4,2.1c0.4,1.4,1.1,2.8,2.3,3.9c-0.1-0.1-0.1-0.1-0.2-0.2l0.4,0.4
					c-0.1-0.1-0.1-0.1-0.2-0.2c1.2,1.1,2.6,1.8,4,2.1c0.4,1.4,1.1,2.8,2.3,3.9c-0.1-0.1-0.1-0.1-0.2-0.2l0.4,0.4
					c-0.1-0.1-0.1-0.1-0.2-0.2c1.2,1.1,2.6,1.8,4,2.1c0.4,1.4,1.1,2.8,2.3,3.9c-0.1-0.1-0.1-0.1-0.2-0.2l0.4,0.4
					c-0.1-0.1-0.1-0.1-0.2-0.2c3.6,3.3,9.1,3.1,12.5-0.4l-3.3,3.5c-3.4,3.5-8.9,3.7-12.5,0.4c-1.1-1.1-1.9-2.5-2.3-3.9
					c-1.5-0.3-2.9-1-4-2.1c-1.1-1.1-1.9-2.5-2.3-3.9c-1.5-0.3-2.8-1-4-2.1c-1.1-1.1-1.9-2.5-2.3-3.9c-1.5-0.3-2.9-1-4-2.1
					c-1.1-1.1-1.9-2.5-2.3-3.9c-1.5-0.3-2.9-1-4-2.1c-1.1-1.1-1.9-2.5-2.3-3.9c-1.5-0.3-2.9-1-4-2.1
					C181.8,317.7,181.1,316.7,180.7,315.6z"/>
			</g>
			
				<rect x="217.4" y="338.8" transform="matrix(-0.6939 0.7201 -0.7201 -0.6939 625.9185 435.0616)" fill="#8C8C8C" width="6.2" height="23.5"/>
			<g>
				<g>
					<path fill="#FFBE08" d="M231.9,364.8l27.2-28.2c1.3-1.4,1.4-3.5,0.1-4.7l0,0c-1.3-1.2-3.3-1.1-4.7,0.3l-27.2,28.2
						c-1.3,1.4-1.4,3.5-0.1,4.7l0,0C228.5,366.3,230.5,366.2,231.9,364.8z"/>
					<g>
						<path fill="#FFBE08" d="M231.9,364.8l31.3-32.5c1.3-1.4,1.4-3.5,0.1-4.7l0,0c-1.3-1.2-3.3-1.1-4.7,0.3l-31.3,32.5
							c-1.3,1.4-1.4,3.5-0.1,4.7l0,0C228.5,366.3,230.5,366.2,231.9,364.8z"/>
						<path fill="#B2B2B2" d="M258.2,328.3l-31.3,32.5c-0.1,0.1-0.1,0.1-0.1,0.2l-10.1-9.7l26.1-27.1c3.8-4,10.2-4.1,14.1-0.3
							c1.1,1.1,1.9,2.3,2.4,3.7C258.9,327.7,258.5,328,258.2,328.3z"/>
						
							<rect x="208.8" y="330" transform="matrix(-0.6939 0.7201 -0.7201 -0.6939 625.4376 406.5932)" fill="#B2B2B2" width="35" height="12.5"/>
						<path fill="#FFBE08" d="M210,344.5l24.1-25c0.7-0.7,0.7-1.8,0.1-2.4l0,0c-0.6-0.6-1.7-0.5-2.4,0.2l-24.1,25
							c-0.7,0.7-0.7,1.8-0.1,2.4l0,0C208.3,345.3,209.3,345.2,210,344.5z"/>
					</g>
				</g>
				<path fill="#C1C1C1" d="M243.2,323.9c3.7-3.8,9.7-3.9,13.5-0.3c1.1,1.1,1.9,2.4,2.4,3.8l-1.6,1.6c-0.4-0.6-0.8-1.2-1.4-1.7
					c-3.8-3.7-9.8-3.5-13.5,0.3c-0.9,1-1.6,2.1-2.1,3.3C240.4,328.4,241.3,325.9,243.2,323.9z"/>
			</g>
		</g>
		<path fill="#8C8C8C" d="M205.5,257c-2.9-10.9-13-18.8-24.7-18.5l-5.5,0.2c11.8-0.3,21.8,7.6,24.7,18.5
			c6.1,5.1,10.2,12.7,10.6,21.2c0-0.3,0-0.6,0-0.9l0,1.7c0-0.3,0-0.6,0-0.9c0,9.4-4.4,17.9-11.3,23.4c-3.8,8.3-12.1,14.2-21.9,14.5
			l5.5-0.2c9.8-0.3,18.1-6.2,21.9-14.5c6.9-5.5,11.3-13.9,11.3-23.4C215.6,269.7,211.6,262.1,205.5,257z"/>
		<g>
			<g>
				<path fill="#B2B2B2" d="M130,281.8c0-0.3,0-0.6,0-0.9c0-0.3,0-0.6,0-0.9L130,281.8z"/>
				<path fill="#B2B2B2" d="M215.7,277.4c0,0.3,0,0.6,0,0.9c0,0.3,0,0.6,0,0.9L215.7,277.4z"/>
				<path fill="#B2B2B2" d="M205.1,257c-2.9-10.9-13-18.8-24.7-18.5l-17.2,0.9c-11.8,0.3-21.4,8.8-23.7,19.8
					c-5.8,5.5-9.5,13.2-9.5,21.8c0.5,9.4,5.4,17.6,12.6,22.7c4.3,8.1,12.9,13.5,22.7,13.3l17.2-0.9c9.8-0.3,18.1-6.2,21.9-14.5
					c6.9-5.5,11.3-13.9,11.3-23.4C215.3,269.7,211.2,262.1,205.1,257z"/>
			</g>
			<g>
				<g>
					<path fill="#B2B2B2" d="M130,281.8c0-0.3,0-0.6,0-0.9c0-0.3,0-0.6,0-0.9L130,281.8z"/>
					<path fill="#B2B2B2" d="M215.7,277.4c0,0.3,0,0.6,0,0.9c0,0.3,0,0.6,0,0.9L215.7,277.4z"/>
					<path fill="#B2B2B2" d="M205.1,257c-2.9-10.9-13-18.8-24.7-18.5l-17.2,0.9c-11.8,0.3-21.4,8.8-23.7,19.8
						c-5.8,5.5-9.5,13.2-9.5,21.8c0.5,9.4,5.4,17.6,12.6,22.7c4.3,8.1,12.9,13.5,22.7,13.3l17.2-0.9c9.8-0.3,18.1-6.2,21.9-14.5
						c6.9-5.5,11.3-13.9,11.3-23.4C215.3,269.7,211.2,262.1,205.1,257z"/>
				</g>
				<path fill="#C1C1C1" d="M139.7,259.2c2.3-11,11.9-19.5,23.7-19.8l5.5-0.2c-11.8,0.3-21.4,8.8-23.7,19.8
					c-5.8,5.5-9.5,13.2-9.5,21.8c0-0.3,0-0.6,0-0.9l0,1.7c0-0.3,0-0.6,0-0.9c0.5,9.4,5.4,17.6,12.6,22.7
					c4.3,8.1,12.9,13.5,22.7,13.3l-5.5,0.2c-9.8,0.3-18.4-5.2-22.7-13.3c-7.2-5.1-12.1-13.3-12.6-22.7
					C130.2,272.4,133.8,264.7,139.7,259.2z"/>
			</g>
		</g>
		<g>
			<g>
				<path fill="#B2B2B2" d="M206.1,240.1c0.1,0,0.1,0,0.2,0c0.1,0,0.1,0,0.2,0L206.1,240.1z"/>
				<path fill="#B2B2B2" d="M210.4,264.4c-0.1,0-0.1,0-0.2,0c-0.1,0-0.1,0-0.2,0L210.4,264.4z"/>
				<path fill="#B2B2B2" d="M216.7,263.4c-0.1,0-0.1,0-0.2,0c-0.1,0-0.1,0-0.2,0L216.7,263.4z"/>
				<path fill="#B2B2B2" d="M212.3,239.1c0.1,0,0.1,0,0.2,0c0.1,0,0.1,0,0.2,0L212.3,239.1z"/>
				<path fill="#B2B2B2" d="M218.5,238.1c0.1,0,0.1,0,0.2,0c0.1,0,0.1,0,0.2,0L218.5,238.1z"/>
				<path fill="#B2B2B2" d="M222.9,262.3c-0.1,0-0.1,0-0.2,0c-0.1,0-0.1,0-0.2,0L222.9,262.3z"/>
				<path fill="#B2B2B2" d="M224.8,237.1c0.1,0,0.1,0,0.2,0c0.1,0,0.1,0,0.2,0L224.8,237.1z"/>
				<path fill="#B2B2B2" d="M229.1,261.3c-0.1,0-0.1,0-0.2,0c-0.1,0-0.1,0-0.2,0L229.1,261.3z"/>
				<path fill="#B2B2B2" d="M231,236.1c0.1,0,0.1,0,0.2,0c0.1,0,0.1,0,0.2,0L231,236.1z"/>
				<path fill="#B2B2B2" d="M235.3,260.3c-0.1,0-0.1,0-0.2,0c-0.1,0-0.1,0-0.2,0L235.3,260.3z"/>
				<path fill="#B2B2B2" d="M237.2,235.1c0.1,0,0.1,0,0.2,0c0.1,0,0.1,0,0.2,0L237.2,235.1z"/>
				<path fill="#B2B2B2" d="M241.5,259.3c-0.1,0-0.1,0-0.2,0c-0.1,0-0.1,0-0.2,0L241.5,259.3z"/>
				<path fill="#B2B2B2" d="M170,246c0.1,0,0.1,0,0.2,0c0.1,0,0.1,0,0.2,0L170,246z"/>
				<path fill="#B2B2B2" d="M174.3,270.2c-0.1,0-0.1,0-0.2,0c-0.1,0-0.1,0-0.2,0L174.3,270.2z"/>
				<path fill="#B2B2B2" d="M165,253.4l1.9,11.5c0.6,3.5,3.8,5.8,7.3,5.4c1.1-0.2,2.1-0.7,3-1.4c1,0.4,2.1,0.6,3.3,0.4
					c1.1-0.2,2.1-0.7,3-1.4c1,0.4,2.1,0.6,3.3,0.4c1.1-0.2,2.1-0.7,3-1.4c1,0.4,2.1,0.6,3.3,0.4c1.1-0.2,2.1-0.7,3-1.4
					c1,0.4,2.1,0.6,3.3,0.4c1.1-0.2,2.1-0.7,3-1.4c1,0.4,2.1,0.6,3.3,0.4c0.9-0.2,1.7-0.5,2.4-1c0.8,0.2,1.7,0.3,2.6,0.2
					c1.1-0.2,2.1-0.7,3-1.4c1,0.4,2.1,0.6,3.3,0.4c1.1-0.2,2.1-0.7,3-1.4c1,0.4,2.1,0.6,3.3,0.4c1.1-0.2,2.1-0.7,3-1.4
					c1,0.4,2.1,0.6,3.3,0.4c1.1-0.2,2.1-0.7,3-1.4c1,0.4,2.1,0.6,3.3,0.4c1.1-0.2,2.1-0.7,3-1.4c1,0.4,2.1,0.6,3.3,0.4
					c3.4-0.7,5.7-3.9,5.2-7.4l-1.9-11.5c-0.6-3.5-3.8-5.8-7.3-5.4c-1.1,0.2-2.1,0.7-3,1.4c-1-0.4-2.1-0.6-3.3-0.4
					c-1.1,0.2-2.1,0.7-3,1.4c-1-0.4-2.1-0.6-3.3-0.4c-1.1,0.2-2.1,0.7-3,1.4c-1-0.4-2.1-0.6-3.3-0.4c-1.1,0.2-2.1,0.7-3,1.4
					c-1-0.4-2.1-0.6-3.3-0.4c-1.1,0.2-2.1,0.7-3,1.4c-1-0.4-2.1-0.6-3.3-0.4c-0.9,0.2-1.7,0.5-2.4,1c-0.8-0.2-1.7-0.3-2.6-0.2
					c-1.1,0.2-2.1,0.7-3,1.4c-1-0.4-2.1-0.6-3.3-0.4c-1.1,0.2-2.1,0.7-3,1.4c-1-0.4-2.1-0.6-3.3-0.4c-1.1,0.2-2.1,0.7-3,1.4
					c-1-0.4-2.1-0.6-3.3-0.4c-1.1,0.2-2.1,0.7-3,1.4c-1-0.4-2.1-0.6-3.3-0.4c-1.1,0.2-2.1,0.7-3,1.4c-1-0.4-2.1-0.6-3.3-0.4
					C166.8,246.6,164.5,249.9,165,253.4z"/>
				<path fill="#B2B2B2" d="M180.5,269.2c-0.1,0-0.1,0-0.2,0c-0.1,0-0.1,0-0.2,0L180.5,269.2z"/>
				<path fill="#B2B2B2" d="M176.2,245c0.1,0,0.1,0,0.2,0c0.1,0,0.1,0,0.2,0L176.2,245z"/>
				<path fill="#B2B2B2" d="M182.4,244c0.1,0,0.1,0,0.2,0c0.1,0,0.1,0,0.2,0L182.4,244z"/>
				<path fill="#B2B2B2" d="M186.8,268.2c-0.1,0-0.1,0-0.2,0c-0.1,0-0.1,0-0.2,0L186.8,268.2z"/>
				<path fill="#B2B2B2" d="M188.6,243c0.1,0,0.1,0,0.2,0c0.1,0,0.1,0,0.2,0L188.6,243z"/>
				<path fill="#B2B2B2" d="M193,267.2c-0.1,0-0.1,0-0.2,0c-0.1,0-0.1,0-0.2,0L193,267.2z"/>
				<path fill="#B2B2B2" d="M194.9,241.9c0.1,0,0.1,0,0.2,0c0.1,0,0.1,0,0.2,0L194.9,241.9z"/>
				<path fill="#B2B2B2" d="M199.2,266.2c-0.1,0-0.1,0-0.2,0c-0.1,0-0.1,0-0.2,0L199.2,266.2z"/>
				<path fill="#B2B2B2" d="M201.1,240.9c0.1,0,0.1,0,0.2,0c0.1,0,0.1,0,0.2,0L201.1,240.9z"/>
				<path fill="#B2B2B2" d="M205.4,265.2c-0.1,0-0.1,0-0.2,0c-0.1,0-0.1,0-0.2,0L205.4,265.2z"/>
			</g>
			<g>
				<path d="M251,258.3c-1.6,0.3-3.1-0.8-3.4-2.4l-3.3-18.2c-0.3-1.6,0.8-3.1,2.4-3.4c1.6-0.3,3.1,0.8,3.4,2.4l3.3,18.2
					C253.6,256.5,252.6,258.1,251,258.3z"/>
				<path fill="#FFBE08" d="M246.3,232.5c-2.6,0.5-4.3,3-3.9,5.5l3.3,18.2c0.5,2.6,3,4.3,5.5,3.9c2.2-0.4,3.8-2.3,3.9-4.4l-3.7-20.4
					C250.7,233.3,248.5,232.1,246.3,232.5z"/>
			</g>
		</g>
		<g>
			<g>
				<g>
					<path fill="#B2B2B2" d="M187.6,316.4c0,0.1-0.1,0.2-0.1,0.2c0,0.1-0.1,0.2-0.1,0.2L187.6,316.4z"/>
					<path fill="#B2B2B2" d="M155.9,303.5c0-0.1,0.1-0.2,0.1-0.2c0-0.1,0.1-0.2,0.1-0.2L155.9,303.5z"/>
					<path fill="#B2B2B2" d="M187.4,316.6c1.8-4.5-0.3-9.6-4.8-11.6l-14.9-6.4c-4.5-1.9-9.7,0.1-11.7,4.5c-0.6,1.5-0.7,3-0.5,4.5
						c-1.2,0.9-2.2,2.1-2.9,3.5c-0.6,1.5-0.7,3-0.5,4.5c-1.2,0.9-2.2,2.1-2.9,3.5c-0.6,1.5-0.7,3-0.5,4.5c-1.2,0.9-2.2,2.1-2.9,3.5
						c-0.6,1.5-0.7,3-0.5,4.5c-1.2,0.9-2.2,2.1-2.9,3.5c-0.6,1.5-0.7,3-0.5,4.5c-1.2,0.9-2.2,2.1-2.9,3.5c-1.8,4.5,0.3,9.6,4.8,11.6
						l14.9,6.4c4.5,1.9,9.7-0.1,11.7-4.5c0.6-1.5,0.7-3,0.5-4.5c1.2-0.9,2.2-2.1,2.9-3.5c0.6-1.5,0.7-3,0.5-4.5
						c1.2-0.9,2.2-2.1,2.9-3.5c0.6-1.5,0.7-3,0.5-4.5c1.2-0.9,2.2-2.1,2.9-3.5c0.6-1.5,0.7-3,0.5-4.5c1.2-0.9,2.2-2.1,2.9-3.5
						c0.6-1.5,0.7-3,0.5-4.5C185.8,319.3,186.8,318.1,187.4,316.6z"/>
					<path fill="#B2B2B2" d="M152.5,311.5c0-0.1,0.1-0.2,0.1-0.2c0-0.1,0.1-0.2,0.1-0.2L152.5,311.5z"/>
					<path fill="#B2B2B2" d="M184.1,324.4c0,0.1-0.1,0.2-0.1,0.2c0,0.1-0.1,0.2-0.1,0.2L184.1,324.4z"/>
					<path fill="#B2B2B2" d="M180.7,332.5c0,0.1-0.1,0.2-0.1,0.2c0,0.1-0.1,0.2-0.1,0.2L180.7,332.5z"/>
					<path fill="#B2B2B2" d="M149.1,319.5c0-0.1,0.1-0.2,0.1-0.2c0-0.1,0.1-0.2,0.1-0.2L149.1,319.5z"/>
					<path fill="#B2B2B2" d="M177.3,340.5c0,0.1-0.1,0.2-0.1,0.2c0,0.1-0.1,0.2-0.1,0.2L177.3,340.5z"/>
					<path fill="#B2B2B2" d="M145.6,327.5c0-0.1,0.1-0.2,0.1-0.2c0-0.1,0.1-0.2,0.1-0.2L145.6,327.5z"/>
					<path fill="#B2B2B2" d="M173.8,348.5c0,0.1-0.1,0.2-0.1,0.2c0,0.1-0.1,0.2-0.1,0.2L173.8,348.5z"/>
					<path fill="#B2B2B2" d="M142.2,335.6c0-0.1,0.1-0.2,0.1-0.2c0-0.1,0.1-0.2,0.1-0.2L142.2,335.6z"/>
					<path fill="#B2B2B2" d="M170.4,356.5c0,0.1-0.1,0.2-0.1,0.2c0,0.1-0.1,0.2-0.1,0.2L170.4,356.5z"/>
					<path fill="#B2B2B2" d="M138.8,343.6c0-0.1,0.1-0.2,0.1-0.2c0-0.1,0.1-0.2,0.1-0.2L138.8,343.6z"/>
				</g>
				<path fill="#C1C1C1" d="M167.7,298.7l4.4,1.9c-4.5-1.9-9.7,0.1-11.7,4.5c0-0.1,0.1-0.2,0.1-0.2l-0.2,0.5c0-0.1,0.1-0.2,0.1-0.2
					c-0.6,1.5-0.7,3-0.5,4.5c-1.2,0.9-2.2,2.1-2.9,3.5c0-0.1,0.1-0.2,0.1-0.2l-0.2,0.5c0-0.1,0.1-0.2,0.1-0.2
					c-0.6,1.5-0.7,3-0.5,4.5c-1.2,0.9-2.2,2.1-2.9,3.5c0-0.1,0.1-0.2,0.1-0.2l-0.2,0.5c0-0.1,0.1-0.2,0.1-0.2
					c-0.6,1.5-0.7,3-0.5,4.5c-1.2,0.9-2.2,2.1-2.9,3.5c0-0.1,0.1-0.2,0.1-0.2l-0.2,0.5c0-0.1,0.1-0.2,0.1-0.2
					c-0.6,1.5-0.7,3-0.5,4.5c-1.2,0.9-2.2,2.1-2.9,3.5c0-0.1,0.1-0.2,0.1-0.2l-0.2,0.5c0-0.1,0.1-0.2,0.1-0.2
					c-0.6,1.5-0.7,3-0.5,4.5c-1.2,0.9-2.2,2.1-2.9,3.5c0-0.1,0.1-0.2,0.1-0.2l-0.2,0.5c0-0.1,0.1-0.2,0.1-0.2
					c-1.8,4.5,0.3,9.6,4.8,11.6l-4.4-1.9c-4.5-1.9-6.6-7-4.8-11.6c0.7-1.4,1.7-2.6,2.9-3.5c-0.2-1.5,0-3,0.5-4.5
					c0.7-1.4,1.7-2.6,2.9-3.5c-0.2-1.5,0-3,0.5-4.5c0.7-1.4,1.7-2.6,2.9-3.5c-0.2-1.5,0-3,0.5-4.5c0.7-1.4,1.7-2.6,2.9-3.5
					c-0.2-1.5,0-3,0.5-4.5c0.7-1.4,1.7-2.6,2.9-3.5c-0.2-1.5,0-3,0.5-4.5C158.1,298.8,163.3,296.8,167.7,298.7z"/>
				<path fill="#8C8C8C" d="M188.1,313.2l-4.4-1.9c0,1.1-0.2,2.3-0.6,3.4c0-0.1,0.1-0.2,0.1-0.2l-0.2,0.5c0-0.1,0.1-0.2,0.1-0.2
					c-0.7,1.4-1.7,2.6-2.9,3.5c0.2,1.5,0,3-0.5,4.5c0-0.1,0.1-0.2,0.1-0.2l-0.2,0.5c0-0.1,0.1-0.2,0.1-0.2c-0.7,1.4-1.7,2.6-2.9,3.5
					c0.2,1.5,0,3-0.5,4.5c0-0.1,0.1-0.2,0.1-0.2l-0.2,0.5c0-0.1,0.1-0.2,0.1-0.2c-0.7,1.4-1.7,2.6-2.9,3.5c0.2,1.5,0,3-0.5,4.5
					c0-0.1,0.1-0.2,0.1-0.2l-0.2,0.5c0-0.1,0.1-0.2,0.1-0.2c-0.7,1.4-1.7,2.6-2.9,3.5c0.2,1.5,0,3-0.5,4.5c0-0.1,0.1-0.2,0.1-0.2
					l-0.2,0.5c0-0.1,0.1-0.2,0.1-0.2c-0.7,1.4-1.7,2.6-2.9,3.5c0.2,1.5,0,3-0.5,4.5c0-0.1,0.1-0.2,0.1-0.2l-0.2,0.5
					c0-0.1,0.1-0.2,0.1-0.2c-2,4.4-7.2,6.4-11.7,4.5l4.4,1.9c4.5,1.9,9.7-0.1,11.7-4.5c0.6-1.5,0.7-3,0.5-4.5
					c1.2-0.9,2.2-2.1,2.9-3.5c0.6-1.5,0.7-3,0.5-4.5c1.2-0.9,2.2-2.1,2.9-3.5c0.6-1.5,0.7-3,0.5-4.5c1.2-0.9,2.2-2.1,2.9-3.5
					c0.6-1.5,0.7-3,0.5-4.5c1.2-0.9,2.2-2.1,2.9-3.5c0.6-1.5,0.7-3,0.5-4.5c1.2-0.9,2.2-2.1,2.9-3.5
					C187.9,315.5,188.1,314.4,188.1,313.2z"/>
			</g>
			<g>
				<g>
					<path fill="#FFBE08" d="M129.8,365.5l36.1,15.4c1.8,0.8,3.8,0.1,4.4-1.5l0-0.1c0.7-1.6-0.2-3.5-2-4.3l-36.1-15.4
						c-1.8-0.8-3.8-0.1-4.4,1.5l0,0.1C127.2,362.8,128.1,364.7,129.8,365.5z"/>
					<g>
						<path fill="#FFBE08" d="M129.8,365.5l41.4,17.7c1.8,0.8,3.8,0.1,4.4-1.5l0-0.1c0.7-1.6-0.2-3.5-2-4.3l-41.4-17.7
							c-1.8-0.8-3.8-0.1-4.4,1.5l0,0.1C127.2,362.8,128.1,364.7,129.8,365.5z"/>
						<path fill="#B2B2B2" d="M173.3,377.2l-41.5-17.7c-0.1,0-0.1,0-0.2-0.1l5.5-12.9l34.6,14.8c5.1,2.2,7.4,8,5.3,13.1
							c-0.6,1.4-1.5,2.6-2.6,3.6C174.1,377.6,173.7,377.4,173.3,377.2z"/>
						
							<rect x="137.1" y="343.9" transform="matrix(-0.9194 -0.3932 0.3932 -0.9194 158.9636 732.862)" fill="#B2B2B2" width="35" height="12.5"/>
						<path fill="#FFBE08" d="M141.1,337.9l31.9,13.6c0.9,0.4,1.9,0,2.3-0.8l0,0c0.4-0.8-0.1-1.8-1-2.2l-31.9-13.6
							c-0.9-0.4-1.9,0-2.3,0.8l0,0C139.7,336.5,140.1,337.5,141.1,337.9z"/>
					</g>
				</g>
				<path fill="#C1C1C1" d="M172.1,361.5c4.8,2.1,7.1,7.7,5,12.5c-0.6,1.4-1.6,2.6-2.7,3.6l-2.1-0.9c0.4-0.6,0.8-1.2,1.1-1.9
					c2.1-4.8-0.2-10.5-5-12.5c-1.3-0.5-2.6-0.8-3.8-0.8C166.8,360.6,169.5,360.5,172.1,361.5z"/>
			</g>
		</g>
	</g>
</g>
</svg>
