<?xml version="1.0" encoding="utf-8"?>
<!-- Generator: Adobe Illustrator 17.1.0, SVG Export Plug-In . SVG Version: 6.00 Build 0)  -->
<!DOCTYPE svg PUBLIC "-//W3C//DTD SVG 1.1//EN" "http://www.w3.org/Graphics/SVG/1.1/DTD/svg11.dtd">
<svg version="1.1" id="Layer_1" xmlns="http://www.w3.org/2000/svg" xmlns:xlink="http://www.w3.org/1999/xlink" x="0px" y="0px"
	 viewBox="0 0 316 376" enable-background="new 0 0 316 376" xml:space="preserve">
<g>
	<path fill="#8C8C8C" d="M308.7,375.2h-129c-3.8,0-6.9-3.1-6.9-6.9v-0.1c0-3.8,3.1-6.9,6.9-6.9h129c3.8,0,6.9,3.1,6.9,6.9v0.1
		C315.6,372.1,312.5,375.2,308.7,375.2z"/>
	<path fill="#8C8C8C" d="M308.7,164.2h-129c-3.8,0-6.9-3.1-6.9-6.9v-0.1c0-3.8,3.1-6.9,6.9-6.9h129c3.8,0,6.9,3.1,6.9,6.9v0.1
		C315.6,161.1,312.5,164.2,308.7,164.2z"/>
	<path fill="#8C8C8C" d="M274.1,151.2h-59.8c-5.8,0-10.6-4.7-10.6-10.6v-0.2c0-5.8,4.7-10.6,10.6-10.6h59.8
		c5.8,0,10.6,4.7,10.6,10.6v0.2C284.6,146.5,279.9,151.2,274.1,151.2z"/>
	<rect x="179.6" y="164.2" fill="#A3DAE3" width="129" height="196.9"/>
	<g>
		<path fill="#8C8C8C" d="M29.4,144.8h-29c0-42,13.2-78.1,38.2-104.6c24-25.4,57.1-39.4,93.2-39.4C204.1,0.8,263,59.7,263,132.1h-29
			c0-56.4-45.9-102.3-102.3-102.3c-28,0-53.6,10.8-72.1,30.3C39.8,81.1,29.4,110.3,29.4,144.8z"/>
	</g>
</g>
</svg>
