<?xml version="1.0" encoding="utf-8"?>
<!-- Generator: Adobe Illustrator 17.1.0, SVG Export Plug-In . SVG Version: 6.00 Build 0)  -->
<!DOCTYPE svg PUBLIC "-//W3C//DTD SVG 1.1//EN" "http://www.w3.org/Graphics/SVG/1.1/DTD/svg11.dtd">
<svg version="1.1" id="Layer_1" xmlns="http://www.w3.org/2000/svg" xmlns:xlink="http://www.w3.org/1999/xlink" x="0px" y="0px"
	 viewBox="0 0 100 98" enable-background="new 0 0 100 98" xml:space="preserve">
<g>
	<g>
		<g>
			<path fill="#B2B2B2" d="M31.1,37.3C31.1,37.3,31.1,37.3,31.1,37.3c-0.1,0-0.1,0-0.1-0.1L31.1,37.3z"/>
			<path fill="#B2B2B2" d="M27.3,46.3C27.3,46.3,27.3,46.3,27.3,46.3c0.1,0,0.1,0,0.1,0.1L27.3,46.3z"/>
			<path fill="#B2B2B2" d="M24.9,45.4C25,45.4,25,45.4,24.9,45.4c0.1,0,0.1,0,0.1,0.1L24.9,45.4z"/>
			<path fill="#B2B2B2" d="M28.8,36.3C28.8,36.3,28.8,36.3,28.8,36.3c-0.1,0-0.1,0-0.1-0.1L28.8,36.3z"/>
			<path fill="#B2B2B2" d="M26.5,35.4C26.5,35.4,26.5,35.4,26.5,35.4c-0.1,0-0.1,0-0.1-0.1L26.5,35.4z"/>
			<path fill="#B2B2B2" d="M22.6,44.4C22.6,44.4,22.7,44.4,22.6,44.4c0.1,0,0.1,0,0.1,0.1L22.6,44.4z"/>
			<path fill="#B2B2B2" d="M24.2,34.4C24.2,34.4,24.1,34.4,24.2,34.4c-0.1,0-0.1,0-0.1-0.1L24.2,34.4z"/>
			<path fill="#B2B2B2" d="M20.3,43.4C20.3,43.5,20.4,43.5,20.3,43.4c0.1,0,0.1,0,0.1,0.1L20.3,43.4z"/>
			<path fill="#B2B2B2" d="M21.9,33.5C21.9,33.5,21.8,33.5,21.9,33.5c-0.1,0-0.1,0-0.1-0.1L21.9,33.5z"/>
			<path fill="#B2B2B2" d="M18,42.5C18,42.5,18,42.5,18,42.5c0.1,0,0.1,0,0.1,0.1L18,42.5z"/>
			<path fill="#B2B2B2" d="M19.6,32.5C19.5,32.5,19.5,32.5,19.6,32.5c-0.1,0-0.1,0-0.1-0.1L19.6,32.5z"/>
			<path fill="#B2B2B2" d="M15.7,41.5C15.7,41.5,15.7,41.5,15.7,41.5c0.1,0,0.1,0,0.1,0.1L15.7,41.5z"/>
			<path fill="#B2B2B2" d="M44.6,42.9C44.6,42.8,44.5,42.8,44.6,42.9c-0.1,0-0.1,0-0.1-0.1L44.6,42.9z"/>
			<path fill="#B2B2B2" d="M40.7,51.9C40.7,51.9,40.8,51.9,40.7,51.9c0.1,0,0.1,0,0.1,0.1L40.7,51.9z"/>
			<path fill="#B2B2B2" d="M45.9,46.2l-1.8,4.3c-0.5,1.3-2,1.9-3.3,1.4c-0.4-0.2-0.8-0.5-1-0.8c-0.4,0.1-0.9,0-1.3-0.1
				c-0.4-0.2-0.8-0.5-1-0.8c-0.4,0.1-0.9,0-1.3-0.1c-0.4-0.2-0.8-0.5-1-0.8c-0.4,0.1-0.9,0-1.3-0.1c-0.4-0.2-0.8-0.5-1-0.8
				c-0.4,0.1-0.9,0-1.3-0.1c-0.4-0.2-0.8-0.5-1-0.8c-0.4,0.1-0.9,0-1.3-0.1c-0.3-0.1-0.6-0.4-0.8-0.6c-0.3,0-0.7,0-1-0.2
				c-0.4-0.2-0.8-0.5-1-0.8c-0.4,0.1-0.9,0-1.3-0.1c-0.4-0.2-0.8-0.5-1-0.8c-0.4,0.1-0.9,0-1.3-0.1c-0.4-0.2-0.8-0.5-1-0.8
				c-0.4,0.1-0.9,0-1.3-0.1c-0.4-0.2-0.8-0.5-1-0.8c-0.4,0.1-0.9,0-1.3-0.1c-0.4-0.2-0.8-0.5-1-0.8c-0.4,0.1-0.9,0-1.3-0.1
				c-1.3-0.6-1.9-2-1.3-3.3l1.8-4.3c0.5-1.3,2-1.9,3.3-1.4c0.4,0.2,0.8,0.5,1,0.8c0.4-0.1,0.9,0,1.3,0.1c0.4,0.2,0.8,0.5,1,0.8
				c0.4-0.1,0.9,0,1.3,0.1c0.4,0.2,0.8,0.5,1,0.8c0.4-0.1,0.9,0,1.3,0.1c0.4,0.2,0.8,0.5,1,0.8c0.4-0.1,0.9,0,1.3,0.1
				c0.4,0.2,0.8,0.5,1,0.8c0.4-0.1,0.9,0,1.3,0.1c0.3,0.1,0.6,0.4,0.8,0.6c0.3,0,0.7,0,1,0.2c0.4,0.2,0.8,0.5,1,0.8
				c0.4-0.1,0.9,0,1.3,0.1c0.4,0.2,0.8,0.5,1,0.8c0.4-0.1,0.9,0,1.3,0.1c0.4,0.2,0.8,0.5,1,0.8c0.4-0.1,0.9,0,1.3,0.1
				c0.4,0.2,0.8,0.5,1,0.8c0.4-0.1,0.9,0,1.3,0.1c0.4,0.2,0.8,0.5,1,0.8c0.4-0.1,0.9,0,1.3,0.1C45.8,43.4,46.4,44.9,45.9,46.2z"/>
			<path fill="#B2B2B2" d="M38.4,50.9C38.4,50.9,38.4,50.9,38.4,50.9c0.1,0,0.1,0,0.1,0.1L38.4,50.9z"/>
			<path fill="#B2B2B2" d="M42.3,41.9C42.3,41.9,42.2,41.9,42.3,41.9c-0.1,0-0.1,0-0.1-0.1L42.3,41.9z"/>
			<path fill="#B2B2B2" d="M40,40.9C39.9,40.9,39.9,40.9,40,40.9c-0.1,0-0.1,0-0.1-0.1L40,40.9z"/>
			<path fill="#B2B2B2" d="M36.1,50C36.1,50,36.1,50,36.1,50c0.1,0,0.1,0,0.1,0.1L36.1,50z"/>
			<path fill="#B2B2B2" d="M37.6,40C37.6,40,37.6,40,37.6,40c-0.1,0-0.1,0-0.1-0.1L37.6,40z"/>
			<path fill="#B2B2B2" d="M33.8,49C33.8,49,33.8,49,33.8,49c0.1,0,0.1,0,0.1,0.1L33.8,49z"/>
			<path fill="#B2B2B2" d="M35.3,39C35.3,39,35.3,39,35.3,39c-0.1,0-0.1,0-0.1-0.1L35.3,39z"/>
			<path fill="#B2B2B2" d="M31.5,48C31.5,48.1,31.5,48.1,31.5,48c0.1,0,0.1,0,0.1,0.1L31.5,48z"/>
			<path fill="#B2B2B2" d="M33,38.1C33,38.1,33,38.1,33,38.1c-0.1,0-0.1,0-0.1-0.1L33,38.1z"/>
			<path fill="#B2B2B2" d="M29.1,47.1C29.2,47.1,29.2,47.1,29.1,47.1c0.1,0,0.1,0,0.1,0.1L29.1,47.1z"/>
		</g>
		<g>
			<path d="M11.1,38.7l2.9-6.8c0.3-0.6,1-0.9,1.5-0.6c0.6,0.3,0.9,1,0.6,1.5l-2.9,6.8c-0.3,0.6-1,0.9-1.5,0.6
				C11.2,40,10.9,39.3,11.1,38.7z"/>
			<path fill="#B2B2B2" d="M0.4,30.4c0.8-2,3.1-2.9,5.1-2l2,0.9L7.4,29c-0.6-0.8-0.4-1.9,0.3-2.5c0.5-0.4,1.2-0.5,1.8-0.2
				c0.3,0.1,0.5,0.3,0.7,0.6l3.4,4.5l-3.3,7.6l-7.9-3.4C0.5,34.6-0.5,32.3,0.4,30.4z"/>
			<path fill="#FFBE08" d="M15.9,30.7c1,0.4,1.4,1.5,1,2.5L14,40c-0.4,1-1.5,1.4-2.5,1c-0.8-0.4-1.3-1.2-1.1-2.1l3.3-7.6
				C14.1,30.6,15.1,30.3,15.9,30.7z"/>
		</g>
		<g>
			<path fill="#B2B2B2" d="M28.2,54.1c0-0.1,0-0.2,0-0.3c0-0.1,0-0.2,0-0.3L28.2,54.1z"/>
			<path fill="#B2B2B2" d="M73.4,52.8c0,0.1,0,0.2,0,0.3c0,0.1,0,0.2,0,0.3L73.4,52.8z"/>
			<path fill="#B2B2B2" d="M69.2,44.6c-1.1-4.4-5.1-7.5-9.7-7.5l-17.8,0.3c-4.7,0.1-8.6,3.4-9.5,7.8c-2.3,2.1-3.8,5.2-3.9,8.6
				c0.2,3.8,2.1,7,4.9,9.1c1.7,3.2,5.1,5.4,9,5.4L59.9,68c3.9-0.1,7.2-2.4,8.8-5.6c2.8-2.1,4.6-5.5,4.6-9.2
				C73.2,49.7,71.6,46.7,69.2,44.6z"/>
		</g>
		<g>
			<path fill="#B2B2B2" d="M28.2,54.1c0-0.1,0-0.2,0-0.3c0-0.1,0-0.2,0-0.3L28.2,54.1z"/>
			<path fill="#B2B2B2" d="M73.4,52.8c0,0.1,0,0.2,0,0.3c0,0.1,0,0.2,0,0.3L73.4,52.8z"/>
			<path fill="#B2B2B2" d="M69.2,44.6c-1.1-4.4-5.1-7.5-9.7-7.5l-17.8,0.3c-4.7,0.1-8.6,3.4-9.5,7.8c-2.3,2.1-3.8,5.2-3.9,8.6
				c0.2,3.8,2.1,7,4.9,9.1c1.7,3.2,5.1,5.4,9,5.4L59.9,68c3.9-0.1,7.2-2.4,8.8-5.6c2.8-2.1,4.6-5.5,4.6-9.2
				C73.2,49.7,71.6,46.7,69.2,44.6z"/>
		</g>
		<path fill="#8C8C8C" d="M69.4,44.6c-1.1-4.4-5.1-7.5-9.7-7.5l-2.2,0c4.7-0.1,8.6,3.1,9.7,7.5c2.4,2.1,4,5.1,4.1,8.5
			c0-0.1,0-0.2,0-0.3l0,0.7c0-0.1,0-0.2,0-0.3c-0.1,3.8-1.9,7.1-4.6,9.2c-1.6,3.3-4.9,5.6-8.8,5.6l2.2,0c3.9-0.1,7.2-2.4,8.8-5.6
			c2.8-2.1,4.6-5.5,4.6-9.2C73.4,49.7,71.8,46.7,69.4,44.6z"/>
		<path fill="#C1C1C1" d="M32.2,45.1c1-4.4,4.8-7.7,9.5-7.8l2.2,0c-4.7,0.1-8.6,3.4-9.5,7.8c-2.3,2.1-3.8,5.2-3.9,8.6
			c0-0.1,0-0.2,0-0.3l0,0.7c0-0.1,0-0.2,0-0.3c0.2,3.8,2.1,7,4.9,9.1c1.7,3.2,5.1,5.4,9,5.4l-2.2,0c-3.9,0.1-7.3-2.1-9-5.4
			c-2.8-2.1-4.7-5.4-4.9-9.1C28.3,50.4,29.8,47.3,32.2,45.1z"/>
		<path fill="#B2B2B2" d="M33.6,30.2l0.3,0c1.1,1.6,2.4,3.1,3.9,4.3l24.7-0.4c1.5-1.3,2.7-2.8,3.8-4.4l0.3,0c2,0,3.6-1.7,3.6-3.7
			l-0.2-13.3c0-2-1.7-3.6-3.7-3.6l-0.3,0c-3.5-5.3-9.5-8.7-16.3-8.6S37,4.1,33.7,9.5l-0.3,0c-2,0-3.6,1.7-3.6,3.7l0.2,13.3
			C29.9,28.6,31.6,30.2,33.6,30.2z"/>
		<path fill="#8C8C8C" d="M66.4,9.1l-0.3,0c-3.5-5.3-9.5-8.7-16.3-8.6c-0.5,0-0.9,0-1.4,0.1C54.6,0.9,60,4.2,63.2,9.1l0.3,0
			c2,0,3.7,1.6,3.7,3.6L67.5,26c0,2-1.6,3.7-3.6,3.7l-0.3,0c-1,1.7-2.3,3.1-3.8,4.4l2.8,0c1.5-1.3,2.7-2.8,3.8-4.4l0.3,0
			c2,0,3.6-1.7,3.6-3.7l-0.2-13.3C70.1,10.6,68.4,9,66.4,9.1z"/>
		<path fill="#C1C1C1" d="M33.3,9.5l0.3,0c3.3-5.4,9.3-9,16.1-9.1c0.5,0,0.9,0,1.4,0c-6.2,0.5-11.6,4-14.7,9l-0.3,0
			c-2,0-3.6,1.7-3.6,3.7l0.2,13.3c0,2,1.7,3.6,3.7,3.6l0.3,0c1.1,1.6,2.4,3.1,3.9,4.3l-2.8,0c-1.5-1.2-2.8-2.7-3.9-4.3l-0.3,0
			c-2,0-3.7-1.6-3.7-3.6l-0.2-13.3C29.7,11.2,31.3,9.6,33.3,9.5z"/>
		<path fill="#A3DAE3" d="M49.6,11.5C36.3,11.7,35,16.9,35,16.9s0,0.3,0,0.7c0,0.5,0,1.2,0,2l0.1,3.7l0,2c0,0.4,0,0.7,0,0.7
			s0.2,5.2,15.4,5c13.3-0.2,14.6-5.4,14.6-5.4s0-0.3,0-0.7l0-2L65,19.2c0-0.8,0-1.5,0-2c0-0.4,0-0.7,0-0.7S64.7,11.3,49.6,11.5z"/>
		<path fill="#FFBE08" d="M62.6,38.5L38,38.9c-1.2,0-2.2-0.9-2.2-2.1l0,0c0-1.2,0.9-2.2,2.1-2.2l24.6-0.4c1.2,0,2.2,0.9,2.2,2.1l0,0
			C64.8,37.5,63.8,38.5,62.6,38.5z"/>
		<path opacity="0.63" fill="#FFFFFF" d="M53.6,13.4c0,0,9.9,0.8,9.9,3.8c0,3,0.1,7.7,0.1,7.7s0,1.2-0.9,1.2
			c-0.9,0-4.9-11.1-8.4-11.1S52.2,13.2,53.6,13.4z"/>
		<g>
			<g>
				<path fill="#B2B2B2" d="M69.4,36.8C69.4,36.7,69.4,36.7,69.4,36.8c0.1,0,0.1-0.1,0.1-0.1L69.4,36.8z"/>
				<path fill="#B2B2B2" d="M73.5,45.6C73.5,45.7,73.5,45.7,73.5,45.6c-0.1,0-0.1,0.1-0.1,0.1L73.5,45.6z"/>
				<path fill="#B2B2B2" d="M75.8,44.6C75.8,44.6,75.8,44.6,75.8,44.6c-0.1,0-0.1,0.1-0.1,0.1L75.8,44.6z"/>
				<path fill="#B2B2B2" d="M71.7,35.7C71.7,35.7,71.7,35.7,71.7,35.7c0.1,0,0.1-0.1,0.1-0.1L71.7,35.7z"/>
				<path fill="#B2B2B2" d="M74,34.7C74,34.7,74,34.7,74,34.7c0.1,0,0.1-0.1,0.1-0.1L74,34.7z"/>
				<path fill="#B2B2B2" d="M78.1,43.6C78.1,43.6,78,43.6,78.1,43.6c-0.1,0-0.1,0.1-0.1,0.1L78.1,43.6z"/>
				<path fill="#B2B2B2" d="M76.2,33.7C76.3,33.7,76.3,33.7,76.2,33.7c0.1,0,0.1-0.1,0.1-0.1L76.2,33.7z"/>
				<path fill="#B2B2B2" d="M80.4,42.6C80.4,42.6,80.3,42.6,80.4,42.6c-0.1,0-0.1,0.1-0.1,0.1L80.4,42.6z"/>
				<path fill="#B2B2B2" d="M78.5,32.7C78.6,32.7,78.6,32.6,78.5,32.7c0.1,0,0.1-0.1,0.1-0.1L78.5,32.7z"/>
				<path fill="#B2B2B2" d="M82.7,41.6C82.6,41.6,82.6,41.6,82.7,41.6c-0.1,0-0.1,0.1-0.1,0.1L82.7,41.6z"/>
				<path fill="#B2B2B2" d="M80.8,31.6C80.8,31.6,80.9,31.6,80.8,31.6c0.1,0,0.1-0.1,0.1-0.1L80.8,31.6z"/>
				<path fill="#B2B2B2" d="M85,40.5C84.9,40.5,84.9,40.6,85,40.5c-0.1,0-0.1,0.1-0.1,0.1L85,40.5z"/>
				<path fill="#B2B2B2" d="M56.1,42.7C56.1,42.7,56.1,42.7,56.1,42.7c0.1,0,0.1-0.1,0.1-0.1L56.1,42.7z"/>
				<path fill="#B2B2B2" d="M60.2,51.6C60.2,51.6,60.2,51.6,60.2,51.6c-0.1,0-0.1,0.1-0.1,0.1L60.2,51.6z"/>
				<path fill="#B2B2B2" d="M54.9,46l1.9,4.2c0.6,1.3,2.1,1.9,3.3,1.3c0.4-0.2,0.7-0.5,1-0.8c0.4,0.1,0.9,0,1.3-0.2
					c0.4-0.2,0.7-0.5,1-0.8c0.4,0.1,0.9,0,1.3-0.2c0.4-0.2,0.7-0.5,1-0.8c0.4,0.1,0.9,0,1.3-0.2c0.4-0.2,0.7-0.5,1-0.8
					c0.4,0.1,0.9,0,1.3-0.2c0.4-0.2,0.7-0.5,1-0.8c0.4,0.1,0.9,0,1.3-0.2c0.3-0.2,0.6-0.4,0.8-0.6c0.3,0,0.7-0.1,1-0.2
					c0.4-0.2,0.7-0.5,1-0.8c0.4,0.1,0.9,0,1.3-0.2c0.4-0.2,0.7-0.5,1-0.8c0.4,0.1,0.9,0,1.3-0.2c0.4-0.2,0.7-0.5,1-0.8
					c0.4,0.1,0.9,0,1.3-0.2c0.4-0.2,0.7-0.5,1-0.8c0.4,0.1,0.9,0,1.3-0.2c0.4-0.2,0.7-0.5,1-0.8c0.4,0.1,0.9,0,1.3-0.2
					c1.3-0.6,1.8-2.1,1.2-3.4l-1.9-4.2c-0.6-1.3-2.1-1.9-3.3-1.3c-0.4,0.2-0.7,0.5-1,0.8c-0.4-0.1-0.9,0-1.3,0.2
					c-0.4,0.2-0.7,0.5-1,0.8c-0.4-0.1-0.9,0-1.3,0.2c-0.4,0.2-0.7,0.5-1,0.8c-0.4-0.1-0.9,0-1.3,0.2c-0.4,0.2-0.7,0.5-1,0.8
					c-0.4-0.1-0.9,0-1.3,0.2c-0.4,0.2-0.7,0.5-1,0.8c-0.4-0.1-0.9,0-1.3,0.2c-0.3,0.2-0.6,0.4-0.8,0.6c-0.3,0-0.7,0.1-1,0.2
					c-0.4,0.2-0.7,0.5-1,0.8c-0.4-0.1-0.9,0-1.3,0.2c-0.4,0.2-0.7,0.5-1,0.8c-0.4-0.1-0.9,0-1.3,0.2c-0.4,0.2-0.7,0.5-1,0.8
					c-0.4-0.1-0.9,0-1.3,0.2c-0.4,0.2-0.7,0.5-1,0.8c-0.4-0.1-0.9,0-1.3,0.2c-0.4,0.2-0.7,0.5-1,0.8c-0.4-0.1-0.9,0-1.3,0.2
					C54.9,43.3,54.4,44.8,54.9,46z"/>
				<path fill="#B2B2B2" d="M62.5,50.6C62.5,50.6,62.5,50.6,62.5,50.6c-0.1,0-0.1,0.1-0.1,0.1L62.5,50.6z"/>
				<path fill="#B2B2B2" d="M58.4,41.7C58.4,41.7,58.4,41.7,58.4,41.7c0.1,0,0.1-0.1,0.1-0.1L58.4,41.7z"/>
				<path fill="#B2B2B2" d="M60.7,40.7C60.7,40.6,60.7,40.6,60.7,40.7c0.1,0,0.1-0.1,0.1-0.1L60.7,40.7z"/>
				<path fill="#B2B2B2" d="M64.8,49.5C64.8,49.6,64.8,49.6,64.8,49.5c-0.1,0-0.1,0.1-0.1,0.1L64.8,49.5z"/>
				<path fill="#B2B2B2" d="M62.9,39.6C63,39.6,63,39.6,62.9,39.6c0.1,0,0.1-0.1,0.1-0.1L62.9,39.6z"/>
				<path fill="#B2B2B2" d="M67.1,48.5C67.1,48.5,67,48.5,67.1,48.5c-0.1,0-0.1,0.1-0.1,0.1L67.1,48.5z"/>
				<path fill="#B2B2B2" d="M65.2,38.6C65.3,38.6,65.3,38.6,65.2,38.6c0.1,0,0.1-0.1,0.1-0.1L65.2,38.6z"/>
				<path fill="#B2B2B2" d="M69.4,47.5C69.3,47.5,69.3,47.5,69.4,47.5c-0.1,0-0.1,0.1-0.1,0.1L69.4,47.5z"/>
				<path fill="#B2B2B2" d="M67.5,37.6C67.5,37.6,67.6,37.6,67.5,37.6c0.1,0,0.1-0.1,0.1-0.1L67.5,37.6z"/>
				<path fill="#B2B2B2" d="M71.7,46.5C71.6,46.5,71.6,46.5,71.7,46.5c-0.1,0-0.1,0.1-0.1,0.1L71.7,46.5z"/>
			</g>
			<g>
				<path d="M88.5,39.2c-0.6,0.3-1.3,0-1.6-0.6l-3.1-6.7c-0.3-0.6,0-1.3,0.6-1.6c0.6-0.3,1.3,0,1.6,0.6l3.1,6.7
					C89.3,38.2,89.1,38.9,88.5,39.2z"/>
				<path fill="#B2B2B2" d="M99.6,28.9c-0.9-1.9-3.2-2.8-5.2-1.9l-2,0.9l0.1-0.2c0.6-0.8,0.4-1.9-0.4-2.5c-0.5-0.4-1.2-0.4-1.8-0.2
					c-0.3,0.1-0.5,0.3-0.7,0.6l-3.3,4.6l3.5,7.5l7.8-3.7C99.6,33.2,100.5,30.9,99.6,28.9z"/>
				<path fill="#FFBE08" d="M84.1,29.7c-1,0.4-1.4,1.6-0.9,2.5l3.1,6.7c0.4,0.9,1.6,1.4,2.5,0.9c0.8-0.4,1.2-1.3,1.1-2.1l-3.5-7.5
					C85.8,29.6,84.9,29.3,84.1,29.7z"/>
			</g>
		</g>
		<g>
			<g>
				<path fill="#B2B2B2" d="M49.7,70.3c0,0,0,0.1,0,0.1c0,0,0,0.1,0,0.1L49.7,70.3z"/>
				<path fill="#B2B2B2" d="M36.1,70.7c0,0,0-0.1,0-0.1c0,0,0-0.1,0-0.1L36.1,70.7z"/>
				<path fill="#B2B2B2" d="M49.7,70.4C49.6,68.5,48,67,46.1,67l-6.4,0.1c-1.9,0-3.5,1.6-3.5,3.5c0,0.6,0.2,1.2,0.5,1.7
					c-0.3,0.5-0.5,1.1-0.5,1.7c0,0.6,0.2,1.2,0.5,1.7c-0.3,0.5-0.5,1.1-0.5,1.7c0,0.6,0.2,1.2,0.5,1.7c-0.3,0.5-0.5,1.1-0.5,1.7
					c0,0.6,0.2,1.2,0.5,1.7c-0.3,0.5-0.5,1.1-0.5,1.7c0,0.6,0.2,1.2,0.5,1.7c-0.3,0.5-0.5,1.1-0.5,1.7c0.1,1.9,1.7,3.5,3.6,3.4
					l6.4-0.1c1.9,0,3.5-1.6,3.5-3.5c0-0.6-0.2-1.2-0.5-1.7c0.3-0.5,0.5-1.1,0.5-1.7c0-0.6-0.2-1.2-0.5-1.7c0.3-0.5,0.5-1.1,0.5-1.7
					c0-0.6-0.2-1.2-0.5-1.7c0.3-0.5,0.5-1.1,0.5-1.7c0-0.6-0.2-1.2-0.5-1.7c0.3-0.5,0.5-1.1,0.5-1.7c0-0.6-0.2-1.2-0.5-1.7
					C49.5,71.6,49.7,71.1,49.7,70.4z"/>
				<path fill="#B2B2B2" d="M36.2,74.2c0,0,0-0.1,0-0.1c0,0,0-0.1,0-0.1L36.2,74.2z"/>
				<path fill="#B2B2B2" d="M49.8,73.8c0,0,0,0.1,0,0.1c0,0,0,0.1,0,0.1L49.8,73.8z"/>
				<path fill="#B2B2B2" d="M49.8,77.3c0,0,0,0.1,0,0.1c0,0,0,0.1,0,0.1L49.8,77.3z"/>
				<path fill="#B2B2B2" d="M36.2,77.7c0,0,0-0.1,0-0.1c0,0,0-0.1,0-0.1L36.2,77.7z"/>
				<path fill="#B2B2B2" d="M49.9,80.7c0,0,0,0.1,0,0.1c0,0,0,0.1,0,0.1L49.9,80.7z"/>
				<path fill="#B2B2B2" d="M36.3,81.1c0,0,0-0.1,0-0.1c0,0,0-0.1,0-0.1L36.3,81.1z"/>
				<path fill="#B2B2B2" d="M49.9,84.2c0,0,0,0.1,0,0.1c0,0,0,0.1,0,0.1L49.9,84.2z"/>
				<path fill="#B2B2B2" d="M36.3,84.6c0,0,0-0.1,0-0.1c0,0,0-0.1,0-0.1L36.3,84.6z"/>
				<path fill="#B2B2B2" d="M50,87.7c0,0,0,0.1,0,0.1c0,0,0,0.1,0,0.1L50,87.7z"/>
				<path fill="#B2B2B2" d="M36.4,88.1c0,0,0-0.1,0-0.1c0,0,0-0.1,0-0.1L36.4,88.1z"/>
			</g>
			<path fill="#C1C1C1" d="M39.6,67.1l1.9,0c-1.9,0-3.5,1.6-3.5,3.5c0,0,0-0.1,0-0.1l0,0.2c0,0,0-0.1,0-0.1c0,0.6,0.2,1.2,0.5,1.7
				c-0.3,0.5-0.5,1.1-0.5,1.7c0,0,0-0.1,0-0.1l0,0.2c0,0,0-0.1,0-0.1c0,0.6,0.2,1.2,0.5,1.7c-0.3,0.5-0.5,1.1-0.5,1.7
				c0,0,0-0.1,0-0.1l0,0.2c0,0,0-0.1,0-0.1c0,0.6,0.2,1.2,0.5,1.7c-0.3,0.5-0.5,1.1-0.5,1.7c0,0,0-0.1,0-0.1l0,0.2c0,0,0-0.1,0-0.1
				c0,0.6,0.2,1.2,0.5,1.7c-0.3,0.5-0.5,1.1-0.5,1.7c0,0,0-0.1,0-0.1l0,0.2c0,0,0-0.1,0-0.1c0,0.6,0.2,1.2,0.5,1.7
				c-0.3,0.5-0.5,1.1-0.5,1.7c0,0,0-0.1,0-0.1l0,0.2c0,0,0-0.1,0-0.1c0.1,1.9,1.7,3.5,3.6,3.4l-1.9,0c-1.9,0-3.5-1.5-3.6-3.4
				c0-0.6,0.2-1.2,0.5-1.7c-0.3-0.5-0.5-1.1-0.5-1.7c0-0.6,0.2-1.2,0.5-1.7c-0.3-0.5-0.5-1.1-0.5-1.7c0-0.6,0.2-1.2,0.5-1.7
				c-0.3-0.5-0.5-1.1-0.5-1.7c0-0.6,0.2-1.2,0.5-1.7c-0.3-0.5-0.5-1.1-0.5-1.7c0-0.6,0.2-1.2,0.5-1.7c-0.3-0.5-0.5-1.1-0.5-1.7
				C36.1,68.7,37.7,67.1,39.6,67.1z"/>
			<path fill="#8C8C8C" d="M49.4,69.1l-1.9,0c0.2,0.4,0.3,0.9,0.3,1.4c0,0,0-0.1,0-0.1l0,0.2c0,0,0-0.1,0-0.1c0,0.6-0.2,1.2-0.5,1.7
				c0.3,0.5,0.5,1.1,0.5,1.7c0,0,0-0.1,0-0.1l0,0.2c0,0,0-0.1,0-0.1c0,0.6-0.2,1.2-0.5,1.7c0.3,0.5,0.5,1.1,0.5,1.7c0,0,0-0.1,0-0.1
				l0,0.2c0,0,0-0.1,0-0.1c0,0.6-0.2,1.2-0.5,1.7c0.3,0.5,0.5,1.1,0.5,1.7c0,0,0-0.1,0-0.1l0,0.2c0,0,0-0.1,0-0.1
				c0,0.6-0.2,1.2-0.5,1.7c0.3,0.5,0.5,1.1,0.5,1.7c0,0,0-0.1,0-0.1l0,0.2c0,0,0-0.1,0-0.1c0,0.6-0.2,1.2-0.5,1.7
				c0.3,0.5,0.5,1.1,0.5,1.7c0,0,0-0.1,0-0.1l0,0.2c0,0,0-0.1,0-0.1c0,1.9-1.6,3.5-3.5,3.5l1.9,0c1.9,0,3.5-1.6,3.5-3.5
				c0-0.6-0.2-1.2-0.5-1.7c0.3-0.5,0.5-1.1,0.5-1.7c0-0.6-0.2-1.2-0.5-1.7c0.3-0.5,0.5-1.1,0.5-1.7c0-0.6-0.2-1.2-0.5-1.7
				c0.3-0.5,0.5-1.1,0.5-1.7c0-0.6-0.2-1.2-0.5-1.7c0.3-0.5,0.5-1.1,0.5-1.7c0-0.6-0.2-1.2-0.5-1.7c0.3-0.5,0.5-1.1,0.5-1.7
				C49.7,69.9,49.6,69.5,49.4,69.1z"/>
		</g>
		
			<rect x="47.5" y="85.5" transform="matrix(0.9999 -1.435587e-02 1.435587e-02 0.9999 -1.289 0.7086)" fill="#8C8C8C" width="2.5" height="9.3"/>
		<g>
			<g>
				<path fill="#FFBE08" d="M49.7,97.3l-15.6,0.2c-0.8,0-1.4-0.5-1.4-1.2l0,0c0-0.7,0.6-1.3,1.4-1.3l15.6-0.2c0.8,0,1.4,0.5,1.4,1.2
					l0,0C51.1,96.7,50.5,97.3,49.7,97.3z"/>
				<g>
					<path fill="#FFBE08" d="M49.7,97.3l-17.9,0.3c-0.8,0-1.4-0.5-1.4-1.2l0,0c0-0.7,0.6-1.3,1.4-1.3l17.9-0.3
						c0.8,0,1.4,0.5,1.4,1.2l0,0C51.1,96.7,50.5,97.3,49.7,97.3z"/>
					<path fill="#B2B2B2" d="M32,95l18-0.3c0,0,0.1,0,0.1,0l-0.1-5.6l-15,0.2c-2.2,0-4,1.8-3.9,4c0,0.6,0.2,1.2,0.4,1.7
						C31.6,95.1,31.8,95,32,95z"/>
					
						<rect x="36" y="85.4" transform="matrix(0.9999 -1.435587e-02 1.435587e-02 0.9999 -1.2578 0.6259)" fill="#B2B2B2" width="13.9" height="5"/>
					<path fill="#FFBE08" d="M49.8,85.4L36,85.6c-0.4,0-0.7-0.3-0.7-0.6l0,0c0-0.4,0.3-0.7,0.7-0.7l13.8-0.2c0.4,0,0.7,0.3,0.7,0.6
						l0,0C50.5,85.1,50.2,85.4,49.8,85.4z"/>
				</g>
			</g>
			<path fill="#C1C1C1" d="M34.8,89.5c-2.1,0-3.8,1.8-3.7,3.9c0,0.6,0.2,1.2,0.4,1.7l0.9,0c-0.1-0.3-0.1-0.6-0.1-0.9
				c0-2.1,1.6-3.8,3.7-3.9c0.5,0,1.1,0.1,1.5,0.3C36.9,89.9,35.9,89.5,34.8,89.5z"/>
		</g>
		<g>
			<g>
				<path fill="#B2B2B2" d="M65.4,70.1c0,0,0,0.1,0,0.1c0,0,0,0.1,0,0.1L65.4,70.1z"/>
				<path fill="#B2B2B2" d="M51.9,70.5c0,0,0-0.1,0-0.1c0,0,0-0.1,0-0.1L51.9,70.5z"/>
				<path fill="#B2B2B2" d="M65.4,70.2c-0.1-1.9-1.7-3.5-3.6-3.4l-6.4,0.1c-1.9,0-3.5,1.6-3.5,3.5c0,0.6,0.2,1.2,0.5,1.7
					c-0.3,0.5-0.5,1.1-0.5,1.7c0,0.6,0.2,1.2,0.5,1.7c-0.3,0.5-0.5,1.1-0.5,1.7c0,0.6,0.2,1.2,0.5,1.7c-0.3,0.5-0.5,1.1-0.5,1.7
					c0,0.6,0.2,1.2,0.5,1.7c-0.3,0.5-0.5,1.1-0.5,1.7c0,0.6,0.2,1.2,0.5,1.7c-0.3,0.5-0.5,1.1-0.5,1.7c0.1,1.9,1.7,3.5,3.6,3.4
					l6.4-0.1c1.9,0,3.5-1.6,3.5-3.5c0-0.6-0.2-1.2-0.5-1.7c0.3-0.5,0.5-1.1,0.5-1.7c0-0.6-0.2-1.2-0.5-1.7c0.3-0.5,0.5-1.1,0.5-1.7
					c0-0.6-0.2-1.2-0.5-1.7c0.3-0.5,0.5-1.1,0.5-1.7c0-0.6-0.2-1.2-0.5-1.7c0.3-0.5,0.5-1.1,0.5-1.7c0-0.6-0.2-1.2-0.5-1.7
					C65.3,71.4,65.4,70.8,65.4,70.2z"/>
				<path fill="#B2B2B2" d="M51.9,74c0,0,0-0.1,0-0.1c0,0,0-0.1,0-0.1L51.9,74z"/>
				<path fill="#B2B2B2" d="M65.5,73.6c0,0,0,0.1,0,0.1c0,0,0,0.1,0,0.1L65.5,73.6z"/>
				<path fill="#B2B2B2" d="M65.5,77c0,0,0,0.1,0,0.1c0,0,0,0.1,0,0.1L65.5,77z"/>
				<path fill="#B2B2B2" d="M52,77.4c0,0,0-0.1,0-0.1c0,0,0-0.1,0-0.1L52,77.4z"/>
				<path fill="#B2B2B2" d="M65.6,80.5c0,0,0,0.1,0,0.1c0,0,0,0.1,0,0.1L65.6,80.5z"/>
				<path fill="#B2B2B2" d="M52,80.9c0,0,0-0.1,0-0.1c0,0,0-0.1,0-0.1L52,80.9z"/>
				<path fill="#B2B2B2" d="M65.6,84c0,0,0,0.1,0,0.1c0,0,0,0.1,0,0.1L65.6,84z"/>
				<path fill="#B2B2B2" d="M52.1,84.4c0,0,0-0.1,0-0.1c0,0,0-0.1,0-0.1L52.1,84.4z"/>
				<path fill="#B2B2B2" d="M65.7,87.5c0,0,0,0.1,0,0.1c0,0,0,0.1,0,0.1L65.7,87.5z"/>
				<path fill="#B2B2B2" d="M52.1,87.9c0,0,0-0.1,0-0.1c0,0,0-0.1,0-0.1L52.1,87.9z"/>
			</g>
			<path fill="#C1C1C1" d="M55.4,66.9l1.9,0c-1.9,0-3.5,1.6-3.5,3.5c0,0,0-0.1,0-0.1l0,0.2c0,0,0-0.1,0-0.1c0,0.6,0.2,1.2,0.5,1.7
				c-0.3,0.5-0.5,1.1-0.5,1.7c0,0,0-0.1,0-0.1l0,0.2c0,0,0-0.1,0-0.1c0,0.6,0.2,1.2,0.5,1.7c-0.3,0.5-0.5,1.1-0.5,1.7
				c0,0,0-0.1,0-0.1l0,0.2c0,0,0-0.1,0-0.1c0,0.6,0.2,1.2,0.5,1.7c-0.3,0.5-0.5,1.1-0.5,1.7c0,0,0-0.1,0-0.1l0,0.2c0,0,0-0.1,0-0.1
				c0,0.6,0.2,1.2,0.5,1.7C54.2,83,54,83.6,54,84.3c0,0,0-0.1,0-0.1l0,0.2c0,0,0-0.1,0-0.1c0,0.6,0.2,1.2,0.5,1.7
				c-0.3,0.5-0.5,1.1-0.5,1.7c0,0,0-0.1,0-0.1l0,0.2c0,0,0-0.1,0-0.1c0.1,1.9,1.7,3.5,3.6,3.4l-1.9,0c-1.9,0-3.5-1.5-3.6-3.4
				c0-0.6,0.2-1.2,0.5-1.7c-0.3-0.5-0.5-1.1-0.5-1.7c0-0.6,0.2-1.2,0.5-1.7C52.2,82,52,81.4,52,80.8c0-0.6,0.2-1.2,0.5-1.7
				C52.2,78.6,52,78,52,77.3c0-0.6,0.2-1.2,0.5-1.7c-0.3-0.5-0.5-1.1-0.5-1.7c0-0.6,0.2-1.2,0.5-1.7c-0.3-0.5-0.5-1.1-0.5-1.7
				C51.9,68.5,53.4,66.9,55.4,66.9z"/>
			<path fill="#8C8C8C" d="M65.1,68.8l-1.9,0c0.2,0.4,0.3,0.9,0.3,1.4c0,0,0-0.1,0-0.1l0,0.2c0,0,0-0.1,0-0.1c0,0.6-0.2,1.2-0.5,1.7
				c0.3,0.5,0.5,1.1,0.5,1.7c0,0,0-0.1,0-0.1l0,0.2c0,0,0-0.1,0-0.1c0,0.6-0.2,1.2-0.5,1.7c0.3,0.5,0.5,1.1,0.5,1.7c0,0,0-0.1,0-0.1
				l0,0.2c0,0,0-0.1,0-0.1c0,0.6-0.2,1.2-0.5,1.7c0.3,0.5,0.5,1.1,0.5,1.7c0,0,0-0.1,0-0.1l0,0.2c0,0,0-0.1,0-0.1
				c0,0.6-0.2,1.2-0.5,1.7c0.3,0.5,0.5,1.1,0.5,1.7c0,0,0-0.1,0-0.1l0,0.2c0,0,0-0.1,0-0.1c0,0.6-0.2,1.2-0.5,1.7
				c0.3,0.5,0.5,1.1,0.5,1.7c0,0,0-0.1,0-0.1l0,0.2c0,0,0-0.1,0-0.1c0,1.9-1.6,3.5-3.5,3.5l1.9,0c1.9,0,3.5-1.6,3.5-3.5
				c0-0.6-0.2-1.2-0.5-1.7c0.3-0.5,0.5-1.1,0.5-1.7c0-0.6-0.2-1.2-0.5-1.7c0.3-0.5,0.5-1.1,0.5-1.7c0-0.6-0.2-1.2-0.5-1.7
				c0.3-0.5,0.5-1.1,0.5-1.7c0-0.6-0.2-1.2-0.5-1.7c0.3-0.5,0.5-1.1,0.5-1.7c0-0.6-0.2-1.2-0.5-1.7c0.3-0.5,0.5-1.1,0.5-1.7
				C65.4,69.7,65.3,69.3,65.1,68.8z"/>
		</g>
		<g>
			<g>
				<path fill="#FFBE08" d="M52.4,97.3L68,97.1c0.8,0,1.4-0.6,1.4-1.3l0,0c0-0.7-0.6-1.2-1.4-1.2l-15.6,0.2c-0.8,0-1.4,0.6-1.4,1.3
					l0,0C51,96.7,51.6,97.3,52.4,97.3z"/>
				<g>
					<path fill="#FFBE08" d="M52.4,97.3L70.3,97c0.8,0,1.4-0.6,1.4-1.3l0,0c0-0.7-0.6-1.2-1.4-1.2l-17.9,0.3c-0.8,0-1.4,0.6-1.4,1.3
						l0,0C51,96.7,51.6,97.3,52.4,97.3z"/>
					<path fill="#B2B2B2" d="M70.1,94.5l-18,0.3c0,0-0.1,0-0.1,0L52,89.2l15-0.2c2.2,0,4,1.7,4,3.9c0,0.6-0.1,1.2-0.4,1.7
						C70.4,94.5,70.3,94.5,70.1,94.5z"/>
					
						<rect x="51.9" y="85.2" transform="matrix(-0.9999 1.435579e-02 -1.435579e-02 -0.9999 119.0581 174.5389)" fill="#B2B2B2" width="13.9" height="5"/>
					<path fill="#FFBE08" d="M52,85.4l13.8-0.2c0.4,0,0.7-0.3,0.7-0.7l0,0c0-0.4-0.3-0.6-0.7-0.6L52,84.1c-0.4,0-0.7,0.3-0.7,0.7
						l0,0C51.3,85.1,51.6,85.4,52,85.4z"/>
				</g>
			</g>
			<path fill="#C1C1C1" d="M67.1,89c2.1,0,3.8,1.6,3.9,3.7c0,0.6-0.1,1.2-0.4,1.7l-0.9,0c0.1-0.3,0.1-0.6,0.1-0.9
				c0-2.1-1.8-3.8-3.9-3.7c-0.5,0-1.1,0.1-1.5,0.3C65.1,89.5,66,89,67.1,89z"/>
		</g>
	</g>
	<g opacity="0.6">
		<path d="M31,37.2C31,37.3,31,37.3,31,37.2c0.1,0,0.1,0,0.1,0.1L31,37.2z"/>
		<path d="M27.4,46.4C27.4,46.4,27.4,46.3,27.4,46.4c-0.1,0-0.1,0-0.1-0.1L27.4,46.4z"/>
		<path d="M25.1,45.4C25.1,45.4,25,45.4,25.1,45.4c-0.1,0-0.1,0-0.1-0.1L25.1,45.4z"/>
		<path d="M28.7,36.3C28.7,36.3,28.7,36.3,28.7,36.3c0.1,0,0.1,0,0.1,0.1L28.7,36.3z"/>
		<path d="M26.4,35.3C26.4,35.3,26.4,35.4,26.4,35.3c0.1,0,0.1,0,0.1,0.1L26.4,35.3z"/>
		<path d="M22.8,44.5C22.7,44.4,22.7,44.4,22.8,44.5c-0.1,0-0.1,0-0.1-0.1L22.8,44.5z"/>
		<path d="M24.1,34.4C24.1,34.4,24.1,34.4,24.1,34.4c0.1,0,0.1,0,0.1,0.1L24.1,34.4z"/>
		<path d="M20.4,43.5C20.4,43.5,20.4,43.5,20.4,43.5c-0.1,0-0.1,0-0.1-0.1L20.4,43.5z"/>
		<path d="M21.7,33.4C21.8,33.4,21.8,33.4,21.7,33.4c0.1,0,0.1,0,0.1,0.1L21.7,33.4z"/>
		<path d="M18.1,42.5C18.1,42.5,18.1,42.5,18.1,42.5c-0.1,0-0.1,0-0.1-0.1L18.1,42.5z"/>
		<path d="M19.4,32.5C19.4,32.5,19.5,32.5,19.4,32.5c0.1,0,0.1,0,0.1,0.1L19.4,32.5z"/>
		<path d="M15.8,41.6C15.8,41.6,15.8,41.6,15.8,41.6c-0.1,0-0.1,0-0.1-0.1L15.8,41.6z"/>
		<path d="M35.2,39C35.2,39,35.2,39,35.2,39c0.1,0,0.1,0,0.1,0.1L35.2,39z"/>
		<path d="M32.9,38C32.9,38,32.9,38,32.9,38c0.1,0,0.1,0,0.1,0.1L32.9,38z"/>
		<path d="M29.3,47.1C29.3,47.1,29.2,47.1,29.3,47.1c-0.1,0-0.1,0-0.1-0.1L29.3,47.1z"/>
		<path d="M28.2,54.1c0-0.1,0-0.2,0-0.3c0-0.1,0-0.2,0-0.3L28.2,54.1z"/>
		<path d="M69.4,36.8C69.4,36.7,69.4,36.7,69.4,36.8c0.1,0,0.1-0.1,0.1-0.1L69.4,36.8z"/>
		<path d="M73.5,45.6C73.5,45.7,73.5,45.7,73.5,45.6c-0.1,0-0.1,0.1-0.1,0.1L73.5,45.6z"/>
		<path d="M75.8,44.6C75.8,44.6,75.8,44.6,75.8,44.6c-0.1,0-0.1,0.1-0.1,0.1L75.8,44.6z"/>
		<path d="M71.7,35.7C71.7,35.7,71.7,35.7,71.7,35.7c0.1,0,0.1-0.1,0.1-0.1L71.7,35.7z"/>
		<path d="M74,34.7C74,34.7,74,34.7,74,34.7c0.1,0,0.1-0.1,0.1-0.1L74,34.7z"/>
		<path d="M78.1,43.6C78.1,43.6,78,43.6,78.1,43.6c-0.1,0-0.1,0.1-0.1,0.1L78.1,43.6z"/>
		<path d="M76.2,33.7C76.3,33.7,76.3,33.7,76.2,33.7c0.1,0,0.1-0.1,0.1-0.1L76.2,33.7z"/>
		<path d="M80.4,42.6C80.4,42.6,80.3,42.6,80.4,42.6c-0.1,0-0.1,0.1-0.1,0.1L80.4,42.6z"/>
		<path d="M78.5,32.7C78.6,32.7,78.6,32.6,78.5,32.7c0.1,0,0.1-0.1,0.1-0.1L78.5,32.7z"/>
		<path d="M82.7,41.6C82.6,41.6,82.6,41.6,82.7,41.6c-0.1,0-0.1,0.1-0.1,0.1L82.7,41.6z"/>
		<path d="M80.8,31.6C80.8,31.6,80.9,31.6,80.8,31.6c0.1,0,0.1-0.1,0.1-0.1L80.8,31.6z"/>
		<path d="M85,40.5C84.9,40.5,84.9,40.6,85,40.5c-0.1,0-0.1,0.1-0.1,0.1L85,40.5z"/>
		<path d="M65.2,38.6C65.3,38.6,65.3,38.6,65.2,38.6c0.1,0,0.1-0.1,0.1-0.1L65.2,38.6z"/>
		<path d="M67.5,37.6C67.5,37.6,67.6,37.6,67.5,37.6c0.1,0,0.1-0.1,0.1-0.1L67.5,37.6z"/>
		<path d="M71.7,46.5C71.6,46.5,71.6,46.5,71.7,46.5c-0.1,0-0.1,0.1-0.1,0.1L71.7,46.5z"/>
		<path d="M99.6,28.9c-0.9-1.9-3.2-2.8-5.2-1.9l-2,0.9l0.1-0.2c0.6-0.8,0.4-1.9-0.4-2.5c-0.5-0.4-1.2-0.4-1.8-0.2
			c-0.3,0.1-0.5,0.3-0.7,0.6l-3.3,4.6c-0.5-0.7-1.5-0.9-2.3-0.5c-0.8,0.4-1.2,1.2-1.1,2c-0.6-0.3-1.4-0.4-2.1-0.1
			c-0.4,0.2-0.7,0.5-1,0.8c-0.4-0.1-0.9,0-1.3,0.2c-0.4,0.2-0.7,0.5-1,0.8c-0.4-0.1-0.9,0-1.3,0.2c-0.4,0.2-0.7,0.5-1,0.8
			c-0.4-0.1-0.9,0-1.3,0.2c-0.4,0.2-0.7,0.5-1,0.8c-0.4-0.1-0.9,0-1.3,0.2c-0.4,0.2-0.7,0.5-1,0.8c-0.4-0.1-0.9,0-1.3,0.2
			c-0.3,0.2-0.6,0.4-0.8,0.6c-0.3,0-0.7,0.1-1,0.2c-0.4,0.2-0.7,0.5-1,0.8c-0.4-0.1-0.9,0-1.3,0.2c-0.1,0-0.1,0.1-0.2,0.1
			c-0.4-0.2-0.8-0.5-1.2-0.6c0.5-0.4,0.8-1,0.8-1.7l0,0c0-1.2-1-2.2-2.2-2.1l0,0c0.7-0.6,1.4-1.3,2-2.1c0.6-0.7,1.2-1.5,1.7-2.4
			l0.3,0c0.5,0,1-0.1,1.4-0.3c0.2-0.1,0.4-0.2,0.6-0.3c1-0.7,1.6-1.8,1.6-3.1v0l0,0l-0.2-13.3c0,0,0-0.1,0-0.1
			c0-0.6-0.2-1.1-0.5-1.6c-0.2-0.3-0.4-0.6-0.7-0.9c-0.2-0.2-0.4-0.3-0.5-0.4c-0.6-0.4-1.3-0.6-2.1-0.6l-0.3,0c-2-3-4.7-5.4-8-6.9
			c-2.5-1.2-5.4-1.8-8.3-1.8c-3.4,0-6.6,1-9.3,2.6c-2.7,1.6-5.1,3.8-6.7,6.5l-0.3,0c-1,0-1.9,0.4-2.6,1.1c-0.2,0.2-0.3,0.4-0.4,0.5
			c-0.1,0.2-0.2,0.4-0.3,0.6c-0.1,0.1-0.1,0.3-0.1,0.4c-0.1,0.3-0.2,0.7-0.1,1l0,0l0,0l0,0.2l0.2,13.1c0,0.2,0,0.3,0.1,0.5
			c0.2,1.1,0.7,2,1.6,2.5c0.2,0.1,0.4,0.2,0.6,0.3c0.4,0.2,0.9,0.3,1.4,0.3l0.3,0c0.3,0.4,0.6,0.8,0.8,1.2c0.9,1.2,1.9,2.2,3,3.1
			l0.1,0c-1.2,0-2.2,1-2.1,2.2l0,0c0,0.8,0.5,1.5,1.2,1.9c-0.4,0.2-0.8,0.5-1.1,0.7c-0.2-0.1-0.4-0.3-0.6-0.4
			c-0.4-0.2-0.9-0.2-1.3-0.1c-0.3-0.3-0.6-0.6-1-0.8c-0.3-0.1-0.7-0.2-1-0.2c-0.2-0.3-0.5-0.5-0.8-0.6c-0.4-0.2-0.9-0.2-1.3-0.1
			c-0.3-0.3-0.6-0.6-1-0.8c-0.4-0.2-0.9-0.2-1.3-0.1c-0.3-0.3-0.6-0.6-1-0.8c-0.4-0.2-0.9-0.2-1.3-0.1c-0.3-0.3-0.6-0.6-1-0.8
			c-0.4-0.2-0.9-0.2-1.3-0.1c-0.3-0.3-0.6-0.6-1-0.8c-0.4-0.2-0.9-0.2-1.3-0.1c-0.3-0.3-0.6-0.6-1-0.8c-0.9-0.3-1.8-0.2-2.5,0.4
			c0.2-0.9-0.2-1.8-1.1-2.2c-0.8-0.4-1.8-0.1-2.3,0.6l-3.4-4.5c-0.2-0.2-0.4-0.4-0.7-0.6c-0.6-0.3-1.3-0.2-1.8,0.2
			c-0.8,0.6-0.9,1.7-0.3,2.5l0.1,0.2l-2-0.9c-2-0.8-4.3,0.1-5.1,2c-0.8,2,0.1,4.3,2,5.1l7.9,3.4c-0.2,0.8,0.3,1.7,1.1,2.1
			c1,0.4,2.1,0,2.5-1l0.3-0.6c0.1,0.9,0.6,1.8,1.5,2.2c0.4,0.2,0.9,0.2,1.3,0.1c0.3,0.3,0.6,0.6,1,0.8c0.4,0.2,0.9,0.2,1.3,0.1
			c0.3,0.3,0.6,0.6,1,0.8c0.4,0.2,0.9,0.2,1.3,0.1c0.3,0.3,0.6,0.6,1,0.8c0.4,0.2,0.9,0.2,1.3,0.1c0.3,0.3,0.6,0.6,1,0.8
			c0.4,0.2,0.9,0.2,1.3,0.1c0.3,0.3,0.6,0.6,1,0.8c0.3,0.1,0.7,0.2,1,0.2c0.2,0.3,0.5,0.5,0.8,0.6c0.4,0.1,0.7,0.2,1.1,0.2
			c-1.3,1.9-2,4.1-2.1,6.5c0.2,3.8,2.1,7,4.9,9.1c1.1,2.1,2.8,3.7,5,4.6c-0.1,0.1-0.3,0.1-0.4,0.2c-0.2,0.1-0.4,0.3-0.5,0.4
			c-0.5,0.5-0.8,1.1-1,1.8c0,0.2-0.1,0.5-0.1,0.7l0,0l0,0c0,0.6,0.2,1.2,0.5,1.7c-0.3,0.5-0.5,1.1-0.5,1.7c0,0.5,0.1,0.9,0.3,1.3
			c0.1,0.1,0.1,0.3,0.2,0.4c-0.3,0.5-0.5,1.1-0.5,1.7l0,0l0,0c0,0.6,0.2,1.2,0.5,1.7c-0.3,0.5-0.5,1.1-0.5,1.7l0,0l0,0
			c0,0.5,0.1,0.9,0.3,1.3c0.1,0.1,0.1,0.3,0.2,0.4c-0.3,0.5-0.4,1-0.5,1.6l-0.4,0c-0.4,0-0.7,0.3-0.7,0.7l0,0c0,0.4,0.3,0.6,0.7,0.6
			l0,0l0.1,3.8l-1.1,0c-0.4,0-0.9,0.1-1.3,0.2c-1.6,0.5-2.7,2-2.7,3.7c0,0,0,0,0,0.1c0,0,0,0,0,0.1c0,0.6,0.2,1.1,0.4,1.6
			c-0.6,0.1-1,0.6-1,1.2l0,0c0,0.7,0.6,1.2,1.4,1.2l2.3,0c0,0,0,0,0,0l15.6-0.2c0.6,0,1.2-0.4,1.3-0.9c0.2,0.5,0.7,0.9,1.3,0.9
			L70.3,97c0.8,0,1.4-0.6,1.4-1.3l0,0c0-0.6-0.5-1.1-1.1-1.2c0.2-0.5,0.3-1.1,0.3-1.6c0,0,0,0,0-0.1c0,0,0,0,0-0.1
			c0-1.7-1.2-3.2-2.8-3.6C67.8,89,67.4,89,66.9,89l-1.1,0l-0.1-3.8c0.4,0,0.7-0.3,0.7-0.7l0,0c0-0.4-0.3-0.6-0.7-0.6l-0.2,0
			c-0.1-0.6-0.2-1.1-0.5-1.6c0.3-0.5,0.5-1.1,0.5-1.7c0,0,0,0,0,0.1l0-0.2c0,0,0,0,0,0.1c0-0.6-0.2-1.2-0.5-1.7
			c0.3-0.5,0.5-1.1,0.5-1.7c0,0,0,0,0,0.1l0-0.2c0,0,0,0,0,0.1c0-0.6-0.2-1.2-0.5-1.7c0.3-0.5,0.5-1.1,0.5-1.7c0,0,0,0,0,0.1l0-0.2
			c0,0,0,0,0,0.1c0-0.6-0.2-1.2-0.5-1.7c0.3-0.5,0.5-1.1,0.5-1.7c0,0,0,0,0,0.1l0-0.1l0,0c0,0,0,0,0,0l0-0.1c0,0,0,0,0,0.1
			c0-0.5-0.1-0.9-0.3-1.3h0c-0.3-0.7-0.8-1.2-1.4-1.6c2.3-0.9,4.1-2.7,5.2-4.9c2.8-2.1,4.6-5.5,4.6-9.2c-0.1-2.4-0.9-4.7-2.3-6.5
			c0.1,0,0.3-0.1,0.4-0.1c0.3-0.2,0.6-0.4,0.8-0.6c0.3,0,0.7-0.1,1-0.2c0.4-0.2,0.7-0.5,1-0.8c0.4,0.1,0.9,0,1.3-0.2
			c0.4-0.2,0.7-0.5,1-0.8c0.4,0.1,0.9,0,1.3-0.2c0.4-0.2,0.7-0.5,1-0.8c0.4,0.1,0.9,0,1.3-0.2c0.4-0.2,0.7-0.5,1-0.8
			c0.4,0.1,0.9,0,1.3-0.2c0.4-0.2,0.7-0.5,1-0.8c0.4,0.1,0.9,0,1.3-0.2c0.7-0.3,1.2-1,1.4-1.7l0,0c0.4,1,1.6,1.4,2.5,0.9
			c0.8-0.4,1.2-1.3,1.1-2.1l7.8-3.7C99.6,33.2,100.5,30.9,99.6,28.9z M51,95.7c-0.2-0.5-0.7-0.9-1.2-0.9l0.2,0l-0.1-6.7
			c0-0.1,0-0.2,0-0.3c0,0,0,0,0,0.1l0-0.1l0,0l0,0l0-0.1c0,0,0,0,0,0.1c0-0.1,0-0.3,0-0.4l0-1.9h0l0,0c0.3,0,0.6-0.3,0.6-0.6l0,0
			c0-0.3-0.3-0.6-0.6-0.6c0-0.6-0.2-1.1-0.5-1.6c0.3-0.5,0.5-1.1,0.5-1.7c0,0,0,0,0,0.1l0-0.2c0,0,0,0,0,0.1c0-0.6-0.2-1.2-0.5-1.7
			c0.3-0.5,0.5-1.1,0.5-1.7c0,0,0,0,0,0.1l0-0.2c0,0,0,0,0,0.1c0-0.6-0.2-1.2-0.5-1.7c0.3-0.5,0.5-1.1,0.5-1.7c0,0,0,0,0,0.1l0-0.2
			c0,0,0,0,0,0.1c0-0.6-0.2-1.2-0.5-1.7c0.3-0.5,0.5-1.1,0.5-1.7c0,0,0,0,0,0.1l0-0.2c0,0,0,0.1,0,0.1c0-0.5-0.1-0.9-0.3-1.3h0
			c-0.2-0.3-0.4-0.6-0.6-0.9l4-0.1c-0.1,0.1-0.2,0.2-0.3,0.3c-0.3,0.5-0.5,1-0.6,1.6c0,0.1,0,0.2,0,0.4l0,0l0,0
			c0,0.6,0.2,1.2,0.5,1.7c-0.3,0.5-0.5,1.1-0.5,1.7c0,0.2,0,0.3,0.1,0.5c0.1,0.5,0.2,0.9,0.5,1.3c-0.3,0.5-0.5,1.1-0.5,1.7l0,0l0,0
			c0,0.6,0.2,1.2,0.5,1.7c-0.3,0.5-0.5,1.1-0.5,1.7l0,0l0,0c0,0.5,0.1,0.9,0.3,1.3c0.1,0.1,0.1,0.3,0.2,0.4c-0.3,0.5-0.4,1-0.5,1.6
			l-0.1,0c-0.4,0-0.7,0.3-0.7,0.7l0,0c0,0.3,0.3,0.6,0.6,0.6l0.1,3.8h0l0.1,5.6c0,0,0.1,0,0.1,0l0.2,0C51.7,94.8,51.2,95.2,51,95.7z
			"/>
		<path d="M36.1,70.7c0,0,0-0.1,0-0.1c0,0,0-0.1,0-0.1L36.1,70.7z"/>
		<path d="M36.2,74.2c0,0,0-0.1,0-0.1c0,0,0-0.1,0-0.1L36.2,74.2z"/>
		<path d="M36.2,77.7c0,0,0-0.1,0-0.1c0,0,0-0.1,0-0.1L36.2,77.7z"/>
		<path d="M36.3,81.1c0,0,0-0.1,0-0.1c0,0,0-0.1,0-0.1L36.3,81.1z"/>
		<path d="M51.9,70.5c0,0,0-0.1,0-0.1c0,0,0-0.1,0-0.1L51.9,70.5z"/>
		<path d="M51.9,74c0,0,0-0.1,0-0.1c0,0,0-0.1,0-0.1L51.9,74z"/>
		<path d="M52,77.4c0,0,0-0.1,0-0.1c0,0,0-0.1,0-0.1L52,77.4z"/>
		<path d="M52,80.9c0,0,0-0.1,0-0.1c0,0,0-0.1,0-0.1L52,80.9z"/>
	</g>
</g>
</svg>
