<?xml version="1.0" encoding="utf-8"?>
<!-- Generator: Adobe Illustrator 17.1.0, SVG Export Plug-In . SVG Version: 6.00 Build 0)  -->
<!DOCTYPE svg PUBLIC "-//W3C//DTD SVG 1.1//EN" "http://www.w3.org/Graphics/SVG/1.1/DTD/svg11.dtd">
<svg version="1.1" id="Layer_1" xmlns="http://www.w3.org/2000/svg" xmlns:xlink="http://www.w3.org/1999/xlink" x="0px" y="0px"
	 viewBox="0 0 144 140" enable-background="new 0 0 144 140" xml:space="preserve">
<g>
	<g>
		<g>
			<path fill="#B2B2B2" d="M45,53.2c0,0-0.1,0-0.1,0c0,0-0.1,0-0.1,0L45,53.2z"/>
			<path fill="#B2B2B2" d="M39.4,66.1c0,0,0.1,0,0.1,0c0,0,0.1,0,0.1,0L39.4,66.1z"/>
			<path fill="#B2B2B2" d="M36.1,64.8c0,0,0.1,0,0.1,0c0,0,0.1,0,0.1,0L36.1,64.8z"/>
			<path fill="#B2B2B2" d="M41.7,51.9c0,0-0.1,0-0.1,0c0,0-0.1,0-0.1,0L41.7,51.9z"/>
			<path fill="#B2B2B2" d="M38.3,50.5c0,0-0.1,0-0.1,0c0,0-0.1,0-0.1,0L38.3,50.5z"/>
			<path fill="#B2B2B2" d="M32.8,63.4c0,0,0.1,0,0.1,0c0,0,0.1,0,0.1,0L32.8,63.4z"/>
			<path fill="#B2B2B2" d="M35,49.1c0,0-0.1,0-0.1,0c0,0-0.1,0-0.1,0L35,49.1z"/>
			<path fill="#B2B2B2" d="M29.5,62c0,0,0.1,0,0.1,0c0,0,0.1,0,0.1,0L29.5,62z"/>
			<path fill="#B2B2B2" d="M31.7,47.8c0,0-0.1,0-0.1,0c0,0-0.1,0-0.1,0L31.7,47.8z"/>
			<path fill="#B2B2B2" d="M26.1,60.7c0,0,0.1,0,0.1,0c0,0,0.1,0,0.1,0L26.1,60.7z"/>
			<path fill="#B2B2B2" d="M28.4,46.4c0,0-0.1,0-0.1,0c0,0-0.1,0-0.1,0L28.4,46.4z"/>
			<path fill="#B2B2B2" d="M22.8,59.3c0,0,0.1,0,0.1,0c0,0,0.1,0,0.1,0L22.8,59.3z"/>
			<path fill="#B2B2B2" d="M64.3,61.2c0,0-0.1,0-0.1,0c0,0-0.1,0-0.1,0L64.3,61.2z"/>
			<path fill="#B2B2B2" d="M58.7,74.1c0,0,0.1,0,0.1,0c0,0,0.1,0,0.1,0L58.7,74.1z"/>
			<path fill="#B2B2B2" d="M66.1,65.9l-2.5,6.2c-0.8,1.9-2.9,2.7-4.7,2c-0.6-0.3-1.1-0.7-1.5-1.2c-0.6,0.1-1.2,0-1.9-0.2
				c-0.6-0.3-1.1-0.7-1.5-1.2c-0.6,0.1-1.2,0-1.9-0.2c-0.6-0.3-1.1-0.7-1.5-1.2c-0.6,0.1-1.2,0-1.9-0.2c-0.6-0.3-1.1-0.7-1.5-1.2
				c-0.6,0.1-1.2,0-1.9-0.2c-0.6-0.3-1.1-0.7-1.5-1.2c-0.6,0.1-1.2,0-1.9-0.2c-0.5-0.2-0.9-0.5-1.2-0.9c-0.5,0-1,0-1.5-0.2
				c-0.6-0.3-1.1-0.7-1.5-1.2c-0.6,0.1-1.2,0-1.9-0.2c-0.6-0.3-1.1-0.7-1.5-1.2c-0.6,0.1-1.2,0-1.9-0.2c-0.6-0.3-1.1-0.7-1.5-1.2
				c-0.6,0.1-1.2,0-1.9-0.2c-0.6-0.3-1.1-0.7-1.5-1.2c-0.6,0.1-1.2,0-1.9-0.2c-0.6-0.3-1.1-0.7-1.5-1.2c-0.6,0.1-1.2,0-1.9-0.2
				c-1.8-0.8-2.7-2.9-1.9-4.8l2.5-6.2c0.8-1.9,2.9-2.7,4.7-2c0.6,0.3,1.1,0.7,1.5,1.2c0.6-0.1,1.2,0,1.9,0.2
				c0.6,0.3,1.1,0.7,1.5,1.2c0.6-0.1,1.2,0,1.9,0.2c0.6,0.3,1.1,0.7,1.5,1.2c0.6-0.1,1.2,0,1.9,0.2c0.6,0.3,1.1,0.7,1.5,1.2
				c0.6-0.1,1.2,0,1.9,0.2c0.6,0.3,1.1,0.7,1.5,1.2c0.6-0.1,1.2,0,1.9,0.2c0.5,0.2,0.9,0.5,1.2,0.9c0.5,0,1,0,1.5,0.2
				c0.6,0.3,1.1,0.7,1.5,1.2c0.6-0.1,1.2,0,1.9,0.2c0.6,0.3,1.1,0.7,1.5,1.2c0.6-0.1,1.2,0,1.9,0.2c0.6,0.3,1.1,0.7,1.5,1.2
				c0.6-0.1,1.2,0,1.9,0.2c0.6,0.3,1.1,0.7,1.5,1.2c0.6-0.1,1.2,0,1.9,0.2c0.6,0.3,1.1,0.7,1.5,1.2c0.6-0.1,1.2,0,1.9,0.2
				C66,62,66.8,64.1,66.1,65.9z"/>
			<path fill="#B2B2B2" d="M55.4,72.7c0,0,0.1,0,0.1,0c0,0,0.1,0,0.1,0L55.4,72.7z"/>
			<path fill="#B2B2B2" d="M60.9,59.8c0,0-0.1,0-0.1,0c0,0-0.1,0-0.1,0L60.9,59.8z"/>
			<path fill="#B2B2B2" d="M57.6,58.5c0,0-0.1,0-0.1,0c0,0-0.1,0-0.1,0L57.6,58.5z"/>
			<path fill="#B2B2B2" d="M52.1,71.4c0,0,0.1,0,0.1,0c0,0,0.1,0,0.1,0L52.1,71.4z"/>
			<path fill="#B2B2B2" d="M54.3,57.1c0,0-0.1,0-0.1,0c0,0-0.1,0-0.1,0L54.3,57.1z"/>
			<path fill="#B2B2B2" d="M48.7,70c0,0,0.1,0,0.1,0c0,0,0.1,0,0.1,0L48.7,70z"/>
			<path fill="#B2B2B2" d="M51,55.7c0,0-0.1,0-0.1,0c0,0-0.1,0-0.1,0L51,55.7z"/>
			<path fill="#B2B2B2" d="M45.4,68.6c0,0,0.1,0,0.1,0c0,0,0.1,0,0.1,0L45.4,68.6z"/>
			<path fill="#B2B2B2" d="M47.7,54.4c0,0-0.1,0-0.1,0c0,0-0.1,0-0.1,0L47.7,54.4z"/>
			<path fill="#B2B2B2" d="M42.1,67.3c0,0,0.1,0,0.1,0c0,0,0.1,0,0.1,0L42.1,67.3z"/>
		</g>
		<g>
			<path d="M16.3,55.3l4.2-9.7c0.4-0.9,1.4-1.2,2.2-0.9c0.9,0.4,1.2,1.4,0.9,2.2l-4.2,9.7c-0.4,0.9-1.4,1.2-2.2,0.9
				C16.3,57.2,16,56.2,16.3,55.3z"/>
			<path fill="#B2B2B2" d="M0.9,43.3c1.2-2.8,4.5-4.1,7.3-2.9l2.9,1.2l-0.2-0.2c-0.9-1.1-0.6-2.8,0.5-3.6c0.7-0.6,1.7-0.7,2.6-0.3
				c0.4,0.2,0.8,0.5,1,0.8l4.9,6.4l-4.7,10.9L3.8,50.6C1,49.4-0.3,46.1,0.9,43.3z"/>
			<path fill="#FFBE08" d="M23.1,43.8c1.4,0.6,2,2.2,1.4,3.6l-4.2,9.7c-0.6,1.4-2.2,2-3.6,1.4c-1.2-0.5-1.8-1.8-1.6-3l4.7-10.9
				C20.6,43.7,22,43.3,23.1,43.8z"/>
		</g>
		<g>
			<path fill="#B2B2B2" d="M40.8,77.3c0-0.2,0-0.3,0-0.5c0-0.2,0-0.3,0-0.5L40.8,77.3z"/>
			<path fill="#B2B2B2" d="M105.5,75.4c0,0.2,0,0.3,0,0.5c0,0.2,0,0.3,0,0.5L105.5,75.4z"/>
			<path fill="#B2B2B2" d="M99.5,63.7c-1.6-6.2-7.3-10.8-14-10.7L60,53.4c-6.7,0.1-12.3,4.8-13.7,11.1c-3.4,3.1-5.5,7.5-5.6,12.3
				c0.2,5.4,2.9,10.1,7,13c2.4,4.6,7.3,7.8,12.8,7.7l25.6-0.4c5.6-0.1,10.4-3.4,12.6-8.1c4-3.1,6.6-7.9,6.6-13.2
				C105.3,71,103,66.7,99.5,63.7z"/>
		</g>
		<g>
			<path fill="#B2B2B2" d="M40.8,77.3c0-0.2,0-0.3,0-0.5c0-0.2,0-0.3,0-0.5L40.8,77.3z"/>
			<path fill="#B2B2B2" d="M105.5,75.4c0,0.2,0,0.3,0,0.5c0,0.2,0,0.3,0,0.5L105.5,75.4z"/>
			<path fill="#B2B2B2" d="M99.5,63.7c-1.6-6.2-7.3-10.8-14-10.7L60,53.4c-6.7,0.1-12.3,4.8-13.7,11.1c-3.4,3.1-5.5,7.5-5.6,12.3
				c0.2,5.4,2.9,10.1,7,13c2.4,4.6,7.3,7.8,12.8,7.7l25.6-0.4c5.6-0.1,10.4-3.4,12.6-8.1c4-3.1,6.6-7.9,6.6-13.2
				C105.3,71,103,66.7,99.5,63.7z"/>
		</g>
		<path fill="#8C8C8C" d="M99.8,63.7c-1.6-6.2-7.3-10.8-14-10.7l-3.1,0c6.7-0.1,12.4,4.5,14,10.7c3.5,3,5.7,7.3,5.9,12.2
			c0-0.2,0-0.3,0-0.5l0,1c0-0.2,0-0.3,0-0.5c-0.1,5.4-2.7,10.2-6.6,13.2c-2.3,4.7-7,8-12.6,8.1l3.1,0c5.6-0.1,10.4-3.4,12.6-8.1
			c4-3.1,6.6-7.9,6.6-13.2C105.5,71,103.2,66.7,99.8,63.7z"/>
		<path fill="#C1C1C1" d="M46.5,64.5c1.4-6.3,6.9-11,13.7-11.1l3.1,0c-6.7,0.1-12.3,4.8-13.7,11.1c-3.4,3.1-5.5,7.5-5.6,12.3
			c0-0.2,0-0.3,0-0.5l0,1c0-0.2,0-0.3,0-0.5c0.2,5.4,2.9,10.1,7,13c2.4,4.6,7.3,7.8,12.8,7.7l-3.1,0c-5.6,0.1-10.4-3.1-12.8-7.7
			c-4.1-3-6.8-7.7-7-13C41,71.9,43.1,67.5,46.5,64.5z"/>
		<path fill="#B2B2B2" d="M48.5,43.1l0.5,0c1.5,2.3,3.4,4.4,5.6,6.2L90,48.7c2.1-1.8,3.9-4,5.4-6.3l0.5,0c2.9,0,5.2-2.4,5.2-5.3
			l-0.3-19.1c0-2.9-2.4-5.2-5.3-5.2l-0.5,0C90,5.2,81.4,0.3,71.6,0.4s-18.2,5.3-23,13l-0.5,0c-2.9,0-5.2,2.4-5.2,5.3l0.3,19.1
			C43.3,40.8,45.6,43.1,48.5,43.1z"/>
		<path fill="#8C8C8C" d="M95.5,12.8l-0.5,0C90,5.2,81.4,0.3,71.6,0.4c-0.7,0-1.3,0-2,0.1C78.5,1,86.3,5.8,91,12.8l0.5,0
			c2.9,0,5.3,2.3,5.3,5.2l0.3,19.1c0,2.9-2.3,5.3-5.2,5.3l-0.5,0c-1.5,2.4-3.3,4.5-5.4,6.3l4-0.1c2.1-1.8,3.9-4,5.4-6.3l0.5,0
			c2.9,0,5.2-2.4,5.2-5.3l-0.3-19.1C100.8,15,98.4,12.7,95.5,12.8z"/>
		<path fill="#C1C1C1" d="M48.1,13.5l0.5,0c4.8-7.7,13.3-12.9,23-13c0.7,0,1.3,0,2,0c-8.9,0.8-16.6,5.8-21,12.9l-0.5,0
			c-2.9,0-5.2,2.4-5.2,5.3l0.3,19.1c0,2.9,2.4,5.2,5.3,5.2l0.5,0c1.5,2.3,3.4,4.4,5.6,6.2l-4,0.1c-2.2-1.8-4-3.8-5.6-6.2l-0.5,0
			c-2.9,0-5.3-2.3-5.3-5.2l-0.3-19.1C42.9,15.9,45.2,13.5,48.1,13.5z"/>
		<path fill="#A3DAE3" d="M71.4,16.3c-19,0.3-20.9,7.7-20.9,7.7s0,0.4,0,1c0,0.7,0,1.7,0,2.9l0.1,5.3l0,2.9c0,0.6,0,1,0,1
			s0.3,7.4,22,7.1c19-0.3,20.9-7.7,20.9-7.7s0-0.4,0-1l0-2.9l-0.1-5.3c0-1.1,0-2.2,0-2.9c0-0.6,0-1,0-1S93.1,16,71.4,16.3z"/>
		<path fill="#FFBE08" d="M90.1,55l-35.2,0.5c-1.7,0-3.1-1.4-3.2-3.1l0-0.1c0-1.7,1.4-3.1,3.1-3.2L90,48.7c1.7,0,3.1,1.4,3.2,3.1
			l0,0.1C93.2,53.6,91.8,55,90.1,55z"/>
		<path opacity="0.63" fill="#FFFFFF" d="M77.2,18.9c0,0,14.2,1.2,14.2,5.5s0.2,11,0.2,11s0,1.6-1.3,1.7c-1.4,0-7-15.9-12.1-15.8
			C73.2,21.3,75.1,18.7,77.2,18.9z"/>
		<g>
			<g>
				<path fill="#B2B2B2" d="M99.8,52.5c0,0,0.1,0,0.1,0c0,0,0.1,0,0.1,0L99.8,52.5z"/>
				<path fill="#B2B2B2" d="M105.7,65.2c0,0-0.1,0-0.1,0c0,0-0.1,0-0.1,0L105.7,65.2z"/>
				<path fill="#B2B2B2" d="M109,63.7c0,0-0.1,0-0.1,0c0,0-0.1,0-0.1,0L109,63.7z"/>
				<path fill="#B2B2B2" d="M103,51c0,0,0.1,0,0.1,0c0,0,0.1,0,0.1,0L103,51z"/>
				<path fill="#B2B2B2" d="M106.3,49.5c0,0,0.1,0,0.1,0c0,0,0.1,0,0.1,0L106.3,49.5z"/>
				<path fill="#B2B2B2" d="M112.3,62.3c0,0-0.1,0-0.1,0c0,0-0.1,0-0.1,0L112.3,62.3z"/>
				<path fill="#B2B2B2" d="M109.6,48.1c0,0,0.1,0,0.1,0c0,0,0.1,0,0.1,0L109.6,48.1z"/>
				<path fill="#B2B2B2" d="M115.5,60.8c0,0-0.1,0-0.1,0c0,0-0.1,0-0.1,0L115.5,60.8z"/>
				<path fill="#B2B2B2" d="M112.9,46.6c0,0,0.1,0,0.1,0c0,0,0.1,0,0.1,0L112.9,46.6z"/>
				<path fill="#B2B2B2" d="M118.8,59.3c0,0-0.1,0-0.1,0c0,0-0.1,0-0.1,0L118.8,59.3z"/>
				<path fill="#B2B2B2" d="M116.2,45.1c0,0,0.1,0,0.1,0c0,0,0.1,0,0.1,0L116.2,45.1z"/>
				<path fill="#B2B2B2" d="M122.1,57.9c0,0-0.1,0-0.1,0c0,0-0.1,0-0.1,0L122.1,57.9z"/>
				<path fill="#B2B2B2" d="M80.7,61c0,0,0.1,0,0.1,0c0,0,0.1,0,0.1,0L80.7,61z"/>
				<path fill="#B2B2B2" d="M86.7,73.7c0,0-0.1,0-0.1,0c0,0-0.1,0-0.1,0L86.7,73.7z"/>
				<path fill="#B2B2B2" d="M79.1,65.8l2.7,6.1c0.8,1.8,2.9,2.7,4.8,1.9c0.6-0.3,1.1-0.7,1.4-1.2c0.6,0.1,1.2,0,1.9-0.3
					c0.6-0.3,1.1-0.7,1.4-1.2c0.6,0.1,1.2,0,1.9-0.3c0.6-0.3,1.1-0.7,1.4-1.2c0.6,0.1,1.2,0,1.9-0.3c0.6-0.3,1.1-0.7,1.4-1.2
					c0.6,0.1,1.2,0,1.9-0.3c0.6-0.3,1.1-0.7,1.4-1.2c0.6,0.1,1.2,0,1.9-0.3c0.5-0.2,0.9-0.5,1.2-0.9c0.5,0,1-0.1,1.5-0.3
					c0.6-0.3,1.1-0.7,1.4-1.2c0.6,0.1,1.2,0,1.9-0.3c0.6-0.3,1.1-0.7,1.4-1.2c0.6,0.1,1.2,0,1.9-0.3c0.6-0.3,1.1-0.7,1.4-1.2
					c0.6,0.1,1.2,0,1.9-0.3c0.6-0.3,1.1-0.7,1.4-1.2c0.6,0.1,1.2,0,1.9-0.3c0.6-0.3,1.1-0.7,1.4-1.2c0.6,0.1,1.2,0,1.9-0.3
					c1.8-0.9,2.6-3,1.8-4.8L121,47c-0.8-1.8-2.9-2.7-4.8-1.9c-0.6,0.3-1.1,0.7-1.4,1.2c-0.6-0.1-1.2,0-1.9,0.3
					c-0.6,0.3-1.1,0.7-1.4,1.2c-0.6-0.1-1.2,0-1.9,0.3c-0.6,0.3-1.1,0.7-1.4,1.2c-0.6-0.1-1.2,0-1.9,0.3c-0.6,0.3-1.1,0.7-1.4,1.2
					c-0.6-0.1-1.2,0-1.9,0.3c-0.6,0.3-1.1,0.7-1.4,1.2c-0.6-0.1-1.2,0-1.9,0.3c-0.5,0.2-0.9,0.5-1.2,0.9c-0.5,0-1,0.1-1.5,0.3
					c-0.6,0.3-1.1,0.7-1.4,1.2c-0.6-0.1-1.2,0-1.9,0.3c-0.6,0.3-1.1,0.7-1.4,1.2c-0.6-0.1-1.2,0-1.9,0.3c-0.6,0.3-1.1,0.7-1.4,1.2
					c-0.6-0.1-1.2,0-1.9,0.3c-0.6,0.3-1.1,0.7-1.4,1.2c-0.6-0.1-1.2,0-1.9,0.3c-0.6,0.3-1.1,0.7-1.4,1.2c-0.6-0.1-1.2,0-1.9,0.3
					C79,61.8,78.2,63.9,79.1,65.8z"/>
				<path fill="#B2B2B2" d="M89.9,72.2c0,0-0.1,0-0.1,0c0,0-0.1,0-0.1,0L89.9,72.2z"/>
				<path fill="#B2B2B2" d="M84,59.5c0,0,0.1,0,0.1,0c0,0,0.1,0,0.1,0L84,59.5z"/>
				<path fill="#B2B2B2" d="M87.3,58c0,0,0.1,0,0.1,0c0,0,0.1,0,0.1,0L87.3,58z"/>
				<path fill="#B2B2B2" d="M93.2,70.8c0,0-0.1,0-0.1,0c0,0-0.1,0-0.1,0L93.2,70.8z"/>
				<path fill="#B2B2B2" d="M90.6,56.6c0,0,0.1,0,0.1,0c0,0,0.1,0,0.1,0L90.6,56.6z"/>
				<path fill="#B2B2B2" d="M96.5,69.3c0,0-0.1,0-0.1,0c0,0-0.1,0-0.1,0L96.5,69.3z"/>
				<path fill="#B2B2B2" d="M93.8,55.1c0,0,0.1,0,0.1,0c0,0,0.1,0,0.1,0L93.8,55.1z"/>
				<path fill="#B2B2B2" d="M99.8,67.8c0,0-0.1,0-0.1,0c0,0-0.1,0-0.1,0L99.8,67.8z"/>
				<path fill="#B2B2B2" d="M97.1,53.6c0,0,0.1,0,0.1,0c0,0,0.1,0,0.1,0L97.1,53.6z"/>
				<path fill="#B2B2B2" d="M103,66.4c0,0-0.1,0-0.1,0c0,0-0.1,0-0.1,0L103,66.4z"/>
			</g>
			<g>
				<path d="M127.1,56c-0.8,0.4-1.9,0-2.2-0.8l-4.5-9.6c-0.4-0.8,0-1.8,0.8-2.2c0.8-0.4,1.8,0,2.2,0.8l4.5,9.6
					C128.4,54.6,128,55.6,127.1,56z"/>
				<path fill="#B2B2B2" d="M143,41.2c-1.3-2.8-4.6-4-7.4-2.7l-2.8,1.3l0.2-0.2c0.8-1.2,0.6-2.8-0.6-3.6c-0.8-0.5-1.8-0.6-2.6-0.2
					c-0.4,0.2-0.7,0.5-1,0.8l-4.7,6.5l5,10.7l11.2-5.2C143.1,47.3,144.3,44,143,41.2z"/>
				<path fill="#FFBE08" d="M120.8,42.4c-1.4,0.6-2,2.3-1.3,3.6l4.5,9.6c0.6,1.4,2.3,2,3.6,1.3c1.2-0.5,1.8-1.8,1.5-3l-5-10.7
					C123.3,42.2,122,41.8,120.8,42.4z"/>
			</g>
		</g>
		<g>
			<g>
				<path fill="#B2B2B2" d="M71.6,100.5c0,0.1,0,0.1,0,0.1c0,0.1,0,0.1,0,0.1L71.6,100.5z"/>
				<path fill="#B2B2B2" d="M52.1,101.1c0-0.1,0-0.1,0-0.1c0-0.1,0-0.1,0-0.1L52.1,101.1z"/>
				<path fill="#B2B2B2" d="M71.6,100.7c-0.1-2.8-2.4-4.9-5.2-4.9l-9.2,0.1c-2.8,0-5,2.3-5,5.1c0,0.9,0.3,1.8,0.8,2.5
					c-0.4,0.7-0.7,1.6-0.7,2.5c0,0.9,0.3,1.8,0.8,2.5c-0.4,0.7-0.7,1.6-0.7,2.5c0,0.9,0.3,1.8,0.8,2.5c-0.4,0.7-0.7,1.6-0.7,2.5
					c0,0.9,0.3,1.8,0.8,2.5c-0.4,0.7-0.7,1.6-0.7,2.5c0,0.9,0.3,1.8,0.8,2.5c-0.4,0.7-0.7,1.6-0.7,2.5c0.1,2.8,2.4,4.9,5.2,4.9
					l9.2-0.1c2.8,0,5-2.3,5-5.1c0-0.9-0.3-1.8-0.8-2.5c0.4-0.7,0.7-1.6,0.7-2.5c0-0.9-0.3-1.8-0.8-2.5c0.4-0.7,0.7-1.6,0.7-2.5
					c0-0.9-0.3-1.8-0.8-2.5c0.4-0.7,0.7-1.6,0.7-2.5c0-0.9-0.3-1.8-0.8-2.5c0.4-0.7,0.7-1.6,0.7-2.5c0-0.9-0.3-1.8-0.8-2.5
					C71.3,102.5,71.6,101.6,71.6,100.7z"/>
				<path fill="#B2B2B2" d="M52.2,106.1c0-0.1,0-0.1,0-0.1c0-0.1,0-0.1,0-0.1L52.2,106.1z"/>
				<path fill="#B2B2B2" d="M71.7,105.5c0,0.1,0,0.1,0,0.1c0,0.1,0,0.1,0,0.1L71.7,105.5z"/>
				<path fill="#B2B2B2" d="M71.7,110.5c0,0.1,0,0.1,0,0.1c0,0.1,0,0.1,0,0.1L71.7,110.5z"/>
				<path fill="#B2B2B2" d="M52.2,111.1c0-0.1,0-0.1,0-0.1c0-0.1,0-0.1,0-0.1L52.2,111.1z"/>
				<path fill="#B2B2B2" d="M71.8,115.5c0,0.1,0,0.1,0,0.1c0,0.1,0,0.1,0,0.1L71.8,115.5z"/>
				<path fill="#B2B2B2" d="M52.3,116.1c0-0.1,0-0.1,0-0.1c0-0.1,0-0.1,0-0.1L52.3,116.1z"/>
				<path fill="#B2B2B2" d="M71.9,120.5c0,0.1,0,0.1,0,0.1c0,0.1,0,0.1,0,0.1L71.9,120.5z"/>
				<path fill="#B2B2B2" d="M52.4,121c0-0.1,0-0.1,0-0.1c0-0.1,0-0.1,0-0.1L52.4,121z"/>
				<path fill="#B2B2B2" d="M71.9,125.4c0,0.1,0,0.1,0,0.1c0,0.1,0,0.1,0,0.1L71.9,125.4z"/>
				<path fill="#B2B2B2" d="M52.5,126c0-0.1,0-0.1,0-0.1c0-0.1,0-0.1,0-0.1L52.5,126z"/>
			</g>
			<path fill="#C1C1C1" d="M57.2,95.9l2.7,0c-2.8,0-5,2.3-5,5.1c0-0.1,0-0.1,0-0.1l0,0.3c0-0.1,0-0.1,0-0.1c0,0.9,0.3,1.8,0.8,2.5
				c-0.4,0.7-0.7,1.6-0.7,2.5c0-0.1,0-0.1,0-0.1l0,0.3c0-0.1,0-0.1,0-0.1c0,0.9,0.3,1.8,0.8,2.5c-0.4,0.7-0.7,1.6-0.7,2.5
				c0-0.1,0-0.1,0-0.1l0,0.3c0-0.1,0-0.1,0-0.1c0,0.9,0.3,1.8,0.8,2.5c-0.4,0.7-0.7,1.6-0.7,2.5c0-0.1,0-0.1,0-0.1l0,0.3
				c0-0.1,0-0.1,0-0.1c0,0.9,0.3,1.8,0.8,2.5c-0.4,0.7-0.7,1.6-0.7,2.5c0,0,0-0.1,0-0.1l0,0.3c0-0.1,0-0.1,0-0.1
				c0,0.9,0.3,1.8,0.8,2.5c-0.4,0.7-0.7,1.6-0.7,2.5c0-0.1,0-0.1,0-0.1l0,0.3c0-0.1,0-0.1,0-0.1c0.1,2.8,2.4,4.9,5.2,4.9l-2.7,0
				c-2.8,0-5.1-2.1-5.2-4.9c0-0.9,0.3-1.8,0.7-2.5c-0.5-0.7-0.7-1.6-0.8-2.5c0-0.9,0.3-1.8,0.7-2.5c-0.5-0.7-0.7-1.6-0.8-2.5
				c0-0.9,0.3-1.8,0.7-2.5c-0.5-0.7-0.7-1.6-0.8-2.5c0-0.9,0.3-1.8,0.7-2.5c-0.5-0.7-0.7-1.6-0.8-2.5c0-0.9,0.3-1.8,0.7-2.5
				c-0.5-0.7-0.7-1.6-0.8-2.5C52.2,98.2,54.4,96,57.2,95.9z"/>
			<path fill="#8C8C8C" d="M71.1,98.8l-2.7,0c0.3,0.6,0.4,1.2,0.5,1.9c0-0.1,0-0.1,0-0.1l0,0.3c0-0.1,0-0.1,0-0.1
				c0,0.9-0.3,1.8-0.7,2.5c0.5,0.7,0.7,1.6,0.8,2.5c0-0.1,0-0.1,0-0.1l0,0.3c0-0.1,0-0.1,0-0.1c0,0.9-0.3,1.8-0.7,2.5
				c0.5,0.7,0.7,1.6,0.8,2.5c0-0.1,0-0.1,0-0.1l0,0.3c0-0.1,0-0.1,0-0.1c0,0.9-0.3,1.8-0.7,2.5c0.5,0.7,0.7,1.6,0.8,2.5
				c0-0.1,0-0.1,0-0.1l0,0.3c0-0.1,0-0.1,0-0.1c0,0.9-0.3,1.8-0.7,2.5c0.5,0.7,0.7,1.6,0.8,2.5c0,0,0-0.1,0-0.1l0,0.3
				c0-0.1,0-0.1,0-0.1c0,0.9-0.3,1.8-0.7,2.5c0.5,0.7,0.7,1.6,0.8,2.5c0-0.1,0-0.1,0-0.1l0,0.3c0-0.1,0-0.1,0-0.1c0,2.8-2.3,5-5,5.1
				l2.7,0c2.8,0,5-2.3,5-5.1c0-0.9-0.3-1.8-0.8-2.5c0.4-0.7,0.7-1.6,0.7-2.5c0-0.9-0.3-1.8-0.8-2.5c0.4-0.7,0.7-1.6,0.7-2.5
				c0-0.9-0.3-1.8-0.8-2.5c0.4-0.7,0.7-1.6,0.7-2.5c0-0.9-0.3-1.8-0.8-2.5c0.4-0.7,0.7-1.6,0.7-2.5c0-0.9-0.3-1.8-0.8-2.5
				c0.4-0.7,0.7-1.6,0.7-2.5C71.6,100,71.4,99.3,71.1,98.8z"/>
		</g>
		
			<rect x="68.4" y="122.2" transform="matrix(0.9999 -1.435587e-02 1.435587e-02 0.9999 -1.8439 1.0204)" fill="#8C8C8C" width="3.6" height="13.4"/>
		<g>
			<g>
				<path fill="#FFBE08" d="M71.6,139.2l-22.4,0.3c-1.1,0-2-0.8-2-1.8l0,0c0-1,0.9-1.8,2-1.8l22.4-0.3c1.1,0,2,0.8,2,1.8l0,0
					C73.6,138.4,72.7,139.2,71.6,139.2z"/>
				<g>
					<path fill="#FFBE08" d="M71.6,139.2l-25.7,0.4c-1.1,0-2-0.8-2-1.8l0,0c0-1,0.9-1.8,2-1.8l25.7-0.4c1.1,0,2,0.8,2,1.8l0,0
						C73.6,138.4,72.7,139.2,71.6,139.2z"/>
					<path fill="#B2B2B2" d="M46.2,136l25.7-0.4c0,0,0.1,0,0.1,0l-0.1-8l-21.4,0.3c-3.1,0-5.7,2.6-5.6,5.8c0,0.9,0.2,1.7,0.6,2.4
						C45.7,136,45.9,136,46.2,136z"/>
					
						<rect x="52" y="122.2" transform="matrix(0.9999 -1.435587e-02 1.435587e-02 0.9999 -1.7992 0.9019)" fill="#B2B2B2" width="19.9" height="7.1"/>
					<path fill="#FFBE08" d="M71.7,122.2l-19.8,0.3c-0.6,0-1-0.4-1-0.9l0,0c0-0.5,0.4-0.9,1-0.9l19.8-0.3c0.6,0,1,0.4,1,0.9l0,0
						C72.7,121.8,72.3,122.2,71.7,122.2z"/>
				</g>
			</g>
			<path fill="#C1C1C1" d="M50.2,128c-3,0-5.4,2.5-5.4,5.5c0,0.9,0.2,1.7,0.6,2.5l1.3,0c-0.1-0.4-0.2-0.8-0.2-1.2
				c0-3,2.4-5.5,5.4-5.5c0.8,0,1.5,0.1,2.2,0.4C53.2,128.6,51.8,128,50.2,128z"/>
		</g>
		<g>
			<g>
				<path fill="#B2B2B2" d="M94.1,100.2c0,0.1,0,0.1,0,0.1c0,0.1,0,0.1,0,0.1L94.1,100.2z"/>
				<path fill="#B2B2B2" d="M74.7,100.8c0-0.1,0-0.1,0-0.1c0-0.1,0-0.1,0-0.1L74.7,100.8z"/>
				<path fill="#B2B2B2" d="M94.1,100.4c-0.1-2.8-2.4-4.9-5.2-4.9l-9.2,0.1c-2.8,0-5,2.3-5,5.1c0,0.9,0.3,1.8,0.8,2.5
					c-0.4,0.7-0.7,1.6-0.7,2.5c0,0.9,0.3,1.8,0.8,2.5c-0.4,0.7-0.7,1.6-0.7,2.5c0,0.9,0.3,1.8,0.8,2.5c-0.4,0.7-0.7,1.6-0.7,2.5
					c0,0.9,0.3,1.8,0.8,2.5c-0.4,0.7-0.7,1.6-0.7,2.5c0,0.9,0.3,1.8,0.8,2.5c-0.4,0.7-0.7,1.6-0.7,2.5c0.1,2.8,2.4,4.9,5.2,4.9
					l9.2-0.1c2.8,0,5-2.3,5-5.1c0-0.9-0.3-1.8-0.8-2.5c0.4-0.7,0.7-1.6,0.7-2.5c0-0.9-0.3-1.8-0.8-2.5c0.4-0.7,0.7-1.6,0.7-2.5
					c0-0.9-0.3-1.8-0.8-2.5c0.4-0.7,0.7-1.6,0.7-2.5c0-0.9-0.3-1.8-0.8-2.5c0.4-0.7,0.7-1.6,0.7-2.5c0-0.9-0.3-1.8-0.8-2.5
					C93.9,102.1,94.1,101.3,94.1,100.4z"/>
				<path fill="#B2B2B2" d="M74.7,105.8c0-0.1,0-0.1,0-0.1c0-0.1,0-0.1,0-0.1L74.7,105.8z"/>
				<path fill="#B2B2B2" d="M94.2,105.2c0,0.1,0,0.1,0,0.1c0,0.1,0,0.1,0,0.1L94.2,105.2z"/>
				<path fill="#B2B2B2" d="M94.3,110.2c0,0.1,0,0.1,0,0.1c0,0.1,0,0.1,0,0.1L94.3,110.2z"/>
				<path fill="#B2B2B2" d="M74.8,110.8c0-0.1,0-0.1,0-0.1c0-0.1,0-0.1,0-0.1L74.8,110.8z"/>
				<path fill="#B2B2B2" d="M94.4,115.2c0,0.1,0,0.1,0,0.1c0,0.1,0,0.1,0,0.1L94.4,115.2z"/>
				<path fill="#B2B2B2" d="M74.9,115.7c0-0.1,0-0.1,0-0.1c0-0.1,0-0.1,0-0.1L74.9,115.7z"/>
				<path fill="#B2B2B2" d="M94.4,120.1c0,0.1,0,0.1,0,0.1c0,0.1,0,0.1,0,0.1L94.4,120.1z"/>
				<path fill="#B2B2B2" d="M74.9,120.7c0-0.1,0-0.1,0-0.1c0-0.1,0-0.1,0-0.1L74.9,120.7z"/>
				<path fill="#B2B2B2" d="M94.5,125.1c0,0.1,0,0.1,0,0.1c0,0.1,0,0.1,0,0.1L94.5,125.1z"/>
				<path fill="#B2B2B2" d="M75,125.7c0-0.1,0-0.1,0-0.1c0-0.1,0-0.1,0-0.1L75,125.7z"/>
			</g>
			<path fill="#C1C1C1" d="M79.7,95.6l2.7,0c-2.8,0-5,2.3-5,5.1c0-0.1,0-0.1,0-0.1l0,0.3c0-0.1,0-0.1,0-0.1c0,0.9,0.3,1.8,0.8,2.5
				c-0.4,0.7-0.7,1.6-0.7,2.5c0-0.1,0-0.1,0-0.1l0,0.3c0-0.1,0-0.1,0-0.1c0,0.9,0.3,1.8,0.8,2.5c-0.4,0.7-0.7,1.6-0.7,2.5
				c0-0.1,0-0.1,0-0.1l0,0.3c0-0.1,0-0.1,0-0.1c0,0.9,0.3,1.8,0.8,2.5c-0.4,0.7-0.7,1.6-0.7,2.5c0-0.1,0-0.1,0-0.1l0,0.3
				c0-0.1,0-0.1,0-0.1c0,0.9,0.3,1.8,0.8,2.5c-0.4,0.7-0.7,1.6-0.7,2.5c0,0,0-0.1,0-0.1l0,0.3c0-0.1,0-0.1,0-0.1
				c0,0.9,0.3,1.8,0.8,2.5c-0.4,0.7-0.7,1.6-0.7,2.5c0-0.1,0-0.1,0-0.1l0,0.3c0-0.1,0-0.1,0-0.1c0.1,2.8,2.4,4.9,5.2,4.9l-2.7,0
				c-2.8,0-5.1-2.1-5.2-4.9c0-0.9,0.3-1.8,0.7-2.5c-0.5-0.7-0.7-1.6-0.8-2.5c0-0.9,0.3-1.8,0.7-2.5c-0.5-0.7-0.7-1.6-0.8-2.5
				c0-0.9,0.3-1.8,0.7-2.5c-0.5-0.7-0.7-1.6-0.8-2.5c0-0.9,0.3-1.8,0.7-2.5c-0.5-0.7-0.7-1.6-0.8-2.5c0-0.9,0.3-1.8,0.7-2.5
				c-0.5-0.7-0.7-1.6-0.8-2.5C74.7,97.9,76.9,95.6,79.7,95.6z"/>
			<path fill="#8C8C8C" d="M93.7,98.4l-2.7,0c0.3,0.6,0.4,1.2,0.5,1.9c0-0.1,0-0.1,0-0.1l0,0.3c0-0.1,0-0.1,0-0.1
				c0,0.9-0.3,1.8-0.7,2.5c0.5,0.7,0.7,1.6,0.8,2.5c0-0.1,0-0.1,0-0.1l0,0.3c0-0.1,0-0.1,0-0.1c0,0.9-0.3,1.8-0.7,2.5
				c0.5,0.7,0.7,1.6,0.8,2.5c0-0.1,0-0.1,0-0.1l0,0.3c0-0.1,0-0.1,0-0.1c0,0.9-0.3,1.8-0.7,2.5c0.5,0.7,0.7,1.6,0.8,2.5
				c0-0.1,0-0.1,0-0.1l0,0.3c0-0.1,0-0.1,0-0.1c0,0.9-0.3,1.8-0.7,2.5c0.5,0.7,0.7,1.6,0.8,2.5c0,0,0-0.1,0-0.1l0,0.3
				c0-0.1,0-0.1,0-0.1c0,0.9-0.3,1.8-0.7,2.5c0.5,0.7,0.7,1.6,0.8,2.5c0-0.1,0-0.1,0-0.1l0,0.3c0-0.1,0-0.1,0-0.1c0,2.8-2.3,5-5,5.1
				l2.7,0c2.8,0,5-2.3,5-5.1c0-0.9-0.3-1.8-0.8-2.5c0.4-0.7,0.7-1.6,0.7-2.5c0-0.9-0.3-1.8-0.8-2.5c0.4-0.7,0.7-1.6,0.7-2.5
				c0-0.9-0.3-1.8-0.8-2.5c0.4-0.7,0.7-1.6,0.7-2.5c0-0.9-0.3-1.8-0.8-2.5c0.4-0.7,0.7-1.6,0.7-2.5c0-0.9-0.3-1.8-0.8-2.5
				c0.4-0.7,0.7-1.6,0.7-2.5C94.1,99.7,93.9,99,93.7,98.4z"/>
		</g>
		<g>
			<g>
				<path fill="#FFBE08" d="M75.4,139.2l22.4-0.3c1.1,0,2-0.8,2-1.8l0,0c0-1-0.9-1.8-2-1.8l-22.4,0.3c-1.1,0-2,0.8-2,1.8l0,0
					C73.4,138.4,74.3,139.2,75.4,139.2z"/>
				<g>
					<path fill="#FFBE08" d="M75.4,139.2l25.7-0.4c1.1,0,2-0.8,2-1.8l0,0c0-1-0.9-1.8-2-1.8l-25.7,0.4c-1.1,0-2,0.8-2,1.8l0,0
						C73.4,138.4,74.3,139.2,75.4,139.2z"/>
					<path fill="#B2B2B2" d="M100.8,135.2l-25.7,0.4c0,0-0.1,0-0.1,0l-0.1-8l21.4-0.3c3.1,0,5.7,2.5,5.8,5.6c0,0.9-0.2,1.7-0.5,2.5
						C101.3,135.2,101,135.2,100.8,135.2z"/>
					
						<rect x="74.8" y="121.9" transform="matrix(-0.9999 1.435579e-02 -1.435579e-02 -0.9999 171.3054 249.6668)" fill="#B2B2B2" width="19.9" height="7.1"/>
					<path fill="#FFBE08" d="M74.9,122.2l19.8-0.3c0.6,0,1-0.4,1-0.9l0,0c0-0.5-0.5-0.9-1-0.9l-19.8,0.3c-0.6,0-1,0.4-1,0.9l0,0
						C73.9,121.8,74.3,122.2,74.9,122.2z"/>
				</g>
			</g>
			<path fill="#C1C1C1" d="M96.5,127.3c3,0,5.5,2.4,5.5,5.4c0,0.9-0.2,1.7-0.6,2.5l-1.3,0c0.1-0.4,0.1-0.8,0.1-1.2
				c0-3-2.5-5.4-5.5-5.4c-0.8,0-1.5,0.2-2.2,0.5C93.6,128,95,127.3,96.5,127.3z"/>
		</g>
	</g>
	<g opacity="0.2">
		<path d="M44.8,53.2C44.8,53.2,44.8,53.2,44.8,53.2c0.1,0.1,0.2,0.1,0.2,0.1L44.8,53.2z"/>
		<path d="M39.6,66.2C39.6,66.2,39.5,66.2,39.6,66.2c-0.1-0.1-0.2-0.1-0.2-0.1L39.6,66.2z"/>
		<path d="M36.3,64.9C36.3,64.8,36.2,64.8,36.3,64.9c-0.1-0.1-0.2-0.1-0.2-0.1L36.3,64.9z"/>
		<path d="M41.5,51.8C41.5,51.8,41.5,51.8,41.5,51.8c0.1,0.1,0.2,0.1,0.2,0.1L41.5,51.8z"/>
		<path d="M38.1,50.4C38.2,50.4,38.2,50.5,38.1,50.4c0.1,0.1,0.2,0.1,0.2,0.1L38.1,50.4z"/>
		<path d="M33,63.5C32.9,63.5,32.9,63.5,33,63.5c-0.1-0.1-0.2-0.1-0.2-0.1L33,63.5z"/>
		<path d="M34.8,49C34.9,49.1,34.9,49.1,34.8,49c0.1,0.1,0.2,0.1,0.2,0.1L34.8,49z"/>
		<path d="M29.7,62.1C29.6,62.1,29.6,62.1,29.7,62.1c-0.1-0.1-0.2-0.1-0.2-0.1L29.7,62.1z"/>
		<path d="M31.5,47.7C31.5,47.7,31.6,47.7,31.5,47.7c0.1,0.1,0.2,0.1,0.2,0.1L31.5,47.7z"/>
		<path d="M26.3,60.7C26.3,60.7,26.3,60.7,26.3,60.7c-0.1-0.1-0.2-0.1-0.2-0.1L26.3,60.7z"/>
		<path d="M28.2,46.3C28.2,46.3,28.2,46.3,28.2,46.3c0.1,0.1,0.2,0.1,0.2,0.1L28.2,46.3z"/>
		<path d="M23,59.4C23,59.4,23,59.3,23,59.4c-0.1-0.1-0.2-0.1-0.2-0.1L23,59.4z"/>
		<path d="M50.8,55.6C50.8,55.7,50.9,55.7,50.8,55.6c0.1,0.1,0.2,0.1,0.2,0.1L50.8,55.6z"/>
		<path d="M47.5,54.3C47.5,54.3,47.5,54.3,47.5,54.3c0.1,0.1,0.2,0.1,0.2,0.1L47.5,54.3z"/>
		<path d="M42.3,67.3C42.3,67.3,42.2,67.3,42.3,67.3c-0.1-0.1-0.2-0.1-0.2-0.1L42.3,67.3z"/>
		<path d="M40.8,77.3c0-0.2,0-0.3,0-0.5c0-0.2,0-0.3,0-0.5L40.8,77.3z"/>
		<path d="M99.8,52.5c0,0,0.1,0,0.1,0c0,0,0.1,0,0.1,0L99.8,52.5z"/>
		<path d="M105.7,65.2c0,0-0.1,0-0.1,0c0,0-0.1,0-0.1,0L105.7,65.2z"/>
		<path d="M109,63.7c0,0-0.1,0-0.1,0c0,0-0.1,0-0.1,0L109,63.7z"/>
		<path d="M103,51c0,0,0.1,0,0.1,0c0,0,0.1,0,0.1,0L103,51z"/>
		<path d="M106.3,49.5c0,0,0.1,0,0.1,0c0,0,0.1,0,0.1,0L106.3,49.5z"/>
		<path d="M112.3,62.3c0,0-0.1,0-0.1,0c0,0-0.1,0-0.1,0L112.3,62.3z"/>
		<path d="M109.6,48.1c0,0,0.1,0,0.1,0c0,0,0.1,0,0.1,0L109.6,48.1z"/>
		<path d="M115.5,60.8c0,0-0.1,0-0.1,0c0,0-0.1,0-0.1,0L115.5,60.8z"/>
		<path d="M112.9,46.6c0,0,0.1,0,0.1,0c0,0,0.1,0,0.1,0L112.9,46.6z"/>
		<path d="M118.8,59.3c0,0-0.1,0-0.1,0c0,0-0.1,0-0.1,0L118.8,59.3z"/>
		<path d="M116.2,45.1c0,0,0.1,0,0.1,0c0,0,0.1,0,0.1,0L116.2,45.1z"/>
		<path d="M122.1,57.9c0,0-0.1,0-0.1,0c0,0-0.1,0-0.1,0L122.1,57.9z"/>
		<path d="M93.8,55.1c0,0,0.1,0,0.1,0c0,0,0.1,0,0.1,0L93.8,55.1z"/>
		<path d="M97.1,53.6c0,0,0.1,0,0.1,0c0,0,0.1,0,0.1,0L97.1,53.6z"/>
		<path d="M103,66.4c0,0-0.1,0-0.1,0c0,0-0.1,0-0.1,0L103,66.4z"/>
		<path d="M143,41.2c-1.3-2.8-4.6-4-7.4-2.7l-2.8,1.3l0.2-0.2c0.8-1.2,0.6-2.8-0.6-3.6c-0.8-0.5-1.8-0.6-2.6-0.2
			c-0.4,0.2-0.7,0.5-1,0.8l-4.7,6.5c-0.8-1-2.1-1.3-3.3-0.8c-1.1,0.5-1.7,1.7-1.5,2.8c-0.9-0.4-2-0.5-3-0.1
			c-0.6,0.3-1.1,0.7-1.4,1.2c-0.6-0.1-1.2,0-1.9,0.3c-0.6,0.3-1.1,0.7-1.4,1.2c-0.6-0.1-1.2,0-1.9,0.3c-0.6,0.3-1.1,0.7-1.4,1.2
			c-0.6-0.1-1.2,0-1.9,0.3c-0.6,0.3-1.1,0.7-1.4,1.2c-0.6-0.1-1.2,0-1.9,0.3c-0.6,0.3-1.1,0.7-1.4,1.2c-0.6-0.1-1.2,0-1.9,0.3
			c-0.5,0.2-0.9,0.5-1.2,0.9c-0.5,0-1,0.1-1.5,0.3c-0.6,0.3-1.1,0.7-1.4,1.2c-0.6-0.1-1.2,0-1.9,0.3c-0.1,0-0.2,0.1-0.3,0.2
			c-0.5-0.3-1.1-0.7-1.7-0.9c0.7-0.6,1.2-1.5,1.2-2.5l0-0.1c0-1.7-1.4-3.1-3.2-3.1l0.1,0c1-0.9,2-1.9,2.9-3s1.7-2.2,2.5-3.4l0.5,0
			c0.7,0,1.4-0.2,2-0.4c0.3-0.1,0.6-0.3,0.9-0.5c1.4-1,2.3-2.6,2.3-4.4v0l0,0l-0.3-19.1c0,0,0-0.1,0-0.1c0-0.8-0.3-1.6-0.6-2.3
			c-0.3-0.5-0.6-0.9-0.9-1.3c-0.2-0.2-0.5-0.4-0.8-0.6c-0.8-0.6-1.9-0.9-2.9-0.9l-0.5,0c-2.8-4.3-6.8-7.7-11.4-9.8
			c-3.6-1.7-7.7-2.6-11.9-2.5c-4.9,0.1-9.4,1.4-13.4,3.7s-7.3,5.5-9.6,9.4l-0.5,0c-1.5,0-2.8,0.6-3.7,1.6c-0.2,0.2-0.4,0.5-0.6,0.8
			c-0.2,0.3-0.3,0.6-0.5,0.9c-0.1,0.2-0.1,0.4-0.2,0.6c-0.1,0.5-0.2,1-0.2,1.5l0,0l0,0l0,0.3l0.3,18.8c0,0.2,0,0.5,0.1,0.7
			c0.2,1.5,1.1,2.8,2.3,3.6c0.3,0.2,0.6,0.3,0.9,0.5c0.6,0.3,1.3,0.4,2.1,0.4l0.5,0c0.4,0.6,0.8,1.1,1.2,1.7
			c1.3,1.6,2.7,3.1,4.4,4.5l0.1,0c-1.7,0-3.1,1.4-3.1,3.2l0,0.1c0,1.2,0.7,2.2,1.7,2.7c-0.6,0.3-1.1,0.7-1.6,1.1
			c-0.2-0.2-0.5-0.4-0.8-0.5c-0.6-0.2-1.3-0.3-1.9-0.2c-0.4-0.5-0.9-0.9-1.5-1.2c-0.5-0.2-1-0.3-1.5-0.2c-0.3-0.4-0.7-0.7-1.2-0.9
			C44.3,53,43.6,52.9,43,53c-0.4-0.5-0.9-0.9-1.5-1.2c-0.6-0.2-1.3-0.3-1.9-0.2c-0.4-0.5-0.9-0.9-1.5-1.2c-0.6-0.2-1.3-0.3-1.9-0.2
			c-0.4-0.5-0.9-0.9-1.5-1.2c-0.6-0.2-1.3-0.3-1.9-0.2c-0.4-0.5-0.9-0.9-1.5-1.2c-0.6-0.2-1.3-0.3-1.9-0.2c-0.4-0.5-0.9-0.9-1.5-1.2
			c-1.2-0.5-2.6-0.2-3.6,0.5c0.3-1.3-0.3-2.6-1.6-3.1c-1.2-0.5-2.5-0.1-3.3,0.9L15,38.2c-0.3-0.4-0.6-0.6-1-0.8
			c-0.9-0.4-1.8-0.2-2.6,0.3c-1.1,0.9-1.4,2.5-0.5,3.6l0.2,0.2l-2.9-1.2c-2.8-1.2-6.1,0.1-7.3,2.9c-1.2,2.8,0.1,6.1,2.9,7.3
			l11.4,4.9c-0.2,1.2,0.4,2.5,1.6,3c1.4,0.6,3,0,3.6-1.4l0.4-0.9c0.1,1.3,0.9,2.6,2.2,3.2c0.6,0.2,1.3,0.3,1.9,0.2
			c0.4,0.5,0.9,0.9,1.5,1.2c0.6,0.2,1.3,0.3,1.9,0.2c0.4,0.5,0.9,0.9,1.5,1.2c0.6,0.2,1.3,0.3,1.9,0.2c0.4,0.5,0.9,0.9,1.5,1.2
			c0.6,0.2,1.3,0.3,1.9,0.2c0.4,0.5,0.9,0.9,1.5,1.2c0.6,0.2,1.3,0.3,1.9,0.2c0.4,0.5,0.9,0.9,1.5,1.2c0.5,0.2,1,0.3,1.5,0.2
			c0.3,0.4,0.7,0.7,1.2,0.9c0.5,0.2,1,0.3,1.5,0.2c-1.8,2.7-2.9,5.9-3,9.3c0.2,5.4,2.9,10.1,7,13c1.5,3,4.1,5.3,7.1,6.6
			c-0.2,0.1-0.4,0.2-0.6,0.3c-0.3,0.2-0.5,0.4-0.7,0.6c-0.7,0.7-1.2,1.6-1.4,2.5c-0.1,0.3-0.1,0.7-0.1,1l0,0l0,0
			c0,0.9,0.3,1.8,0.8,2.5c-0.4,0.7-0.7,1.6-0.7,2.5c0,0.7,0.2,1.3,0.5,1.9c0.1,0.2,0.2,0.4,0.3,0.6c-0.4,0.7-0.7,1.6-0.7,2.5l0,0
			l0,0c0,0.9,0.3,1.8,0.8,2.5c-0.4,0.7-0.7,1.6-0.7,2.5l0,0l0,0c0,0.7,0.2,1.3,0.5,1.9c0.1,0.2,0.2,0.4,0.3,0.6
			c-0.4,0.7-0.6,1.4-0.7,2.3l-0.5,0c-0.6,0-1,0.4-1,0.9l0,0c0,0.5,0.5,0.9,1,0.9l0,0l0.1,5.4l-1.5,0c-0.6,0-1.2,0.1-1.8,0.3
			c-2.2,0.7-3.8,2.8-3.8,5.3c0,0,0,0.1,0,0.1c0,0,0,0.1,0,0.1c0,0.8,0.2,1.6,0.6,2.3c-0.9,0.2-1.5,0.9-1.5,1.8l0,0
			c0,1,0.9,1.8,2,1.8l3.3,0c0,0,0,0,0,0l22.4-0.3c0.9,0,1.7-0.6,1.9-1.3c0.2,0.7,1,1.3,1.9,1.3l25.7-0.4c1.1,0,2-0.8,2-1.8l0,0
			c0-0.8-0.7-1.5-1.5-1.7c0.3-0.7,0.5-1.5,0.5-2.4c0,0,0-0.1,0-0.1c0,0,0-0.1,0-0.1c0-2.5-1.7-4.5-4-5.2c-0.6-0.2-1.2-0.3-1.8-0.3
			l-1.5,0l-0.1-5.4c0.6,0,1-0.4,1-0.9l0,0c0-0.5-0.5-0.9-1-0.9l-0.2,0c-0.1-0.8-0.3-1.6-0.7-2.2c0.4-0.7,0.7-1.6,0.7-2.4
			c0,0,0,0.1,0,0.1l0-0.3c0,0,0,0.1,0,0.1c0-0.9-0.3-1.7-0.8-2.4c0.4-0.7,0.7-1.6,0.7-2.4c0,0,0,0.1,0,0.1l0-0.3c0,0,0,0.1,0,0.1
			c0-0.9-0.3-1.7-0.8-2.4c0.4-0.7,0.7-1.6,0.7-2.4c0,0,0,0.1,0,0.1l0-0.3c0,0,0,0.1,0,0.1c0-0.9-0.3-1.7-0.8-2.4
			c0.4-0.7,0.7-1.6,0.7-2.4c0,0,0,0.1,0,0.1l0-0.1l0,0c0,0,0,0,0,0l0-0.1c0,0,0,0.1,0,0.1c0-0.7-0.2-1.3-0.5-1.9h0
			c-0.4-1-1.2-1.7-2.1-2.3c3.3-1.3,5.9-3.9,7.5-7c4-3.1,6.6-7.9,6.6-13.2c-0.1-3.5-1.4-6.7-3.3-9.3c0.2,0,0.4-0.1,0.5-0.2
			c0.5-0.2,0.9-0.5,1.2-0.9c0.5,0,1-0.1,1.5-0.3c0.6-0.3,1.1-0.7,1.4-1.2c0.6,0.1,1.2,0,1.9-0.3c0.6-0.3,1.1-0.7,1.4-1.2
			c0.6,0.1,1.2,0,1.9-0.3c0.6-0.3,1.1-0.7,1.4-1.2c0.6,0.1,1.2,0,1.9-0.3c0.6-0.3,1.1-0.7,1.4-1.2c0.6,0.1,1.2,0,1.9-0.3
			c0.6-0.3,1.1-0.7,1.4-1.2c0.6,0.1,1.2,0,1.9-0.3c1-0.5,1.7-1.4,2-2.4l0,0.1c0.6,1.4,2.3,2,3.6,1.3c1.2-0.5,1.8-1.8,1.5-3l11.2-5.2
			C143.1,47.3,144.3,44,143,41.2z M73.5,136.9c-0.2-0.7-0.9-1.2-1.8-1.3l0.3,0l-0.1-9.6c0-0.1,0-0.3,0-0.4c0,0,0,0.1,0,0.1l0-0.1
			l0,0l0,0l0-0.1c0,0,0,0.1,0,0.1c0-0.2,0-0.4-0.1-0.6l0-2.7h0l0,0c0.5-0.1,0.9-0.4,0.9-0.9l0,0c0-0.5-0.4-0.8-0.9-0.9
			c-0.1-0.8-0.3-1.6-0.7-2.3c0.4-0.7,0.7-1.6,0.7-2.4c0,0,0,0.1,0,0.1l0-0.3c0,0,0,0.1,0,0.1c0-0.9-0.3-1.7-0.8-2.4
			c0.4-0.7,0.7-1.6,0.7-2.4c0,0,0,0.1,0,0.1l0-0.3c0,0,0,0.1,0,0.1c0-0.9-0.3-1.7-0.8-2.4c0.4-0.7,0.7-1.6,0.7-2.4c0,0,0,0.1,0,0.1
			l0-0.3c0,0,0,0.1,0,0.1c0-0.9-0.3-1.7-0.8-2.4c0.4-0.7,0.7-1.6,0.7-2.4c0,0,0,0.1,0,0.1l0-0.3c0,0,0,0.1,0,0.1
			c0-0.7-0.2-1.3-0.5-1.9h0c-0.2-0.5-0.5-0.9-0.9-1.3l5.7-0.1c-0.1,0.2-0.3,0.3-0.4,0.5c-0.5,0.7-0.7,1.5-0.8,2.3
			c0,0.2-0.1,0.3-0.1,0.5l0,0l0,0c0,0.9,0.3,1.8,0.8,2.5c-0.4,0.7-0.7,1.6-0.7,2.5c0,0.2,0,0.5,0.1,0.7c0.1,0.7,0.4,1.3,0.7,1.8
			c-0.4,0.7-0.7,1.6-0.7,2.5l0,0l0,0c0,0.9,0.3,1.8,0.8,2.5c-0.4,0.7-0.7,1.6-0.7,2.5l0,0l0,0c0,0.7,0.2,1.3,0.5,1.9
			c0.1,0.2,0.2,0.4,0.3,0.6c-0.4,0.7-0.6,1.4-0.7,2.3l-0.1,0c-0.6,0-1,0.4-1,0.9l0,0c0,0.5,0.4,0.8,0.9,0.9l0.1,5.4h0l0.1,8
			c0,0,0.1,0,0.1,0l0.3,0C74.5,135.6,73.7,136.1,73.5,136.9z"/>
		<path d="M52.1,101.1c0-0.1,0-0.1,0-0.1c0,0,0-0.1,0-0.1L52.1,101.1z"/>
		<path d="M52.2,106.1c0-0.1,0-0.1,0-0.1c0,0,0-0.1,0-0.1L52.2,106.1z"/>
		<path d="M52.2,111.1c0-0.1,0-0.1,0-0.1c0-0.1,0-0.1,0-0.1L52.2,111.1z"/>
		<path d="M52.3,116.1c0-0.1,0-0.1,0-0.1c0-0.1,0-0.1,0-0.1L52.3,116.1z"/>
		<path d="M74.7,100.8c0-0.1,0-0.1,0-0.1c0,0,0-0.1,0-0.1L74.7,100.8z"/>
		<path d="M74.7,105.8c0-0.1,0-0.1,0-0.1c0,0,0-0.1,0-0.1L74.7,105.8z"/>
		<path d="M74.8,110.8c0-0.1,0-0.1,0-0.1c0-0.1,0-0.1,0-0.1L74.8,110.8z"/>
		<path d="M74.9,115.7c0-0.1,0-0.1,0-0.1c0-0.1,0-0.1,0-0.1L74.9,115.7z"/>
	</g>
</g>
</svg>
