<?xml version="1.0" encoding="utf-8"?>
<!-- Generator: Adobe Illustrator 17.1.0, SVG Export Plug-In . SVG Version: 6.00 Build 0)  -->
<!DOCTYPE svg PUBLIC "-//W3C//DTD SVG 1.1//EN" "http://www.w3.org/Graphics/SVG/1.1/DTD/svg11.dtd">
<svg version="1.1" id="Layer_1" xmlns="http://www.w3.org/2000/svg" xmlns:xlink="http://www.w3.org/1999/xlink" x="0px" y="0px"
	 viewBox="0 0 127 124" enable-background="new 0 0 127 124" xml:space="preserve">
<g>
	<g>
		<g>
			<path fill="#B2B2B2" d="M39.6,47.2C39.6,47.2,39.5,47.2,39.6,47.2c-0.1,0-0.1-0.1-0.2-0.1L39.6,47.2z"/>
			<path fill="#B2B2B2" d="M34.7,58.6C34.7,58.6,34.7,58.6,34.7,58.6c0.1,0,0.1,0.1,0.2,0.1L34.7,58.6z"/>
			<path fill="#B2B2B2" d="M31.8,57.4C31.8,57.4,31.8,57.4,31.8,57.4c0.1,0,0.1,0.1,0.2,0.1L31.8,57.4z"/>
			<path fill="#B2B2B2" d="M36.7,46C36.6,46,36.6,45.9,36.7,46c-0.1,0-0.1-0.1-0.2-0.1L36.7,46z"/>
			<path fill="#B2B2B2" d="M33.7,44.8C33.7,44.7,33.7,44.7,33.7,44.8c-0.1,0-0.1-0.1-0.2-0.1L33.7,44.8z"/>
			<path fill="#B2B2B2" d="M28.8,56.2C28.8,56.2,28.9,56.2,28.8,56.2c0.1,0,0.1,0.1,0.2,0.1L28.8,56.2z"/>
			<path fill="#B2B2B2" d="M30.8,43.5C30.8,43.5,30.7,43.5,30.8,43.5c-0.1,0-0.1-0.1-0.2-0.1L30.8,43.5z"/>
			<path fill="#B2B2B2" d="M25.9,55C25.9,55,25.9,55,25.9,55C26,55,26,55,26.1,55L25.9,55z"/>
			<path fill="#B2B2B2" d="M27.9,42.3C27.8,42.3,27.8,42.3,27.9,42.3c-0.1,0-0.1-0.1-0.2-0.1L27.9,42.3z"/>
			<path fill="#B2B2B2" d="M23,53.7C23,53.8,23,53.8,23,53.7c0.1,0,0.1,0.1,0.2,0.1L23,53.7z"/>
			<path fill="#B2B2B2" d="M24.9,41.1C24.9,41.1,24.9,41.1,24.9,41.1c-0.1,0-0.1-0.1-0.2-0.1L24.9,41.1z"/>
			<path fill="#B2B2B2" d="M20,52.5C20,52.5,20.1,52.6,20,52.5c0.1,0,0.1,0.1,0.2,0.1L20,52.5z"/>
			<path fill="#B2B2B2" d="M56.7,54.2C56.6,54.2,56.6,54.2,56.7,54.2c-0.1,0-0.1-0.1-0.2-0.1L56.7,54.2z"/>
			<path fill="#B2B2B2" d="M51.7,65.6C51.8,65.6,51.8,65.6,51.7,65.6c0.1,0,0.1,0.1,0.2,0.1L51.7,65.6z"/>
			<path fill="#B2B2B2" d="M58.3,58.4L56,63.9c-0.7,1.6-2.5,2.4-4.2,1.8c-0.5-0.2-1-0.6-1.3-1c-0.5,0.1-1.1,0-1.6-0.2
				c-0.5-0.2-1-0.6-1.3-1c-0.5,0.1-1.1,0-1.6-0.2c-0.5-0.2-1-0.6-1.3-1c-0.5,0.1-1.1,0-1.6-0.2c-0.5-0.2-1-0.6-1.3-1
				c-0.5,0.1-1.1,0-1.6-0.2c-0.5-0.2-1-0.6-1.3-1c-0.5,0.1-1.1,0-1.6-0.2c-0.4-0.2-0.8-0.5-1.1-0.8c-0.4,0-0.9,0-1.3-0.2
				c-0.5-0.2-1-0.6-1.3-1c-0.5,0.1-1.1,0-1.6-0.2c-0.5-0.2-1-0.6-1.3-1c-0.5,0.1-1.1,0-1.6-0.2c-0.5-0.2-1-0.6-1.3-1
				c-0.5,0.1-1.1,0-1.6-0.2c-0.5-0.2-1-0.6-1.3-1c-0.5,0.1-1.1,0-1.6-0.2c-0.5-0.2-1-0.6-1.3-1c-0.5,0.1-1.1,0-1.6-0.2
				c-1.6-0.7-2.4-2.6-1.7-4.2l2.2-5.4c0.7-1.6,2.5-2.4,4.2-1.8c0.5,0.2,1,0.6,1.3,1c0.5-0.1,1.1,0,1.6,0.2c0.5,0.2,1,0.6,1.3,1
				c0.5-0.1,1.1,0,1.6,0.2c0.5,0.2,1,0.6,1.3,1c0.5-0.1,1.1,0,1.6,0.2c0.5,0.2,1,0.6,1.3,1c0.5-0.1,1.1,0,1.6,0.2
				c0.5,0.2,1,0.6,1.3,1c0.5-0.1,1.1,0,1.6,0.2c0.4,0.2,0.8,0.5,1.1,0.8c0.4,0,0.9,0,1.3,0.2c0.5,0.2,1,0.6,1.3,1
				c0.5-0.1,1.1,0,1.6,0.2c0.5,0.2,1,0.6,1.3,1c0.5-0.1,1.1,0,1.6,0.2c0.5,0.2,1,0.6,1.3,1c0.5-0.1,1.1,0,1.6,0.2
				c0.5,0.2,1,0.6,1.3,1c0.5-0.1,1.1,0,1.6,0.2c0.5,0.2,1,0.6,1.3,1c0.5-0.1,1.1,0,1.6,0.2C58.2,54.9,58.9,56.8,58.3,58.4z"/>
			<path fill="#B2B2B2" d="M48.8,64.4C48.8,64.4,48.9,64.4,48.8,64.4c0.1,0,0.1,0.1,0.2,0.1L48.8,64.4z"/>
			<path fill="#B2B2B2" d="M53.7,53C53.7,53,53.7,53,53.7,53c-0.1,0-0.1-0.1-0.2-0.1L53.7,53z"/>
			<path fill="#B2B2B2" d="M50.8,51.8C50.8,51.8,50.7,51.8,50.8,51.8c-0.1,0-0.1-0.1-0.2-0.1L50.8,51.8z"/>
			<path fill="#B2B2B2" d="M45.9,63.2C45.9,63.2,45.9,63.2,45.9,63.2c0.1,0,0.1,0.1,0.2,0.1L45.9,63.2z"/>
			<path fill="#B2B2B2" d="M47.9,50.6C47.8,50.6,47.8,50.6,47.9,50.6c-0.1,0-0.1-0.1-0.2-0.1L47.9,50.6z"/>
			<path fill="#B2B2B2" d="M42.9,62C43,62,43,62,42.9,62c0.1,0,0.1,0.1,0.2,0.1L42.9,62z"/>
			<path fill="#B2B2B2" d="M44.9,49.4C44.9,49.4,44.9,49.4,44.9,49.4c-0.1,0-0.1-0.1-0.2-0.1L44.9,49.4z"/>
			<path fill="#B2B2B2" d="M40,60.8C40,60.8,40.1,60.8,40,60.8c0.1,0,0.1,0.1,0.2,0.1L40,60.8z"/>
			<path fill="#B2B2B2" d="M42,48.2C42,48.2,41.9,48.1,42,48.2c-0.1,0-0.1-0.1-0.2-0.1L42,48.2z"/>
			<path fill="#B2B2B2" d="M37.1,59.6C37.1,59.6,37.1,59.6,37.1,59.6c0.1,0,0.1,0.1,0.2,0.1L37.1,59.6z"/>
		</g>
		<g>
			<path d="M14.3,49l3.7-8.6c0.3-0.8,1.2-1.1,2-0.8c0.8,0.3,1.1,1.2,0.8,2L17,50.2c-0.3,0.8-1.2,1.1-2,0.8
				C14.3,50.6,13.9,49.8,14.3,49z"/>
			<path fill="#B2B2B2" d="M0.6,38.4c1.1-2.5,4-3.6,6.5-2.6l2.5,1.1l-0.2-0.2c-0.8-1-0.6-2.4,0.4-3.2c0.7-0.5,1.5-0.6,2.3-0.3
				c0.4,0.2,0.7,0.4,0.9,0.7l4.3,5.7l-4.1,9.6L3.2,44.8C0.7,43.8-0.4,40.9,0.6,38.4z"/>
			<path fill="#FFBE08" d="M20.3,38.8c1.2,0.5,1.8,1.9,1.3,3.2l-3.7,8.6c-0.5,1.2-1.9,1.8-3.2,1.3c-1-0.5-1.6-1.6-1.4-2.6l4.1-9.6
				C18.1,38.7,19.3,38.4,20.3,38.8z"/>
		</g>
		<g>
			<path fill="#B2B2B2" d="M35.9,68.5c0-0.1,0-0.3,0-0.4c0-0.1,0-0.3,0-0.4L35.9,68.5z"/>
			<path fill="#B2B2B2" d="M93.1,66.8c0,0.1,0,0.3,0,0.4c0,0.1,0,0.3,0,0.4L93.1,66.8z"/>
			<path fill="#B2B2B2" d="M87.9,56.4c-1.4-5.5-6.4-9.6-12.3-9.5l-22.6,0.3c-5.9,0.1-10.8,4.3-12.1,9.8c-3,2.7-4.9,6.6-4.9,10.9
				c0.2,4.8,2.6,8.9,6.2,11.5c2.1,4.1,6.4,6.9,11.3,6.8l22.6-0.3c4.9-0.1,9.2-3,11.1-7.2c3.5-2.7,5.8-7,5.9-11.7
				C92.9,62.9,90.9,59.1,87.9,56.4z"/>
		</g>
		<g>
			<path fill="#B2B2B2" d="M35.9,68.5c0-0.1,0-0.3,0-0.4c0-0.1,0-0.3,0-0.4L35.9,68.5z"/>
			<path fill="#B2B2B2" d="M93.1,66.8c0,0.1,0,0.3,0,0.4c0,0.1,0,0.3,0,0.4L93.1,66.8z"/>
			<path fill="#B2B2B2" d="M87.9,56.4c-1.4-5.5-6.4-9.6-12.3-9.5l-22.6,0.3c-5.9,0.1-10.8,4.3-12.1,9.8c-3,2.7-4.9,6.6-4.9,10.9
				c0.2,4.8,2.6,8.9,6.2,11.5c2.1,4.1,6.4,6.9,11.3,6.8l22.6-0.3c4.9-0.1,9.2-3,11.1-7.2c3.5-2.7,5.8-7,5.9-11.7
				C92.9,62.9,90.9,59.1,87.9,56.4z"/>
		</g>
		<path fill="#8C8C8C" d="M88,56.4c-1.4-5.5-6.4-9.6-12.3-9.5l-2.8,0c5.9-0.1,11,4,12.3,9.5c3.1,2.6,5,6.5,5.2,10.8
			c0-0.1,0-0.3,0-0.4l0,0.9c0-0.1,0-0.3,0-0.4c-0.1,4.8-2.3,9-5.9,11.7c-2,4.2-6.2,7.1-11.1,7.2l2.8,0c4.9-0.1,9.2-3,11.1-7.2
			c3.5-2.7,5.8-7,5.9-11.7C93.1,62.9,91.1,59.1,88,56.4z"/>
		<path fill="#C1C1C1" d="M40.9,57.1c1.2-5.6,6.1-9.7,12.1-9.8l2.8,0c-5.9,0.1-10.8,4.3-12.1,9.8c-3,2.7-4.9,6.6-4.9,10.9
			c0-0.1,0-0.3,0-0.4l0,0.9c0-0.1,0-0.3,0-0.4c0.2,4.8,2.6,8.9,6.2,11.5c2.1,4.1,6.4,6.9,11.3,6.8l-2.8,0c-4.9,0.1-9.2-2.7-11.3-6.8
			c-3.6-2.6-6-6.8-6.2-11.5C36.1,63.7,37.9,59.8,40.9,57.1z"/>
		<path fill="#B2B2B2" d="M42.8,38.2l0.4,0c1.4,2.1,3,3.9,4.9,5.5l31.3-0.4c1.9-1.6,3.5-3.5,4.8-5.6l0.4,0c2.6,0,4.6-2.1,4.6-4.7
			L89,16c0-2.6-2.1-4.6-4.7-4.6l-0.4,0C79.4,4.7,71.8,0.3,63.2,0.5S47,5.2,42.8,12l-0.4,0c-2.6,0-4.6,2.1-4.6,4.7l0.2,16.9
			C38.1,36.2,40.2,38.2,42.8,38.2z"/>
		<path fill="#8C8C8C" d="M84.3,11.4l-0.4,0C79.4,4.7,71.8,0.3,63.2,0.5c-0.6,0-1.2,0-1.8,0.1C69.3,1,76.2,5.2,80.3,11.5l0.4,0
			c2.6,0,4.7,2,4.7,4.6l0.2,16.9c0,2.6-2,4.7-4.6,4.7l-0.4,0c-1.3,2.1-2.9,4-4.8,5.6l3.5-0.1c1.9-1.6,3.5-3.5,4.8-5.6l0.4,0
			c2.6,0,4.6-2.1,4.6-4.7L89,16C88.9,13.4,86.8,11.4,84.3,11.4z"/>
		<path fill="#C1C1C1" d="M42.4,12l0.4,0C47,5.2,54.5,0.6,63.2,0.5c0.6,0,1.2,0,1.8,0c-7.9,0.7-14.6,5.1-18.6,11.4l-0.4,0
			c-2.6,0-4.6,2.1-4.6,4.7l0.2,16.9c0,2.6,2.1,4.6,4.7,4.6l0.4,0c1.4,2.1,3,3.9,4.9,5.5l-3.5,0.1c-1.9-1.6-3.6-3.4-4.9-5.5l-0.4,0
			c-2.6,0-4.7-2-4.7-4.6l-0.2-16.9C37.8,14.1,39.8,12,42.4,12z"/>
		<path fill="#A3DAE3" d="M63,14.5c-16.8,0.2-18.5,6.8-18.5,6.8s0,0.3,0,0.9c0,0.6,0,1.5,0,2.5l0.1,4.6l0,2.5c0,0.5,0,0.9,0,0.9
			s0.3,6.5,19.5,6.3c16.8-0.2,18.5-6.8,18.5-6.8s0-0.3,0-0.9l0-2.5l-0.1-4.6c0-1,0-1.9,0-2.5c0-0.5,0-0.9,0-0.9S82.1,14.2,63,14.5z"
			/>
		<path fill="#FFBE08" d="M79.5,48.8l-31.2,0.4c-1.5,0-2.8-1.2-2.8-2.7l0-0.1c0-1.5,1.2-2.8,2.7-2.8l31.2-0.4c1.5,0,2.8,1.2,2.8,2.7
			l0,0.1C82.2,47.5,81,48.7,79.5,48.8z"/>
		<path opacity="0.63" fill="#FFFFFF" d="M68.1,16.8c0,0,12.5,1,12.6,4.8c0.1,3.8,0.1,9.7,0.1,9.7s0,1.5-1.2,1.5
			c-1.2,0-6.2-14.1-10.7-14C64.5,19,66.2,16.6,68.1,16.8z"/>
		<g>
			<g>
				<path fill="#B2B2B2" d="M88.1,46.5C88.1,46.5,88.1,46.5,88.1,46.5c0.1,0,0.1-0.1,0.2-0.1L88.1,46.5z"/>
				<path fill="#B2B2B2" d="M93.3,57.7C93.3,57.8,93.2,57.8,93.3,57.7c-0.1,0-0.1,0.1-0.2,0.1L93.3,57.7z"/>
				<path fill="#B2B2B2" d="M96.2,56.5C96.2,56.5,96.1,56.5,96.2,56.5c-0.1,0-0.1,0.1-0.2,0.1L96.2,56.5z"/>
				<path fill="#B2B2B2" d="M91,45.2C91,45.2,91,45.2,91,45.2c0.1,0,0.1-0.1,0.2-0.1L91,45.2z"/>
				<path fill="#B2B2B2" d="M93.9,43.9C93.9,43.9,93.9,43.9,93.9,43.9c0.1,0,0.1-0.1,0.2-0.1L93.9,43.9z"/>
				<path fill="#B2B2B2" d="M99.1,55.2C99.1,55.2,99,55.2,99.1,55.2c-0.1,0-0.1,0.1-0.2,0.1L99.1,55.2z"/>
				<path fill="#B2B2B2" d="M96.7,42.6C96.8,42.6,96.8,42.6,96.7,42.6c0.1,0,0.1-0.1,0.2-0.1L96.7,42.6z"/>
				<path fill="#B2B2B2" d="M102,53.9C102,53.9,101.9,53.9,102,53.9c-0.1,0-0.1,0.1-0.2,0.1L102,53.9z"/>
				<path fill="#B2B2B2" d="M99.6,41.3C99.7,41.3,99.7,41.3,99.6,41.3c0.1,0,0.1-0.1,0.2-0.1L99.6,41.3z"/>
				<path fill="#B2B2B2" d="M104.9,52.6C104.9,52.6,104.8,52.6,104.9,52.6c-0.1,0-0.1,0.1-0.2,0.1L104.9,52.6z"/>
				<path fill="#B2B2B2" d="M102.5,40C102.6,40,102.6,40,102.5,40c0.1,0,0.1-0.1,0.2-0.1L102.5,40z"/>
				<path fill="#B2B2B2" d="M107.8,51.3C107.8,51.3,107.7,51.3,107.8,51.3c-0.1,0-0.1,0.1-0.2,0.1L107.8,51.3z"/>
				<path fill="#B2B2B2" d="M71.2,54C71.2,54,71.3,54,71.2,54c0.1,0,0.1-0.1,0.2-0.1L71.2,54z"/>
				<path fill="#B2B2B2" d="M76.5,65.3C76.4,65.3,76.4,65.3,76.5,65.3c-0.1,0-0.1,0.1-0.2,0.1L76.5,65.3z"/>
				<path fill="#B2B2B2" d="M69.7,58.3l2.4,5.4c0.7,1.6,2.6,2.4,4.2,1.7c0.5-0.3,0.9-0.6,1.3-1.1c0.5,0.1,1.1,0,1.6-0.2
					c0.5-0.3,0.9-0.6,1.3-1.1c0.5,0.1,1.1,0,1.6-0.2c0.5-0.3,0.9-0.6,1.3-1.1c0.5,0.1,1.1,0,1.6-0.2c0.5-0.3,0.9-0.6,1.3-1.1
					c0.5,0.1,1.1,0,1.6-0.2c0.5-0.3,0.9-0.6,1.3-1.1c0.5,0.1,1.1,0,1.6-0.2c0.4-0.2,0.8-0.5,1.1-0.8c0.4,0,0.9-0.1,1.3-0.2
					c0.5-0.3,0.9-0.6,1.3-1.1c0.5,0.1,1.1,0,1.6-0.2c0.5-0.3,0.9-0.6,1.3-1.1c0.5,0.1,1.1,0,1.6-0.2c0.5-0.3,0.9-0.6,1.3-1.1
					c0.5,0.1,1.1,0,1.6-0.2c0.5-0.3,0.9-0.6,1.3-1.1c0.5,0.1,1.1,0,1.6-0.2c0.5-0.3,0.9-0.6,1.3-1.1c0.5,0.1,1.1,0,1.6-0.2
					c1.6-0.8,2.3-2.7,1.6-4.3l-2.4-5.4c-0.7-1.6-2.6-2.4-4.2-1.7c-0.5,0.3-0.9,0.6-1.3,1.1c-0.5-0.1-1.1,0-1.6,0.2
					c-0.5,0.3-0.9,0.6-1.3,1.1c-0.5-0.1-1.1,0-1.6,0.2c-0.5,0.3-0.9,0.6-1.3,1.1c-0.5-0.1-1.1,0-1.6,0.2c-0.5,0.3-0.9,0.6-1.3,1.1
					c-0.5-0.1-1.1,0-1.6,0.2c-0.5,0.3-0.9,0.6-1.3,1.1c-0.5-0.1-1.1,0-1.6,0.2c-0.4,0.2-0.8,0.5-1.1,0.8c-0.4,0-0.9,0.1-1.3,0.2
					c-0.5,0.3-0.9,0.6-1.3,1.1c-0.5-0.1-1.1,0-1.6,0.2c-0.5,0.3-0.9,0.6-1.3,1.1c-0.5-0.1-1.1,0-1.6,0.2c-0.5,0.3-0.9,0.6-1.3,1.1
					c-0.5-0.1-1.1,0-1.6,0.2c-0.5,0.3-0.9,0.6-1.3,1.1c-0.5-0.1-1.1,0-1.6,0.2c-0.5,0.3-0.9,0.6-1.3,1.1c-0.5-0.1-1.1,0-1.6,0.2
					C69.7,54.7,69,56.6,69.7,58.3z"/>
				<path fill="#B2B2B2" d="M79.4,64C79.3,64,79.3,64,79.4,64c-0.1,0-0.1,0.1-0.2,0.1L79.4,64z"/>
				<path fill="#B2B2B2" d="M74.1,52.7C74.1,52.7,74.2,52.7,74.1,52.7c0.1,0,0.1-0.1,0.2-0.1L74.1,52.7z"/>
				<path fill="#B2B2B2" d="M77,51.4C77,51.4,77.1,51.4,77,51.4c0.1,0,0.1-0.1,0.2-0.1L77,51.4z"/>
				<path fill="#B2B2B2" d="M82.2,62.7C82.2,62.7,82.2,62.7,82.2,62.7c-0.1,0-0.1,0.1-0.2,0.1L82.2,62.7z"/>
				<path fill="#B2B2B2" d="M79.9,50.1C79.9,50.1,80,50.1,79.9,50.1c0.1,0,0.1-0.1,0.2-0.1L79.9,50.1z"/>
				<path fill="#B2B2B2" d="M85.1,61.4C85.1,61.4,85.1,61.4,85.1,61.4c-0.1,0-0.1,0.1-0.2,0.1L85.1,61.4z"/>
				<path fill="#B2B2B2" d="M82.8,48.8C82.8,48.8,82.9,48.8,82.8,48.8c0.1,0,0.1-0.1,0.2-0.1L82.8,48.8z"/>
				<path fill="#B2B2B2" d="M88,60.1C88,60.1,88,60.1,88,60.1c-0.1,0-0.1,0.1-0.2,0.1L88,60.1z"/>
				<path fill="#B2B2B2" d="M85.7,47.5C85.7,47.5,85.8,47.5,85.7,47.5c0.1,0,0.1-0.1,0.2-0.1L85.7,47.5z"/>
				<path fill="#B2B2B2" d="M90.9,58.8C90.9,58.8,90.9,58.8,90.9,58.8c-0.1,0-0.1,0.1-0.2,0.1L90.9,58.8z"/>
			</g>
			<g>
				<path d="M112.3,49.6c-0.7,0.3-1.6,0-2-0.7l-3.9-8.5c-0.3-0.7,0-1.6,0.7-2c0.7-0.3,1.6,0,2,0.7l4,8.5
					C113.3,48.3,113,49.2,112.3,49.6z"/>
				<path fill="#B2B2B2" d="M126.3,36.6c-1.1-2.5-4.1-3.5-6.5-2.4l-2.5,1.2l0.2-0.2c0.7-1,0.5-2.5-0.5-3.2c-0.7-0.5-1.5-0.6-2.3-0.2
					c-0.4,0.2-0.7,0.4-0.9,0.7l-4.1,5.8l4.4,9.5l9.9-4.6C126.4,42,127.4,39,126.3,36.6z"/>
				<path fill="#FFBE08" d="M106.7,37.6c-1.2,0.6-1.7,2-1.2,3.2l4,8.5c0.6,1.2,2,1.7,3.2,1.2c1-0.5,1.6-1.6,1.3-2.7l-4.4-9.5
					C108.9,37.4,107.7,37.1,106.7,37.6z"/>
			</g>
		</g>
		<g>
			<g>
				<path fill="#B2B2B2" d="M63.1,89c0,0,0,0.1,0,0.1c0,0,0,0.1,0,0.1L63.1,89z"/>
				<path fill="#B2B2B2" d="M45.9,89.5c0,0,0-0.1,0-0.1c0,0,0-0.1,0-0.1L45.9,89.5z"/>
				<path fill="#B2B2B2" d="M63.1,89.1c-0.1-2.4-2.1-4.4-4.6-4.3l-8.2,0.1c-2.5,0-4.4,2-4.5,4.5c0,0.8,0.3,1.6,0.7,2.2
					C46.2,92.2,46,93,46,93.8c0,0.8,0.3,1.6,0.7,2.2c-0.4,0.7-0.6,1.4-0.6,2.2c0,0.8,0.3,1.6,0.7,2.2c-0.4,0.7-0.6,1.4-0.6,2.2
					c0,0.8,0.3,1.6,0.7,2.2c-0.4,0.7-0.6,1.4-0.6,2.2c0,0.8,0.3,1.6,0.7,2.2c-0.4,0.7-0.6,1.4-0.6,2.2c0.1,2.4,2.1,4.4,4.6,4.3
					l8.2-0.1c2.5,0,4.4-2,4.5-4.5c0-0.8-0.3-1.6-0.7-2.2c0.4-0.7,0.6-1.4,0.6-2.2c0-0.8-0.3-1.6-0.7-2.2c0.4-0.7,0.6-1.4,0.6-2.2
					c0-0.8-0.3-1.6-0.7-2.2c0.4-0.7,0.6-1.4,0.6-2.2c0-0.8-0.3-1.6-0.7-2.2c0.4-0.7,0.6-1.4,0.6-2.2c0-0.8-0.3-1.6-0.7-2.2
					C62.9,90.7,63.1,89.9,63.1,89.1z"/>
				<path fill="#B2B2B2" d="M46,93.9c0,0,0-0.1,0-0.1c0,0,0-0.1,0-0.1L46,93.9z"/>
				<path fill="#B2B2B2" d="M63.2,93.4c0,0,0,0.1,0,0.1c0,0,0,0.1,0,0.1L63.2,93.4z"/>
				<path fill="#B2B2B2" d="M63.3,97.8c0,0,0,0.1,0,0.1c0,0,0,0.1,0,0.1L63.3,97.8z"/>
				<path fill="#B2B2B2" d="M46,98.3c0,0,0-0.1,0-0.1c0,0,0-0.1,0-0.1L46,98.3z"/>
				<path fill="#B2B2B2" d="M63.3,102.2c0,0,0,0.1,0,0.1c0,0,0,0.1,0,0.1L63.3,102.2z"/>
				<path fill="#B2B2B2" d="M46.1,102.7c0,0,0-0.1,0-0.1c0,0,0-0.1,0-0.1L46.1,102.7z"/>
				<path fill="#B2B2B2" d="M63.4,106.6c0,0,0,0.1,0,0.1c0,0,0,0.1,0,0.1L63.4,106.6z"/>
				<path fill="#B2B2B2" d="M46.2,107.1c0,0,0-0.1,0-0.1c0,0,0-0.1,0-0.1L46.2,107.1z"/>
				<path fill="#B2B2B2" d="M63.4,111c0,0,0,0.1,0,0.1c0,0,0,0.1,0,0.1L63.4,111z"/>
				<path fill="#B2B2B2" d="M46.2,111.5c0,0,0-0.1,0-0.1c0,0,0-0.1,0-0.1L46.2,111.5z"/>
			</g>
			<path fill="#C1C1C1" d="M50.4,84.9l2.4,0c-2.5,0-4.4,2-4.5,4.5c0,0,0-0.1,0-0.1l0,0.3c0,0,0-0.1,0-0.1c0,0.8,0.3,1.6,0.7,2.2
				c-0.4,0.7-0.6,1.4-0.6,2.2c0,0,0-0.1,0-0.1l0,0.3c0,0,0-0.1,0-0.1c0,0.8,0.3,1.6,0.7,2.2c-0.4,0.7-0.6,1.4-0.6,2.2
				c0,0,0-0.1,0-0.1l0,0.3c0,0,0-0.1,0-0.1c0,0.8,0.3,1.6,0.7,2.2c-0.4,0.7-0.6,1.4-0.6,2.2c0,0,0-0.1,0-0.1l0,0.3c0,0,0-0.1,0-0.1
				c0,0.8,0.3,1.6,0.7,2.2c-0.4,0.7-0.6,1.4-0.6,2.2c0,0,0-0.1,0-0.1l0,0.3c0,0,0-0.1,0-0.1c0,0.8,0.3,1.6,0.7,2.2
				c-0.4,0.7-0.6,1.4-0.6,2.2c0,0,0-0.1,0-0.1l0,0.3c0,0,0-0.1,0-0.1c0.1,2.4,2.1,4.4,4.6,4.3l-2.4,0c-2.5,0-4.5-1.9-4.6-4.3
				c0-0.8,0.2-1.6,0.6-2.2c-0.4-0.6-0.6-1.4-0.7-2.2c0-0.8,0.2-1.6,0.6-2.2c-0.4-0.6-0.6-1.4-0.7-2.2c0-0.8,0.2-1.6,0.6-2.2
				c-0.4-0.6-0.6-1.4-0.7-2.2c0-0.8,0.2-1.6,0.6-2.2c-0.4-0.6-0.6-1.4-0.7-2.2c0-0.8,0.2-1.6,0.6-2.2c-0.4-0.6-0.6-1.4-0.7-2.2
				C45.9,86.9,47.9,85,50.4,84.9z"/>
			<path fill="#8C8C8C" d="M62.7,87.4l-2.4,0c0.2,0.5,0.4,1.1,0.4,1.7c0,0,0-0.1,0-0.1l0,0.3c0,0,0-0.1,0-0.1c0,0.8-0.2,1.6-0.6,2.2
				c0.4,0.6,0.6,1.4,0.7,2.2c0,0,0-0.1,0-0.1l0,0.3c0,0,0-0.1,0-0.1c0,0.8-0.2,1.6-0.6,2.2c0.4,0.6,0.6,1.4,0.7,2.2c0,0,0-0.1,0-0.1
				l0,0.3c0,0,0-0.1,0-0.1c0,0.8-0.2,1.6-0.6,2.2c0.4,0.6,0.6,1.4,0.7,2.2c0,0,0-0.1,0-0.1l0,0.3c0,0,0-0.1,0-0.1
				c0,0.8-0.2,1.6-0.6,2.2c0.4,0.6,0.6,1.4,0.7,2.2c0,0,0-0.1,0-0.1l0,0.3c0,0,0-0.1,0-0.1c0,0.8-0.2,1.6-0.6,2.2
				c0.4,0.6,0.6,1.4,0.7,2.2c0,0,0-0.1,0-0.1l0,0.3c0,0,0-0.1,0-0.1c0,2.4-2,4.4-4.5,4.5l2.4,0c2.5,0,4.4-2,4.5-4.5
				c0-0.8-0.3-1.6-0.7-2.2c0.4-0.7,0.6-1.4,0.6-2.2c0-0.8-0.3-1.6-0.7-2.2c0.4-0.7,0.6-1.4,0.6-2.2c0-0.8-0.3-1.6-0.7-2.2
				c0.4-0.7,0.6-1.4,0.6-2.2c0-0.8-0.3-1.6-0.7-2.2c0.4-0.7,0.6-1.4,0.6-2.2c0-0.8-0.3-1.6-0.7-2.2c0.4-0.7,0.6-1.4,0.6-2.2
				C63.1,88.5,63,87.9,62.7,87.4z"/>
		</g>
		
			<rect x="60.3" y="108.2" transform="matrix(0.9999 -1.435587e-02 1.435587e-02 0.9999 -1.6319 0.8999)" fill="#8C8C8C" width="3.1" height="11.8"/>
		<g>
			<g>
				<path fill="#FFBE08" d="M63.2,123.2l-19.8,0.3c-1,0-1.8-0.7-1.8-1.6l0,0c0-0.9,0.8-1.6,1.7-1.6l19.8-0.3c1,0,1.8,0.7,1.8,1.6
					l0,0C64.9,122.5,64.1,123.2,63.2,123.2z"/>
				<g>
					<path fill="#FFBE08" d="M63.2,123.2l-22.7,0.3c-1,0-1.8-0.7-1.8-1.6l0,0c0-0.9,0.8-1.6,1.7-1.6l22.7-0.3c1,0,1.8,0.7,1.8,1.6
						l0,0C64.9,122.5,64.1,123.2,63.2,123.2z"/>
					<path fill="#B2B2B2" d="M40.7,120.3l22.7-0.3c0,0,0.1,0,0.1,0l-0.1-7.1l-19,0.3c-2.8,0-5,2.3-5,5.1c0,0.8,0.2,1.5,0.5,2.2
						C40.2,120.4,40.4,120.3,40.7,120.3z"/>
					
						<rect x="45.8" y="108.2" transform="matrix(0.9999 -1.435587e-02 1.435587e-02 0.9999 -1.5924 0.7951)" fill="#B2B2B2" width="17.6" height="6.3"/>
					<path fill="#FFBE08" d="M63.2,108.2l-17.5,0.3c-0.5,0-0.9-0.4-0.9-0.8l0,0c0-0.5,0.4-0.8,0.9-0.8l17.5-0.3
						c0.5,0,0.9,0.4,0.9,0.8l0,0C64.1,107.8,63.7,108.2,63.2,108.2z"/>
				</g>
			</g>
			<path fill="#C1C1C1" d="M44.2,113.3c-2.7,0-4.8,2.2-4.7,4.9c0,0.8,0.2,1.5,0.6,2.2l1.2,0c-0.1-0.4-0.1-0.7-0.1-1.1
				c0-2.7,2.1-4.8,4.7-4.9c0.7,0,1.3,0.1,1.9,0.4C46.9,113.8,45.6,113.3,44.2,113.3z"/>
		</g>
		<g>
			<g>
				<path fill="#B2B2B2" d="M83.1,88.7c0,0,0,0.1,0,0.1c0,0,0,0.1,0,0.1L83.1,88.7z"/>
				<path fill="#B2B2B2" d="M65.9,89.2c0,0,0-0.1,0-0.1c0,0,0-0.1,0-0.1L65.9,89.2z"/>
				<path fill="#B2B2B2" d="M83.1,88.9c-0.1-2.4-2.1-4.4-4.6-4.3l-8.2,0.1c-2.5,0-4.4,2-4.5,4.5c0,0.8,0.3,1.6,0.7,2.2
					c-0.4,0.7-0.6,1.4-0.6,2.2c0,0.8,0.3,1.6,0.7,2.2c-0.4,0.7-0.6,1.4-0.6,2.2c0,0.8,0.3,1.6,0.7,2.2c-0.4,0.7-0.6,1.4-0.6,2.2
					c0,0.8,0.3,1.6,0.7,2.2c-0.4,0.7-0.6,1.4-0.6,2.2c0,0.8,0.3,1.6,0.7,2.2c-0.4,0.7-0.6,1.4-0.6,2.2c0.1,2.4,2.1,4.4,4.6,4.3
					l8.2-0.1c2.5,0,4.4-2,4.5-4.5c0-0.8-0.3-1.6-0.7-2.2c0.4-0.7,0.6-1.4,0.6-2.2c0-0.8-0.3-1.6-0.7-2.2c0.4-0.7,0.6-1.4,0.6-2.2
					c0-0.8-0.3-1.6-0.7-2.2c0.4-0.7,0.6-1.4,0.6-2.2c0-0.8-0.3-1.6-0.7-2.2c0.4-0.7,0.6-1.4,0.6-2.2c0-0.8-0.3-1.6-0.7-2.2
					C82.8,90.4,83.1,89.7,83.1,88.9z"/>
				<path fill="#B2B2B2" d="M65.9,93.6c0,0,0-0.1,0-0.1c0,0,0-0.1,0-0.1L65.9,93.6z"/>
				<path fill="#B2B2B2" d="M83.1,93.1c0,0,0,0.1,0,0.1c0,0,0,0.1,0,0.1L83.1,93.1z"/>
				<path fill="#B2B2B2" d="M83.2,97.5c0,0,0,0.1,0,0.1c0,0,0,0.1,0,0.1L83.2,97.5z"/>
				<path fill="#B2B2B2" d="M66,98c0,0,0-0.1,0-0.1c0,0,0-0.1,0-0.1L66,98z"/>
				<path fill="#B2B2B2" d="M83.3,101.9c0,0,0,0.1,0,0.1c0,0,0,0.1,0,0.1L83.3,101.9z"/>
				<path fill="#B2B2B2" d="M66,102.4c0,0,0-0.1,0-0.1c0,0,0-0.1,0-0.1L66,102.4z"/>
				<path fill="#B2B2B2" d="M83.3,106.3c0,0,0,0.1,0,0.1c0,0,0,0.1,0,0.1L83.3,106.3z"/>
				<path fill="#B2B2B2" d="M66.1,106.8c0,0,0-0.1,0-0.1c0,0,0-0.1,0-0.1L66.1,106.8z"/>
				<path fill="#B2B2B2" d="M83.4,110.7c0,0,0,0.1,0,0.1c0,0,0,0.1,0,0.1L83.4,110.7z"/>
				<path fill="#B2B2B2" d="M66.2,111.2c0,0,0-0.1,0-0.1c0,0,0-0.1,0-0.1L66.2,111.2z"/>
			</g>
			<path fill="#C1C1C1" d="M70.3,84.6l2.4,0c-2.5,0-4.4,2-4.5,4.5c0,0,0-0.1,0-0.1l0,0.3c0,0,0-0.1,0-0.1c0,0.8,0.3,1.6,0.7,2.2
				c-0.4,0.7-0.6,1.4-0.6,2.2c0,0,0-0.1,0-0.1l0,0.3c0,0,0-0.1,0-0.1c0,0.8,0.3,1.6,0.7,2.2c-0.4,0.7-0.6,1.4-0.6,2.2
				c0,0,0-0.1,0-0.1l0,0.3c0,0,0-0.1,0-0.1c0,0.8,0.3,1.6,0.7,2.2c-0.4,0.7-0.6,1.4-0.6,2.2c0,0,0-0.1,0-0.1l0,0.3c0,0,0-0.1,0-0.1
				c0,0.8,0.3,1.6,0.7,2.2c-0.4,0.7-0.6,1.4-0.6,2.2c0,0,0-0.1,0-0.1l0,0.3c0,0,0-0.1,0-0.1c0,0.8,0.3,1.6,0.7,2.2
				c-0.4,0.7-0.6,1.4-0.6,2.2c0,0,0-0.1,0-0.1l0,0.3c0,0,0-0.1,0-0.1c0.1,2.4,2.1,4.4,4.6,4.3l-2.4,0c-2.5,0-4.5-1.9-4.6-4.3
				c0-0.8,0.2-1.6,0.6-2.2c-0.4-0.6-0.6-1.4-0.7-2.2c0-0.8,0.2-1.6,0.6-2.2c-0.4-0.6-0.6-1.4-0.7-2.2c0-0.8,0.2-1.6,0.6-2.2
				c-0.4-0.6-0.6-1.4-0.7-2.2c0-0.8,0.2-1.6,0.6-2.2c-0.4-0.6-0.6-1.4-0.7-2.2c0-0.8,0.2-1.6,0.6-2.2c-0.4-0.6-0.6-1.4-0.7-2.2
				C65.9,86.7,67.9,84.7,70.3,84.6z"/>
			<path fill="#8C8C8C" d="M82.7,87.1l-2.4,0c0.2,0.5,0.4,1.1,0.4,1.7c0,0,0-0.1,0-0.1l0,0.3c0,0,0-0.1,0-0.1c0,0.8-0.2,1.6-0.6,2.2
				c0.4,0.6,0.6,1.4,0.7,2.2c0,0,0-0.1,0-0.1l0,0.3c0,0,0-0.1,0-0.1c0,0.8-0.2,1.6-0.6,2.2c0.4,0.6,0.6,1.4,0.7,2.2c0,0,0-0.1,0-0.1
				l0,0.3c0,0,0-0.1,0-0.1c0,0.8-0.2,1.6-0.6,2.2c0.4,0.6,0.6,1.4,0.7,2.2c0,0,0-0.1,0-0.1l0,0.3c0,0,0-0.1,0-0.1
				c0,0.8-0.2,1.6-0.6,2.2c0.4,0.6,0.6,1.4,0.7,2.2c0,0,0-0.1,0-0.1l0,0.3c0,0,0-0.1,0-0.1c0,0.8-0.2,1.6-0.6,2.2
				c0.4,0.6,0.6,1.4,0.7,2.2c0,0,0-0.1,0-0.1l0,0.3c0,0,0-0.1,0-0.1c0,2.4-2,4.4-4.5,4.5l2.4,0c2.5,0,4.4-2,4.5-4.5
				c0-0.8-0.3-1.6-0.7-2.2c0.4-0.7,0.6-1.4,0.6-2.2c0-0.8-0.3-1.6-0.7-2.2c0.4-0.7,0.6-1.4,0.6-2.2c0-0.8-0.3-1.6-0.7-2.2
				c0.4-0.7,0.6-1.4,0.6-2.2c0-0.8-0.3-1.6-0.7-2.2c0.4-0.7,0.6-1.4,0.6-2.2c0-0.8-0.3-1.6-0.7-2.2c0.4-0.7,0.6-1.4,0.6-2.2
				C83,88.2,82.9,87.7,82.7,87.1z"/>
		</g>
		<g>
			<g>
				<path fill="#FFBE08" d="M66.5,123.2l19.8-0.3c1,0,1.7-0.7,1.7-1.6l0,0c0-0.9-0.8-1.6-1.8-1.6L66.5,120c-1,0-1.7,0.7-1.7,1.6l0,0
					C64.8,122.5,65.6,123.2,66.5,123.2z"/>
				<g>
					<path fill="#FFBE08" d="M66.5,123.2l22.7-0.3c1,0,1.7-0.7,1.7-1.6l0,0c0-0.9-0.8-1.6-1.8-1.6L66.5,120c-1,0-1.7,0.7-1.7,1.6
						l0,0C64.8,122.5,65.6,123.2,66.5,123.2z"/>
					<path fill="#B2B2B2" d="M88.9,119.6L66.2,120c0,0-0.1,0-0.1,0l-0.1-7.1l19-0.3c2.8,0,5.1,2.2,5.1,5c0,0.8-0.2,1.5-0.5,2.2
						C89.4,119.7,89.2,119.6,88.9,119.6z"/>
					
						<rect x="66" y="107.9" transform="matrix(-0.9999 1.435579e-02 -1.435579e-02 -0.9999 151.1453 220.9712)" fill="#B2B2B2" width="17.6" height="6.3"/>
					<path fill="#FFBE08" d="M66,108.1l17.5-0.3c0.5,0,0.9-0.4,0.9-0.8l0,0c0-0.5-0.4-0.8-0.9-0.8L66,106.5c-0.5,0-0.9,0.4-0.9,0.8
						l0,0C65.1,107.8,65.5,108.1,66,108.1z"/>
				</g>
			</g>
			<path fill="#C1C1C1" d="M85.2,112.7c2.7,0,4.8,2.1,4.9,4.7c0,0.8-0.2,1.5-0.5,2.2l-1.2,0c0.1-0.4,0.1-0.7,0.1-1.1
				c0-2.7-2.2-4.8-4.9-4.7c-0.7,0-1.3,0.2-1.9,0.4C82.6,113.3,83.8,112.7,85.2,112.7z"/>
		</g>
	</g>
	<g opacity="0.4">
		<path d="M39.4,47.1C39.5,47.1,39.5,47.1,39.4,47.1c0.1,0.1,0.1,0.1,0.2,0.1L39.4,47.1z"/>
		<path d="M34.9,58.7C34.8,58.6,34.8,58.6,34.9,58.7c-0.1-0.1-0.1-0.1-0.2-0.1L34.9,58.7z"/>
		<path d="M31.9,57.5C31.9,57.4,31.9,57.4,31.9,57.5c-0.1-0.1-0.1-0.1-0.2-0.1L31.9,57.5z"/>
		<path d="M36.5,45.9C36.5,45.9,36.5,45.9,36.5,45.9c0.1,0.1,0.1,0.1,0.2,0.1L36.5,45.9z"/>
		<path d="M33.6,44.7C33.6,44.7,33.6,44.7,33.6,44.7c0.1,0.1,0.1,0.1,0.2,0.1L33.6,44.7z"/>
		<path d="M29,56.2C29,56.2,28.9,56.2,29,56.2c-0.1-0.1-0.1-0.1-0.2-0.1L29,56.2z"/>
		<path d="M30.6,43.5C30.7,43.5,30.7,43.5,30.6,43.5c0.1,0.1,0.1,0.1,0.2,0.1L30.6,43.5z"/>
		<path d="M26.1,55C26,55,26,55,26.1,55C25.9,55,25.9,55,25.9,55L26.1,55z"/>
		<path d="M27.7,42.3C27.7,42.3,27.7,42.3,27.7,42.3c0.1,0.1,0.1,0.1,0.2,0.1L27.7,42.3z"/>
		<path d="M23.1,53.8C23.1,53.8,23.1,53.8,23.1,53.8C23,53.8,23,53.8,23,53.7L23.1,53.8z"/>
		<path d="M24.8,41.1C24.8,41.1,24.8,41.1,24.8,41.1c0.1,0.1,0.1,0.1,0.2,0.1L24.8,41.1z"/>
		<path d="M20.2,52.6C20.2,52.6,20.1,52.6,20.2,52.6c-0.1-0.1-0.1-0.1-0.2-0.1L20.2,52.6z"/>
		<path d="M44.7,49.3C44.8,49.3,44.8,49.3,44.7,49.3c0.1,0.1,0.1,0.1,0.2,0.1L44.7,49.3z"/>
		<path d="M41.8,48.1C41.8,48.1,41.9,48.1,41.8,48.1c0.1,0.1,0.1,0.1,0.2,0.1L41.8,48.1z"/>
		<path d="M37.2,59.6C37.2,59.6,37.2,59.6,37.2,59.6c-0.1-0.1-0.1-0.1-0.2-0.1L37.2,59.6z"/>
		<path d="M35.9,68.5c0-0.1,0-0.3,0-0.4c0-0.1,0-0.3,0-0.4L35.9,68.5z"/>
		<path d="M88.1,46.5C88.1,46.5,88.1,46.5,88.1,46.5c0.1,0,0.1-0.1,0.2-0.1L88.1,46.5z"/>
		<path d="M93.3,57.7C93.3,57.8,93.2,57.8,93.3,57.7c-0.1,0-0.1,0.1-0.2,0.1L93.3,57.7z"/>
		<path d="M96.2,56.5C96.2,56.5,96.1,56.5,96.2,56.5c-0.1,0-0.1,0.1-0.2,0.1L96.2,56.5z"/>
		<path d="M91,45.2C91,45.2,91,45.2,91,45.2c0.1,0,0.1-0.1,0.2-0.1L91,45.2z"/>
		<path d="M93.9,43.9C93.9,43.9,93.9,43.9,93.9,43.9c0.1,0,0.1-0.1,0.2-0.1L93.9,43.9z"/>
		<path d="M99.1,55.2C99.1,55.2,99,55.2,99.1,55.2c-0.1,0-0.1,0.1-0.2,0.1L99.1,55.2z"/>
		<path d="M96.7,42.6C96.8,42.6,96.8,42.6,96.7,42.6c0.1,0,0.1-0.1,0.2-0.1L96.7,42.6z"/>
		<path d="M102,53.9C102,53.9,101.9,53.9,102,53.9c-0.1,0-0.1,0.1-0.2,0.1L102,53.9z"/>
		<path d="M99.6,41.3C99.7,41.3,99.7,41.3,99.6,41.3c0.1,0,0.1-0.1,0.2-0.1L99.6,41.3z"/>
		<path d="M104.9,52.6C104.9,52.6,104.8,52.6,104.9,52.6c-0.1,0-0.1,0.1-0.2,0.1L104.9,52.6z"/>
		<path d="M102.5,40C102.6,40,102.6,40,102.5,40c0.1,0,0.1-0.1,0.2-0.1L102.5,40z"/>
		<path d="M107.8,51.3C107.8,51.3,107.7,51.3,107.8,51.3c-0.1,0-0.1,0.1-0.2,0.1L107.8,51.3z"/>
		<path d="M82.8,48.8C82.8,48.8,82.9,48.8,82.8,48.8c0.1,0,0.1-0.1,0.2-0.1L82.8,48.8z"/>
		<path d="M85.7,47.5C85.7,47.5,85.8,47.5,85.7,47.5c0.1,0,0.1-0.1,0.2-0.1L85.7,47.5z"/>
		<path d="M90.9,58.8C90.9,58.8,90.9,58.8,90.9,58.8c-0.1,0-0.1,0.1-0.2,0.1L90.9,58.8z"/>
		<path d="M126.3,36.6c-1.1-2.5-4.1-3.5-6.5-2.4l-2.5,1.2l0.2-0.2c0.7-1,0.5-2.5-0.5-3.2c-0.7-0.5-1.5-0.6-2.3-0.2
			c-0.4,0.2-0.7,0.4-0.9,0.7l-4.1,5.8c-0.7-0.9-1.9-1.2-2.9-0.7c-1,0.5-1.5,1.5-1.4,2.5c-0.8-0.4-1.8-0.5-2.7-0.1
			c-0.5,0.3-0.9,0.6-1.3,1.1c-0.5-0.1-1.1,0-1.6,0.2c-0.5,0.3-0.9,0.6-1.3,1.1c-0.5-0.1-1.1,0-1.6,0.2c-0.5,0.3-0.9,0.6-1.3,1.1
			c-0.5-0.1-1.1,0-1.6,0.2c-0.5,0.3-0.9,0.6-1.3,1.1c-0.5-0.1-1.1,0-1.6,0.2c-0.5,0.3-0.9,0.6-1.3,1.1c-0.5-0.1-1.1,0-1.6,0.2
			c-0.4,0.2-0.8,0.5-1.1,0.8c-0.4,0-0.9,0.1-1.3,0.2c-0.5,0.3-0.9,0.6-1.3,1.1c-0.5-0.1-1.1,0-1.6,0.2c-0.1,0-0.2,0.1-0.2,0.2
			c-0.5-0.3-1-0.6-1.5-0.8c0.6-0.5,1-1.3,1-2.2l0-0.1c0-1.5-1.3-2.7-2.8-2.7l0,0c0.9-0.8,1.8-1.7,2.6-2.6c0.8-0.9,1.5-1.9,2.2-3
			l0.4,0c0.6,0,1.3-0.1,1.8-0.4c0.3-0.1,0.5-0.3,0.8-0.4c1.2-0.9,2-2.3,2-3.9v0l0,0L89,16c0,0,0-0.1,0-0.1c0-0.7-0.2-1.4-0.6-2
			c-0.2-0.4-0.5-0.8-0.8-1.1c-0.2-0.2-0.4-0.4-0.7-0.6c-0.7-0.5-1.6-0.8-2.6-0.8l-0.4,0c-2.5-3.8-6-6.8-10.1-8.7
			c-3.2-1.5-6.8-2.3-10.6-2.2c-4.3,0.1-8.3,1.2-11.8,3.3c-3.5,2-6.4,4.9-8.5,8.3l-0.4,0c-1.3,0-2.4,0.6-3.3,1.4
			c-0.2,0.2-0.4,0.4-0.6,0.7c-0.2,0.2-0.3,0.5-0.4,0.8c-0.1,0.2-0.1,0.3-0.2,0.5c-0.1,0.4-0.2,0.8-0.2,1.3l0,0l0,0l0,0.2l0.2,16.6
			c0,0.2,0,0.4,0.1,0.6c0.2,1.3,0.9,2.5,2,3.2c0.2,0.2,0.5,0.3,0.8,0.4c0.6,0.2,1.2,0.3,1.8,0.3l0.4,0c0.3,0.5,0.7,1,1.1,1.5
			c1.1,1.5,2.4,2.8,3.8,4l0.1,0c-1.5,0-2.7,1.3-2.7,2.8l0,0.1c0,1,0.6,1.9,1.5,2.4c-0.5,0.3-1,0.6-1.4,0.9c-0.2-0.2-0.5-0.3-0.7-0.5
			c-0.5-0.2-1.1-0.3-1.6-0.2c-0.3-0.4-0.8-0.8-1.3-1c-0.4-0.2-0.9-0.2-1.3-0.2c-0.3-0.3-0.7-0.6-1.1-0.8c-0.5-0.2-1.1-0.3-1.6-0.2
			c-0.3-0.4-0.8-0.8-1.3-1c-0.5-0.2-1.1-0.3-1.6-0.2c-0.3-0.4-0.8-0.8-1.3-1c-0.5-0.2-1.1-0.3-1.6-0.2c-0.3-0.4-0.8-0.8-1.3-1
			c-0.5-0.2-1.1-0.3-1.6-0.2c-0.3-0.4-0.8-0.8-1.3-1c-0.5-0.2-1.1-0.3-1.6-0.2c-0.3-0.4-0.8-0.8-1.3-1c-1.1-0.4-2.3-0.2-3.2,0.5
			c0.3-1.1-0.3-2.3-1.4-2.8c-1-0.5-2.2-0.1-2.9,0.8l-4.3-5.7c-0.2-0.3-0.6-0.6-0.9-0.7c-0.8-0.3-1.6-0.2-2.3,0.3
			c-1,0.8-1.2,2.2-0.4,3.2l0.2,0.2l-2.5-1.1c-2.5-1.1-5.4,0.1-6.5,2.6c-1.1,2.5,0.1,5.4,2.6,6.5l10.1,4.3c-0.2,1.1,0.4,2.2,1.4,2.6
			c1.2,0.5,2.6,0,3.2-1.3l0.3-0.8c0.1,1.2,0.8,2.3,1.9,2.8c0.5,0.2,1.1,0.3,1.6,0.2c0.3,0.4,0.8,0.8,1.3,1c0.5,0.2,1.1,0.3,1.6,0.2
			c0.3,0.4,0.8,0.8,1.3,1c0.5,0.2,1.1,0.3,1.6,0.2c0.3,0.4,0.8,0.8,1.3,1c0.5,0.2,1.1,0.3,1.6,0.2c0.3,0.4,0.8,0.8,1.3,1
			c0.5,0.2,1.1,0.3,1.6,0.2c0.3,0.4,0.8,0.8,1.3,1c0.4,0.2,0.9,0.2,1.3,0.2c0.3,0.3,0.7,0.6,1.1,0.8c0.4,0.2,0.9,0.2,1.4,0.2
			c-1.6,2.4-2.6,5.2-2.6,8.2c0.2,4.8,2.6,8.9,6.2,11.5c1.3,2.6,3.6,4.7,6.3,5.8c-0.2,0.1-0.4,0.2-0.5,0.3c-0.2,0.2-0.5,0.3-0.7,0.5
			c-0.6,0.6-1,1.4-1.2,2.2c-0.1,0.3-0.1,0.6-0.1,0.9l0,0l0,0c0,0.8,0.3,1.6,0.7,2.2C46.2,92.2,46,93,46,93.8c0,0.6,0.2,1.2,0.4,1.7
			c0.1,0.2,0.2,0.3,0.3,0.5c-0.4,0.7-0.6,1.4-0.6,2.2l0,0l0,0c0,0.8,0.3,1.6,0.7,2.2c-0.4,0.7-0.6,1.4-0.6,2.2l0,0l0,0
			c0,0.6,0.2,1.2,0.4,1.7c0.1,0.2,0.2,0.3,0.3,0.5c-0.3,0.6-0.6,1.3-0.6,2l-0.5,0c-0.5,0-0.9,0.4-0.9,0.8l0,0c0,0.5,0.4,0.8,0.9,0.8
			l0,0l0.1,4.8l-1.3,0c-0.6,0-1.1,0.1-1.6,0.3c-2,0.6-3.4,2.5-3.4,4.7c0,0,0,0,0,0.1c0,0,0,0.1,0,0.1c0,0.7,0.2,1.4,0.5,2.1
			c-0.8,0.2-1.3,0.8-1.3,1.6l0,0c0,0.9,0.8,1.6,1.8,1.6l3,0c0,0,0,0,0,0l19.8-0.3c0.8,0,1.5-0.5,1.7-1.2c0.2,0.7,0.9,1.1,1.7,1.1
			l22.7-0.3c1,0,1.7-0.7,1.7-1.6l0,0c0-0.7-0.6-1.4-1.4-1.5c0.3-0.6,0.4-1.3,0.4-2.1c0,0,0-0.1,0-0.1c0,0,0,0,0-0.1
			c0-2.2-1.5-4-3.5-4.6c-0.5-0.2-1-0.3-1.6-0.2l-1.3,0l-0.1-4.8c0.5,0,0.9-0.4,0.9-0.8l0,0c0-0.5-0.4-0.8-0.9-0.8l-0.2,0
			c-0.1-0.7-0.3-1.4-0.7-2c0.4-0.6,0.6-1.4,0.6-2.2c0,0,0,0.1,0,0.1l0-0.3c0,0,0,0.1,0,0.1c0-0.8-0.3-1.5-0.7-2.1
			c0.4-0.6,0.6-1.4,0.6-2.2c0,0,0,0.1,0,0.1l0-0.3c0,0,0,0.1,0,0.1c0-0.8-0.3-1.5-0.7-2.1c0.4-0.6,0.6-1.4,0.6-2.2c0,0,0,0.1,0,0.1
			l0-0.3c0,0,0,0.1,0,0.1c0-0.8-0.3-1.5-0.7-2.1c0.4-0.6,0.6-1.4,0.6-2.2c0,0,0,0.1,0,0.1l0-0.1l0,0c0,0,0,0,0,0l0-0.1
			c0,0,0,0.1,0,0.1c0-0.6-0.2-1.2-0.4-1.7h0c-0.4-0.8-1-1.5-1.8-2c2.9-1.2,5.2-3.4,6.6-6.2c3.5-2.7,5.8-7,5.9-11.7
			c-0.1-3.1-1.2-5.9-2.9-8.2c0.2,0,0.3-0.1,0.5-0.2c0.4-0.2,0.8-0.5,1.1-0.8c0.4,0,0.9-0.1,1.3-0.2c0.5-0.3,0.9-0.6,1.3-1.1
			c0.5,0.1,1.1,0,1.6-0.2c0.5-0.3,0.9-0.6,1.3-1.1c0.5,0.1,1.1,0,1.6-0.2c0.5-0.3,0.9-0.6,1.3-1.1c0.5,0.1,1.1,0,1.6-0.2
			c0.5-0.3,0.9-0.6,1.3-1.1c0.5,0.1,1.1,0,1.6-0.2c0.5-0.3,0.9-0.6,1.3-1.1c0.5,0.1,1.1,0,1.6-0.2c0.9-0.4,1.5-1.2,1.7-2.1l0,0.1
			c0.6,1.2,2,1.7,3.2,1.2c1-0.5,1.6-1.6,1.3-2.7l9.9-4.6C126.4,42,127.4,39,126.3,36.6z M64.8,121.1c-0.2-0.6-0.8-1.1-1.6-1.1l0.3,0
			l-0.1-8.5c0-0.1,0-0.2,0-0.4c0,0,0,0.1,0,0.1l0-0.1l0,0l0,0l0-0.1c0,0,0,0.1,0,0.1c0-0.2,0-0.3-0.1-0.5l0-2.4h0l0,0
			c0.4-0.1,0.8-0.4,0.8-0.8l0,0c0-0.4-0.3-0.7-0.8-0.8c-0.1-0.7-0.3-1.4-0.7-2c0.4-0.6,0.6-1.4,0.6-2.2c0,0,0,0.1,0,0.1l0-0.3
			c0,0,0,0.1,0,0.1c0-0.8-0.3-1.5-0.7-2.1c0.4-0.6,0.6-1.4,0.6-2.2c0,0,0,0.1,0,0.1l0-0.3c0,0,0,0.1,0,0.1c0-0.8-0.3-1.5-0.7-2.1
			c0.4-0.6,0.6-1.4,0.6-2.2c0,0,0,0.1,0,0.1l0-0.3c0,0,0,0.1,0,0.1c0-0.8-0.3-1.5-0.7-2.1c0.4-0.6,0.6-1.4,0.6-2.2c0,0,0,0.1,0,0.1
			l0-0.3c0,0,0,0.1,0,0.1c0-0.6-0.2-1.2-0.4-1.7h0c-0.2-0.4-0.5-0.8-0.8-1.1l5.1-0.1c-0.1,0.1-0.2,0.3-0.3,0.4
			c-0.4,0.6-0.6,1.3-0.7,2c0,0.1,0,0.3-0.1,0.4l0,0l0,0c0,0.8,0.3,1.6,0.7,2.2c-0.4,0.7-0.6,1.4-0.6,2.2c0,0.2,0,0.4,0.1,0.6
			c0.1,0.6,0.3,1.1,0.6,1.6c-0.4,0.7-0.6,1.4-0.6,2.2l0,0l0,0c0,0.8,0.3,1.6,0.7,2.2c-0.4,0.7-0.6,1.4-0.6,2.2l0,0l0,0
			c0,0.6,0.2,1.2,0.4,1.7c0.1,0.2,0.2,0.3,0.3,0.5c-0.3,0.6-0.6,1.3-0.6,2l-0.1,0c-0.5,0-0.9,0.4-0.9,0.8l0,0c0,0.4,0.4,0.7,0.8,0.8
			l0.1,4.8h0l0.1,7.1c0,0,0.1,0,0.1,0l0.3,0C65.7,120,65,120.5,64.8,121.1z"/>
		<path d="M45.9,89.5c0,0,0-0.1,0-0.1c0,0,0-0.1,0-0.1L45.9,89.5z"/>
		<path d="M46,93.9c0,0,0-0.1,0-0.1c0,0,0-0.1,0-0.1L46,93.9z"/>
		<path d="M46,98.3c0,0,0-0.1,0-0.1c0,0,0-0.1,0-0.1L46,98.3z"/>
		<path d="M46.1,102.7c0,0,0-0.1,0-0.1c0,0,0-0.1,0-0.1L46.1,102.7z"/>
		<path d="M65.9,89.2c0,0,0-0.1,0-0.1c0,0,0-0.1,0-0.1L65.9,89.2z"/>
		<path d="M65.9,93.6c0,0,0-0.1,0-0.1c0,0,0-0.1,0-0.1L65.9,93.6z"/>
		<path d="M66,98c0,0,0-0.1,0-0.1c0,0,0-0.1,0-0.1L66,98z"/>
		<path d="M66,102.4c0,0,0-0.1,0-0.1c0,0,0-0.1,0-0.1L66,102.4z"/>
	</g>
</g>
</svg>
