<?xml version="1.0" encoding="utf-8"?>
<!-- Generator: Adobe Illustrator 17.1.0, SVG Export Plug-In . SVG Version: 6.00 Build 0)  -->
<!DOCTYPE svg PUBLIC "-//W3C//DTD SVG 1.1//EN" "http://www.w3.org/Graphics/SVG/1.1/DTD/svg11.dtd">
<svg version="1.1" id="Layer_1" xmlns="http://www.w3.org/2000/svg" xmlns:xlink="http://www.w3.org/1999/xlink" x="0px" y="0px"
	 viewBox="0 0 186 190" enable-background="new 0 0 186 190" xml:space="preserve">
<g>
	<g>
		<g>
			<path fill="#B2B2B2" d="M125.6,79.3c0,0,0.1,0,0.1,0c0,0,0.1,0,0.1,0L125.6,79.3z"/>
			<path fill="#B2B2B2" d="M125.9,98.5c0,0-0.1,0-0.1,0c0,0-0.1,0-0.1,0L125.9,98.5z"/>
			<path fill="#B2B2B2" d="M130.8,98.5c0,0-0.1,0-0.1,0c0,0-0.1,0-0.1,0L130.8,98.5z"/>
			<path fill="#B2B2B2" d="M130.5,79.3c0,0,0.1,0,0.1,0c0,0,0.1,0,0.1,0L130.5,79.3z"/>
			<path fill="#B2B2B2" d="M135.4,79.4c0,0,0.1,0,0.1,0c0,0,0.1,0,0.1,0L135.4,79.4z"/>
			<path fill="#B2B2B2" d="M135.7,98.5c0,0-0.1,0-0.1,0c0,0-0.1,0-0.1,0L135.7,98.5z"/>
			<path fill="#B2B2B2" d="M140.3,79.4c0,0,0.1,0,0.1,0c0,0,0.1,0,0.1,0L140.3,79.4z"/>
			<path fill="#B2B2B2" d="M140.5,98.5c0,0-0.1,0-0.1,0c0,0-0.1,0-0.1,0L140.5,98.5z"/>
			<path fill="#B2B2B2" d="M145.2,79.4c0,0,0.1,0,0.1,0c0,0,0.1,0,0.1,0L145.2,79.4z"/>
			<path fill="#B2B2B2" d="M145.4,98.5c0,0-0.1,0-0.1,0c0,0-0.1,0-0.1,0L145.4,98.5z"/>
			<path fill="#B2B2B2" d="M150.1,79.4c0,0,0.1,0,0.1,0c0,0,0.1,0,0.1,0L150.1,79.4z"/>
			<path fill="#B2B2B2" d="M150.3,98.5c0,0-0.1,0-0.1,0c0,0-0.1,0-0.1,0L150.3,98.5z"/>
			<path fill="#B2B2B2" d="M97.2,79.3c0,0,0.1,0,0.1,0c0,0,0.1,0,0.1,0L97.2,79.3z"/>
			<path fill="#B2B2B2" d="M97.4,98.4c0,0-0.1,0-0.1,0c0,0-0.1,0-0.1,0L97.4,98.4z"/>
			<path fill="#B2B2B2" d="M92.4,84.3l0,9.1c0,2.7,2.2,5,4.9,5c0.9,0,1.7-0.3,2.4-0.7c0.7,0.4,1.6,0.7,2.4,0.7
				c0.9,0,1.7-0.3,2.4-0.7c0.7,0.4,1.6,0.7,2.4,0.7c0.9,0,1.7-0.3,2.4-0.7c0.7,0.4,1.6,0.7,2.4,0.7c0.9,0,1.7-0.3,2.4-0.7
				c0.7,0.4,1.6,0.7,2.4,0.7c0.9,0,1.7-0.3,2.4-0.7c0.7,0.4,1.6,0.7,2.4,0.7c0.7,0,1.4-0.2,2-0.5c0.6,0.3,1.3,0.5,2,0.5
				c0.9,0,1.7-0.3,2.4-0.7c0.7,0.4,1.6,0.7,2.4,0.7c0.9,0,1.7-0.3,2.4-0.7c0.7,0.4,1.6,0.7,2.4,0.7c0.9,0,1.7-0.3,2.4-0.7
				c0.7,0.4,1.6,0.7,2.4,0.7c0.9,0,1.7-0.3,2.4-0.7c0.7,0.4,1.6,0.7,2.4,0.7c0.9,0,1.7-0.3,2.4-0.7c0.7,0.4,1.6,0.7,2.4,0.7
				c2.7-0.1,4.9-2.3,4.9-5l0-9.1c0-2.7-2.2-5-4.9-5c-0.9,0-1.7,0.3-2.4,0.7c-0.7-0.4-1.6-0.7-2.4-0.7c-0.9,0-1.7,0.3-2.4,0.7
				c-0.7-0.4-1.6-0.7-2.4-0.7c-0.9,0-1.7,0.3-2.4,0.7c-0.7-0.4-1.6-0.7-2.4-0.7c-0.9,0-1.7,0.3-2.4,0.7c-0.7-0.4-1.6-0.7-2.4-0.7
				c-0.9,0-1.7,0.3-2.4,0.7c-0.7-0.4-1.6-0.7-2.4-0.7c-0.7,0-1.4,0.2-2,0.5c-0.6-0.3-1.3-0.5-2-0.5c-0.9,0-1.7,0.3-2.4,0.7
				c-0.7-0.4-1.6-0.7-2.4-0.7c-0.9,0-1.7,0.3-2.4,0.7c-0.7-0.4-1.6-0.7-2.4-0.7c-0.9,0-1.7,0.3-2.4,0.7c-0.7-0.4-1.6-0.7-2.4-0.7
				c-0.9,0-1.7,0.3-2.4,0.7c-0.7-0.4-1.6-0.7-2.4-0.7c-0.9,0-1.7,0.3-2.4,0.7c-0.7-0.4-1.6-0.7-2.4-0.7
				C94.6,79.4,92.4,81.6,92.4,84.3z"/>
			<path fill="#B2B2B2" d="M102.3,98.4c0,0-0.1,0-0.1,0c0,0-0.1,0-0.1,0L102.3,98.4z"/>
			<path fill="#B2B2B2" d="M102.1,79.3c0,0,0.1,0,0.1,0c0,0,0.1,0,0.1,0L102.1,79.3z"/>
			<path fill="#B2B2B2" d="M107,79.3c0,0,0.1,0,0.1,0c0,0,0.1,0,0.1,0L107,79.3z"/>
			<path fill="#B2B2B2" d="M107.2,98.4c0,0-0.1,0-0.1,0c0,0-0.1,0-0.1,0L107.2,98.4z"/>
			<path fill="#B2B2B2" d="M111.9,79.3c0,0,0.1,0,0.1,0c0,0,0.1,0,0.1,0L111.9,79.3z"/>
			<path fill="#B2B2B2" d="M112.1,98.5c0,0-0.1,0-0.1,0c0,0-0.1,0-0.1,0L112.1,98.5z"/>
			<path fill="#B2B2B2" d="M116.7,79.3c0,0,0.1,0,0.1,0c0,0,0.1,0,0.1,0L116.7,79.3z"/>
			<path fill="#B2B2B2" d="M117,98.5c0,0-0.1,0-0.1,0c0,0-0.1,0-0.1,0L117,98.5z"/>
			<path fill="#B2B2B2" d="M121.6,79.3c0,0,0.1,0,0.1,0c0,0,0.1,0,0.1,0L121.6,79.3z"/>
			<path fill="#B2B2B2" d="M121.9,98.5c0,0-0.1,0-0.1,0c0,0-0.1,0-0.1,0L121.9,98.5z"/>
		</g>
		<g>
			<path d="M157.7,99c-1.3,0-2.3-1-2.3-2.3l-0.2-14.4c0-1.3,1-2.3,2.3-2.3c1.3,0,2.3,1,2.3,2.3l0.2,14.4C160,97.9,159,99,157.7,99z"
				/>
			<path fill="#B2B2B2" d="M185.6,89.5c-0.1-4.2-3.5-7.5-7.7-7.5l-4.2,0.1l0.4-0.2c1.7-1,2.2-3.1,1.3-4.8c-0.6-1.1-1.8-1.8-3.1-1.7
				c-0.6,0-1.2,0.2-1.7,0.5l-9.5,5.5l0.2,16.1l16.9-0.2C182.3,97.2,185.7,93.7,185.6,89.5z"/>
			<path fill="#FFBE08" d="M157.4,78.6c-2,0-3.7,1.7-3.7,3.8l0.2,14.4c0,2,1.7,3.7,3.8,3.7c1.8,0,3.2-1.3,3.6-2.9L161,81.4
				C160.6,79.7,159.1,78.5,157.4,78.6z"/>
		</g>
	</g>
	<g>
		<g>
			<path fill="#B2B2B2" d="M53.2,69.1c0,0-0.1-0.1-0.1-0.1c0,0-0.1-0.1-0.1-0.1L53.2,69.1z"/>
			<path fill="#B2B2B2" d="M39.6,82.5c0,0,0.1,0.1,0.1,0.1c0,0,0.1,0.1,0.1,0.1L39.6,82.5z"/>
			<path fill="#B2B2B2" d="M36.1,79.1c0,0,0.1,0.1,0.1,0.1c0,0,0.1,0.1,0.1,0.1L36.1,79.1z"/>
			<path fill="#B2B2B2" d="M49.7,65.6c0,0-0.1-0.1-0.1-0.1c0,0-0.1-0.1-0.1-0.1L49.7,65.6z"/>
			<path fill="#B2B2B2" d="M46.2,62.2c0,0-0.1-0.1-0.1-0.1c0,0-0.1-0.1-0.1-0.1L46.2,62.2z"/>
			<path fill="#B2B2B2" d="M32.6,75.7c0,0,0.1,0.1,0.1,0.1c0,0,0.1,0.1,0.1,0.1L32.6,75.7z"/>
			<path fill="#B2B2B2" d="M42.7,58.8c0,0-0.1-0.1-0.1-0.1c0,0-0.1-0.1-0.1-0.1L42.7,58.8z"/>
			<path fill="#B2B2B2" d="M29.1,72.3c0,0,0.1,0.1,0.1,0.1c0,0,0.1,0.1,0.1,0.1L29.1,72.3z"/>
			<path fill="#B2B2B2" d="M39.2,55.4c0,0-0.1-0.1-0.1-0.1c0,0-0.1-0.1-0.1-0.1L39.2,55.4z"/>
			<path fill="#B2B2B2" d="M25.6,68.9c0,0,0.1,0.1,0.1,0.1c0,0,0.1,0.1,0.1,0.1L25.6,68.9z"/>
			<path fill="#B2B2B2" d="M35.7,52c0,0-0.1-0.1-0.1-0.1c0,0-0.1-0.1-0.1-0.1L35.7,52z"/>
			<path fill="#B2B2B2" d="M22.2,65.4c0,0,0.1,0.1,0.1,0.1c0,0,0.1,0.1,0.1,0.1L22.2,65.4z"/>
			<path fill="#B2B2B2" d="M73.6,88.9c0,0-0.1-0.1-0.1-0.1c0,0-0.1-0.1-0.1-0.1L73.6,88.9z"/>
			<path fill="#B2B2B2" d="M60,102.4c0,0,0.1,0.1,0.1,0.1c0,0,0.1,0.1,0.1,0.1L60,102.4z"/>
			<path fill="#B2B2B2" d="M73.4,95.9l-6.3,6.5c-1.9,2-5,2-7,0.2c-0.6-0.6-1-1.4-1.2-2.2c-0.8-0.2-1.6-0.6-2.2-1.2
				c-0.6-0.6-1-1.4-1.2-2.2c-0.8-0.2-1.6-0.6-2.2-1.2c-0.6-0.6-1-1.4-1.2-2.2c-0.8-0.2-1.6-0.6-2.2-1.2c-0.6-0.6-1-1.4-1.2-2.2
				c-0.8-0.2-1.6-0.6-2.2-1.2c-0.6-0.6-1-1.4-1.2-2.2c-0.8-0.2-1.6-0.6-2.2-1.2c-0.5-0.5-0.9-1.1-1.1-1.7c-0.6-0.2-1.2-0.6-1.8-1.1
				c-0.6-0.6-1-1.4-1.2-2.2c-0.8-0.2-1.6-0.6-2.2-1.2c-0.6-0.6-1-1.4-1.2-2.2c-0.8-0.2-1.6-0.6-2.2-1.2c-0.6-0.6-1-1.4-1.2-2.2
				c-0.8-0.2-1.6-0.6-2.2-1.2c-0.6-0.6-1-1.4-1.2-2.2c-0.8-0.2-1.6-0.6-2.2-1.2c-0.6-0.6-1-1.4-1.2-2.2c-0.8-0.2-1.6-0.6-2.2-1.2
				c-1.9-2-1.9-5.1,0-7l6.3-6.5c1.9-2,5-2,7-0.2c0.6,0.6,1,1.4,1.2,2.2c0.8,0.2,1.6,0.6,2.2,1.2c0.6,0.6,1,1.4,1.2,2.2
				c0.8,0.2,1.6,0.6,2.2,1.2c0.6,0.6,1,1.4,1.2,2.2c0.8,0.2,1.6,0.6,2.2,1.2c0.6,0.6,1,1.4,1.2,2.2c0.8,0.2,1.6,0.6,2.2,1.2
				c0.6,0.6,1,1.4,1.2,2.2c0.8,0.2,1.6,0.6,2.2,1.2c0.5,0.5,0.9,1.1,1.1,1.7c0.6,0.2,1.2,0.6,1.8,1.1c0.6,0.6,1,1.4,1.2,2.2
				c0.8,0.2,1.6,0.6,2.2,1.2c0.6,0.6,1,1.4,1.2,2.2c0.8,0.2,1.6,0.6,2.2,1.2c0.6,0.6,1,1.4,1.2,2.2c0.8,0.2,1.6,0.6,2.2,1.2
				c0.6,0.6,1,1.4,1.2,2.2c0.8,0.2,1.6,0.6,2.2,1.2c0.6,0.6,1,1.4,1.2,2.2c0.8,0.2,1.6,0.6,2.2,1.2C75.3,90.8,75.3,93.9,73.4,95.9z"
				/>
			<path fill="#B2B2B2" d="M56.5,99c0,0,0.1,0.1,0.1,0.1c0,0,0.1,0.1,0.1,0.1L56.5,99z"/>
			<path fill="#B2B2B2" d="M70.1,85.5c0,0-0.1-0.1-0.1-0.1c0,0-0.1-0.1-0.1-0.1L70.1,85.5z"/>
			<path fill="#B2B2B2" d="M66.6,82.1c0,0-0.1-0.1-0.1-0.1c0,0-0.1-0.1-0.1-0.1L66.6,82.1z"/>
			<path fill="#B2B2B2" d="M53,95.6c0,0,0.1,0.1,0.1,0.1c0,0,0.1,0.1,0.1,0.1L53,95.6z"/>
			<path fill="#B2B2B2" d="M63.1,78.7c0,0-0.1-0.1-0.1-0.1c0,0-0.1-0.1-0.1-0.1L63.1,78.7z"/>
			<path fill="#B2B2B2" d="M49.5,92.2c0,0,0.1,0.1,0.1,0.1c0,0,0.1,0.1,0.1,0.1L49.5,92.2z"/>
			<path fill="#B2B2B2" d="M59.6,75.3c0,0-0.1-0.1-0.1-0.1c0,0-0.1-0.1-0.1-0.1L59.6,75.3z"/>
			<path fill="#B2B2B2" d="M46,88.7c0,0,0.1,0.1,0.1,0.1c0,0,0.1,0.1,0.1,0.1L46,88.7z"/>
			<path fill="#B2B2B2" d="M56.1,71.8c0,0-0.1-0.1-0.1-0.1c0,0-0.1-0.1-0.1-0.1L56.1,71.8z"/>
			<path fill="#B2B2B2" d="M42.5,85.3c0,0,0.1,0.1,0.1,0.1c0,0,0.1,0.1,0.1,0.1L42.5,85.3z"/>
		</g>
		<g>
			<path d="M16,57.1L26.2,47c0.9-0.9,2.4-0.9,3.3,0c0.9,0.9,0.9,2.4,0,3.3L19.2,60.4c-0.9,0.9-2.4,0.9-3.3,0
				C15,59.4,15.1,58,16,57.1z"/>
			<path fill="#B2B2B2" d="M2.6,34c3-2.9,7.8-2.9,10.7,0.1l3,3l-0.1-0.4c-0.5-1.9,0.6-3.8,2.5-4.3c1.2-0.3,2.5,0,3.4,0.9
				c0.4,0.4,0.7,1,0.9,1.5l2.9,10.6L14.4,56.8l-11.9-12C-0.4,41.8-0.4,37,2.6,34z"/>
			<path fill="#FFBE08" d="M30.4,46c1.4,1.5,1.4,3.8,0,5.3L20.2,61.4c-1.5,1.4-3.8,1.4-5.3,0c-1.2-1.2-1.4-3.1-0.5-4.6l11.5-11.3
				C27.3,44.6,29.2,44.7,30.4,46z"/>
		</g>
	</g>
	<g>
		<path fill="#B2B2B2" d="M41.1,105c0-0.2,0-0.5,0-0.7c0-0.2,0-0.4,0-0.7L41.1,105z"/>
		<path fill="#B2B2B2" d="M129.2,102.4c0,0.2,0,0.5,0,0.7c0,0.2,0,0.4,0,0.7L129.2,102.4z"/>
		<path fill="#B2B2B2" d="M121.2,86.4c-2.1-8.5-9.9-14.7-19-14.6l-34.9,0.5c-9.1,0.1-16.7,6.6-18.6,15.1c-4.6,4.2-7.5,10.2-7.6,16.8
			c0.3,7.3,4,13.8,9.6,17.8c3.3,6.3,9.9,10.6,17.5,10.5l34.9-0.5c7.6-0.1,14.1-4.6,17.2-11c5.4-4.2,8.9-10.7,9-18.1
			C129,96.4,125.9,90.5,121.2,86.4z"/>
	</g>
	<g>
		<path fill="#B2B2B2" d="M41.1,105c0-0.2,0-0.5,0-0.7c0-0.2,0-0.4,0-0.7L41.1,105z"/>
		<path fill="#B2B2B2" d="M129.2,102.4c0,0.2,0,0.5,0,0.7c0,0.2,0,0.4,0,0.7L129.2,102.4z"/>
		<path fill="#B2B2B2" d="M121.2,86.4c-2.1-8.5-9.9-14.7-19-14.6l-34.9,0.5c-9.1,0.1-16.7,6.6-18.6,15.1c-4.6,4.2-7.5,10.2-7.6,16.8
			c0.3,7.3,4,13.8,9.6,17.8c3.3,6.3,9.9,10.6,17.5,10.5l34.9-0.5c7.6-0.1,14.1-4.6,17.2-11c5.4-4.2,8.9-10.7,9-18.1
			C129,96.4,125.9,90.5,121.2,86.4z"/>
	</g>
	<path fill="#8C8C8C" d="M121.5,86.4c-2.1-8.5-9.9-14.7-19-14.6l-4.3,0.1c9.1-0.1,16.9,6.1,19,14.6c4.7,4,7.8,9.9,8.1,16.6
		c0-0.2,0-0.4,0-0.7l0,1.4c0-0.2,0-0.5,0-0.7c-0.1,7.3-3.6,13.9-9,18.1c-3.1,6.4-9.6,10.9-17.2,11l4.3-0.1c7.6-0.1,14.1-4.6,17.2-11
		c5.4-4.2,8.9-10.7,9-18.1C129.2,96.4,126.2,90.5,121.5,86.4z"/>
	<path fill="#C1C1C1" d="M48.8,87.5c1.9-8.6,9.5-15,18.6-15.1l4.3-0.1c-9.1,0.1-16.7,6.6-18.6,15.1c-4.6,4.2-7.5,10.2-7.6,16.8
		c0-0.2,0-0.4,0-0.7l0,1.4c0-0.2,0-0.5,0-0.7c0.3,7.3,4,13.8,9.6,17.8c3.3,6.3,9.9,10.6,17.5,10.5l-4.3,0.1
		c-7.6,0.1-14.2-4.2-17.5-10.5c-5.5-4-9.2-10.5-9.6-17.8C41.3,97.6,44.2,91.7,48.8,87.5z"/>
	<path fill="#B2B2B2" d="M51.7,58.3l0.7,0c2.1,3.2,4.7,6,7.6,8.4l48.3-0.7c2.9-2.5,5.3-5.4,7.3-8.6l0.7,0c4-0.1,7.1-3.3,7.1-7.3
		l-0.4-26c-0.1-4-3.3-7.1-7.3-7.1l-0.7,0C108.2,6.7,96.4,0,83.1,0.1S58.3,7.4,51.8,17.9l-0.7,0c-4,0.1-7.1,3.3-7.1,7.3l0.4,26
		C44.5,55.2,47.7,58.3,51.7,58.3z"/>
	<path fill="#8C8C8C" d="M115.6,17l-0.7,0C108.2,6.7,96.4,0,83.1,0.1c-0.9,0-1.8,0.1-2.7,0.1c12.1,0.7,22.8,7.2,29.1,16.8l0.7,0
		c4-0.1,7.2,3.1,7.3,7.1l0.4,26c0.1,4-3.1,7.2-7.1,7.3l-0.7,0c-2,3.2-4.5,6.1-7.3,8.6l5.5-0.1c2.9-2.5,5.3-5.4,7.3-8.6l0.7,0
		c4-0.1,7.1-3.3,7.1-7.3l-0.4-26C122.8,20.1,119.6,16.9,115.6,17z"/>
	<path fill="#C1C1C1" d="M51.1,17.9l0.7,0C58.3,7.4,69.8,0.3,83.1,0.1c0.9,0,1.8,0,2.7,0.1c-12.1,1-22.6,7.8-28.6,17.6l-0.7,0
		c-4,0.1-7.1,3.3-7.1,7.3l0.4,26c0.1,4,3.3,7.1,7.3,7.1l0.7,0c2.1,3.2,4.7,6,7.6,8.4l-5.5,0.1c-2.9-2.4-5.5-5.2-7.6-8.4l-0.7,0
		c-4,0.1-7.2-3.1-7.3-7.1l-0.4-26C44,21.2,47.1,18,51.1,17.9z"/>
	<path fill="#A3DAE3" d="M82.8,21.8c-25.9,0.4-28.5,10.5-28.5,10.5s0,0.5,0,1.3c0,1,0,2.4,0.1,3.9l0.1,7.2l0.1,3.9
		c0,0.8,0,1.3,0,1.3s0.4,10.1,30,9.7c25.9-0.4,28.5-10.5,28.5-10.5s0-0.5,0-1.3l-0.1-3.9l-0.1-7.2c0-1.6,0-3-0.1-3.9
		c0-0.8,0-1.3,0-1.3S112.4,21.4,82.8,21.8z"/>
	<path fill="#FFBE08" d="M108.3,74.6l-48,0.7c-2.4,0-4.3-1.8-4.3-4.2l0-0.1c0-2.4,1.8-4.3,4.2-4.3l48-0.7c2.4,0,4.3,1.8,4.3,4.2
		l0,0.1C112.5,72.6,110.6,74.6,108.3,74.6z"/>
	<path opacity="0.63" fill="#FFFFFF" d="M90.7,25.4c0,0,19.3,1.6,19.4,7.5c0.1,5.9,0.2,15,0.2,15s0,2.2-1.8,2.3
		c-1.9,0-9.6-21.7-16.4-21.6C85.2,28.7,87.8,25.1,90.7,25.4z"/>
	<g>
		<g>
			<path fill="#B2B2B2" d="M83.1,136.6c0,0.1,0,0.1,0,0.2c0,0.1,0,0.1,0,0.2L83.1,136.6z"/>
			<path fill="#B2B2B2" d="M56.5,137.4c0-0.1,0-0.1,0-0.2c0-0.1,0-0.1,0-0.2L56.5,137.4z"/>
			<path fill="#B2B2B2" d="M83.1,136.8c-0.2-3.8-3.3-6.7-7.1-6.7l-12.6,0.2c-3.8,0.1-6.8,3.1-6.9,6.9c0.1,1.2,0.4,2.4,1,3.4
				c-0.6,1-0.9,2.2-0.9,3.4c0.1,1.2,0.4,2.4,1,3.4c-0.6,1-0.9,2.2-0.9,3.4c0.1,1.2,0.4,2.4,1,3.4c-0.6,1-0.9,2.2-0.9,3.4
				c0.1,1.2,0.4,2.4,1,3.4c-0.6,1-0.9,2.2-0.9,3.4c0.1,1.2,0.4,2.4,1,3.4c-0.6,1-0.9,2.2-0.9,3.4c0.2,3.8,3.3,6.7,7.1,6.7l12.6-0.2
				c3.8-0.1,6.8-3.1,6.9-6.9c-0.1-1.2-0.4-2.4-1-3.4c0.6-1,0.9-2.2,0.9-3.4c-0.1-1.2-0.4-2.4-1-3.4c0.6-1,0.9-2.2,0.9-3.4
				c-0.1-1.2-0.4-2.4-1-3.4c0.6-1,0.9-2.2,0.9-3.4c-0.1-1.2-0.4-2.4-1-3.4c0.6-1,0.9-2.2,0.9-3.4c-0.1-1.2-0.4-2.4-1-3.4
				C82.7,139.2,83,138.1,83.1,136.8z"/>
			<path fill="#B2B2B2" d="M56.6,144.2c0-0.1,0-0.1,0-0.2c0-0.1,0-0.1,0-0.2L56.6,144.2z"/>
			<path fill="#B2B2B2" d="M83.2,143.4c0,0.1,0,0.1,0,0.2c0,0.1,0,0.1,0,0.2L83.2,143.4z"/>
			<path fill="#B2B2B2" d="M83.3,150.2c0,0.1,0,0.1,0,0.2c0,0.1,0,0.1,0,0.2L83.3,150.2z"/>
			<path fill="#B2B2B2" d="M56.7,151c0-0.1,0-0.1,0-0.2c0-0.1,0-0.1,0-0.2L56.7,151z"/>
			<path fill="#B2B2B2" d="M83.4,157c0,0.1,0,0.1,0,0.2c0,0.1,0,0.1,0,0.2L83.4,157z"/>
			<path fill="#B2B2B2" d="M56.8,157.8c0-0.1,0-0.1,0-0.2c0-0.1,0-0.1,0-0.2L56.8,157.8z"/>
			<path fill="#B2B2B2" d="M83.5,163.8c0,0.1,0,0.1,0,0.2c0,0.1,0,0.1,0,0.2L83.5,163.8z"/>
			<path fill="#B2B2B2" d="M56.9,164.5c0-0.1,0-0.1,0-0.2c0-0.1,0-0.1,0-0.2L56.9,164.5z"/>
			<path fill="#B2B2B2" d="M83.6,170.5c0,0.1,0,0.1,0,0.2c0,0.1,0,0.1,0,0.2L83.6,170.5z"/>
			<path fill="#B2B2B2" d="M57,171.3c0-0.1,0-0.1,0-0.2c0-0.1,0-0.1,0-0.2L57,171.3z"/>
		</g>
		<path fill="#C1C1C1" d="M63.4,130.3l3.7-0.1c-3.8,0.1-6.8,3.1-6.9,6.9c0-0.1,0-0.1,0-0.2l0,0.4c0-0.1,0-0.1,0-0.2
			c0.1,1.2,0.4,2.4,1,3.4c-0.6,1-0.9,2.2-0.9,3.4c0-0.1,0-0.1,0-0.2l0,0.4c0-0.1,0-0.1,0-0.2c0.1,1.2,0.4,2.4,1,3.4
			c-0.6,1-0.9,2.2-0.9,3.4c0-0.1,0-0.1,0-0.2l0,0.4c0-0.1,0-0.1,0-0.2c0.1,1.2,0.4,2.4,1,3.4c-0.6,1-0.9,2.2-0.9,3.4
			c0-0.1,0-0.1,0-0.2l0,0.4c0-0.1,0-0.1,0-0.2c0.1,1.2,0.4,2.4,1,3.4c-0.6,1-0.9,2.2-0.9,3.4c0-0.1,0-0.1,0-0.2l0,0.4
			c0-0.1,0-0.1,0-0.2c0.1,1.2,0.4,2.4,1,3.4c-0.6,1-0.9,2.2-0.9,3.4c0-0.1,0-0.1,0-0.2l0,0.4c0-0.1,0-0.1,0-0.2
			c0.2,3.8,3.3,6.7,7.1,6.7l-3.7,0.1c-3.8,0.1-6.9-2.9-7.1-6.7c0-1.2,0.4-2.4,0.9-3.4c-0.6-1-1-2.1-1-3.4c0-1.2,0.4-2.4,0.9-3.4
			c-0.6-1-1-2.1-1-3.4c0-1.2,0.4-2.4,0.9-3.4c-0.6-1-1-2.1-1-3.4c0-1.2,0.4-2.4,0.9-3.4c-0.6-1-1-2.1-1-3.4c0-1.2,0.4-2.4,0.9-3.4
			c-0.6-1-1-2.1-1-3.4C56.6,133.4,59.6,130.4,63.4,130.3z"/>
		<path fill="#8C8C8C" d="M82.4,134.2l-3.7,0.1c0.4,0.8,0.6,1.7,0.6,2.6c0-0.1,0-0.1,0-0.2l0,0.4c0-0.1,0-0.1,0-0.2
			c0,1.2-0.4,2.4-0.9,3.4c0.6,1,1,2.1,1,3.4c0-0.1,0-0.1,0-0.2l0,0.4c0-0.1,0-0.1,0-0.2c0,1.2-0.4,2.4-0.9,3.4c0.6,1,1,2.1,1,3.4
			c0-0.1,0-0.1,0-0.2l0,0.4c0-0.1,0-0.1,0-0.2c0,1.2-0.4,2.4-0.9,3.4c0.6,1,1,2.1,1,3.4c0-0.1,0-0.1,0-0.2l0,0.4c0-0.1,0-0.1,0-0.2
			c0,1.2-0.4,2.4-0.9,3.4c0.6,1,1,2.1,1,3.4c0-0.1,0-0.1,0-0.2l0,0.4c0-0.1,0-0.1,0-0.2c0,1.2-0.4,2.4-0.9,3.4c0.6,1,1,2.1,1,3.4
			c0-0.1,0-0.1,0-0.2l0,0.4c0-0.1,0-0.1,0-0.2c-0.1,3.8-3.1,6.8-6.9,6.9l3.7-0.1c3.8-0.1,6.8-3.1,6.9-6.9c-0.1-1.2-0.4-2.4-1-3.4
			c0.6-1,0.9-2.2,0.9-3.4c-0.1-1.2-0.4-2.4-1-3.4c0.6-1,0.9-2.2,0.9-3.4c-0.1-1.2-0.4-2.4-1-3.4c0.6-1,0.9-2.2,0.9-3.4
			c-0.1-1.2-0.4-2.4-1-3.4c0.6-1,0.9-2.2,0.9-3.4c-0.1-1.2-0.4-2.4-1-3.4c0.6-1,0.9-2.2,0.9-3.4C83,135.9,82.8,135,82.4,134.2z"/>
	</g>
	
		<rect x="78.7" y="166.2" transform="matrix(0.9999 -1.435587e-02 1.435587e-02 0.9999 -2.5087 1.1826)" fill="#8C8C8C" width="4.9" height="18.3"/>
	<g>
		<g>
			<path fill="#FFBE08" d="M83.1,189.4l-30.5,0.4c-1.5,0-2.7-1.1-2.7-2.4l0,0c0-1.3,1.2-2.5,2.7-2.5l30.5-0.4c1.5,0,2.7,1.1,2.7,2.4
				l0,0C85.8,188.2,84.6,189.3,83.1,189.4z"/>
			<g>
				<path fill="#FFBE08" d="M83.1,189.4l-35,0.5c-1.5,0-2.7-1.1-2.7-2.4l0,0c0-1.3,1.2-2.5,2.7-2.5l35-0.5c1.5,0,2.7,1.1,2.7,2.4
					l0,0C85.8,188.2,84.6,189.3,83.1,189.4z"/>
				<path fill="#B2B2B2" d="M48.4,184.9l35.1-0.5c0.1,0,0.1,0,0.2,0l-0.2-10.9l-29.2,0.4c-4.3,0.1-7.7,3.6-7.7,7.9
					c0,1.2,0.3,2.3,0.8,3.3C47.8,185,48.1,184.9,48.4,184.9z"/>
				
					<rect x="56.3" y="166.2" transform="matrix(0.9999 -1.435587e-02 1.435587e-02 0.9999 -2.4478 1.0211)" fill="#B2B2B2" width="27.2" height="9.7"/>
				<path fill="#FFBE08" d="M83.2,166.2l-27,0.4c-0.8,0-1.4-0.5-1.4-1.2l0,0c0-0.7,0.6-1.3,1.4-1.3l27-0.4c0.8,0,1.4,0.5,1.4,1.2
					l0,0C84.6,165.6,84,166.2,83.2,166.2z"/>
			</g>
		</g>
		<path fill="#C1C1C1" d="M54,174c-4.1,0.1-7.4,3.4-7.3,7.5c0,1.2,0.3,2.4,0.9,3.4l1.8,0c-0.1-0.5-0.2-1.1-0.2-1.7
			c-0.1-4.1,3.2-7.5,7.3-7.5c1.1,0,2.1,0.2,3,0.6C58,174.9,56.1,174,54,174z"/>
	</g>
	<g>
		<g>
			<path fill="#B2B2B2" d="M113.8,136.2c0,0.1,0,0.1,0,0.2c0,0.1,0,0.1,0,0.2L113.8,136.2z"/>
			<path fill="#B2B2B2" d="M87.3,137c0-0.1,0-0.1,0-0.2c0-0.1,0-0.1,0-0.2L87.3,137z"/>
			<path fill="#B2B2B2" d="M113.8,136.4c-0.2-3.8-3.3-6.7-7.1-6.7l-12.6,0.2c-3.8,0.1-6.8,3.1-6.9,6.9c0.1,1.2,0.4,2.4,1,3.4
				c-0.6,1-0.9,2.2-0.9,3.4c0.1,1.2,0.4,2.4,1,3.4c-0.6,1-0.9,2.2-0.9,3.4c0.1,1.2,0.4,2.4,1,3.4c-0.6,1-0.9,2.2-0.9,3.4
				c0.1,1.2,0.4,2.4,1,3.4c-0.6,1-0.9,2.2-0.9,3.4c0.1,1.2,0.4,2.4,1,3.4c-0.6,1-0.9,2.2-0.9,3.4c0.2,3.8,3.3,6.7,7.1,6.7l12.6-0.2
				c3.8-0.1,6.8-3.1,6.9-6.9c-0.1-1.2-0.4-2.4-1-3.4c0.6-1,0.9-2.2,0.9-3.4c-0.1-1.2-0.4-2.4-1-3.4c0.6-1,0.9-2.2,0.9-3.4
				c-0.1-1.2-0.4-2.4-1-3.4c0.6-1,0.9-2.2,0.9-3.4c-0.1-1.2-0.4-2.4-1-3.4c0.6-1,0.9-2.2,0.9-3.4c-0.1-1.2-0.4-2.4-1-3.4
				C113.4,138.8,113.8,137.6,113.8,136.4z"/>
			<path fill="#B2B2B2" d="M87.4,143.8c0-0.1,0-0.1,0-0.2c0-0.1,0-0.1,0-0.2L87.4,143.8z"/>
			<path fill="#B2B2B2" d="M113.9,143c0,0.1,0,0.1,0,0.2c0,0.1,0,0.1,0,0.2L113.9,143z"/>
			<path fill="#B2B2B2" d="M114,149.7c0,0.1,0,0.1,0,0.2c0,0.1,0,0.1,0,0.2L114,149.7z"/>
			<path fill="#B2B2B2" d="M87.5,150.5c0-0.1,0-0.1,0-0.2c0-0.1,0-0.1,0-0.2L87.5,150.5z"/>
			<path fill="#B2B2B2" d="M114.1,156.5c0,0.1,0,0.1,0,0.2c0,0.1,0,0.1,0,0.2L114.1,156.5z"/>
			<path fill="#B2B2B2" d="M87.6,157.3c0-0.1,0-0.1,0-0.2c0-0.1,0-0.1,0-0.2L87.6,157.3z"/>
			<path fill="#B2B2B2" d="M114.2,163.3c0,0.1,0,0.1,0,0.2c0,0.1,0,0.1,0,0.2L114.2,163.3z"/>
			<path fill="#B2B2B2" d="M87.6,164.1c0-0.1,0-0.1,0-0.2c0-0.1,0-0.1,0-0.2L87.6,164.1z"/>
			<path fill="#B2B2B2" d="M114.3,170.1c0,0.1,0,0.1,0,0.2c0,0.1,0,0.1,0,0.2L114.3,170.1z"/>
			<path fill="#B2B2B2" d="M87.7,170.9c0-0.1,0-0.1,0-0.2c0-0.1,0-0.1,0-0.2L87.7,170.9z"/>
		</g>
		<path fill="#C1C1C1" d="M94.1,129.9l3.7-0.1c-3.8,0.1-6.8,3.1-6.9,6.9c0-0.1,0-0.1,0-0.2l0,0.4c0-0.1,0-0.1,0-0.2
			c0.1,1.2,0.4,2.4,1,3.4c-0.6,1-0.9,2.2-0.9,3.4c0-0.1,0-0.1,0-0.2l0,0.4c0-0.1,0-0.1,0-0.2c0.1,1.2,0.4,2.4,1,3.4
			c-0.6,1-0.9,2.2-0.9,3.4c0-0.1,0-0.1,0-0.2l0,0.4c0-0.1,0-0.1,0-0.2c0.1,1.2,0.4,2.4,1,3.4c-0.6,1-0.9,2.2-0.9,3.4
			c0-0.1,0-0.1,0-0.2l0,0.4c0-0.1,0-0.1,0-0.2c0.1,1.2,0.4,2.4,1,3.4c-0.6,1-0.9,2.2-0.9,3.4c0-0.1,0-0.1,0-0.2l0,0.4
			c0-0.1,0-0.1,0-0.2c0.1,1.2,0.4,2.4,1,3.4c-0.6,1-0.9,2.2-0.9,3.4c0-0.1,0-0.1,0-0.2l0,0.4c0-0.1,0-0.1,0-0.2
			c0.2,3.8,3.3,6.7,7.1,6.7l-3.7,0.1c-3.8,0.1-6.9-2.9-7.1-6.7c0-1.2,0.4-2.4,0.9-3.4c-0.6-1-1-2.1-1-3.4c0-1.2,0.4-2.4,0.9-3.4
			c-0.6-1-1-2.1-1-3.4c0-1.2,0.4-2.4,0.9-3.4c-0.6-1-1-2.1-1-3.4c0-1.2,0.4-2.4,0.9-3.4c-0.6-1-1-2.1-1-3.4c0-1.2,0.4-2.4,0.9-3.4
			c-0.6-1-1-2.1-1-3.4C87.3,133,90.4,129.9,94.1,129.9z"/>
		<path fill="#8C8C8C" d="M113.2,133.7l-3.7,0.1c0.4,0.8,0.6,1.7,0.6,2.6c0-0.1,0-0.1,0-0.2l0,0.4c0-0.1,0-0.1,0-0.2
			c0,1.2-0.4,2.4-0.9,3.4c0.6,1,1,2.1,1,3.4c0-0.1,0-0.1,0-0.2l0,0.4c0-0.1,0-0.1,0-0.2c0,1.2-0.4,2.4-0.9,3.4c0.6,1,1,2.1,1,3.4
			c0-0.1,0-0.1,0-0.2l0,0.4c0-0.1,0-0.1,0-0.2c0,1.2-0.4,2.4-0.9,3.4c0.6,1,1,2.1,1,3.4c0-0.1,0-0.1,0-0.2l0,0.4c0-0.1,0-0.1,0-0.2
			c0,1.2-0.4,2.4-0.9,3.4c0.6,1,1,2.1,1,3.4c0-0.1,0-0.1,0-0.2l0,0.4c0-0.1,0-0.1,0-0.2c0,1.2-0.4,2.4-0.9,3.4c0.6,1,1,2.1,1,3.4
			c0-0.1,0-0.1,0-0.2l0,0.4c0-0.1,0-0.1,0-0.2c-0.1,3.8-3.1,6.8-6.9,6.9l3.7-0.1c3.8-0.1,6.8-3.1,6.9-6.9c-0.1-1.2-0.4-2.4-1-3.4
			c0.6-1,0.9-2.2,0.9-3.4c-0.1-1.2-0.4-2.4-1-3.4c0.6-1,0.9-2.2,0.9-3.4c-0.1-1.2-0.4-2.4-1-3.4c0.6-1,0.9-2.2,0.9-3.4
			c-0.1-1.2-0.4-2.4-1-3.4c0.6-1,0.9-2.2,0.9-3.4c-0.1-1.2-0.4-2.4-1-3.4c0.6-1,0.9-2.2,0.9-3.4
			C113.8,135.4,113.5,134.6,113.2,133.7z"/>
	</g>
	<g>
		<g>
			<path fill="#FFBE08" d="M88.3,189.3l30.5-0.4c1.5,0,2.7-1.1,2.7-2.5l0,0c0-1.3-1.2-2.4-2.7-2.4l-30.5,0.4c-1.5,0-2.7,1.1-2.7,2.5
				l0,0C85.6,188.2,86.8,189.3,88.3,189.3z"/>
			<g>
				<path fill="#FFBE08" d="M88.3,189.3l35-0.5c1.5,0,2.7-1.1,2.7-2.5l0,0c0-1.3-1.2-2.4-2.7-2.4l-35,0.5c-1.5,0-2.7,1.1-2.7,2.5
					l0,0C85.6,188.2,86.8,189.3,88.3,189.3z"/>
				<path fill="#B2B2B2" d="M122.9,183.8l-35.1,0.5c-0.1,0-0.1,0-0.2,0l-0.2-10.9l29.2-0.4c4.3-0.1,7.8,3.4,7.9,7.7
					c0,1.2-0.2,2.3-0.7,3.4C123.5,183.9,123.2,183.8,122.9,183.8z"/>
				
					<rect x="87.4" y="165.7" transform="matrix(-0.9999 1.435579e-02 -1.435579e-02 -0.9999 204.4738 339.665)" fill="#B2B2B2" width="27.2" height="9.7"/>
				<path fill="#FFBE08" d="M87.6,166.1l27-0.4c0.8,0,1.4-0.6,1.4-1.3l0,0c0-0.7-0.6-1.3-1.4-1.2l-27,0.4c-0.8,0-1.4,0.6-1.4,1.3
					l0,0C86.2,165.6,86.8,166.1,87.6,166.1z"/>
			</g>
		</g>
		<path fill="#C1C1C1" d="M117,173.1c4.1-0.1,7.5,3.2,7.5,7.3c0,1.2-0.3,2.4-0.8,3.4l-1.8,0c0.1-0.5,0.2-1.1,0.2-1.7
			c-0.1-4.1-3.4-7.4-7.5-7.3c-1.1,0-2.1,0.3-3,0.7C113,174.1,114.9,173.2,117,173.1z"/>
	</g>
</g>
</svg>
