<?xml version="1.0" encoding="utf-8"?>
<!-- Generator: Adobe Illustrator 17.1.0, SVG Export Plug-In . SVG Version: 6.00 Build 0)  -->
<!DOCTYPE svg PUBLIC "-//W3C//DTD SVG 1.1//EN" "http://www.w3.org/Graphics/SVG/1.1/DTD/svg11.dtd">
<svg version="1.1" id="Layer_1" xmlns="http://www.w3.org/2000/svg" xmlns:xlink="http://www.w3.org/1999/xlink" x="0px" y="0px"
	 viewBox="0 0 170 140" enable-background="new 0 0 170 140" xml:space="preserve">
<g>
	<path opacity="0.3" fill="#FFBE08" d="M136.4,3.7C112-6,84.7,4,71.9,26.1c-10.6,2.2-20,9.2-24.7,19.7c-12.8,3.4-19,9-19,9
		c6.9-0.4,12.4,0.4,16.2,1.4c-0.1,0.9-0.2,1.9-0.2,2.8c-20.6,3.1-25.7,14.1-25.7,14.1c-0.7,2.5-5.8,6.5-5.8,6.5
		c4.1-0.1,7.2-2.7,7.2-2.7c4.9-4.1,8.2-3.9,8.2-3.9c6-0.7,15.2,3.9,15.2,3.9C17,83.8,9.3,97.2,9.3,97.2C7,101.9,4,103.9,4,103.9
		c4.8,1.8,9.1-2.3,9.1-2.3c3.9-7,10.4-6.2,10.4-6.2c6.6-0.1,10.7,3.2,10.7,3.2c-17.9,3.8-20.9,15.9-20.9,15.9
		C12,126.9,0.5,137.5,0.5,137.5c11.5,1.8,20.6-11.8,20.6-11.8c4.2-9.2,13.7-11,13.7-11c0.6,2.9-4.7,9.9-4.7,9.9
		c-7.6,8.5-6.4,14.4-6.4,14.4c3.4,0.4,8.3-6.2,8.3-6.2c7.1-9.7,13.8-10.5,13.8-10.5c1.8,10.5-10.6,17.4-10.6,17.4
		c13.5,3.2,23.5-15.3,23.5-15.3c3.4-7.7,6.4-12.3,8.6-15.1c1,0.6,2,1.1,3.1,1.6c-2.2,15-13.1,21-13.1,21c21.2,1.5,25-12.1,25-12.1
		c0.9-3.2,2-5.8,3.2-7.9c2.2-0.6,4.3-1.5,6.3-2.7c2.1,10.7-6.8,16.2-6.8,16.2c4,1.1,7.8-1.3,7.8-1.3c9.8-8,13.8-15.3,15.5-20.1
		c24,4.2,48.5-8.8,57.8-32.4C176.5,44.7,163.3,14.3,136.4,3.7z"/>
	<g>
		<circle fill="#D2D3D5" cx="96.7" cy="25.5" r="14.2"/>
		<path fill="#D2D3D5" d="M91.9,96.2C80,93,71.9,82.7,71,71C63.6,66.8,59.7,58,62,49.4c2.4-9.1,11-14.8,20-14.1
			c6.6-22.1,29.5-35,51.9-29c22.8,6.1,36.3,29.5,30.2,52.2c-5.5,20.7-25.3,33.7-45.9,31.4C111.3,96.1,101.5,98.8,91.9,96.2z"/>
		<path fill="#B2B4B3" d="M71.8,75.8c2.5,1.7,5.3,2.9,8.4,3.8c9.6,2.6,19.4-0.1,26.2-6.3c20.6,2.3,40.4-10.7,45.9-31.4
			c2.4-9.1,1.7-18.4-1.5-26.6c11.9,10.4,17.6,27,13.2,43.3c-5.5,20.7-25.3,33.7-45.9,31.4c-6.9,6.2-16.6,8.9-26.2,6.3
			C81.7,93.5,74.2,85.4,71.8,75.8z"/>
		<g>
			<circle fill="#B2B4B3" cx="96.7" cy="25.5" r="11.7"/>
			<path fill="#727D83" d="M103.1,17.3c-6.3-1.7-12.7,2-14.4,8.3c-0.9,3.5-0.2,7.1,1.8,9.9c-4.2-2.7-6.5-7.9-5.1-13
				c1.7-6.3,8.1-10,14.4-8.3c2.7,0.7,5,2.4,6.5,4.5C105.3,18.1,104.2,17.6,103.1,17.3z"/>
			<path fill="#B5B7B6" d="M92.2,38.4c7.4,2,15.1-2.4,17.1-9.8c1.1-4.2,0.2-8.4-2.1-11.7c5,3.2,7.7,9.3,6,15.4
				c-2,7.4-9.6,11.8-17.1,9.8c-3.2-0.9-5.9-2.8-7.7-5.3C89.5,37.5,90.8,38.1,92.2,38.4z"/>
		</g>
		<g>
			<circle fill="#B2B4B3" cx="142.4" cy="29" r="5.7"/>
			<path fill="#727D83" d="M145.4,25c-3.1-0.8-6.2,1-7,4c-0.5,1.7-0.1,3.5,0.9,4.8c-2.1-1.3-3.1-3.8-2.5-6.3c0.8-3.1,4-4.9,7-4
				c1.3,0.4,2.4,1.2,3.2,2.2C146.5,25.3,146,25.1,145.4,25z"/>
			<path fill="#B5B7B6" d="M140.1,35.3c3.6,1,7.3-1.2,8.3-4.8c0.5-2,0.1-4.1-1-5.7c2.5,1.5,3.7,4.6,2.9,7.5c-1,3.6-4.7,5.8-8.3,4.8
				c-1.6-0.4-2.9-1.4-3.8-2.6C138.8,34.8,139.5,35.1,140.1,35.3z"/>
		</g>
		<g>
			<circle fill="#B2B4B3" cx="106.2" cy="62.9" r="8.3"/>
			<path fill="#727D83" d="M110.7,57.1c-4.5-1.2-9,1.5-10.2,5.9c-0.7,2.5-0.1,5.1,1.3,7c-3-1.9-4.6-5.6-3.6-9.2
				c1.2-4.5,5.8-7.1,10.2-5.9c1.9,0.5,3.5,1.7,4.6,3.2C112.3,57.6,111.5,57.3,110.7,57.1z"/>
			<path fill="#B5B7B6" d="M102.9,72.1c5.3,1.4,10.7-1.7,12.1-7c0.8-3,0.1-6-1.5-8.3c3.6,2.3,5.5,6.7,4.3,11
				c-1.4,5.3-6.8,8.4-12.1,7c-2.3-0.6-4.2-2-5.5-3.8C101,71.5,101.9,71.9,102.9,72.1z"/>
		</g>
		<g>
			<circle fill="#B2B4B3" cx="139.9" cy="60.4" r="8.3"/>
			<path fill="#727D83" d="M144.4,54.5c-4.5-1.2-9,1.5-10.2,5.9c-0.7,2.5-0.1,5.1,1.3,7c-3-1.9-4.6-5.6-3.6-9.2
				c1.2-4.5,5.8-7.1,10.2-5.9c1.9,0.5,3.5,1.7,4.6,3.2C146,55.1,145.2,54.7,144.4,54.5z"/>
		</g>
	</g>
</g>
</svg>
