<?xml version="1.0" encoding="utf-8"?>
<!-- Generator: Adobe Illustrator 17.1.0, SVG Export Plug-In . SVG Version: 6.00 Build 0)  -->
<!DOCTYPE svg PUBLIC "-//W3C//DTD SVG 1.1//EN" "http://www.w3.org/Graphics/SVG/1.1/DTD/svg11.dtd">
<svg version="1.1" id="Layer_1" xmlns="http://www.w3.org/2000/svg" xmlns:xlink="http://www.w3.org/1999/xlink" x="0px" y="0px"
	 viewBox="0 0 247 235" enable-background="new 0 0 247 235" xml:space="preserve">
<path fill="#B2B2B2" d="M22.5,181h2.1c6.4,10,14.3,19,23.4,26.6h151.1c9.1-7.6,17-16.6,23.4-26.6h2.1c12.4,0,22.4-10,22.4-22.4V77.1
	c0-12.4-10-22.4-22.4-22.4h-2.1c-20.9-32.6-57.4-54.2-98.9-54.2S45.4,22.1,24.6,54.7h-2.1c-12.4,0-22.4,10-22.4,22.4v81.5
	C0.1,170.9,10.1,181,22.5,181z"/>
<path fill="#8C8C8C" d="M224.5,54.7h-2.1c-20.9-32.6-57.4-54.2-98.9-54.2c-2.9,0-5.7,0.1-8.6,0.3c38,2.7,71,23.5,90.4,53.9h2.1
	c12.4,0,22.4,10,22.4,22.4v81.5c0,12.4-10,22.4-22.4,22.4h-2.1c-6.4,10-14.3,19-23.4,26.6h17.1c9.1-7.6,17-16.6,23.4-26.6h2.1
	c12.4,0,22.4-10,22.4-22.4V77.1C246.9,64.7,236.9,54.7,224.5,54.7z"/>
<path fill="#C1C1C1" d="M22.5,54.7h2.1C45.4,22.1,81.9,0.5,123.5,0.5c2.9,0,5.7,0.1,8.6,0.3c-38,2.7-71,23.5-90.4,53.9h-2.1
	c-12.4,0-22.4,10-22.4,22.4v81.5c0,12.4,10,22.4,22.4,22.4h2.1c6.4,10,14.3,19,23.4,26.6H47.9C38.9,200,31,191,24.6,181h-2.1
	c-12.4,0-22.4-10-22.4-22.4l0-81.5C0.1,64.7,10.1,54.7,22.5,54.7z"/>
<path fill="#A3DAE3" d="M121.6,68.2c-81,0-89.6,31.6-89.6,31.6s0,1.6,0,4.2c0,3,0,7.4,0,12.3v22.4V151c0,2.6,0,4.2,0,4.2
	s0.9,31.6,93.4,31.6c81,0,89.6-31.6,89.6-31.6s0-1.6,0-4.2v-12.3v-22.4c0-4.9,0-9.3,0-12.3c0-2.6,0-4.2,0-4.2S214.1,68.2,121.6,68.2
	z"/>
<path fill="#FFBE08" d="M198.8,234.6H48.5c-7.4,0-13.3-6-13.3-13.3v-0.3c0-7.4,6-13.3,13.3-13.3h150.3c7.4,0,13.3,6,13.3,13.3v0.3
	C212.2,228.6,206.2,234.6,198.8,234.6z"/>
</svg>
