<?xml version="1.0" encoding="utf-8"?>
<!-- Generator: Adobe Illustrator 17.1.0, SVG Export Plug-In . SVG Version: 6.00 Build 0)  -->
<!DOCTYPE svg PUBLIC "-//W3C//DTD SVG 1.1//EN" "http://www.w3.org/Graphics/SVG/1.1/DTD/svg11.dtd">
<svg version="1.1" id="Layer_1" xmlns="http://www.w3.org/2000/svg" xmlns:xlink="http://www.w3.org/1999/xlink" x="0px" y="0px"
	 viewBox="0 0 367 334" enable-background="new 0 0 367 334" xml:space="preserve">
<g>
	<path opacity="0.5" fill="#DE7E2B" d="M232,12.7h-0.8c-4-7.3-24.3-12.8-48.7-12.8c-27.3,0-49.4,6.9-49.4,15.5
		c0,0.5,0.1,0.9,0.2,1.4L-0.1,334.1h181.8h3.6h181.8L232,12.7z"/>
	<path fill="#DE7E2B" d="M231.9,15.4c0-8.5-22.1-15.5-49.4-15.5c-27.3,0-49.4,6.9-49.4,15.5c0,0.3,0,0.6,0.1,1
		c16.2,2.2,33.2,3.5,50.8,3.5h0.6c16.3,0,32-1.1,47.1-3C231.8,16.3,231.9,15.9,231.9,15.4z"/>
</g>
</svg>
