<?xml version="1.0" encoding="utf-8"?>
<!-- Generator: Adobe Illustrator 17.1.0, SVG Export Plug-In . SVG Version: 6.00 Build 0)  -->
<!DOCTYPE svg PUBLIC "-//W3C//DTD SVG 1.1//EN" "http://www.w3.org/Graphics/SVG/1.1/DTD/svg11.dtd">
<svg version="1.1" id="Layer_1" xmlns="http://www.w3.org/2000/svg" xmlns:xlink="http://www.w3.org/1999/xlink" x="0px" y="0px"
	 viewBox="0 0 403 263" enable-background="new 0 0 403 263" xml:space="preserve">
<g>
	<g>
		<path fill="#E26A21" d="M312.3,179.4c-29.1,58.3-100.1,82-158.4,52.8c-58.3-29.1-82-100.1-52.8-158.4c29.1-58.3,100-82,158.4-52.8
			C317.8,50.2,341.5,121.1,312.3,179.4z"/>
		<path fill="#BF5216" d="M186.9,167.6c-47.3-23.6-71.8-74.8-63.8-124.3c-8.7,8.7-16.2,19-22,30.6c-29.1,58.3-5.5,129.2,52.8,158.4
			c58.3,29.2,129.3,5.5,158.4-52.8c5.5-11,9.1-22.5,11-34C288.4,180.4,233.6,190.9,186.9,167.6z"/>
		<path fill="#FFFFFF" d="M323.9,149.1l-2.2-1.4l-0.5,2.3l-0.4,1.9l-0.3,1.3l0,0c-0.1,0.6-0.3,1.2-0.5,1.9l0,0
			c-0.4,1.6-0.9,3.3-1.5,4.9l-0.4,1.3l1.1,0.8c29.1,20.7,37.3,32.4,35.3,36.5c-0.8,1.7-3.9,2.6-8.7,2.6c0,0,0,0,0,0
			c-24.5,0-88.4-23.4-155.4-56.9c-41.2-20.6-78.7-42.4-105.6-61.5C54.9,61.6,46.5,49.7,48.5,45.6c0.8-1.7,3.9-2.6,8.7-2.6
			c11,0,30,4.6,55,13.4l1.3,0.4l0.8-1.1c0.9-1.3,1.9-2.5,2.9-3.8l0.1-0.2c0.6-0.7,1.2-1.4,1.8-2.2l1.7-1.9l0,0l1.1-1.3l-2.4-1
			C72,26.6,35.2,16.2,16,16.2c-8.1,0-13,1.8-14.9,5.6c-4.7,9.3,11.5,27.2,48,53c34.7,24.6,83.1,52.8,136.3,79.4
			c88,44,169.1,73.6,201.6,73.6c0,0,0,0,0,0c8.1,0,13-1.8,14.9-5.6C409.8,206.5,356.4,169.7,323.9,149.1z M383.3,201.5
			c0.2,0.2,0.3,0.4,0.5,0.6c0.3,0.3,0.6,0.7,0.8,1c0.2,0.2,0.3,0.4,0.5,0.6c0.3,0.3,0.5,0.7,0.8,1c0.1,0.2,0.3,0.3,0.4,0.5
			c0.3,0.4,0.7,0.9,1,1.3c0,0,0,0,0,0.1c0.3,0.4,0.6,0.9,0.9,1.3c0.1,0.1,0.2,0.3,0.3,0.4c0.2,0.3,0.3,0.6,0.5,0.8
			c0.1,0.1,0.2,0.3,0.2,0.4c0.1,0.2,0.3,0.5,0.4,0.7c0.1,0.1,0.1,0.3,0.2,0.4c0.1,0.2,0.2,0.5,0.3,0.7c0,0.1,0.1,0.2,0.1,0.3
			c0.1,0.3,0.2,0.6,0.3,0.9c0,0,0,0,0,0c0.1,0.3,0.2,0.6,0.2,0.9c0,0.1,0,0.2,0,0.3c0,0.2,0.1,0.4,0.1,0.6c0,0.1,0,0.2,0,0.3
			c0,0.2,0,0.3,0,0.5c0,0.1,0,0.2,0,0.3c0,0.2,0,0.3-0.1,0.5c0,0.1,0,0.1,0,0.2c-0.1,0.2-0.1,0.4-0.2,0.6c-1.1,2.3-5,3.4-11.1,3.4
			c-0.8,0-1.7,0-2.7-0.1c-0.3,0-0.6,0-0.8,0c-0.7,0-1.4-0.1-2.2-0.2c-0.3,0-0.5,0-0.8-0.1c-1-0.1-2-0.2-3.1-0.4
			c-0.2,0-0.5-0.1-0.7-0.1c-0.9-0.1-1.8-0.3-2.7-0.4c-0.4-0.1-0.8-0.1-1.1-0.2c-0.9-0.2-1.8-0.3-2.8-0.5c-0.3-0.1-0.6-0.1-0.9-0.2
			c-1.2-0.2-2.5-0.5-3.7-0.8c-0.4-0.1-0.8-0.2-1.2-0.3c-1-0.2-1.9-0.4-2.9-0.7c-0.4-0.1-0.9-0.2-1.4-0.3c-1.2-0.3-2.4-0.6-3.7-0.9
			c-0.2-0.1-0.4-0.1-0.7-0.2c-1.4-0.4-2.8-0.7-4.2-1.1c-0.5-0.1-1-0.3-1.5-0.4c-1.1-0.3-2.2-0.6-3.3-0.9c-0.5-0.1-1-0.3-1.5-0.4
			c-1.5-0.4-3.1-0.9-4.6-1.4c-0.4-0.1-0.8-0.3-1.2-0.4c-0.8-0.3-1.7-0.5-2.5-0.8c0.3,0.1,0.6,0.2,1,0.3c1.1,0.3,2.3,0.6,3.4,0.9
			c0.6,0.2,1.3,0.3,1.9,0.5c1.1,0.3,2.2,0.6,3.3,0.8c0.5,0.1,1.1,0.3,1.6,0.4c1.5,0.4,2.9,0.7,4.3,1c0.1,0,0.2,0.1,0.4,0.1
			c1.5,0.3,3,0.6,4.4,0.9c0.5,0.1,0.9,0.2,1.3,0.2c1,0.2,1.9,0.3,2.8,0.5c0.5,0.1,1,0.1,1.5,0.2c0.8,0.1,1.7,0.2,2.5,0.3
			c0.5,0.1,0.9,0.1,1.4,0.2c0.8,0.1,1.6,0.2,2.4,0.2c0.4,0,0.7,0.1,1.1,0.1c1.1,0.1,2.2,0.1,3.2,0.1c7.3,0,11.7-1.7,13.4-5.1
			c0.2-0.3,0.3-0.7,0.4-1c0-0.1,0.1-0.2,0.1-0.3c0.1-0.3,0.1-0.6,0.2-0.8c0-0.1,0-0.2,0-0.3c0-0.4,0-0.8,0-1.2c0-0.1,0-0.1,0-0.2
			c0-0.3-0.1-0.7-0.1-1c0-0.1-0.1-0.3-0.1-0.4c-0.1-0.3-0.2-0.7-0.3-1c0-0.1-0.1-0.2-0.1-0.3c-0.1-0.4-0.3-0.9-0.5-1.3
			c0-0.1-0.1-0.2-0.2-0.3c-0.2-0.4-0.3-0.7-0.5-1.1c-0.1-0.1-0.1-0.3-0.2-0.4c-0.2-0.4-0.5-0.9-0.8-1.3c0,0,0-0.1-0.1-0.1
			c-0.3-0.5-0.6-1-1-1.5c-0.1-0.1-0.2-0.3-0.3-0.4c-0.3-0.4-0.6-0.8-0.9-1.2c-0.1-0.1-0.2-0.3-0.3-0.4c-0.4-0.5-0.8-1-1.3-1.6
			c0-0.1-0.1-0.1-0.1-0.2c-0.4-0.5-0.8-1-1.3-1.5c-0.1-0.2-0.3-0.3-0.4-0.5c-0.4-0.4-0.8-0.9-1.2-1.3c-0.1-0.1-0.2-0.2-0.3-0.4
			c-0.5-0.6-1.1-1.1-1.7-1.7c-0.1-0.1-0.2-0.2-0.3-0.3c-0.5-0.5-1-0.9-1.5-1.4c-0.2-0.2-0.3-0.3-0.5-0.5c-0.5-0.5-1.1-1-1.6-1.5
			c-0.1-0.1-0.2-0.1-0.2-0.2c-0.6-0.6-1.3-1.2-2-1.8c-0.2-0.1-0.3-0.3-0.5-0.4c-0.5-0.5-1.1-0.9-1.6-1.4c-0.2-0.2-0.4-0.3-0.6-0.5
			c-0.7-0.6-1.4-1.2-2.1-1.8c0,0,0,0,0,0c-0.7-0.6-1.4-1.2-2.2-1.8c-0.2-0.2-0.4-0.3-0.6-0.5c-0.6-0.5-1.1-0.9-1.7-1.4
			c-0.2-0.2-0.4-0.3-0.6-0.5c-0.8-0.6-1.5-1.2-2.3-1.8c-0.1-0.1-0.3-0.2-0.4-0.3c-0.7-0.5-1.3-1-2-1.5c-0.2-0.2-0.5-0.4-0.7-0.5
			c-0.2-0.1-0.3-0.2-0.5-0.4c0.5,0.3,1,0.7,1.4,1c0.5,0.3,0.9,0.7,1.4,1c1,0.7,2,1.5,3,2.2c0.2,0.1,0.4,0.3,0.5,0.4
			c1.1,0.8,2.2,1.6,3.3,2.4c0.4,0.3,0.8,0.6,1.2,0.9c0.7,0.5,1.4,1,2,1.6c0.4,0.3,0.8,0.6,1.2,0.9c0.6,0.5,1.3,1,1.9,1.5
			c0.4,0.3,0.7,0.6,1.1,0.9c0.6,0.5,1.2,1,1.8,1.5c0.3,0.3,0.6,0.5,0.9,0.8c0.8,0.7,1.6,1.4,2.4,2c0.1,0,0.1,0.1,0.2,0.1
			c0.8,0.7,1.6,1.4,2.4,2.1c0.2,0.2,0.5,0.4,0.7,0.6c0.5,0.5,1.1,0.9,1.6,1.4c0.3,0.2,0.5,0.5,0.8,0.7c0.5,0.4,0.9,0.8,1.4,1.2
			c0.3,0.2,0.5,0.5,0.8,0.7c0.4,0.4,0.9,0.8,1.3,1.2c0.2,0.2,0.4,0.4,0.6,0.6c0.6,0.6,1.2,1.1,1.7,1.7c0,0,0,0,0,0
			c0.6,0.6,1.1,1.1,1.6,1.7c0.2,0.2,0.3,0.4,0.5,0.5C382.7,200.8,383,201.2,383.3,201.5z M53.7,71.4c-0.7-0.5-1.3-0.9-1.9-1.4
			c-0.4-0.3-0.9-0.7-1.3-1c-0.6-0.5-1.2-0.9-1.8-1.4c-0.4-0.3-0.8-0.6-1.2-0.9c-0.6-0.4-1.2-0.9-1.7-1.3c-0.4-0.3-0.8-0.6-1.2-0.9
			c-0.5-0.4-1.1-0.8-1.6-1.2c-0.4-0.3-0.8-0.6-1.2-0.9c-0.5-0.4-1-0.8-1.5-1.2c-0.4-0.3-0.8-0.6-1.2-1c-0.4-0.4-0.9-0.7-1.3-1
			c-0.4-0.3-0.8-0.7-1.2-1c-0.4-0.3-0.8-0.7-1.2-1c-0.4-0.3-0.8-0.7-1.2-1c-0.4-0.3-0.7-0.6-1.1-1c-0.4-0.3-0.8-0.6-1.1-0.9
			c-0.4-0.3-0.7-0.6-1-0.9c-0.4-0.3-0.7-0.6-1.1-0.9c-0.3-0.3-0.6-0.6-0.9-0.8c-0.3-0.3-0.7-0.6-1-0.9c-0.3-0.3-0.6-0.5-0.9-0.8
			c-0.3-0.3-0.6-0.6-1-0.9c-0.3-0.3-0.6-0.5-0.9-0.8c-0.3-0.3-0.6-0.6-0.9-0.8c-0.3-0.3-0.5-0.5-0.8-0.8c-0.3-0.3-0.6-0.5-0.8-0.8
			c-0.2-0.2-0.5-0.5-0.7-0.7c-0.3-0.3-0.5-0.6-0.8-0.8c-0.2-0.2-0.4-0.4-0.6-0.7c-0.2-0.3-0.5-0.5-0.7-0.8c-0.2-0.2-0.4-0.4-0.6-0.6
			c-0.2-0.3-0.5-0.5-0.7-0.8c-0.2-0.2-0.3-0.4-0.5-0.6c-0.2-0.2-0.4-0.5-0.6-0.7c-0.2-0.2-0.3-0.4-0.5-0.6c-0.2-0.2-0.4-0.5-0.5-0.7
			c-0.2-0.2-0.3-0.4-0.4-0.6c-0.2-0.2-0.3-0.4-0.5-0.6c-0.1-0.2-0.3-0.4-0.4-0.6c-0.1-0.2-0.3-0.4-0.4-0.6c-0.1-0.2-0.2-0.4-0.3-0.6
			c-0.1-0.2-0.2-0.4-0.3-0.5c-0.1-0.2-0.2-0.3-0.3-0.5c-0.1-0.2-0.2-0.4-0.3-0.5c-0.1-0.2-0.2-0.3-0.2-0.5c-0.1-0.2-0.2-0.3-0.3-0.5
			c-0.1-0.2-0.1-0.3-0.2-0.5c-0.1-0.2-0.1-0.3-0.2-0.5c-0.1-0.2-0.1-0.3-0.2-0.5c0-0.1-0.1-0.3-0.1-0.4c0-0.2-0.1-0.3-0.1-0.5
			c0-0.1-0.1-0.2-0.1-0.3c0-0.2-0.1-0.3-0.1-0.5c0-0.1,0-0.2,0-0.3c0-0.2,0-0.3,0-0.4c0-0.1,0-0.2,0-0.3c0-0.1,0-0.3,0-0.4
			c0-0.1,0-0.1,0-0.2c0-0.2,0.1-0.3,0.1-0.4c0,0,0-0.1,0-0.1c0.1-0.2,0.1-0.4,0.2-0.5c1.1-2.2,5-3.4,11.1-3.4c1,0,2,0,3.1,0.1
			c0.3,0,0.5,0,0.8,0c1.1,0.1,2.2,0.2,3.4,0.3c0.1,0,0.1,0,0.2,0c1.1,0.1,2.3,0.3,3.6,0.5c0.3,0,0.6,0.1,0.9,0.1
			c1.3,0.2,2.6,0.4,4,0.7c0.1,0,0.3,0,0.4,0.1c1.3,0.2,2.6,0.5,4,0.8c0.4,0.1,0.7,0.2,1.1,0.2c1.5,0.3,3,0.6,4.5,1
			c0.2,0,0.4,0.1,0.6,0.1c1.4,0.3,2.9,0.7,4.3,1.1c0.4,0.1,0.8,0.2,1.3,0.3c1.6,0.4,3.3,0.9,5,1.4c0.3,0.1,0.5,0.2,0.8,0.2
			c1.5,0.4,3.1,0.9,4.7,1.4c0.5,0.1,0.9,0.3,1.4,0.4c1.8,0.5,3.6,1.1,5.5,1.7c0.3,0.1,0.7,0.2,1,0.3c0.9,0.3,1.8,0.6,2.7,0.9
			c-0.3-0.1-0.6-0.2-0.8-0.2c-1.3-0.4-2.5-0.7-3.7-1.1c-0.7-0.2-1.4-0.4-2.1-0.6c-1.3-0.4-2.6-0.7-3.9-1c-0.5-0.1-1.1-0.3-1.6-0.4
			c-1.8-0.4-3.5-0.9-5.2-1.2c-0.3-0.1-0.5-0.1-0.8-0.2c-1.4-0.3-2.7-0.6-4-0.8c-0.5-0.1-1.1-0.2-1.6-0.3c-1-0.2-2-0.4-3-0.5
			c-0.6-0.1-1.1-0.2-1.6-0.3c-0.9-0.1-1.8-0.3-2.6-0.4c-0.5-0.1-1-0.1-1.5-0.2c-0.9-0.1-1.7-0.2-2.6-0.2c-0.4,0-0.8-0.1-1.2-0.1
			C39.2,28,38.1,28,37,28c-7.3,0-11.7,1.7-13.4,5.1c-0.2,0.5-0.4,1-0.5,1.6c0,0.2,0,0.4-0.1,0.6c-0.1,0.4-0.1,0.8-0.1,1.2
			c0,0.2,0,0.5,0.1,0.7c0,0.4,0.1,0.8,0.2,1.2c0.1,0.3,0.1,0.5,0.2,0.8c0.1,0.4,0.3,0.8,0.4,1.2c0.1,0.3,0.2,0.6,0.4,0.9
			c0.2,0.4,0.4,0.9,0.7,1.3c0.2,0.3,0.3,0.6,0.5,1c0.3,0.5,0.6,1,0.9,1.5c0.2,0.3,0.4,0.7,0.7,1c0.4,0.5,0.8,1.1,1.2,1.6
			c0.3,0.3,0.5,0.6,0.8,1c0.5,0.6,1.1,1.3,1.7,2c0.2,0.3,0.4,0.5,0.7,0.8c0.9,0.9,1.8,1.9,2.8,2.9c0,0,0.1,0.1,0.1,0.1
			c0.9,1,2,1.9,3,2.9c0.4,0.3,0.7,0.7,1.1,1c0.8,0.7,1.6,1.5,2.4,2.2c0.5,0.4,1,0.8,1.5,1.3c0.8,0.7,1.6,1.4,2.5,2.1
			c0.5,0.5,1.1,0.9,1.7,1.4c0.9,0.7,1.8,1.4,2.7,2.2c0.6,0.5,1.2,1,1.8,1.4C51.8,69.8,52.8,70.5,53.7,71.4c0.7,0.4,1.4,0.9,2,1.4
			c0.4,0.3,0.7,0.5,1.1,0.8c-0.6-0.4-1.2-0.9-1.8-1.3C54.6,72,54.2,71.7,53.7,71.4z M112.2,52.5c-24.8-8.6-43.8-13.2-55-13.2
			c-6.5,0-10.4,1.5-11.9,4.6c-3.7,7.5,8.9,21.5,37.4,41.8c27,19.1,64.7,41.1,106.1,61.8c68.5,34.3,131.6,57.3,157,57.3c0,0,0,0,0,0
			c6.5,0,10.4-1.5,12-4.6c3.6-7.3-8.3-20.8-35.4-40.3c0.1-0.5,0.3-0.9,0.4-1.4c0.3,0.2,0.7,0.5,1,0.7c0.7,0.5,1.4,0.9,2,1.4
			c0.7,0.4,1.3,0.9,2,1.3c0.6,0.4,1.3,0.9,1.9,1.3c0.6,0.4,1.3,0.9,1.9,1.3c0.6,0.4,1.2,0.8,1.8,1.2c0.6,0.4,1.3,0.9,1.9,1.3
			c0.5,0.4,1.1,0.8,1.6,1.2c0.6,0.4,1.2,0.9,1.8,1.3c0.5,0.4,1,0.7,1.5,1.1c0.6,0.4,1.2,0.9,1.8,1.3c0.5,0.4,0.9,0.7,1.4,1
			c0.6,0.4,1.2,0.9,1.7,1.3c0.4,0.3,0.9,0.7,1.3,1c0.6,0.4,1.1,0.9,1.6,1.3c0.4,0.3,0.8,0.6,1.2,0.9c0.5,0.4,1.1,0.8,1.6,1.3
			c0.4,0.3,0.7,0.6,1.1,0.9c0.5,0.4,1,0.8,1.5,1.2c0.3,0.3,0.7,0.5,1,0.8c0.5,0.4,1,0.8,1.5,1.2c0.3,0.3,0.6,0.5,0.9,0.8
			c0.5,0.4,0.9,0.8,1.4,1.2c0.3,0.2,0.6,0.5,0.9,0.7c0.4,0.4,0.9,0.8,1.3,1.2c0.3,0.2,0.5,0.5,0.8,0.7c0.4,0.4,0.8,0.8,1.2,1.1
			c0.2,0.2,0.5,0.4,0.7,0.6c0.4,0.4,0.8,0.7,1.2,1.1c0.2,0.2,0.4,0.4,0.6,0.6c0.4,0.4,0.7,0.7,1.1,1.1c0.2,0.2,0.4,0.4,0.6,0.6
			c0.3,0.3,0.7,0.7,1,1c0.2,0.2,0.4,0.4,0.5,0.5c0.3,0.3,0.6,0.7,0.9,1c0.2,0.2,0.3,0.3,0.5,0.5c0.3,0.3,0.6,0.6,0.8,1
			c0.1,0.2,0.3,0.3,0.4,0.5c0.3,0.3,0.5,0.6,0.8,0.9c0.1,0.1,0.2,0.3,0.4,0.4c0.2,0.3,0.5,0.6,0.7,0.9c0.1,0.1,0.2,0.3,0.3,0.4
			c0.2,0.3,0.4,0.6,0.6,0.8c0.1,0.1,0.2,0.3,0.3,0.4c0.2,0.3,0.3,0.5,0.5,0.8c0.1,0.1,0.2,0.2,0.2,0.4c0.2,0.3,0.3,0.5,0.4,0.7
			c0.1,0.1,0.1,0.2,0.2,0.4c0.1,0.2,0.2,0.5,0.3,0.7c0.1,0.1,0.1,0.2,0.2,0.3c0.1,0.2,0.2,0.4,0.3,0.6c0,0.1,0.1,0.2,0.1,0.3
			c0.1,0.2,0.1,0.4,0.2,0.6c0,0.1,0.1,0.2,0.1,0.3c0.1,0.2,0.1,0.4,0.1,0.5c0,0.1,0,0.2,0.1,0.3c0,0.2,0,0.3,0.1,0.5
			c0,0.1,0,0.2,0,0.2c0,0.2,0,0.3,0,0.5c0,0.1,0,0.1,0,0.2c0,0.2,0,0.3-0.1,0.4c0,0.1,0,0.1,0,0.2c-0.1,0.2-0.1,0.4-0.2,0.5
			c-1,2-4.6,3.1-10.2,3.1c-27.9,0-100.8-26.7-177.2-64.9c-3.1-1.5-6.1-3.1-9.1-4.6c-1.1-0.5-2.1-1.1-3.2-1.6c-2-1-3.9-2-5.8-3
			c-1.1-0.6-2.2-1.2-3.3-1.7c-1.9-1-3.8-2-5.7-3c-0.9-0.5-1.8-1-2.8-1.5c-2.1-1.1-4.2-2.2-6.2-3.3c-0.6-0.3-1.1-0.6-1.7-0.9
			c-2.5-1.3-4.9-2.7-7.3-4c-0.1-0.1-0.2-0.1-0.3-0.2C93.5,96.1,56.9,70.9,38.9,53.9C29.6,45,26.1,39,26.6,35.8
			c0.1-0.4,0.1-0.7,0.3-1.1c1-2,4.6-3.1,10.1-3.1c0.9,0,1.9,0,2.9,0.1c0.3,0,0.7,0.1,1.1,0.1c0.7,0,1.4,0.1,2.1,0.2
			c0.4,0,0.9,0.1,1.4,0.2c0.7,0.1,1.3,0.2,2.1,0.3c0.5,0.1,1.1,0.2,1.6,0.3c0.7,0.1,1.4,0.2,2.1,0.3c0.6,0.1,1.2,0.2,1.8,0.3
			c0.7,0.1,1.4,0.3,2.2,0.4c0.6,0.1,1.3,0.3,2,0.4c0.7,0.2,1.5,0.3,2.3,0.5c0.7,0.2,1.5,0.3,2.2,0.5c0.8,0.2,1.5,0.4,2.3,0.6
			c0.8,0.2,1.6,0.4,2.3,0.6c0.8,0.2,1.6,0.4,2.4,0.6c0.8,0.2,1.6,0.4,2.4,0.7c0.9,0.2,1.7,0.5,2.6,0.7c0.8,0.2,1.7,0.5,2.5,0.7
			c0.9,0.3,1.8,0.5,2.7,0.8c0.9,0.3,1.8,0.5,2.7,0.8c0.9,0.3,1.8,0.6,2.8,0.9c0.9,0.3,1.8,0.6,2.8,0.9c1,0.3,1.9,0.6,2.9,0.9
			c0.9,0.3,1.9,0.6,2.9,1c1,0.3,2,0.7,3,1c1,0.3,2,0.7,2.9,1c1,0.4,2.1,0.7,3.2,1.1c1,0.4,2,0.7,3,1.1c1.1,0.4,2.2,0.8,3.3,1.2
			c1,0.4,2,0.8,3.1,1.1c0.7,0.3,1.5,0.6,2.2,0.8C112.6,52,112.4,52.3,112.2,52.5z M4.3,23.5c1.2-2.4,5.2-3.6,11.7-3.6
			c2.5,0,5.4,0.2,8.5,0.6c-0.2,0-0.4,0-0.5,0c-0.2,0-0.3,0-0.5,0c-0.4,0-0.7,0-1.1,0c-0.4,0-0.8,0-1.2,0c-0.6,0-1.1,0.1-1.6,0.1
			c-0.3,0-0.7,0.1-1,0.1c-0.5,0.1-1,0.2-1.5,0.2c-0.3,0.1-0.6,0.1-0.8,0.2c-0.5,0.1-0.9,0.2-1.3,0.4c-0.2,0.1-0.5,0.1-0.7,0.2
			c-0.4,0.1-0.7,0.3-1.1,0.5c-0.2,0.1-0.4,0.2-0.6,0.3c-0.3,0.2-0.6,0.4-0.9,0.6c-0.2,0.1-0.4,0.2-0.5,0.4c-0.3,0.2-0.5,0.5-0.8,0.8
			c-0.1,0.1-0.3,0.2-0.4,0.4c-0.3,0.4-0.6,0.8-0.8,1.3c-0.3,0.5-0.5,1.1-0.6,1.7c0,0.2,0,0.4-0.1,0.6c-0.1,0.4-0.1,0.8-0.1,1.3
			c0,0.3,0,0.5,0.1,0.8c0,0.4,0.1,0.8,0.2,1.3c0.1,0.3,0.2,0.6,0.2,0.9c0.1,0.4,0.3,0.9,0.4,1.3c0.1,0.3,0.3,0.6,0.4,1
			c0.2,0.5,0.5,0.9,0.7,1.4c0.2,0.3,0.4,0.7,0.6,1c0.3,0.5,0.7,1.1,1,1.6c0.2,0.3,0.4,0.7,0.7,1c0.4,0.6,0.9,1.3,1.4,1.9
			c0.2,0.3,0.4,0.6,0.7,0.9c0,0.1,0.1,0.1,0.1,0.2C6.2,33.8,2.5,27.2,4.3,23.5z M398.7,220.6c-1.2,2.4-5.2,3.6-11.7,3.6c0,0,0,0,0,0
			c-2.5,0-5.4-0.2-8.5-0.6c0.2,0,0.3,0,0.5,0c0.2,0,0.4,0,0.5,0c0.3,0,0.6,0,1,0c0.5,0,1,0,1.4,0c0.4,0,0.9-0.1,1.3-0.1
			c0.4,0,0.9-0.1,1.3-0.1c0.4-0.1,0.8-0.1,1.1-0.2c0.4-0.1,0.8-0.1,1.2-0.2c0.4-0.1,0.7-0.2,1-0.3c0.3-0.1,0.7-0.2,1-0.3
			c0.3-0.1,0.6-0.3,0.9-0.4c0.3-0.1,0.6-0.2,0.8-0.4c0.3-0.2,0.5-0.3,0.8-0.5c0.2-0.1,0.4-0.3,0.6-0.4c0.3-0.2,0.5-0.5,0.7-0.7
			c0.1-0.1,0.3-0.3,0.4-0.4c0.3-0.4,0.6-0.8,0.8-1.3c0.2-0.5,0.4-1,0.5-1.5c0-0.2,0-0.4,0.1-0.6c0.1-0.4,0.1-0.7,0.1-1.1
			c0-0.2,0-0.5,0-0.7c0-0.3,0-0.7-0.1-1.1c0-0.3-0.1-0.5-0.2-0.8c-0.1-0.4-0.2-0.7-0.3-1.1c-0.1-0.3-0.2-0.6-0.3-0.8
			c-0.1-0.4-0.3-0.7-0.5-1.1c-0.1-0.3-0.3-0.6-0.4-0.9c-0.2-0.4-0.4-0.8-0.7-1.2c-0.2-0.3-0.3-0.6-0.5-0.9c-0.3-0.4-0.6-0.9-0.9-1.3
			c-0.2-0.3-0.4-0.5-0.5-0.8c-0.4-0.6-0.8-1.1-1.3-1.7c-0.1-0.2-0.2-0.3-0.4-0.5C397.5,211.4,400.2,217.5,398.7,220.6z"/>
	</g>
	<path fill="#F29561" d="M229.9,98.1c0,0,31.9,3.1,41.1,12.1c9.1,8.9,27.4,30,37.4,26.3c10-3.7,32.8,0.5,36.5,3.4
		c3.6,2.9,25.5,0.2,19.2-7.1c-6.4-7.3-21.9-13.2-21.9-13.2s34.2-3.6,40.3,7.1s7.3,43.7-19.4,37.2c-26.6-6.6-49.9-6.3-55.1-4.2
		s-30.1,11.4-47.3,0c-17.2-11.4-19-15.8-30.8-23.2c-11.9-7.3-30.1-8.7-38.3-9.8c-8.2-1.2-30.1-4.6-29.2-16.6
		c0.9-11.9,6.4-23.5-6.4-26.4c-12.8-2.9-21.1-15.4-34.3-18.9c-13.3-3.5-19.4,2.7-22.8-12.9c-3.4-15.6-7-36.7,0-35.4
		c7,1.3,10,5.1,19.4,6.4s13.1,9.6,13.1,9.6s-15.5-6.3-18.2,0c-2.7,6.3-3.6,10.6,6.4,13c10,2.4,31,8.8,31,8.8s10.9-8.4,23.7,7.6
		s11.8,16.7,25.5,31.9C213.5,109.1,229.9,98.1,229.9,98.1z"/>
	<path fill="#F29561" d="M164.2,216.2c0,0,22.1,2.2,28.4,8.3c6.3,6.2,19,20.8,25.9,18.2c6.9-2.6,22.7,0.3,25.3,2.4
		c2.5,2,17.7,0.1,13.3-4.9c-4.4-5.1-15.2-9.1-15.2-9.1s23.7-2.5,27.9,4.9s5,30.3-13.4,25.7s-34.6-4.3-38.1-2.9
		c-3.6,1.5-20.8,7.9-32.7,0s-13.1-11-21.4-16.1c-8.2-5.1-20.8-6-26.5-6.8c-5.7-0.8-20.8-3.2-20.2-11.5c0.6-8.3,4.4-16.3-4.4-18.3
		s-14.6-10.7-23.8-13.1c-9.2-2.4-13.4,1.9-15.8-8.9c-2.4-10.8-4.8-25.4,0-24.5c4.8,0.9,6.9,3.5,13.4,4.4c6.5,0.9,9.1,6.6,9.1,6.6
		s-10.7-4.4-12.6,0c-1.9,4.4-2.5,7.3,4.4,9c6.9,1.7,21.5,6.1,21.5,6.1s7.6-5.8,16.4,5.3s8.1,11.6,17.7,22.1
		C152.8,223.8,164.2,216.2,164.2,216.2z"/>
	<path fill="#F29561" d="M239.6,46.4c0,0-21.9-2.1-28.2-8.3s-18.8-20.6-25.7-18.1c-6.9,2.5-22.6-0.3-25.1-2.4s-17.6-0.1-13.2,4.9
		c4.4,5,15,9.1,15,9.1s-23.5,2.5-27.7-4.9c-4.2-7.4-5-30.1,13.3-25.5s34.3,4.3,37.9,2.9c3.5-1.4,20.7-7.8,32.5,0
		c11.8,7.8,13,10.9,21.2,15.9c8.2,5,20.7,6,26.3,6.8c5.6,0.8,20.7,3.2,20.1,11.4s-4.4,16.2,4.4,18.2c8.8,2,14.5,10.6,23.6,13
		c9.1,2.4,13.3-1.8,15.7,8.9s4.8,25.3,0,24.3s-6.9-3.5-13.3-4.4c-6.5-0.9-9-6.6-9-6.6s10.7,4.3,12.5,0c1.9-4.3,2.5-7.3-4.4-8.9
		c-6.9-1.7-21.3-6.1-21.3-6.1s-7.5,5.8-16.3-5.3c-8.8-11.1-8.1-11.5-17.5-21.9C250.9,38.9,239.6,46.4,239.6,46.4z"/>
</g>
</svg>
