<?xml version="1.0" encoding="utf-8"?>
<!-- Generator: Adobe Illustrator 17.1.0, SVG Export Plug-In . SVG Version: 6.00 Build 0)  -->
<!DOCTYPE svg PUBLIC "-//W3C//DTD SVG 1.1//EN" "http://www.w3.org/Graphics/SVG/1.1/DTD/svg11.dtd">
<svg version="1.1" id="Layer_1" xmlns="http://www.w3.org/2000/svg" xmlns:xlink="http://www.w3.org/1999/xlink" x="0px" y="0px"
	 viewBox="0 0 92 92" enable-background="new 0 0 92 92" xml:space="preserve">
<g>
	<circle fill="#FFFFFF" cx="46" cy="46" r="45.7"/>
	<path fill="#F2F2F2" d="M5.8,60.6c22.1,12,49.8,3.7,61.8-18.4c5.9-10.9,6.9-23.1,3.8-34.1C90.8,21,97.5,46.9,86.2,67.8
		c-12,22.1-39.6,30.4-61.8,18.4C13.1,80.1,5.5,69.9,2.2,58.5C3.4,59.3,4.5,60,5.8,60.6z"/>
	<g>
		<circle fill="#D9D9D9" cx="75.6" cy="44.5" r="5.1"/>
		<circle fill="#D9D9D9" cx="82.5" cy="27" r="3"/>
		<circle fill="#D9D9D9" cx="84" cy="55.7" r="3"/>
		<circle fill="#D9D9D9" cx="19.2" cy="73.4" r="3.4"/>
		<circle fill="#D9D9D9" cx="54" cy="72.7" r="7.1"/>
		<circle fill="#D9D9D9" cx="33.8" cy="79.5" r="5"/>
		<circle fill="#D9D9D9" cx="71.5" cy="70.2" r="2.4"/>
		<circle fill="#D9D9D9" cx="11" cy="50.2" r="5.1"/>
		<circle fill="#D9D9D9" cx="37.5" cy="54.7" r="3"/>
		<circle fill="#D9D9D9" cx="18.5" cy="32.1" r="3"/>
		<circle fill="#D9D9D9" cx="60.8" cy="36.2" r="3.4"/>
		<circle fill="#D9D9D9" cx="39.3" cy="39.9" r="7.1"/>
		<circle fill="#D9D9D9" cx="61.2" cy="14.8" r="5"/>
		<circle fill="#D9D9D9" cx="46.2" cy="19.1" r="2.4"/>
	</g>
</g>
</svg>
