<?xml version="1.0" encoding="utf-8"?>
<!-- Generator: Adobe Illustrator 17.1.0, SVG Export Plug-In . SVG Version: 6.00 Build 0)  -->
<!DOCTYPE svg PUBLIC "-//W3C//DTD SVG 1.1//EN" "http://www.w3.org/Graphics/SVG/1.1/DTD/svg11.dtd">
<svg version="1.1" id="Layer_1" xmlns="http://www.w3.org/2000/svg" xmlns:xlink="http://www.w3.org/1999/xlink" x="0px" y="0px"
	 viewBox="0 0 170 90" enable-background="new 0 0 170 90" xml:space="preserve">
<g>
	<path fill="#E26A21" d="M160.9,16.1c-9-1-11.4-9-33.7-9.5S100.2,29,85,31.8C69.8,34.7,46.1,20.4,25.7,6.6c-5.9-4-12.8-5.8-19.6-6.4
		C1.2,5.2,0.1,9,0.1,9s0,1.5,0,3.9c0,2.8,0,6.9,0,11.4v20.8v11.4c0,2.4,0,3.9,0,3.9S1,89.7,86.8,89.7c75.1,0,83.1-29.3,83.1-29.3
		s0-1.5,0-3.9V45.1V24.3c0-3.1,0-6,0-8.4C166.6,16.3,163.4,16.4,160.9,16.1z"/>
	<circle opacity="0.63" fill="#FFFFFF" cx="124" cy="40.1" r="7.2"/>
	<circle opacity="0.63" fill="#FFFFFF" cx="147.4" cy="32.9" r="11.7"/>
	<circle opacity="0.63" fill="#FFFFFF" cx="140.7" cy="61.1" r="11.7"/>
</g>
</svg>
