<?xml version="1.0" encoding="utf-8"?>
<!-- Generator: Adobe Illustrator 17.1.0, SVG Export Plug-In . SVG Version: 6.00 Build 0)  -->
<!DOCTYPE svg PUBLIC "-//W3C//DTD SVG 1.1//EN" "http://www.w3.org/Graphics/SVG/1.1/DTD/svg11.dtd">
<svg version="1.1" id="Layer_1" xmlns="http://www.w3.org/2000/svg" xmlns:xlink="http://www.w3.org/1999/xlink" x="0px" y="0px"
	 viewBox="0 0 66 88" enable-background="new 0 0 66 88" xml:space="preserve">
<g>
	<circle fill="#E26A21" cx="18.9" cy="68.8" r="18.9"/>
	<path fill="#BF5216" d="M27.9,74C17.5,74,9.1,65.6,9.1,55.1c0-0.8,0.1-1.7,0.2-2.5C3.7,56,0,62,0,68.8c0,10.4,8.5,18.9,18.9,18.9
		c9.6,0,17.5-7.2,18.7-16.4C34.8,73,31.5,74,27.9,74z"/>
	<g>
		<path fill="#E26A21" d="M22.2,56.8l2-28.5l38.9,2.8c0.5,0,0.9-0.3,0.9-0.8l1.9-26c0-0.5-0.3-0.9-0.8-0.9L21.9,0.3
			c-0.5,0-0.9,0.3-0.9,0.8l-4,55.4"/>
		
			<rect x="19" y="0.4" transform="matrix(-0.9975 -7.113515e-02 7.113515e-02 -0.9975 41.1816 58.5745)" fill="#C6C6C6" width="5.2" height="56.4"/>
		<g>
			<path fill="#FFFFFF" d="M46.1,10.5L39.8,10L40,7l10.7,0.8l-0.2,2.8l-7.8,12.1l7,0.5l-0.2,3.1l-11.2-0.8l0.2-2.7L46.1,10.5z"/>
		</g>
	</g>
</g>
</svg>
