<?xml version="1.0" encoding="utf-8"?>
<!-- Generator: Adobe Illustrator 17.1.0, SVG Export Plug-In . SVG Version: 6.00 Build 0)  -->
<!DOCTYPE svg PUBLIC "-//W3C//DTD SVG 1.1//EN" "http://www.w3.org/Graphics/SVG/1.1/DTD/svg11.dtd">
<svg version="1.1" id="Layer_1" xmlns="http://www.w3.org/2000/svg" xmlns:xlink="http://www.w3.org/1999/xlink" x="0px" y="0px"
	 viewBox="0 0 118 163" enable-background="new 0 0 118 163" xml:space="preserve">
<g>
	<circle fill="#A3DAE3" cx="57.6" cy="105.4" r="57.6"/>
	<path fill="#8FC6CC" d="M89.7,131.4c-31.8,0-57.6-25.8-57.6-57.6c0-7.8,1.6-15.2,4.3-22C15.1,60.3,0,81.1,0,105.4
		C0,137.2,25.8,163,57.6,163c24,0,44.6-14.7,53.2-35.6C104.3,130,97.1,131.4,89.7,131.4z"/>
	<g>
		<path fill="#E26A21" d="M66.5,56.4l6.4-28.1l38.3,8.7c0.5,0.1,0.9-0.2,1-0.7l5.8-25.5c0.1-0.5-0.2-0.9-0.7-1L74.8,0.2
			c-0.5-0.1-0.9,0.2-1,0.7L61.4,55.3"/>
		
			<rect x="67.6" y="-0.1" transform="matrix(-0.975 -0.2222 0.2222 -0.975 132.4243 71.3179)" fill="#C6C6C6" width="5.2" height="56.7"/>
		<g>
			<path fill="#FFFFFF" d="M97.4,14l-6.3-1.4l0.7-3l10.5,2.4l-0.6,2.8L92,25.6l6.9,1.6l-0.7,3l-11-2.5l0.6-2.7L97.4,14z"/>
		</g>
	</g>
</g>
</svg>
