<?xml version="1.0" encoding="utf-8"?>
<!-- Generator: Adobe Illustrator 17.1.0, SVG Export Plug-In . SVG Version: 6.00 Build 0)  -->
<!DOCTYPE svg PUBLIC "-//W3C//DTD SVG 1.1//EN" "http://www.w3.org/Graphics/SVG/1.1/DTD/svg11.dtd">
<svg version="1.1" id="Layer_1" xmlns="http://www.w3.org/2000/svg" xmlns:xlink="http://www.w3.org/1999/xlink" x="0px" y="0px"
	 viewBox="0 0 55 107" enable-background="new 0 0 55 107" xml:space="preserve">
<g>
	<circle fill="#E25942" cx="26.6" cy="80.3" r="26.4"/>
	<circle fill="#E25942" cx="26.6" cy="80.3" r="26.4"/>
	<path fill="#B53A2A" d="M47.6,90.5c-14.6,0-26.4-11.8-26.4-26.4c0-3.5,0.7-6.9,2-10c-13,1.7-23,12.8-23,26.2
		c0,14.6,11.8,26.4,26.4,26.4c11,0,20.5-6.8,24.4-16.4C49.9,90.4,48.8,90.5,47.6,90.5z"/>
	<g>
		<path fill="#E26A21" d="M21.2,63L15.8,35l38.3-7.4c0.5-0.1,0.8-0.5,0.7-1L49.9,1c-0.1-0.5-0.5-0.8-1-0.7L6.3,8.5
			c-0.5,0.1-0.8,0.5-0.7,1l10.5,54.6"/>
		
			<rect x="10.7" y="7.7" transform="matrix(-0.9818 0.1898 -0.1898 -0.9818 33.2081 68.5719)" fill="#C6C6C6" width="5.2" height="56.4"/>
		<g>
			<path fill="#FFFFFF" d="M32.3,12.1l-6.3,1.2l-0.6-3l10.5-2l0.5,2.8l-4.4,13.8l6.9-1.3l0.6,3l-11.1,2.1L28,25.9L32.3,12.1z"/>
		</g>
	</g>
</g>
</svg>
