<?xml version="1.0" encoding="utf-8"?>
<!-- Generator: Adobe Illustrator 17.1.0, SVG Export Plug-In . SVG Version: 6.00 Build 0)  -->
<!DOCTYPE svg PUBLIC "-//W3C//DTD SVG 1.1//EN" "http://www.w3.org/Graphics/SVG/1.1/DTD/svg11.dtd">
<svg version="1.1" id="Layer_1" xmlns="http://www.w3.org/2000/svg" xmlns:xlink="http://www.w3.org/1999/xlink" x="0px" y="0px"
	 viewBox="0 0 339 339" enable-background="new 0 0 339 339" xml:space="preserve">
<g>
	<g>
		<defs>
			<path id="SVGID_1_" d="M337.8,150.3C327.2,57.3,243.2-9.4,150.3,1.2C57.3,11.8-9.4,95.8,1.2,188.7
				c10.6,93,94.6,159.7,187.5,149.1C281.7,327.2,348.4,243.2,337.8,150.3z"/>
		</defs>
		<use xlink:href="#SVGID_1_"  overflow="visible" fill="#2A4D7D"/>
		<clipPath id="SVGID_2_">
			<use xlink:href="#SVGID_1_"  overflow="visible"/>
		</clipPath>
		<g clip-path="url(#SVGID_2_)">
			<path fill="#86C7A2" d="M194.5,215.6c2-2,4-3.9,5.9-5.8c1-9,8.7-11.5,17.2-16c1.9-1.5,3.8-3,6-4.4c1.5-0.9,3.6-0.9,5.8-0.5
				c3.8-0.4,7.6,0,12-0.1c3.3-0.1,14.9-1.5,12.3-6.4c-0.6-1.1-1.1-2.1-1.4-3.1c-4.6-5.2-7.5-9.6-7.8-16.9
				c-0.6-16.9-23.9-0.2-29.3,0.8c-7.4,1.3-29.2,1.6-29.7-10.6c-0.3-9.1,4.3-14.9,6.8-23.6c3.5-12,5.1-24-0.9-35.3
				c-6.3-11.8-5.6-26.8,10.2-28.8c6.3-0.8,13.4,4.7,18.3,7.6c4.3,2.5,8.5,3.9,13,4.2c0,0,0.1-0.1,0.1-0.1c2-1,4-2,6-2.9
				c7.4-3.2,8.4-7.6,3.1-13c-6.4,0.6-10.3,1.2-15.6-3c-4.5-3.6-3.6-11.1-3.2-16c1-3.4,0.4-6.6-1.9-9.7c-1.8,0.2-3.7,0.2-5.5,0.2
				c-4.7-0.6-9.3-1.6-14-2.2c-5.7,0.7-10.7,0.4-14.9-2.8c-2.8-0.9-5.4-2.5-7.8-4.7c-6.8-6.2-6.3-15.1-3.7-23.3
				c-0.5-5-0.2-9.8,1.6-13.5c0.4-2.8,1.2-5.4,2.4-7.4c0.6-1,1.5-1.5,2.4-1.7c4.7-12.6,29.2-7.4,41.2-2.1
				c12.9,5.7,26.2,13.3,33.3,25.8c6.3,11,19,15,29,22.6c0.9-1.1,2.2-1.7,3.9-1.1c8.9,3.2,13.6,22.6,14.4,31
				c1.1,11.4-2.5,22.3-0.3,34.1c2,11.4,3.4,24.1,2.4,35.7c-0.6,6.3-6.8,13.2-10.3,18.1c-5.6,7.9-22.4,10.3-22.2,21.7
				c0.2,8.6-3.5,13.2-6.3,21.3c-2.6,7.3-14.1,14.2-15.7,20.4c4,7.2,8.3,11.1,6.4,20.7c-0.7,3.5-4.5,6.8-6.7,9.2
				c-8.7,9.8-2.7,21.3-1.2,31.9c2.6,18.6-5.7,35.3-20.7,45.1c0,1-0.4,2.4-1.3,2.9c-1.5,0.9-3,1.3-4.4,1.4c-1.4,0.5-3.1,0.2-3.9-0.9
				c-0.2-0.2-0.3-0.4-0.4-0.6c-1.3-1.3-2.1-3.3-2-6.1c0.1-7.7,4.6-15.5,5.9-23.1c-2.1-8.8-7.8-14.5-13.4-21.4
				c-1.5-0.1-3-0.9-3.3-2.8c-1.4-7.4-8.2-7.6-12.8-11.4c-3.5-2.8-3.5-10.3-5.6-13.1C182.6,228.7,189.7,220.2,194.5,215.6z"/>
			<path fill="#86C7A2" d="M-19.3,119.8c0.3-12-0.4-25,3.9-36.4c4.1-10.9,10.1-21.2,15.1-31.7C4.4,41.9,17.2,38.3,24,30
				c7.5-9.3,17.7-16.5,27.3-23.6c0.4-0.8,1.1-1.5,2.2-1.7c1.3-1.4,3.7-1.9,5,0.2c7.2,11.2,17,21.6,28.7,28C92.4,35.7,101,40,103,46
				c3.3,9.9,0.4,20.3,4.9,29.8c3.6,7.6,8.5,15.7,7.7,24.6c-1.3,13.3-10.3,20.2-22.7,13.1c-5.1-2.9-6.1-10.2-7-15.3
				c-2.5-14.2-4.6-7.4-5.2-0.3c0.1,0.4,0.2,0.8,0.2,1.3c-0.8,14.7,10.4,46.8,32.6,31.3c4-2.8,6.7-6.1,11.1-8.3
				c2.8-1.4,7.1,1.1,8,3.9c3.5,12,6,29.8-9.7,32.4c-0.6,0.1-1.2,0-1.8-0.3c-6.1-3.6-4.9-0.4,3.7,9.5c2-0.3,5.1-0.1,6.8,1.3
				c3.4,2.7,6.8,6.4,3.1,11.1c-3.4,4.3-11.1,8.7-16.1,10.8c-5.1,2-11-6.6-13.9-10.6c-0.5-0.1-0.9-0.4-1.4-0.8
				c-8.1-7.8-4.1,12.5-11.8,10.8c-7.6-1.7-7-8.2-7.2-14.3c-0.5,0.6-0.9,1.1-1,1.3c-1.5,1.1-4,1.2-5.7,1.9c-4.8,1.9-9.6-6.4-12.6-9.3
				c-1.2,0.6-2.3,1.4-3.7,1.7c-0.1,0-0.2,0-0.4,0c-2.6,7.1-0.9,13.7,5.1,20c4.3,3.2,9,5.9,13.9,8.2c10.4,5.2,22.7,2.9,33.3-0.5
				c10.9-3.4,17.4-8.5,28.6-3.5c15.1,6.8,14.3,37.3,2.4,43.7c-10.9,5.9-25.1,5.6-19.4,20.6c1.7,4.6,4.9,10.9,3.8,16.1
				c-1.1,5-6.3,34-13.9,32.4c-9.1-2-12.8-8.9-16.8-17c-5.2-10.5-8.4-41.4-12.6-52.8c-0.7,2.6-1.8,4.8-3.9,6.1
				c-5.6,3.3-11.8,3.6-17.5,0.5c-5.2-2.8-7.2-7.4-6.1-13c0.7-3.5,5.1-9.6-1.9-8.8c-6.3,0.8-11.6,4.1-15.3,9.3
				c-1.2,1.8-4.1,1.6-5.4-0.1c-0.6-0.9-1-1.6-1.3-2.4C-6.2,216.6-20,156.8-19.3,119.8z"/>
		</g>
	</g>
	<path opacity="0.4" fill="#15273F" d="M13,104.7c0.9,15.6,3.3,30,7.7,40.6c3.4,8.2,12.9,38.2,23.4,54.5c19.3,32.7,45.3,58.7,78,78
		c33.9,19.7,70.5,29.6,109.8,29.7c10.6,0,21.1-0.8,31.3-2.3c3.2-0.4,6.4-0.9,9.5-1.5c-23.6,18.2-52.3,30.4-84,34
		C95.8,348.4,11.8,281.7,1.2,188.7C-2.2,159.1,2.3,130.4,13,104.7z"/>
</g>
</svg>
