<?xml version="1.0" encoding="utf-8"?>
<!-- Generator: Adobe Illustrator 17.1.0, SVG Export Plug-In . SVG Version: 6.00 Build 0)  -->
<!DOCTYPE svg PUBLIC "-//W3C//DTD SVG 1.1//EN" "http://www.w3.org/Graphics/SVG/1.1/DTD/svg11.dtd">
<svg version="1.1" id="Layer_1" xmlns="http://www.w3.org/2000/svg" xmlns:xlink="http://www.w3.org/1999/xlink" x="0px" y="0px"
	 viewBox="0 0 68 87" enable-background="new 0 0 68 87" xml:space="preserve">
<g>
	<circle fill="#79B533" cx="19.1" cy="67.7" r="18.9"/>
	<path fill="#5E9623" d="M32.1,75.9c-10.4,0-18.9-8.5-18.9-18.9c0-2.8,0.6-5.4,1.7-7.8C6.5,51.2,0.2,58.7,0.2,67.7
		c0,10.4,8.5,18.9,18.9,18.9c7.7,0,14.3-4.6,17.2-11.1C35,75.7,33.6,75.9,32.1,75.9z"/>
	<g>
		<path fill="#E26A21" d="M24.7,57l1.7-28.6l39,2.3c0.5,0,0.9-0.3,0.9-0.8l1.5-26c0-0.5-0.3-0.9-0.8-0.9L23.7,0.5
			c-0.5,0-0.9,0.3-0.9,0.8l-3.3,55.5"/>
		
			<rect x="21.1" y="0.6" transform="matrix(-0.9982 -5.935222e-02 5.935222e-02 -0.9982 45.7117 58.825)" fill="#C6C6C6" width="5.2" height="56.4"/>
		<g>
			<path fill="#FFFFFF" d="M48,10.4L41.7,10l0.2-3.1l10.7,0.6l-0.2,2.8l-7.7,12.2l7,0.4l-0.2,3.1l-11.2-0.7l0.2-2.7L48,10.4z"/>
		</g>
	</g>
</g>
</svg>
