<?xml version="1.0" encoding="utf-8"?>
<!-- Generator: Adobe Illustrator 17.1.0, SVG Export Plug-In . SVG Version: 6.00 Build 0)  -->
<!DOCTYPE svg PUBLIC "-//W3C//DTD SVG 1.1//EN" "http://www.w3.org/Graphics/SVG/1.1/DTD/svg11.dtd">
<svg version="1.1" id="Layer_1" xmlns="http://www.w3.org/2000/svg" xmlns:xlink="http://www.w3.org/1999/xlink" x="0px" y="0px"
	 viewBox="0 0 176 337" enable-background="new 0 0 176 337" xml:space="preserve">
<g>
	<path fill="#E26A21" d="M164.8,251.5c-2.3,7.2-4.9,14.6-7.9,22.1c-4.6,0-8.9,0.2-13,0.6c0,0.1,0,0.3,0,0.4c0,0.1,0,0.3,0,0.4
		c0.6,13.2,3.8,15.9,13.3,27.3c10.5-12.3,13.4-14.6,13.4-32.7C170.6,258.4,168.3,253.6,164.8,251.5z"/>
	<path fill="#C65B20" d="M157.1,267.7v34.7c-9.5-11.2-12.8-14.2-13.3-28.3c3.5-0.3,7.1-0.4,11-0.4
		C155.6,271.6,156.4,269.6,157.1,267.7z"/>
	<path fill="#C6C6C6" d="M88,0.2L88,0.2C88,0.1,88,0.1,88,0.2C88,0.1,88,0.1,88,0.2L88,0.2C84.7,2.7-48.2,108,19.1,273.6
		c51.3,0,65,25.7,68.4,25.7c0.2,0,0.3,0,0.5,0c0,0,0,0,0.1,0c0.4,0,0.5,0,0.5,0c3.3,0,17.1-25.7,68.4-25.7
		C224.2,108,91.3,2.7,88,0.2z"/>
	<path fill="#A3DAE3" stroke="#FFFFFF" stroke-width="5.7688" stroke-miterlimit="10" d="M88,85.2c28.2,0,51,22.8,51,51
		c0,28.2-22.8,51-51,51c-28.2,0-51-22.8-51-51C37,108,59.8,85.2,88,85.2z"/>
	<path opacity="0.63" fill="#FFFFFF" d="M103.1,165.4c-24.5-0.1-44.2-20-44.1-44.5c0-8.5,2.5-16.4,6.6-23.1
		c-12.6,7.8-21,21.7-21,37.7c0,24.5,19.8,44.3,44.3,44.3c15.9,0,29.8-8.4,37.7-21C119.8,163,111.8,165.4,103.1,165.4z"/>
	<path fill="#E26A21" d="M66.4,288.8c0,0.4,0,0.8,0,1.1c0,0.3,0,0.7,0,1c0,0.4,0,0.8,0,1.3c0,0.2,0,0.4,0,0.7
		c1,21.3,6.2,25.6,21.4,44c16.9-19.8,21.6-23.6,21.6-52.8c0-29.1-9.7-31.6-21.6-31.6c-11.9,0-21.6,2.4-21.6,31.6c0,0.8,0,1.6,0,2.4
		c0,0.3,0,0.6,0,0.9C66.4,287.9,66.4,288.4,66.4,288.8z"/>
	<path fill="#C65B20" d="M82.1,260.2c11.9,0,21.6,2.4,21.6,31.6c0,19.3-2.1,27.5-8.4,36.6c11-13.1,14.3-19.8,14.3-44.2
		c0-29.1-9.7-31.6-21.6-31.6c-7.9,0-14.8,1.1-18.6,10.3C72.9,260.6,77.3,260.2,82.1,260.2z"/>
	<path fill="#E26A21" d="M11,250.8c-4.5,1.5-7.6,5.9-7.6,18.9c0,0.5,0,1,0,1.5c0,0.2,0,0.4,0,0.6c0,0.3,0,0.6,0,0.8
		c0,0.2,0,0.5,0,0.7c0,0.2,0,0.4,0,0.6c0,0.3,0,0.5,0,0.8c0,0.1,0,0.3,0,0.4c0.6,13.2,3.8,15.9,13.3,27.3
		c9.5-11.2,12.8-14.2,13.3-28.3c-3.5-0.3-7.1-0.4-11-0.4C16,265.9,13.3,258.3,11,250.8z"/>
	<path fill="#E26A21" d="M130.3,45.9L130.3,45.9C109.6,17.2,89.3,1.2,88,0.2V0.1c0,0,0,0,0,0c0,0,0,0,0,0v0.1
		c-1.3,1-21.5,17-42.3,45.7H130.3z"/>
	<g>
		<path fill="#8C8C8C" d="M111.7,45.9c33.4,46.3,68.2,125.5,26.6,227.7h18.6c41.6-102.2,6.9-181.5-26.6-227.7H111.7z"/>
	</g>
	<g>
		<path opacity="0.5" fill="#D3D3D3" d="M88.3,0.4C88.3,0.4,88.4,0.4,88.3,0.4c0.1,0.1,0.2,0.2,0.3,0.2c0,0,0.1,0.1,0.1,0.1
			c0.1,0.1,0.2,0.1,0.3,0.2c0,0,0,0,0,0c0.2,0.2,0.4,0.4,0.7,0.6c0.1,0,0.1,0.1,0.2,0.1c0.1,0.1,0.2,0.2,0.4,0.3
			C90.3,2,90.3,2,90.4,2.1c0.1,0.1,0.3,0.2,0.4,0.4c0.1,0.1,0.1,0.1,0.2,0.2c0.5,0.4,1.1,0.9,1.7,1.5c0.1,0.1,0.2,0.1,0.2,0.2
			c0.2,0.2,0.4,0.3,0.6,0.5c0.1,0.1,0.2,0.2,0.3,0.3c0.2,0.2,0.4,0.3,0.6,0.5c0.1,0.1,0.2,0.2,0.4,0.3c0.4,0.3,0.7,0.7,1.1,1
			c0.1,0.1,0.3,0.3,0.4,0.4c0.2,0.2,0.4,0.4,0.6,0.5c0.1,0.1,0.3,0.2,0.4,0.4c-8.1,7.6-20.4,20.3-33,37.6H45.7l0,0c0,0,0,0,0,0
			c0.6-0.8,1.2-1.6,1.7-2.4c0.1-0.2,0.3-0.4,0.4-0.6c0.6-0.8,1.1-1.5,1.7-2.3c0.1-0.1,0.1-0.1,0.2-0.2c0.5-0.7,1.1-1.4,1.6-2
			c0.1-0.2,0.3-0.3,0.4-0.5c0.6-0.7,1.1-1.4,1.7-2.1c0.1-0.1,0.2-0.2,0.2-0.3c0.5-0.6,1-1.2,1.5-1.8c0.1-0.2,0.3-0.3,0.4-0.5
			c0.5-0.7,1.1-1.3,1.6-2c0.1-0.1,0.2-0.2,0.3-0.4c0.5-0.6,0.9-1.1,1.4-1.7c0.1-0.1,0.2-0.3,0.4-0.4c0.5-0.6,1.1-1.2,1.6-1.8
			c0.1-0.1,0.2-0.3,0.4-0.4c0.4-0.5,0.9-1,1.3-1.5c0.1-0.1,0.2-0.3,0.3-0.4c0.5-0.6,1-1.1,1.5-1.7c0.1-0.1,0.2-0.3,0.4-0.4
			c0.4-0.5,0.9-1,1.3-1.4c0.1-0.1,0.2-0.2,0.3-0.3c0.5-0.5,1-1,1.4-1.5c0.1-0.1,0.3-0.3,0.4-0.4c0.4-0.4,0.8-0.9,1.2-1.3
			c0.1-0.1,0.1-0.2,0.2-0.2c0.5-0.5,0.9-1,1.4-1.4c0.1-0.1,0.2-0.3,0.4-0.4c0.4-0.4,0.8-0.8,1.2-1.2c0,0,0.1-0.1,0.1-0.1
			c0.4-0.4,0.9-0.9,1.3-1.3c0.1-0.1,0.3-0.3,0.4-0.4c0.4-0.4,0.8-0.8,1.2-1.2c0.1-0.1,0.1-0.1,0.2-0.2c0.4-0.4,0.7-0.7,1.1-1
			c0.1-0.1,0.2-0.2,0.3-0.3c0.4-0.4,0.7-0.7,1.1-1c0.1-0.1,0.1-0.1,0.2-0.2c0.3-0.3,0.6-0.6,0.9-0.8c0.1-0.1,0.2-0.2,0.3-0.3
			c0.3-0.3,0.7-0.6,1-0.9c0.1-0.1,0.2-0.1,0.2-0.2c0.3-0.2,0.5-0.5,0.7-0.7c0.1-0.1,0.2-0.2,0.3-0.3c0.3-0.3,0.6-0.5,0.8-0.7
			c0.1-0.1,0.2-0.1,0.3-0.2c0.2-0.2,0.4-0.4,0.6-0.5c0.1-0.1,0.2-0.1,0.3-0.2c0.2-0.2,0.5-0.4,0.7-0.6c0.1-0.1,0.2-0.1,0.2-0.2
			c0.2-0.1,0.3-0.3,0.5-0.4c0.1-0.1,0.1-0.1,0.2-0.2c0.2-0.2,0.4-0.3,0.5-0.4c0.1-0.1,0.2-0.1,0.2-0.2c0.1-0.1,0.2-0.2,0.3-0.2
			c0.1-0.1,0.2-0.2,0.3-0.2C86.9,1.1,87,1,87,0.9c0.1-0.1,0.1-0.1,0.2-0.2c0.1,0,0.1-0.1,0.2-0.1c0.1-0.1,0.2-0.1,0.2-0.2
			c0,0,0.1,0,0.1-0.1c0.1-0.1,0.2-0.1,0.2-0.2l0,0V0.1c0,0,0,0,0,0c0,0,0,0,0,0c0,0,0,0,0,0c0,0,0,0,0,0v0.1l0,0
			C88.1,0.2,88.2,0.3,88.3,0.4z"/>
		<path fill="#D3D3D3" d="M64.3,45.9C30.9,92.2-3.8,171.4,37.7,273.6H19.1C-22.4,171.4,12.3,92.2,45.7,45.9H64.3z"/>
	</g>
	<path fill="#C65B20" d="M16.8,267.7v34.7c9.5-11.2,12.8-14.2,13.3-28.3c-3.5-0.3-7.1-0.4-11-0.4C18.3,271.6,17.5,269.6,16.8,267.7z
		"/>
</g>
</svg>
