<?xml version="1.0" encoding="utf-8"?>
<!-- Generator: Adobe Illustrator 17.1.0, SVG Export Plug-In . SVG Version: 6.00 Build 0)  -->
<!DOCTYPE svg PUBLIC "-//W3C//DTD SVG 1.1//EN" "http://www.w3.org/Graphics/SVG/1.1/DTD/svg11.dtd">
<svg version="1.1" id="Layer_1" xmlns="http://www.w3.org/2000/svg" xmlns:xlink="http://www.w3.org/1999/xlink" x="0px" y="0px"
	 viewBox="0 0 176 337" enable-background="new 0 0 176 337" xml:space="preserve">
<path fill="#E26A21" d="M164.8,251.5c-2.3,7.2-4.9,14.6-7.9,22.1c-4.6,0-8.9,0.2-13,0.6c0,0.1,0,0.3,0,0.4c0,0.1,0,0.3,0,0.4
	c0.6,13.2,3.8,15.9,13.3,27.3c10.5-12.3,13.4-14.6,13.4-32.7C170.6,258.4,168.3,253.6,164.8,251.5z"/>
<path fill="#C65B20" d="M157.1,267.7v34.7c-9.5-11.2-12.8-14.2-13.3-28.3c3.5-0.3,7.1-0.4,11-0.4
	C155.6,271.6,156.4,269.6,157.1,267.7z"/>
<path fill="#C6C6C6" d="M88,0.2L88,0.2C88,0.1,88,0.1,88,0.2C88,0.1,88,0.1,88,0.2L88,0.2C84.7,2.7-48.2,108,19.1,273.6
	c51.3,0,65,25.7,68.4,25.7c0.2,0,0.3,0,0.5,0c0,0,0,0,0.1,0c0.4,0,0.5,0,0.5,0c3.3,0,17.1-25.7,68.4-25.7C224.2,108,91.3,2.7,88,0.2
	z"/>
<path fill="#A3DAE3" stroke="#FFFFFF" stroke-width="5.7688" stroke-miterlimit="10" d="M88,85.2c28.2,0,51,22.8,51,51
	c0,28.2-22.8,51-51,51c-28.2,0-51-22.8-51-51C37,108,59.8,85.2,88,85.2z"/>
<path fill="#E26A21" d="M66.4,288.8c0,0.4,0,0.8,0,1.1c0,0.3,0,0.7,0,1c0,0.4,0,0.8,0,1.3c0,0.2,0,0.4,0,0.7
	c1,21.3,6.2,25.6,21.4,44c16.9-19.8,21.6-23.6,21.6-52.8c0-29.1-9.7-31.6-21.6-31.6c-11.9,0-21.6,2.4-21.6,31.6c0,0.8,0,1.6,0,2.4
	c0,0.3,0,0.6,0,0.9C66.4,287.9,66.4,288.4,66.4,288.8z"/>
<path fill="#C65B20" d="M82.1,260.2c11.9,0,21.6,2.4,21.6,31.6c0,19.3-2.1,27.5-8.4,36.6c11-13.1,14.3-19.8,14.3-44.2
	c0-29.1-9.7-31.6-21.6-31.6c-7.9,0-14.8,1.1-18.6,10.3C72.9,260.6,77.3,260.2,82.1,260.2z"/>
<path fill="#E26A21" d="M11,250.8c-4.5,1.5-7.6,5.9-7.6,18.9c0,0.5,0,1,0,1.5c0,0.2,0,0.4,0,0.6c0,0.3,0,0.6,0,0.8
	c0,0.2,0,0.5,0,0.7c0,0.2,0,0.4,0,0.6c0,0.3,0,0.5,0,0.8c0,0.1,0,0.3,0,0.4c0.6,13.2,3.8,15.9,13.3,27.3
	c9.5-11.2,12.8-14.2,13.3-28.3c-3.5-0.3-7.1-0.4-11-0.4C16,265.9,13.3,258.3,11,250.8z"/>
<path fill="#E26A21" d="M130.3,45.9L130.3,45.9C109.6,17.2,89.3,1.2,88,0.2V0.1c0,0,0,0,0,0c0,0,0,0,0,0v0.1
	c-1.3,1-21.5,17-42.3,45.7H130.3z"/>
<g>
	<path fill="#8C8C8C" d="M111.7,45.9c33.4,46.3,68.2,125.5,26.6,227.7h18.6c41.6-102.2,6.9-181.5-26.6-227.7H111.7z"/>
</g>
<g>
	<path opacity="0.5" fill="#D3D3D3" d="M88.3,0.4C88.3,0.4,88.4,0.4,88.3,0.4c0.1,0.1,0.2,0.2,0.3,0.2c0,0,0.1,0.1,0.1,0.1
		c0.1,0.1,0.2,0.1,0.3,0.2c0,0,0,0,0,0c0.2,0.2,0.4,0.4,0.7,0.6c0.1,0,0.1,0.1,0.2,0.1c0.1,0.1,0.2,0.2,0.4,0.3
		C90.3,2,90.3,2,90.4,2.1c0.1,0.1,0.3,0.2,0.4,0.4c0.1,0.1,0.1,0.1,0.2,0.2c0.5,0.4,1.1,0.9,1.7,1.5c0.1,0.1,0.2,0.1,0.2,0.2
		c0.2,0.2,0.4,0.3,0.6,0.5c0.1,0.1,0.2,0.2,0.3,0.3c0.2,0.2,0.4,0.3,0.6,0.5c0.1,0.1,0.2,0.2,0.4,0.3c0.4,0.3,0.7,0.7,1.1,1
		c0.1,0.1,0.3,0.3,0.4,0.4c0.2,0.2,0.4,0.4,0.6,0.5c0.1,0.1,0.3,0.2,0.4,0.4c-8.1,7.6-20.4,20.3-33,37.6H45.7l0,0c0,0,0,0,0,0
		c0.6-0.8,1.2-1.6,1.7-2.4c0.1-0.2,0.3-0.4,0.4-0.6c0.6-0.8,1.1-1.5,1.7-2.3c0.1-0.1,0.1-0.1,0.2-0.2c0.5-0.7,1.1-1.4,1.6-2
		c0.1-0.2,0.3-0.3,0.4-0.5c0.6-0.7,1.1-1.4,1.7-2.1c0.1-0.1,0.2-0.2,0.2-0.3c0.5-0.6,1-1.2,1.5-1.8c0.1-0.2,0.3-0.3,0.4-0.5
		c0.5-0.7,1.1-1.3,1.6-2c0.1-0.1,0.2-0.2,0.3-0.4c0.5-0.6,0.9-1.1,1.4-1.7c0.1-0.1,0.2-0.3,0.4-0.4c0.5-0.6,1.1-1.2,1.6-1.8
		c0.1-0.1,0.2-0.3,0.4-0.4c0.4-0.5,0.9-1,1.3-1.5c0.1-0.1,0.2-0.3,0.3-0.4c0.5-0.6,1-1.1,1.5-1.7c0.1-0.1,0.2-0.3,0.4-0.4
		c0.4-0.5,0.9-1,1.3-1.4c0.1-0.1,0.2-0.2,0.3-0.3c0.5-0.5,1-1,1.4-1.5c0.1-0.1,0.3-0.3,0.4-0.4c0.4-0.4,0.8-0.9,1.2-1.3
		c0.1-0.1,0.1-0.2,0.2-0.2c0.5-0.5,0.9-1,1.4-1.4c0.1-0.1,0.2-0.3,0.4-0.4c0.4-0.4,0.8-0.8,1.2-1.2c0,0,0.1-0.1,0.1-0.1
		c0.4-0.4,0.9-0.9,1.3-1.3c0.1-0.1,0.3-0.3,0.4-0.4c0.4-0.4,0.8-0.8,1.2-1.2c0.1-0.1,0.1-0.1,0.2-0.2c0.4-0.4,0.7-0.7,1.1-1
		c0.1-0.1,0.2-0.2,0.3-0.3c0.4-0.4,0.7-0.7,1.1-1c0.1-0.1,0.1-0.1,0.2-0.2c0.3-0.3,0.6-0.6,0.9-0.8c0.1-0.1,0.2-0.2,0.3-0.3
		c0.3-0.3,0.7-0.6,1-0.9c0.1-0.1,0.2-0.1,0.2-0.2c0.3-0.2,0.5-0.5,0.7-0.7c0.1-0.1,0.2-0.2,0.3-0.3c0.3-0.3,0.6-0.5,0.8-0.7
		c0.1-0.1,0.2-0.1,0.3-0.2c0.2-0.2,0.4-0.4,0.6-0.5c0.1-0.1,0.2-0.1,0.3-0.2c0.2-0.2,0.5-0.4,0.7-0.6c0.1-0.1,0.2-0.1,0.2-0.2
		c0.2-0.1,0.3-0.3,0.5-0.4c0.1-0.1,0.1-0.1,0.2-0.2c0.2-0.2,0.4-0.3,0.5-0.4c0.1-0.1,0.2-0.1,0.2-0.2c0.1-0.1,0.2-0.2,0.3-0.2
		c0.1-0.1,0.2-0.2,0.3-0.2C86.9,1.1,87,1,87,0.9c0.1-0.1,0.1-0.1,0.2-0.2c0.1,0,0.1-0.1,0.2-0.1c0.1-0.1,0.2-0.1,0.2-0.2
		c0,0,0.1,0,0.1-0.1c0.1-0.1,0.2-0.1,0.2-0.2l0,0V0.1c0,0,0,0,0,0c0,0,0,0,0,0c0,0,0,0,0,0c0,0,0,0,0,0v0.1l0,0
		C88.1,0.2,88.2,0.3,88.3,0.4z"/>
	<path fill="#D3D3D3" d="M64.3,45.9C30.9,92.2-3.8,171.4,37.7,273.6H19.1C-22.4,171.4,12.3,92.2,45.7,45.9H64.3z"/>
</g>
<path fill="#C65B20" d="M16.8,267.7v34.7c9.5-11.2,12.8-14.2,13.3-28.3c-3.5-0.3-7.1-0.4-11-0.4C18.3,271.6,17.5,269.6,16.8,267.7z"
	/>
<g>
	<defs>
		<path id="SVGID_3_" d="M88,88.9c26.1,0,47.2,21.1,47.2,47.2c0,26.1-21.1,47.2-47.2,47.2c-26.1,0-47.2-21.1-47.2-47.2
			C40.8,110.1,61.9,88.9,88,88.9z"/>
	</defs>
	<clipPath id="SVGID_2_">
		<use xlink:href="#SVGID_3_"  overflow="visible"/>
	</clipPath>
	<g clip-path="url(#SVGID_2_)">
		<g>
			<path fill="#B2B2B2" d="M53.9,165.2c0,0-0.1,0-0.1,0c0,0-0.1,0-0.1-0.1L53.9,165.2z"/>
			<path fill="#B2B2B2" d="M46.9,181.5c0,0,0.1,0,0.1,0c0,0,0.1,0,0.1,0.1L46.9,181.5z"/>
			<path fill="#B2B2B2" d="M42.7,179.8c0,0,0.1,0,0.1,0c0,0,0.1,0,0.1,0.1L42.7,179.8z"/>
			<path fill="#B2B2B2" d="M49.7,163.5c0,0-0.1,0-0.1,0c0,0-0.1,0-0.1-0.1L49.7,163.5z"/>
			<path fill="#B2B2B2" d="M45.5,161.8c0,0-0.1,0-0.1,0c0,0-0.1,0-0.1-0.1L45.5,161.8z"/>
			<path fill="#B2B2B2" d="M38.5,178.1c0,0,0.1,0,0.1,0c0,0,0.1,0,0.1,0.1L38.5,178.1z"/>
			<path fill="#B2B2B2" d="M41.3,160c0,0-0.1,0-0.1,0c0,0-0.1,0-0.1-0.1L41.3,160z"/>
			<path fill="#B2B2B2" d="M34.3,176.3c0,0,0.1,0,0.1,0c0,0,0.1,0,0.1,0.1L34.3,176.3z"/>
			<path fill="#B2B2B2" d="M37.1,158.3c0,0-0.1,0-0.1,0c0,0-0.1,0-0.1-0.1L37.1,158.3z"/>
			<path fill="#B2B2B2" d="M30.1,174.6c0,0,0.1,0,0.1,0c0,0,0.1,0,0.1,0.1L30.1,174.6z"/>
			<path fill="#B2B2B2" d="M32.9,156.6c0,0-0.1,0-0.1,0c0,0-0.1,0-0.1-0.1L32.9,156.6z"/>
			<path fill="#B2B2B2" d="M25.9,172.9c0,0,0.1,0,0.1,0c0,0,0.1,0,0.1,0.1L25.9,172.9z"/>
			<path fill="#B2B2B2" d="M78.2,175.3c0,0-0.1,0-0.1,0c0,0-0.1,0-0.1-0.1L78.2,175.3z"/>
			<path fill="#B2B2B2" d="M71.2,191.6c0,0,0.1,0,0.1,0c0,0,0.1,0,0.1,0.1L71.2,191.6z"/>
			<path fill="#B2B2B2" d="M80.5,181.3l-3.2,7.8c-1,2.3-3.6,3.5-6,2.6c-0.8-0.3-1.4-0.9-1.8-1.5c-0.8,0.1-1.6,0-2.3-0.3
				c-0.8-0.3-1.4-0.9-1.8-1.5c-0.8,0.1-1.6,0-2.3-0.3c-0.8-0.3-1.4-0.9-1.8-1.5c-0.8,0.1-1.6,0-2.3-0.3c-0.8-0.3-1.4-0.9-1.8-1.5
				c-0.8,0.1-1.6,0-2.3-0.3c-0.8-0.3-1.4-0.9-1.8-1.5c-0.8,0.1-1.6,0-2.3-0.3c-0.6-0.3-1.1-0.7-1.5-1.1c-0.6,0-1.3-0.1-1.9-0.3
				c-0.8-0.3-1.4-0.9-1.8-1.5c-0.8,0.1-1.6,0-2.3-0.3c-0.8-0.3-1.4-0.9-1.8-1.5c-0.8,0.1-1.6,0-2.3-0.3c-0.8-0.3-1.4-0.9-1.8-1.5
				c-0.8,0.1-1.6,0-2.3-0.3c-0.8-0.3-1.4-0.9-1.8-1.5c-0.8,0.1-1.6,0-2.3-0.3c-0.8-0.3-1.4-0.9-1.8-1.5c-0.8,0.1-1.6,0-2.3-0.3
				c-2.3-1-3.4-3.7-2.4-6l3.2-7.8c1-2.3,3.6-3.5,6-2.6c0.8,0.3,1.4,0.9,1.8,1.5c0.8-0.1,1.6,0,2.3,0.3c0.8,0.3,1.4,0.9,1.8,1.5
				c0.8-0.1,1.6,0,2.3,0.3c0.8,0.3,1.4,0.9,1.8,1.5c0.8-0.1,1.6,0,2.3,0.3c0.8,0.3,1.4,0.9,1.8,1.5c0.8-0.1,1.6,0,2.3,0.3
				c0.8,0.3,1.4,0.9,1.8,1.5c0.8-0.1,1.6,0,2.3,0.3c0.6,0.3,1.1,0.7,1.5,1.1c0.6,0,1.3,0.1,1.9,0.3c0.8,0.3,1.4,0.9,1.8,1.5
				c0.8-0.1,1.6,0,2.3,0.3c0.8,0.3,1.4,0.9,1.8,1.5c0.8-0.1,1.6,0,2.3,0.3c0.8,0.3,1.4,0.9,1.8,1.5c0.8-0.1,1.6,0,2.3,0.3
				c0.8,0.3,1.4,0.9,1.8,1.5c0.8-0.1,1.6,0,2.3,0.3c0.8,0.3,1.4,0.9,1.8,1.5c0.8-0.1,1.6,0,2.3,0.3
				C80.4,176.3,81.5,178.9,80.5,181.3z"/>
			<path fill="#B2B2B2" d="M67,189.8c0,0,0.1,0,0.1,0c0,0,0.1,0,0.1,0.1L67,189.8z"/>
			<path fill="#B2B2B2" d="M74,173.6c0,0-0.1,0-0.1,0c0,0-0.1,0-0.1-0.1L74,173.6z"/>
			<path fill="#B2B2B2" d="M69.8,171.8c0,0-0.1,0-0.1,0c0,0-0.1,0-0.1-0.1L69.8,171.8z"/>
			<path fill="#B2B2B2" d="M62.8,188.1c0,0,0.1,0,0.1,0c0,0,0.1,0,0.1,0.1L62.8,188.1z"/>
			<path fill="#B2B2B2" d="M65.7,170.1c0,0-0.1,0-0.1,0c0,0-0.1,0-0.1-0.1L65.7,170.1z"/>
			<path fill="#B2B2B2" d="M58.6,186.4c0,0,0.1,0,0.1,0c0,0,0.1,0,0.1,0.1L58.6,186.4z"/>
			<path fill="#B2B2B2" d="M61.5,168.4c0,0-0.1,0-0.1,0c0,0-0.1,0-0.1-0.1L61.5,168.4z"/>
			<path fill="#B2B2B2" d="M54.5,184.6c0,0,0.1,0,0.1,0c0,0,0.1,0,0.1,0.1L54.5,184.6z"/>
			<path fill="#B2B2B2" d="M57.3,166.6c0,0-0.1,0-0.1,0c0,0-0.1,0-0.1-0.1L57.3,166.6z"/>
			<path fill="#B2B2B2" d="M50.3,182.9c0,0,0.1,0,0.1,0c0,0,0.1,0,0.1,0.1L50.3,182.9z"/>
		</g>
		<g>
			<path d="M17.7,167.8l5.3-12.2c0.5-1.1,1.7-1.6,2.8-1.1c1.1,0.5,1.6,1.7,1.1,2.8l-5.3,12.2c-0.5,1.1-1.7,1.6-2.8,1.1
				C17.8,170.2,17.3,168.9,17.7,167.8z"/>
			<path fill="#B2B2B2" d="M-1.7,152.7c1.5-3.6,5.7-5.2,9.2-3.7l3.6,1.6l-0.2-0.3c-1.1-1.4-0.8-3.5,0.6-4.6c0.9-0.7,2.2-0.9,3.3-0.4
				c0.5,0.2,1,0.6,1.3,1l6.2,8.1l-5.9,13.7l-14.4-6.2C-1.6,160.4-3.2,156.2-1.7,152.7z"/>
			<path fill="#FFBE08" d="M26.3,153.3c1.7,0.8,2.5,2.8,1.8,4.5l-5.3,12.2c-0.8,1.7-2.8,2.5-4.5,1.8c-1.5-0.6-2.3-2.2-2-3.8
				l5.9-13.7C23.1,153.2,24.8,152.7,26.3,153.3z"/>
		</g>
		<g>
			<path fill="#B2B2B2" d="M123,164.2c0,0,0.1,0,0.1,0c0,0,0.1,0,0.1-0.1L123,164.2z"/>
			<path fill="#B2B2B2" d="M130.5,180.3c0,0-0.1,0-0.1,0c0,0-0.1,0-0.1,0.1L130.5,180.3z"/>
			<path fill="#B2B2B2" d="M134.6,178.5c0,0-0.1,0-0.1,0c0,0-0.1,0-0.1,0.1L134.6,178.5z"/>
			<path fill="#B2B2B2" d="M127.2,162.4c0,0,0.1,0,0.1,0c0,0,0.1,0,0.1-0.1L127.2,162.4z"/>
			<path fill="#B2B2B2" d="M131.3,160.5c0,0,0.1,0,0.1,0c0,0,0.1,0,0.1-0.1L131.3,160.5z"/>
			<path fill="#B2B2B2" d="M138.8,176.6c0,0-0.1,0-0.1,0c0,0-0.1,0-0.1,0.1L138.8,176.6z"/>
			<path fill="#B2B2B2" d="M135.4,158.7c0,0,0.1,0,0.1,0c0,0,0.1,0,0.1-0.1L135.4,158.7z"/>
			<path fill="#B2B2B2" d="M142.9,174.8c0,0-0.1,0-0.1,0c0,0-0.1,0-0.1,0.1L142.9,174.8z"/>
			<path fill="#B2B2B2" d="M139.6,156.8c0,0,0.1,0,0.1,0c0,0,0.1,0,0.1-0.1L139.6,156.8z"/>
			<path fill="#B2B2B2" d="M147,172.9c0,0-0.1,0-0.1,0c0,0-0.1,0-0.1,0.1L147,172.9z"/>
			<path fill="#B2B2B2" d="M143.7,155c0,0,0.1,0,0.1,0c0,0,0.1,0,0.1-0.1L143.7,155z"/>
			<path fill="#B2B2B2" d="M151.2,171.1c0,0-0.1,0-0.1,0c0,0-0.1,0-0.1,0.1L151.2,171.1z"/>
			<path fill="#B2B2B2" d="M99,175c0,0,0.1,0,0.1,0c0,0,0.1,0,0.1-0.1L99,175z"/>
			<path fill="#B2B2B2" d="M106.5,191.1c0,0-0.1,0-0.1,0c0,0-0.1,0-0.1,0.1L106.5,191.1z"/>
			<path fill="#B2B2B2" d="M96.9,181l3.4,7.7c1,2.3,3.7,3.4,6,2.4c0.7-0.4,1.4-0.9,1.8-1.5c0.8,0.1,1.6,0,2.3-0.3
				c0.7-0.4,1.4-0.9,1.8-1.5c0.8,0.1,1.6,0,2.3-0.3c0.7-0.4,1.4-0.9,1.8-1.5c0.8,0.1,1.6,0,2.3-0.3c0.7-0.4,1.4-0.9,1.8-1.5
				c0.8,0.1,1.6,0,2.3-0.3c0.7-0.4,1.4-0.9,1.8-1.5c0.8,0.1,1.6,0,2.3-0.3c0.6-0.3,1.1-0.7,1.5-1.2c0.6,0,1.3-0.1,1.9-0.3
				c0.7-0.4,1.4-0.9,1.8-1.5c0.8,0.1,1.6,0,2.3-0.3c0.7-0.4,1.4-0.9,1.8-1.5c0.8,0.1,1.6,0,2.3-0.3c0.7-0.4,1.4-0.9,1.8-1.5
				c0.8,0.1,1.6,0,2.3-0.3c0.7-0.4,1.4-0.9,1.8-1.5c0.8,0.1,1.6,0,2.3-0.3c0.7-0.4,1.4-0.9,1.8-1.5c0.8,0.1,1.6,0,2.3-0.3
				c2.3-1.1,3.3-3.8,2.2-6.1l-3.4-7.7c-1-2.3-3.7-3.4-6-2.4c-0.7,0.4-1.4,0.9-1.8,1.5c-0.8-0.1-1.6,0-2.3,0.3
				c-0.7,0.4-1.4,0.9-1.8,1.5c-0.8-0.1-1.6,0-2.3,0.3c-0.7,0.4-1.4,0.9-1.8,1.5c-0.8-0.1-1.6,0-2.3,0.3c-0.7,0.4-1.4,0.9-1.8,1.5
				c-0.8-0.1-1.6,0-2.3,0.3c-0.7,0.4-1.4,0.9-1.8,1.5c-0.8-0.1-1.6,0-2.3,0.3c-0.6,0.3-1.1,0.7-1.5,1.2c-0.6,0-1.3,0.1-1.9,0.3
				c-0.7,0.4-1.4,0.9-1.8,1.5c-0.8-0.1-1.6,0-2.3,0.3c-0.7,0.4-1.4,0.9-1.8,1.5c-0.8-0.1-1.6,0-2.3,0.3c-0.7,0.4-1.4,0.9-1.8,1.5
				c-0.8-0.1-1.6,0-2.3,0.3c-0.7,0.4-1.4,0.9-1.8,1.5c-0.8-0.1-1.6,0-2.3,0.3c-0.7,0.4-1.4,0.9-1.8,1.5c-0.8-0.1-1.6,0-2.3,0.3
				C96.9,176,95.8,178.7,96.9,181z"/>
			<path fill="#B2B2B2" d="M110.6,189.2c0,0-0.1,0-0.1,0c0,0-0.1,0-0.1,0.1L110.6,189.2z"/>
			<path fill="#B2B2B2" d="M103.1,173.1c0,0,0.1,0,0.1,0c0,0,0.1,0,0.1-0.1L103.1,173.1z"/>
			<path fill="#B2B2B2" d="M107.3,171.3c0,0,0.1,0,0.1,0c0,0,0.1,0,0.1-0.1L107.3,171.3z"/>
			<path fill="#B2B2B2" d="M114.7,187.4c0,0-0.1,0-0.1,0c0,0-0.1,0-0.1,0.1L114.7,187.4z"/>
			<path fill="#B2B2B2" d="M111.4,169.4c0,0,0.1,0,0.1,0c0,0,0.1,0,0.1-0.1L111.4,169.4z"/>
			<path fill="#B2B2B2" d="M118.9,185.5c0,0-0.1,0-0.1,0c0,0-0.1,0-0.1,0.1L118.9,185.5z"/>
			<path fill="#B2B2B2" d="M115.5,167.6c0,0,0.1,0,0.1,0c0,0,0.1,0,0.1-0.1L115.5,167.6z"/>
			<path fill="#B2B2B2" d="M123,183.7c0,0-0.1,0-0.1,0c0,0-0.1,0-0.1,0.1L123,183.7z"/>
			<path fill="#B2B2B2" d="M119.7,165.7c0,0,0.1,0,0.1,0c0,0,0.1,0,0.1-0.1L119.7,165.7z"/>
			<path fill="#B2B2B2" d="M127.1,181.8c0,0-0.1,0-0.1,0c0,0-0.1,0-0.1,0.1L127.1,181.8z"/>
		</g>
		<g>
			<path fill="#B2B2B2" d="M48.6,195.6c0-0.2,0-0.4,0-0.6c0-0.2,0-0.4,0-0.6L48.6,195.6z"/>
			<path fill="#B2B2B2" d="M130.2,193.2c0,0.2,0,0.4,0,0.6c0,0.2,0,0.4,0,0.6L130.2,193.2z"/>
			<path fill="#B2B2B2" d="M122.7,178.5c-2-7.9-9.2-13.6-17.6-13.5l-32.3,0.5c-8.5,0.1-15.5,6.1-17.2,14c-4.2,3.9-6.9,9.4-7,15.6
				c0.3,6.8,3.7,12.7,8.9,16.5c3,5.9,9.2,9.9,16.2,9.8l32.3-0.5c7-0.1,13.1-4.3,15.9-10.2c5-3.9,8.3-9.9,8.4-16.7
				C129.9,187.7,127.1,182.2,122.7,178.5z"/>
		</g>
		<g>
			<path fill="#B2B2B2" d="M48.6,195.6c0-0.2,0-0.4,0-0.6c0-0.2,0-0.4,0-0.6L48.6,195.6z"/>
			<path fill="#B2B2B2" d="M130.2,193.2c0,0.2,0,0.4,0,0.6c0,0.2,0,0.4,0,0.6L130.2,193.2z"/>
			<path fill="#B2B2B2" d="M122.7,178.5c-2-7.9-9.2-13.6-17.6-13.5l-32.3,0.5c-8.5,0.1-15.5,6.1-17.2,14c-4.2,3.9-6.9,9.4-7,15.6
				c0.3,6.8,3.7,12.7,8.9,16.5c3,5.9,9.2,9.9,16.2,9.8l32.3-0.5c7-0.1,13.1-4.3,15.9-10.2c5-3.9,8.3-9.9,8.4-16.7
				C129.9,187.7,127.1,182.2,122.7,178.5z"/>
		</g>
		<path fill="#8C8C8C" d="M123,178.5c-2-7.9-9.2-13.6-17.6-13.5l-4,0.1c8.5-0.1,15.6,5.7,17.6,13.5c4.4,3.7,7.2,9.2,7.5,15.4
			c0-0.2,0-0.4,0-0.6l0,1.3c0-0.2,0-0.4,0-0.6c-0.1,6.8-3.3,12.8-8.4,16.7c-2.8,6-8.9,10.1-15.9,10.2l4-0.1
			c7-0.1,13.1-4.3,15.9-10.2c5-3.9,8.3-9.9,8.4-16.7C130.2,187.7,127.4,182.2,123,178.5z"/>
		<path fill="#C1C1C1" d="M55.7,179.4c1.8-7.9,8.8-13.9,17.2-14l4-0.1c-8.5,0.1-15.5,6.1-17.2,14c-4.2,3.9-6.9,9.4-7,15.6
			c0-0.2,0-0.4,0-0.6l0,1.3c0-0.2,0-0.4,0-0.6c0.3,6.8,3.7,12.7,8.9,16.5c3,5.9,9.2,9.9,16.2,9.8l-4,0.1c-7,0.1-13.2-3.9-16.2-9.8
			c-5.1-3.7-8.6-9.7-8.9-16.5C48.8,188.8,51.5,183.3,55.7,179.4z"/>
		<path fill="#B2B2B2" d="M58.4,152.4l0.6,0c1.9,2.9,4.3,5.6,7,7.8l44.7-0.6c2.6-2.3,4.9-5,6.8-8l0.6,0c3.7-0.1,6.6-3.1,6.5-6.7
			l-0.3-24.1c-0.1-3.7-3.1-6.6-6.7-6.5l-0.6,0c-6.3-9.6-17.2-15.8-29.5-15.6c-12.3,0.2-23,6.7-29,16.5l-0.6,0
			c-3.7,0.1-6.6,3.1-6.5,6.7l0.3,24.1C51.7,149.5,54.7,152.4,58.4,152.4z"/>
		<path fill="#8C8C8C" d="M117.6,114.2l-0.6,0c-6.3-9.6-17.2-15.8-29.5-15.6c-0.9,0-1.7,0.1-2.5,0.1c11.2,0.6,21.1,6.7,27,15.6
			l0.6,0c3.7-0.1,6.7,2.9,6.7,6.5l0.3,24.1c0.1,3.7-2.9,6.7-6.5,6.7l-0.6,0c-1.9,3-4.2,5.7-6.8,8l5.1-0.1c2.6-2.3,4.9-5,6.8-8l0.6,0
			c3.7-0.1,6.6-3.1,6.5-6.7l-0.3-24.1C124.3,117,121.3,114.1,117.6,114.2z"/>
		<path fill="#C1C1C1" d="M57.9,115l0.6,0c6-9.7,16.7-16.3,29-16.5c0.9,0,1.7,0,2.5,0.1c-11.2,1-20.9,7.3-26.5,16.3l-0.6,0
			c-3.7,0.1-6.6,3.1-6.5,6.7l0.3,24.1c0.1,3.7,3.1,6.6,6.7,6.5l0.6,0c1.9,2.9,4.3,5.6,7,7.8l-5.1,0.1c-2.7-2.2-5.1-4.8-7-7.8l-0.6,0
			c-3.7,0.1-6.7-2.9-6.7-6.5l-0.3-24.1C51.3,118.1,54.2,115.1,57.9,115z"/>
		<path fill="#A3DAE3" d="M87.2,118.6c-24,0.3-26.4,9.7-26.4,9.7s0,0.5,0,1.2c0,0.9,0,2.2,0.1,3.6l0.1,6.6l0.1,3.6
			c0,0.8,0,1.2,0,1.2s0.4,9.3,27.8,9c24-0.3,26.4-9.7,26.4-9.7s0-0.5,0-1.2l-0.1-3.6l-0.1-6.6c0-1.4,0-2.7-0.1-3.6
			c0-0.8,0-1.2,0-1.2S114.6,118.2,87.2,118.6z"/>
		<path fill="#FFBE08" d="M110.8,167.5l-44.5,0.6c-2.2,0-4-1.7-4-3.9l0-0.1c0-2.2,1.7-4,3.9-4l44.5-0.6c2.2,0,4,1.7,4,3.9l0,0.1
			C114.7,165.7,113,167.5,110.8,167.5z"/>
		<path opacity="0.63" fill="#FFFFFF" d="M94.6,121.9c0,0,17.9,1.5,18,6.9c0.1,5.4,0.2,13.9,0.2,13.9s0,2.1-1.7,2.1
			c-1.7,0-8.9-20.1-15.2-20C89.5,125,91.9,121.6,94.6,121.9z"/>
		<g>
			<path d="M157.6,168.7c-1.1,0.5-2.3,0-2.8-1l-5.6-12.1c-0.5-1.1,0-2.3,1-2.8c1.1-0.5,2.3,0,2.8,1l5.6,12.1
				C159.1,166.9,158.6,168.2,157.6,168.7z"/>
			<path fill="#B2B2B2" d="M177.6,150.1c-1.6-3.5-5.8-5-9.3-3.4l-3.6,1.7l0.2-0.3c1-1.5,0.7-3.5-0.8-4.5c-1-0.7-2.2-0.8-3.3-0.3
				c-0.5,0.2-0.9,0.6-1.3,1.1l-5.9,8.3L160,166l14.2-6.6C177.7,157.8,179.2,153.6,177.6,150.1z"/>
			<path fill="#FFBE08" d="M149.6,151.5c-1.7,0.8-2.5,2.9-1.7,4.6l5.6,12.1c0.8,1.7,2.9,2.5,4.6,1.7c1.5-0.7,2.2-2.3,1.9-3.8
				l-6.3-13.5C152.8,151.3,151,150.8,149.6,151.5z"/>
		</g>
		<g>
			<g>
				<path fill="#B2B2B2" d="M87.5,224.9c0,0.1,0,0.1,0,0.2c0,0.1,0,0.1,0,0.2L87.5,224.9z"/>
				<path fill="#B2B2B2" d="M62.9,225.7c0-0.1,0-0.1,0-0.2c0-0.1,0-0.1,0-0.2L62.9,225.7z"/>
				<path fill="#B2B2B2" d="M87.5,225.1c-0.2-3.5-3-6.2-6.6-6.2l-11.6,0.2c-3.5,0.1-6.3,2.9-6.4,6.4c0,1.1,0.4,2.2,1,3.1
					c-0.5,0.9-0.9,2-0.9,3.2c0,1.1,0.4,2.2,1,3.1c-0.5,0.9-0.9,2-0.9,3.2c0,1.1,0.4,2.2,1,3.1c-0.5,0.9-0.9,2-0.9,3.2
					c0,1.1,0.4,2.2,1,3.1c-0.5,0.9-0.9,2-0.9,3.2c0,1.1,0.4,2.2,1,3.1c-0.5,0.9-0.9,2-0.9,3.2c0.2,3.5,3,6.2,6.6,6.2l11.6-0.2
					c3.5-0.1,6.3-2.9,6.4-6.4c0-1.1-0.4-2.2-1-3.1c0.5-0.9,0.9-2,0.9-3.2c0-1.1-0.4-2.2-1-3.1c0.5-0.9,0.9-2,0.9-3.2
					c0-1.1-0.4-2.2-1-3.1c0.5-0.9,0.9-2,0.9-3.2c0-1.1-0.4-2.2-1-3.1c0.5-0.9,0.9-2,0.9-3.2c0-1.1-0.4-2.2-1-3.1
					C87.1,227.3,87.4,226.3,87.5,225.1z"/>
				<path fill="#B2B2B2" d="M63,231.9c0-0.1,0-0.1,0-0.2c0-0.1,0-0.1,0-0.2L63,231.9z"/>
				<path fill="#B2B2B2" d="M87.5,231.2c0,0.1,0,0.1,0,0.2c0,0.1,0,0.1,0,0.2L87.5,231.2z"/>
				<path fill="#B2B2B2" d="M87.6,237.5c0,0.1,0,0.1,0,0.2c0,0.1,0,0.1,0,0.2L87.6,237.5z"/>
				<path fill="#B2B2B2" d="M63.1,238.2c0-0.1,0-0.1,0-0.2c0-0.1,0-0.1,0-0.2L63.1,238.2z"/>
				<path fill="#B2B2B2" d="M87.7,243.8c0,0.1,0,0.1,0,0.2c0,0.1,0,0.1,0,0.2L87.7,243.8z"/>
				<path fill="#B2B2B2" d="M63.1,244.5c0-0.1,0-0.1,0-0.2c0-0.1,0-0.1,0-0.2L63.1,244.5z"/>
				<path fill="#B2B2B2" d="M87.8,250c0,0.1,0,0.1,0,0.2c0,0.1,0,0.1,0,0.2L87.8,250z"/>
				<path fill="#B2B2B2" d="M63.2,250.8c0-0.1,0-0.1,0-0.2c0-0.1,0-0.1,0-0.2L63.2,250.8z"/>
				<path fill="#B2B2B2" d="M87.9,256.3c0,0.1,0,0.1,0,0.2c0,0.1,0,0.1,0,0.2L87.9,256.3z"/>
				<path fill="#B2B2B2" d="M63.3,257.1c0-0.1,0-0.1,0-0.2c0-0.1,0-0.1,0-0.2L63.3,257.1z"/>
			</g>
			<path fill="#C1C1C1" d="M69.3,219.1l3.5,0c-3.5,0.1-6.3,2.9-6.4,6.4c0-0.1,0-0.1,0-0.2l0,0.4c0-0.1,0-0.1,0-0.2
				c0,1.1,0.4,2.2,1,3.1c-0.5,0.9-0.9,2-0.9,3.2c0-0.1,0-0.1,0-0.2l0,0.4c0-0.1,0-0.1,0-0.2c0,1.1,0.4,2.2,1,3.1
				c-0.5,0.9-0.9,2-0.9,3.2c0-0.1,0-0.1,0-0.2l0,0.4c0-0.1,0-0.1,0-0.2c0,1.1,0.4,2.2,1,3.1c-0.5,0.9-0.9,2-0.9,3.2
				c0-0.1,0-0.1,0-0.2l0,0.4c0-0.1,0-0.1,0-0.2c0,1.1,0.4,2.2,1,3.1c-0.5,0.9-0.9,2-0.9,3.2c0-0.1,0-0.1,0-0.2l0,0.4
				c0-0.1,0-0.1,0-0.2c0,1.1,0.4,2.2,1,3.1c-0.5,0.9-0.9,2-0.9,3.2c0-0.1,0-0.1,0-0.2l0,0.4c0-0.1,0-0.1,0-0.2
				c0.2,3.5,3,6.2,6.6,6.2l-3.5,0c-3.5,0.1-6.4-2.7-6.6-6.2c0-1.1,0.3-2.2,0.9-3.2c-0.6-0.9-0.9-2-1-3.1c0-1.1,0.3-2.2,0.9-3.2
				c-0.6-0.9-0.9-2-1-3.1c0-1.1,0.3-2.2,0.9-3.2c-0.6-0.9-0.9-2-1-3.1c0-1.1,0.3-2.2,0.9-3.2c-0.6-0.9-0.9-2-1-3.1
				c0-1.1,0.3-2.2,0.9-3.2c-0.6-0.9-0.9-2-1-3.1C62.9,222,65.7,219.1,69.3,219.1z"/>
			<path fill="#8C8C8C" d="M86.9,222.7l-3.5,0c0.3,0.7,0.6,1.6,0.6,2.4c0-0.1,0-0.1,0-0.2l0,0.4c0-0.1,0-0.1,0-0.2
				c0,1.1-0.3,2.2-0.9,3.2c0.6,0.9,0.9,2,1,3.1c0-0.1,0-0.1,0-0.2l0,0.4c0-0.1,0-0.1,0-0.2c0,1.1-0.3,2.2-0.9,3.2
				c0.6,0.9,0.9,2,1,3.1c0-0.1,0-0.1,0-0.2l0,0.4c0-0.1,0-0.1,0-0.2c0,1.1-0.3,2.2-0.9,3.2c0.6,0.9,0.9,2,1,3.1c0-0.1,0-0.1,0-0.2
				l0,0.4c0-0.1,0-0.1,0-0.2c0,1.1-0.3,2.2-0.9,3.2c0.6,0.9,0.9,2,1,3.1c0-0.1,0-0.1,0-0.2l0,0.4c0-0.1,0-0.1,0-0.2
				c0,1.1-0.3,2.2-0.9,3.2c0.6,0.9,0.9,2,1,3.1c0-0.1,0-0.1,0-0.2l0,0.4c0-0.1,0-0.1,0-0.2c-0.1,3.5-2.9,6.3-6.4,6.4l3.5,0
				c3.5-0.1,6.3-2.9,6.4-6.4c0-1.1-0.4-2.2-1-3.1c0.5-0.9,0.9-2,0.9-3.2c0-1.1-0.4-2.2-1-3.1c0.5-0.9,0.9-2,0.9-3.2
				c0-1.1-0.4-2.2-1-3.1c0.5-0.9,0.9-2,0.9-3.2c0-1.1-0.4-2.2-1-3.1c0.5-0.9,0.9-2,0.9-3.2c0-1.1-0.4-2.2-1-3.1
				c0.5-0.9,0.9-2,0.9-3.2C87.4,224.2,87.2,223.4,86.9,222.7z"/>
		</g>
		
			<rect x="83.4" y="252.3" transform="matrix(0.9999 -1.435587e-02 1.435587e-02 0.9999 -3.7347 1.2565)" fill="#8C8C8C" width="4.5" height="16.9"/>
		<g>
			<g>
				<path fill="#FFBE08" d="M87.5,273.7l-28.2,0.4c-1.4,0-2.5-1-2.5-2.2l0,0c0-1.2,1.1-2.3,2.5-2.3l28.2-0.4c1.4,0,2.5,1,2.5,2.2
					l0,0C90,272.7,88.9,273.7,87.5,273.7z"/>
				<g>
					<path fill="#FFBE08" d="M87.5,273.7l-32.4,0.5c-1.4,0-2.5-1-2.5-2.2l0,0c0-1.2,1.1-2.3,2.5-2.3l32.4-0.5c1.4,0,2.5,1,2.5,2.2
						l0,0C90,272.7,88.9,273.7,87.5,273.7z"/>
					<path fill="#B2B2B2" d="M55.4,269.6l32.5-0.5c0.1,0,0.1,0,0.2,0l-0.1-10.1l-27.1,0.4c-4,0.1-7.1,3.3-7.1,7.3
						c0,1.1,0.3,2.2,0.8,3.1C54.8,269.7,55.1,269.6,55.4,269.6z"/>
					
						<rect x="62.7" y="252.3" transform="matrix(0.9999 -1.435587e-02 1.435587e-02 0.9999 -3.6783 1.1069)" fill="#B2B2B2" width="25.2" height="9"/>
					<path fill="#FFBE08" d="M87.6,252.3l-25,0.4c-0.7,0-1.3-0.5-1.3-1.1l0,0c0-0.6,0.6-1.2,1.3-1.2l25-0.4c0.7,0,1.3,0.5,1.3,1.1
						l0,0C88.9,251.7,88.3,252.3,87.6,252.3z"/>
				</g>
			</g>
			<path fill="#C1C1C1" d="M60.5,259.6c-3.8,0.1-6.8,3.2-6.8,7c0,1.1,0.3,2.2,0.8,3.1l1.6,0c-0.1-0.5-0.2-1-0.2-1.6
				c-0.1-3.8,3-6.9,6.8-7c1,0,1.9,0.2,2.8,0.5C64.2,260.3,62.5,259.5,60.5,259.6z"/>
		</g>
		<g>
			<g>
				<path fill="#B2B2B2" d="M115.9,224.5c0,0.1,0,0.1,0,0.2c0,0.1,0,0.1,0,0.2L115.9,224.5z"/>
				<path fill="#B2B2B2" d="M91.3,225.2c0-0.1,0-0.1,0-0.2c0-0.1,0-0.1,0-0.2L91.3,225.2z"/>
				<path fill="#B2B2B2" d="M115.9,224.7c-0.2-3.5-3-6.2-6.6-6.2l-11.6,0.2c-3.5,0.1-6.3,2.9-6.4,6.4c0,1.1,0.4,2.2,1,3.1
					c-0.5,0.9-0.9,2-0.9,3.2c0,1.1,0.4,2.2,1,3.1c-0.5,0.9-0.9,2-0.9,3.2c0,1.1,0.4,2.2,1,3.1c-0.5,0.9-0.9,2-0.9,3.2
					c0,1.1,0.4,2.2,1,3.1c-0.5,0.9-0.9,2-0.9,3.2c0,1.1,0.4,2.2,1,3.1c-0.5,0.9-0.9,2-0.9,3.2c0.2,3.5,3,6.2,6.6,6.2l11.6-0.2
					c3.5-0.1,6.3-2.9,6.4-6.4c0-1.1-0.4-2.2-1-3.1c0.5-0.9,0.9-2,0.9-3.2c0-1.1-0.4-2.2-1-3.1c0.5-0.9,0.9-2,0.9-3.2
					c0-1.1-0.4-2.2-1-3.1c0.5-0.9,0.9-2,0.9-3.2c0-1.1-0.4-2.2-1-3.1c0.5-0.9,0.9-2,0.9-3.2c0-1.1-0.4-2.2-1-3.1
					C115.6,226.9,115.9,225.9,115.9,224.7z"/>
				<path fill="#B2B2B2" d="M91.4,231.5c0-0.1,0-0.1,0-0.2c0-0.1,0-0.1,0-0.2L91.4,231.5z"/>
				<path fill="#B2B2B2" d="M116,230.8c0,0.1,0,0.1,0,0.2c0,0.1,0,0.1,0,0.2L116,230.8z"/>
				<path fill="#B2B2B2" d="M116.1,237.1c0,0.1,0,0.1,0,0.2c0,0.1,0,0.1,0,0.2L116.1,237.1z"/>
				<path fill="#B2B2B2" d="M91.5,237.8c0-0.1,0-0.1,0-0.2c0-0.1,0-0.1,0-0.2L91.5,237.8z"/>
				<path fill="#B2B2B2" d="M116.2,243.4c0,0.1,0,0.1,0,0.2c0,0.1,0,0.1,0,0.2L116.2,243.4z"/>
				<path fill="#B2B2B2" d="M91.6,244.1c0-0.1,0-0.1,0-0.2c0-0.1,0-0.1,0-0.2L91.6,244.1z"/>
				<path fill="#B2B2B2" d="M116.3,249.6c0,0.1,0,0.1,0,0.2c0,0.1,0,0.1,0,0.2L116.3,249.6z"/>
				<path fill="#B2B2B2" d="M91.7,250.4c0-0.1,0-0.1,0-0.2c0-0.1,0-0.1,0-0.2L91.7,250.4z"/>
				<path fill="#B2B2B2" d="M116.4,255.9c0,0.1,0,0.1,0,0.2c0,0.1,0,0.1,0,0.2L116.4,255.9z"/>
				<path fill="#B2B2B2" d="M91.8,256.6c0-0.1,0-0.1,0-0.2c0-0.1,0-0.1,0-0.2L91.8,256.6z"/>
			</g>
			<path fill="#C1C1C1" d="M97.7,218.7l3.5,0c-3.5,0.1-6.3,2.9-6.4,6.4c0-0.1,0-0.1,0-0.2l0,0.4c0-0.1,0-0.1,0-0.2
				c0,1.1,0.4,2.2,1,3.1c-0.5,0.9-0.9,2-0.9,3.2c0-0.1,0-0.1,0-0.2l0,0.4c0-0.1,0-0.1,0-0.2c0,1.1,0.4,2.2,1,3.1
				c-0.5,0.9-0.9,2-0.9,3.2c0-0.1,0-0.1,0-0.2l0,0.4c0-0.1,0-0.1,0-0.2c0,1.1,0.4,2.2,1,3.1c-0.5,0.9-0.9,2-0.9,3.2
				c0-0.1,0-0.1,0-0.2l0,0.4c0-0.1,0-0.1,0-0.2c0,1.1,0.4,2.2,1,3.1c-0.5,0.9-0.9,2-0.9,3.2c0-0.1,0-0.1,0-0.2l0,0.4
				c0-0.1,0-0.1,0-0.2c0,1.1,0.4,2.2,1,3.1c-0.5,0.9-0.9,2-0.9,3.2c0-0.1,0-0.1,0-0.2l0,0.4c0-0.1,0-0.1,0-0.2
				c0.2,3.5,3,6.2,6.6,6.2l-3.5,0c-3.5,0.1-6.4-2.7-6.6-6.2c0-1.1,0.3-2.2,0.9-3.2c-0.6-0.9-0.9-2-1-3.1c0-1.1,0.3-2.2,0.9-3.2
				c-0.6-0.9-0.9-2-1-3.1c0-1.1,0.3-2.2,0.9-3.2c-0.6-0.9-0.9-2-1-3.1c0-1.1,0.3-2.2,0.9-3.2c-0.6-0.9-0.9-2-1-3.1
				c0-1.1,0.3-2.2,0.9-3.2c-0.6-0.9-0.9-2-1-3.1C91.4,221.6,94.2,218.7,97.7,218.7z"/>
			<path fill="#8C8C8C" d="M115.3,222.3l-3.5,0c0.3,0.7,0.6,1.6,0.6,2.4c0-0.1,0-0.1,0-0.2l0,0.4c0-0.1,0-0.1,0-0.2
				c0,1.1-0.3,2.2-0.9,3.2c0.6,0.9,0.9,2,1,3.1c0-0.1,0-0.1,0-0.2l0,0.4c0-0.1,0-0.1,0-0.2c0,1.1-0.3,2.2-0.9,3.2
				c0.6,0.9,0.9,2,1,3.1c0-0.1,0-0.1,0-0.2l0,0.4c0-0.1,0-0.1,0-0.2c0,1.1-0.3,2.2-0.9,3.2c0.6,0.9,0.9,2,1,3.1c0-0.1,0-0.1,0-0.2
				l0,0.4c0-0.1,0-0.1,0-0.2c0,1.1-0.3,2.2-0.9,3.2c0.6,0.9,0.9,2,1,3.1c0-0.1,0-0.1,0-0.2l0,0.4c0-0.1,0-0.1,0-0.2
				c0,1.1-0.3,2.2-0.9,3.2c0.6,0.9,0.9,2,1,3.1c0-0.1,0-0.1,0-0.2l0,0.4c0-0.1,0-0.1,0-0.2c-0.1,3.5-2.9,6.3-6.4,6.4l3.5,0
				c3.5-0.1,6.3-2.9,6.4-6.4c0-1.1-0.4-2.2-1-3.1c0.5-0.9,0.9-2,0.9-3.2c0-1.1-0.4-2.2-1-3.1c0.5-0.9,0.9-2,0.9-3.2
				c0-1.1-0.4-2.2-1-3.1c0.5-0.9,0.9-2,0.9-3.2c0-1.1-0.4-2.2-1-3.1c0.5-0.9,0.9-2,0.9-3.2c0-1.1-0.4-2.2-1-3.1
				c0.5-0.9,0.9-2,0.9-3.2C115.9,223.8,115.7,223,115.3,222.3z"/>
		</g>
		<g>
			<g>
				<path fill="#FFBE08" d="M92.3,273.7l28.2-0.4c1.4,0,2.5-1,2.5-2.3l0,0c0-1.2-1.2-2.2-2.5-2.2l-28.2,0.4c-1.4,0-2.5,1-2.5,2.3
					l0,0C89.8,272.7,90.9,273.7,92.3,273.7z"/>
				<g>
					<path fill="#FFBE08" d="M92.3,273.7l32.4-0.5c1.4,0,2.5-1,2.5-2.3l0,0c0-1.2-1.2-2.2-2.5-2.2l-32.4,0.5c-1.4,0-2.5,1-2.5,2.3
						l0,0C89.8,272.7,90.9,273.7,92.3,273.7z"/>
					<path fill="#B2B2B2" d="M124.3,268.6l-32.5,0.5c-0.1,0-0.1,0-0.2,0L91.5,259l27.1-0.4c4-0.1,7.2,3.1,7.3,7.1
						c0,1.1-0.2,2.2-0.7,3.1C124.9,268.7,124.6,268.6,124.3,268.6z"/>
					
						<rect x="91.5" y="251.9" transform="matrix(-0.9999 1.435579e-02 -1.435579e-02 -0.9999 211.8283 511.1815)" fill="#B2B2B2" width="25.2" height="9"/>
					<path fill="#FFBE08" d="M91.6,252.2l25-0.4c0.7,0,1.3-0.5,1.3-1.2l0,0c0-0.6-0.6-1.2-1.3-1.1l-25,0.4c-0.7,0-1.3,0.5-1.3,1.2
						l0,0C90.3,251.7,90.9,252.2,91.6,252.2z"/>
				</g>
			</g>
			<path fill="#C1C1C1" d="M118.9,258.7c3.8-0.1,6.9,3,7,6.8c0,1.1-0.3,2.2-0.7,3.1l-1.6,0c0.1-0.5,0.2-1,0.2-1.6
				c-0.1-3.8-3.2-6.8-7-6.8c-1,0-1.9,0.2-2.7,0.6C115.2,259.6,117,258.7,118.9,258.7z"/>
		</g>
	</g>
</g>
<path opacity="0.63" fill="#FFFFFF" d="M103.1,165.4c-24.5-0.1-44.2-20-44.1-44.5c0-8.5,2.5-16.4,6.6-23.1
	c-12.6,7.8-21,21.7-21,37.7c0,24.5,19.8,44.3,44.3,44.3c15.9,0,29.8-8.4,37.7-21C119.8,163,111.8,165.4,103.1,165.4z"/>
</svg>
