<?xml version="1.0" encoding="utf-8"?>
<!-- Generator: Adobe Illustrator 17.1.0, SVG Export Plug-In . SVG Version: 6.00 Build 0)  -->
<!DOCTYPE svg PUBLIC "-//W3C//DTD SVG 1.1//EN" "http://www.w3.org/Graphics/SVG/1.1/DTD/svg11.dtd">
<svg version="1.1" id="Layer_1" xmlns="http://www.w3.org/2000/svg" xmlns:xlink="http://www.w3.org/1999/xlink" x="0px" y="0px"
	 viewBox="0 0 154 195" enable-background="new 0 0 154 195" xml:space="preserve">
<g>
	<path fill="#AF230C" d="M85,0.3c0,0,30.1-2.9,54.2,19.6c0,0,15.1,12.2,14.3,47.6c0,0-0.9,7.1-6.5,10.9c0,0,3.1-20.8-18.8-28
		c0,0-0.5,11,9.1,25.3c0,0,12.7,19-11.4,43.5c0,0,5-24.3-18-44.1c0,0-1.5,10,10.2,34.4c0,0,12.2,31.7-5.9,45c0,0,4.5-22.6-10.2-31.4
		c0,0-5.9,9.1-1.5,28c0,0,2.9,12.9-1.2,16.7c0,0-8.5-4.7-11-23c0,0-3-14-7.1-16.2c0,0-7.9,13.6-0.9,28.4c0,0,7.2,25.5-7.1,37.7
		c0,0-0.9-25.3-14.6-39.9c0,0-11.7-16.4,2.4-42.4c0,0-8.4,1.6-15.2,9.8c0,0-7.8,7.2-3.3,19.4c0,0,0.5,9.6-6.8,13.6
		c0,0,0.7-5.8-2.8-13.6c0,0-8.4-23.5,10.6-63c0,0-15.3,6.5-20.8,14.6c0,0-3.7,3.8-3.8,14.1c0,0,0,6.6-4.2,11.7c0,0,0.3-10.5-1.9-14
		c0,0-9.8-21.3,15.3-54.6c0,0-14,5.2-27.6,23.4c0,0-0.7-25.8,24.1-56.5c0,0,13.8-19.5,52-16.9c0,0-22.5,2.1-35.4,26.7
		c0,0-7,11.9-14,14.6c0,0,9.2-2.8,17.6-3.5c8.4-0.7,10.3,1.6,10.3,1.6S38.3,53.3,38,70.7c0,0,8.4-11.9,19.2-10.5c0,0-4,5.1-3.3,10.6
		c0,0,3.7-6.5,10.1-5.6c0,0-11.5,12.6-11.9,27.9c0,0,15.2-7.5,18.7-14.5c0,0,7,15.5-2.3,38.2c0,0,13.4-10.1,12.2-29.1
		c0,0,16.4,3.8,8.5,27.2c0,0,6.3-3.1,8.5-13.8c0,0,1.6-7.3-8.7-16.2c0,0-5.9-7.5-4.2-17.6c0,0,11.7,14.3,15,15.7
		c0,0-4.9-15-2.1-18.5c0,0,2.1-4,1.6-9.4c0,0,5.8,9.2,12.7,9.8c0,0-2.1-1.2-2.4-5.2c-0.3-4,1.9-10.1-3.5-19.9c0,0-4.2-8.5-4.2-10.1
		c0,0,11.3,9.1,25.3,8.7c0,0-12.2-6.1-17.3-17.8C110,20.6,103.4-0.6,85,0.3z"/>
	<path fill="#FFBE08" d="M41.1,27.3c0,0-7,11.9-14,14.6c0,0,9.2-2.8,17.6-3.5c8.4-0.7,10.3,1.6,10.3,1.6S38.3,53.3,38,70.7
		c0,0,8.4-11.9,19.2-10.5c0,0-4,5.1-3.3,10.6c0,0,3.7-6.5,10.1-5.6c0,0-11.5,12.6-11.9,27.9c0,0,15.2-7.5,18.7-14.5
		c0,0,7,15.5-2.3,38.2c0,0,13.4-10.1,12.2-29.1c0,0,16.4,3.8,8.5,27.2c0,0,6.3-3.1,8.5-13.8c0,0,1.6-7.3-8.7-16.2
		c0,0-5.9-7.5-4.2-17.6c0,0,11.7,14.3,15,15.7c0,0-4.9-15-2.1-18.5c0,0,2.1-4,1.6-9.4c0,0,5.8,9.2,12.7,9.8c0,0-2.1-1.2-2.4-5.2
		c-0.3-4,1.9-10.1-3.5-19.9c0,0-4.2-8.5-4.2-10.1c0,0,11.3,9.1,25.3,8.7c0,0-12.2-6.1-17.3-17.8c0,0-4.2-13.3-14.9-18.4l-5-1.6
		c0,0,0,0,0,0H76.5L67.4,3C59.7,6.1,48.7,12.7,41.1,27.3z"/>
</g>
</svg>
