<?xml version="1.0" encoding="utf-8"?>
<!-- Generator: Adobe Illustrator 17.1.0, SVG Export Plug-In . SVG Version: 6.00 Build 0)  -->
<!DOCTYPE svg PUBLIC "-//W3C//DTD SVG 1.1//EN" "http://www.w3.org/Graphics/SVG/1.1/DTD/svg11.dtd">
<svg version="1.1" id="Layer_1" xmlns="http://www.w3.org/2000/svg" xmlns:xlink="http://www.w3.org/1999/xlink" x="0px" y="0px"
	 viewBox="0 0 333 343" enable-background="new 0 0 333 343" xml:space="preserve">
<g>
	
		<rect x="21.6" y="167.3" transform="matrix(0.673 0.7396 -0.7396 0.673 181.6996 -73.3654)" fill="#CAC8C8" width="304.5" height="3.1"/>
	<g>
		<g>
			<path fill="#CAC8C8" d="M226.4,191.9l45.4,49.7c2,2.2,1.8,5.5-0.3,7.5l-28.6,26.1c-2.2,2-5.5,1.8-7.5-0.3L190,225.1
				c-2-2.2-1.8-5.5,0.3-7.5l28.6-26.1C221.1,189.6,224.4,189.7,226.4,191.9z"/>
			<g>
				<path fill="#6F979B" d="M226.9,196.9l39.9,43.7c1.7,1.9,1.6,4.8-0.3,6.6l-25.1,23c-1.9,1.7-4.8,1.6-6.6-0.3l-39.9-43.7
					c-1.7-1.9-1.6-4.8,0.3-6.6l25.1-23C222.3,194.9,225.2,195,226.9,196.9z"/>
				<line fill="none" stroke="#E6E6E6" stroke-width="3.2789" stroke-miterlimit="10" x1="214.9" y1="248" x2="246.9" y2="218.8"/>
				<line fill="none" stroke="#E6E6E6" stroke-width="3.2789" stroke-miterlimit="10" x1="207.8" y1="208.1" x2="254" y2="258.7"/>
				
					<line fill="none" stroke="#E6E6E6" stroke-width="3.2789" stroke-miterlimit="10" x1="198.9" y1="216.2" x2="245.1" y2="266.8"/>
				
					<line fill="none" stroke="#E6E6E6" stroke-width="3.2789" stroke-miterlimit="10" x1="217.2" y1="199.5" x2="263.4" y2="250.1"/>
				
					<line fill="none" stroke="#E6E6E6" stroke-width="3.2789" stroke-miterlimit="10" x1="227.1" y1="261.3" x2="259.1" y2="232.1"/>
				
					<line fill="none" stroke="#E6E6E6" stroke-width="3.2789" stroke-miterlimit="10" x1="201.6" y1="233.4" x2="233.6" y2="204.2"/>
			</g>
		</g>
		<g>
			<path fill="#CAC8C8" d="M285.8,257.9l45.4,49.7c2,2.2,1.8,5.5-0.3,7.5l-28.6,26.1c-2.2,2-5.5,1.8-7.5-0.3l-45.4-49.7
				c-2-2.2-1.8-5.5,0.3-7.5l28.6-26.1C280.5,255.6,283.8,255.8,285.8,257.9z"/>
			<g>
				<path fill="#6F979B" d="M286.3,262.9l39.9,43.7c1.7,1.9,1.6,4.8-0.3,6.6l-25.1,23c-1.9,1.7-4.8,1.6-6.6-0.3l-39.9-43.7
					c-1.7-1.9-1.6-4.8,0.3-6.6l25.1-23C281.7,260.9,284.6,261,286.3,262.9z"/>
				<line fill="none" stroke="#E6E6E6" stroke-width="3.2789" stroke-miterlimit="10" x1="274.3" y1="314" x2="306.3" y2="284.8"/>
				
					<line fill="none" stroke="#E6E6E6" stroke-width="3.2789" stroke-miterlimit="10" x1="267.2" y1="274.1" x2="313.4" y2="324.7"/>
				
					<line fill="none" stroke="#E6E6E6" stroke-width="3.2789" stroke-miterlimit="10" x1="258.3" y1="282.2" x2="304.5" y2="332.8"/>
				
					<line fill="none" stroke="#E6E6E6" stroke-width="3.2789" stroke-miterlimit="10" x1="276.6" y1="265.6" x2="322.8" y2="316.1"/>
				
					<line fill="none" stroke="#E6E6E6" stroke-width="3.2789" stroke-miterlimit="10" x1="286.5" y1="327.3" x2="318.5" y2="298.1"/>
				<line fill="none" stroke="#E6E6E6" stroke-width="3.2789" stroke-miterlimit="10" x1="261" y1="299.5" x2="293" y2="270.2"/>
			</g>
		</g>
	</g>
	<g>
		<g>
			<path fill="#CAC8C8" d="M59.2,2.1l45.4,49.7c2,2.2,1.8,5.5-0.3,7.5L75.7,85.4c-2.2,2-5.5,1.8-7.5-0.3L22.8,35.4
				c-2-2.2-1.8-5.5,0.3-7.5L51.7,1.8C53.9-0.2,57.2,0,59.2,2.1z"/>
			<g>
				<path fill="#6F979B" d="M59.7,7.1l39.9,43.7c1.7,1.9,1.6,4.8-0.3,6.6l-25.1,23c-1.9,1.7-4.8,1.6-6.6-0.3L27.7,36.4
					c-1.7-1.9-1.6-4.8,0.3-6.6l25.1-23C55.1,5.1,58,5.2,59.7,7.1z"/>
				<line fill="none" stroke="#E6E6E6" stroke-width="3.2789" stroke-miterlimit="10" x1="47.7" y1="58.2" x2="79.7" y2="29"/>
				<line fill="none" stroke="#E6E6E6" stroke-width="3.2789" stroke-miterlimit="10" x1="40.6" y1="18.3" x2="86.8" y2="68.9"/>
				<line fill="none" stroke="#E6E6E6" stroke-width="3.2789" stroke-miterlimit="10" x1="31.7" y1="26.5" x2="77.9" y2="77"/>
				<line fill="none" stroke="#E6E6E6" stroke-width="3.2789" stroke-miterlimit="10" x1="50" y1="9.8" x2="96.2" y2="60.3"/>
				<line fill="none" stroke="#E6E6E6" stroke-width="3.2789" stroke-miterlimit="10" x1="59.9" y1="71.5" x2="91.9" y2="42.3"/>
				<line fill="none" stroke="#E6E6E6" stroke-width="3.2789" stroke-miterlimit="10" x1="34.4" y1="43.7" x2="66.4" y2="14.4"/>
			</g>
		</g>
		<g>
			<path fill="#CAC8C8" d="M118.6,68.1l45.4,49.7c2,2.2,1.8,5.5-0.3,7.5l-28.6,26.1c-2.2,2-5.5,1.8-7.5-0.3l-45.4-49.7
				c-2-2.2-1.8-5.5,0.3-7.5l28.6-26.1C113.3,65.8,116.6,66,118.6,68.1z"/>
			<g>
				<path fill="#6F979B" d="M119.2,73.1l39.9,43.7c1.7,1.9,1.6,4.8-0.3,6.6l-25.1,23c-1.9,1.7-4.8,1.6-6.6-0.3l-39.9-43.7
					c-1.7-1.9-1.6-4.8,0.3-6.6l25.1-23C114.5,71.1,117.4,71.3,119.2,73.1z"/>
				<line fill="none" stroke="#E6E6E6" stroke-width="3.2789" stroke-miterlimit="10" x1="107.1" y1="124.2" x2="139.1" y2="95"/>
				<line fill="none" stroke="#E6E6E6" stroke-width="3.2789" stroke-miterlimit="10" x1="100" y1="84.3" x2="146.2" y2="134.9"/>
				<line fill="none" stroke="#E6E6E6" stroke-width="3.2789" stroke-miterlimit="10" x1="91.1" y1="92.5" x2="137.3" y2="143"/>
				<line fill="none" stroke="#E6E6E6" stroke-width="3.2789" stroke-miterlimit="10" x1="109.4" y1="75.8" x2="155.6" y2="126.3"/>
				
					<line fill="none" stroke="#E6E6E6" stroke-width="3.2789" stroke-miterlimit="10" x1="119.3" y1="137.6" x2="151.3" y2="108.3"/>
				<line fill="none" stroke="#E6E6E6" stroke-width="3.2789" stroke-miterlimit="10" x1="93.8" y1="109.7" x2="125.8" y2="80.5"/>
			</g>
		</g>
	</g>
	<g>
		
			<ellipse transform="matrix(0.9283 0.3718 -0.3718 0.9283 80.8747 -70.522)" fill="#FFFFFF" cx="223.3" cy="174.5" rx="3.5" ry="3.5"/>
		<path fill="#B0B0B0" d="M250.2,163.1l-51.2-62.4c5.1-4.2,20.7,6.4,34.8,23.6C247.9,141.6,255.3,158.9,250.2,163.1z"/>
		
			<ellipse transform="matrix(0.6344 0.773 -0.773 0.6344 184.0321 -125.3723)" fill="#989695" cx="224.6" cy="131.9" rx="40.4" ry="11.9"/>
		<g>
			
				<ellipse transform="matrix(0.9284 0.3716 -0.3716 0.9284 98.8517 -18.4424)" fill="#FFFFFF" cx="97.3" cy="247.3" rx="3.5" ry="3.5"/>
			<path fill="#B0B0B0" d="M285.7,133.9l-35.5,29.1c1.5-1.2,1.9-3.5,1.4-6.5c-0.3-1.9-0.9-4.2-1.9-6.7c-0.7-1.7-1.5-3.5-2.4-5.3
				c-1.2-2.3-2.5-4.7-4.1-7.1c-2.6-4.2-5.8-8.7-9.5-13.1c-14.1-17.2-29.7-27.8-34.8-23.6l35.5-29.1L285.7,133.9z"/>
			<path fill="#B0B0B0" d="M285.2,134.4c-1.5,1.2-3.8,1.2-6.6,0.2c-1.8-0.7-3.9-1.7-6.2-3.2c-1.5-1-3.1-2.1-4.8-3.4
				c-2-1.6-4.1-3.4-6.2-5.4c-3.6-3.4-7.4-7.4-11-11.9c-14.1-17.2-21.5-34.6-16.4-38.8c0.2-0.1,0.4-0.3,0.5-0.4
				c5.6-3.1,20.6,7.4,34.3,24c3.6,4.4,6.9,8.9,9.5,13.1c1.5,2.5,2.9,4.9,4.1,7.1c0.9,1.9,1.7,3.6,2.4,5.3c1,2.5,1.6,4.7,1.9,6.7
				c0.4,2.7,0.1,4.7-1,6C285.5,134.1,285.4,134.2,285.2,134.4z"/>
			<path fill="#E2E2E2" d="M246,161.2c-1.6,1.3-4.6,0.7-8.4-1.4c-4.5-2.5-10.1-7-15.8-13c-2.2-2.3-4.4-4.7-6.5-7.4
				c-12.7-15.5-19.6-30.9-15.4-34.3c4.2-3.5,18,6.3,30.7,21.8c2.2,2.6,4.2,5.3,5.9,7.8c4.8,6.8,8.2,13.2,9.7,18
				C247.6,156.8,247.6,159.9,246,161.2z"/>
			
				<rect x="137.5" y="109.9" transform="matrix(0.6344 0.773 -0.773 0.6344 197.675 -70.9278)" fill="#E2E2E2" width="72.6" height="127.3"/>
			<path fill="#CAC8C8" d="M246.3,152.7L143.6,237l-12.7-15.5l105.8-86.8C241.4,141.5,244.8,147.8,246.3,152.7z"/>
			<path fill="#989695" d="M286.6,127.9l-35,28.7c-0.7-4.8-3.7-11.7-8.4-19.1l35-28.7C283,116.2,285.9,123,286.6,127.9z"/>
			<path fill="#B0B0B0" d="M147.7,247.2c-4.2,3.5-19.1-7.7-33.3-24.9c-14.1-17.2-22.2-34-18-37.5c4.2-3.5,19.1,7.7,33.3,24.9
				C143.9,226.9,152,243.7,147.7,247.2z"/>
			
				<ellipse transform="matrix(0.6344 0.773 -0.773 0.6344 211.8239 -9.6449)" fill="#989695" cx="116.1" cy="219.1" rx="48.3" ry="11.9"/>
			<path fill="#B0B0B0" d="M121.4,232.9l-12,9.8c0.5-0.4,0.7-1.1,0.6-2.1c-0.1-0.6-0.3-1.3-0.5-2.1c-0.2-0.5-0.4-1.1-0.7-1.7
				c-0.3-0.7-0.8-1.5-1.2-2.3c-0.8-1.3-1.8-2.7-3-4.1c-4.4-5.4-9.4-8.6-11.1-7.2l12-9.8L121.4,232.9z"/>
			<path fill="#B0B0B0" d="M121.3,233c-0.5,0.4-1.2,0.4-2.2,0.1c-0.6-0.2-1.3-0.5-2-0.9c-0.5-0.3-1-0.6-1.5-1c-0.6-0.5-1.3-1-2-1.7
				c-1.2-1.1-2.3-2.3-3.5-3.7c-4.4-5.4-6.6-10.9-4.9-12.3c0.1,0,0.1-0.1,0.2-0.1c1.9-1.1,6.7,2.1,10.9,7.3c1.1,1.4,2.1,2.8,3,4.1
				c0.5,0.8,0.9,1.5,1.2,2.3c0.3,0.6,0.5,1.2,0.7,1.7c0.3,0.8,0.5,1.5,0.5,2.1c0.1,0.9,0,1.5-0.4,2C121.4,232.9,121.3,233,121.3,233
				z"/>
			<path fill="#989695" d="M121.8,230.9l-11.8,9.7c-0.2-1.6-1.1-3.7-2.5-6.1l11.8-9.7C120.7,227.2,121.6,229.3,121.8,230.9z"/>
			<path fill="#807F7D" d="M121.3,228.8l-11.8,9.7c-0.2-0.5-0.4-1.1-0.7-1.7l11.8-9.7C120.8,227.7,121.1,228.2,121.3,228.8z"/>
			<path fill="#E2E2E2" d="M105,230c-25.5-31.1-71.4-35.6-102.5-10.1l92.4,112.6C126,307,130.5,261.1,105,230z"/>
			<path fill="#CAC8C8" d="M90.9,327.7l-7.2-8.7c29.5-24.2,37-64.2,18.4-92c1.3,1.3,2.6,2.7,3.8,4.2
				C128.7,258.9,122,302.1,90.9,327.7z"/>
			<path fill="#989695" d="M95.5,333.3c-5,4.1-29.5-17.5-55-48.3c-0.2-0.3-0.5-0.6-0.7-0.9c-1-1.2-1.9-2.4-2.9-3.5
				c-24.1-29.9-39.4-56.7-34.5-60.7c4.9-4,28.2,16.2,52.8,45.7c1,1.2,1.9,2.3,2.9,3.5c0.2,0.3,0.5,0.6,0.7,0.9
				C84.2,301,100.5,329.2,95.5,333.3z"/>
			<path fill="#989695" d="M94.4,334.3c-5,4.1-29.5-17.4-55-48.3c-0.2-0.3-0.5-0.6-0.7-0.9c-1-1.2-1.9-2.4-2.9-3.5
				c-24.1-29.9-39.4-56.7-34.5-60.7c4.9-4,28.2,16.2,52.8,45.7c1,1.2,1.9,2.3,2.9,3.5c0.2,0.3,0.5,0.6,0.7,0.9
				C83,301.9,99.4,330.2,94.4,334.3z"/>
			<path fill="#807F7D" d="M58.9,270l-20.6,16.9l-3.6-4.4l20.6-16.9c1,1.2,1.9,2.3,2.9,3.5C58.4,269.4,58.6,269.7,58.9,270z"/>
			<path fill="#E2E2E2" d="M40.5,291.3c-3.3,2.7-8.1,2.2-10.8-1.1c-2.7-3.3-2.2-8.1,1.1-10.7c3.3-2.7,8.1-2.2,10.8,1.1
				C44.2,283.8,43.7,288.6,40.5,291.3z"/>
		</g>
	</g>
</g>
</svg>
