<?xml version="1.0" encoding="utf-8"?>
<!-- Generator: Adobe Illustrator 17.1.0, SVG Export Plug-In . SVG Version: 6.00 Build 0)  -->
<!DOCTYPE svg PUBLIC "-//W3C//DTD SVG 1.1//EN" "http://www.w3.org/Graphics/SVG/1.1/DTD/svg11.dtd">
<svg version="1.1" id="Layer_1" xmlns="http://www.w3.org/2000/svg" xmlns:xlink="http://www.w3.org/1999/xlink" x="0px" y="0px"
	 viewBox="0 0 90 108" enable-background="new 0 0 90 108" xml:space="preserve">
<g>
	<path fill="#FF7500" d="M76.3,95.4c-7.1,0-26.1-19-40.7-36.7L35.1,58c-0.7-0.9-1.4-1.8-2.1-2.6c-1.3-1.7-32.8-41-25.4-47.1
		c0.6-0.5,1.3-0.7,2.1-0.7c6.9,0,24.6,17.5,39.1,34.8c0.7,0.9,1.4,1.7,2.2,2.6l0.5,0.7c9.1,11.2,17,22.2,22.1,31.1
		C81.3,90,80,93.3,78.4,94.7C77.9,95.1,77.1,95.4,76.3,95.4z M9.7,10.6c-0.2,0-0.3,0-0.3,0c-1,1.1,2.6,14.1,25.8,42.9
		c0.7,0.9,1.4,1.7,2.1,2.6l0.5,0.6c18.4,22.3,34,35.6,38.4,35.6c0.2,0,0.3,0,0.3,0c0.4-0.5,0.3-4.1-5.7-14.5
		c-5.1-8.7-12.8-19.5-21.7-30.4l-0.5-0.7c-0.7-0.9-1.4-1.7-2.1-2.6C28.8,23.2,13.9,10.6,9.7,10.6z"/>
</g>
</svg>
