<?xml version="1.0" encoding="utf-8"?>
<!-- Generator: Adobe Illustrator 17.1.0, SVG Export Plug-In . SVG Version: 6.00 Build 0)  -->
<!DOCTYPE svg PUBLIC "-//W3C//DTD SVG 1.1//EN" "http://www.w3.org/Graphics/SVG/1.1/DTD/svg11.dtd">
<svg version="1.1" id="Layer_1" xmlns="http://www.w3.org/2000/svg" xmlns:xlink="http://www.w3.org/1999/xlink" x="0px" y="0px"
	 viewBox="0 0 1130 184" enable-background="new 0 0 1130 184" xml:space="preserve">
<g>
	<g>
		<path fill="#D3D3D3" d="M891.3,91.7c-1.5,3.6-2.4,7.5-2.7,11.8c-1.5,20.2,14.8,42.2,36.3,42.2c8.8,0,17.2-2.3,24.1-6.6
			c-0.1,0.8-0.2,1.7-0.3,2.6c-0.1,0.7-0.1,1.4-0.1,2.1c-0.3,2.6-0.1,5.2,0.6,7.8c0.5,3,1.5,6,2.7,8.9c0.2,0.4,0.4,0.9,0.6,1.3
			c0,0,0,0.1,0.1,0.1c0,0,0,0,0,0c1.1,2.3,2.7,4.4,5.8,8.7c2,2.8,4.9,4.9,7.7,6.8c5.7,3.8,12,5.9,18.8,6.5
			c7.1,0.5,13.8-0.8,20.2-3.9c6.4-3.1,11.5-7.6,15.5-13.5c1.5-3,3-6,4.5-9c1-3,1.6-6,1.9-9c4.8,2.9,10.1,4.6,15.8,5
			c3.1-0.2,6.2-0.3,9.3-0.5c6.5-1.3,12.2-4.1,17.2-8.4c7-6.2,11.4-15,12.1-24.3c0-0.2,0.4-0.5,0.4-0.7c2.8,0.5,5.9,0.9,0.4-0.3v0
			c18.4,4,39.1-2.1,46.2-22.8c0.5-1.5,0.9-3,1.2-4.6H891.3z"/>
		<path fill="#D3D3D3" d="M891.3,92.3c-1.5-3.6-2.4-7.5-2.7-11.8c-1.5-20.2,14.8-42.2,36.3-42.2c8.8,0,17.2,2.3,24.1,6.6
			c-0.1-0.8-0.2-1.7-0.3-2.6c-0.1-0.7-0.1-1.4-0.1-2.1c-0.3-2.6-0.1-5.2,0.6-7.8c0.5-3,1.5-6,2.7-8.9c0.2-0.4,0.4-0.9,0.6-1.3
			c0,0,0-0.1,0.1-0.1c0,0,0,0,0,0c1.1-2.3,2.7-4.4,5.8-8.7c2-2.8,4.9-4.9,7.7-6.8c5.7-3.8,12-5.9,18.8-6.5
			c7.1-0.5,13.8,0.8,20.2,3.9c6.4,3.1,11.5,7.6,15.5,13.5c1.5,3,3,6,4.5,9c1,3,1.6,6,1.9,9c4.8-2.9,10.1-4.6,15.8-5
			c3.1,0.2,6.2,0.3,9.3,0.5c6.5,1.3,12.2,4.1,17.2,8.4c7,6.2,11.4,15,12.1,24.3c0,0.2,0.4,0.5,0.4,0.7c2.8-0.5,5.9-0.9,0.4,0.3v0
			c18.4-4,39.1,2.1,46.2,22.8c0.5,1.5,0.9,3,1.2,4.6H891.3z"/>
	</g>
	<g>
		<path fill="#D3D3D3" d="M238.7,92.3c1.5-3.6,2.4-7.5,2.7-11.8c1.5-20.2-14.8-42.2-36.3-42.2c-8.8,0-17.2,2.3-24.1,6.6
			c0.1-0.8,0.2-1.7,0.3-2.6c0.1-0.7,0.1-1.4,0.1-2.1c0.3-2.6,0.1-5.2-0.6-7.8c-0.5-3-1.5-6-2.7-8.9c-0.2-0.4-0.4-0.9-0.6-1.3
			c0,0,0-0.1-0.1-0.1c0,0,0,0,0,0c-1.1-2.3-2.7-4.4-5.8-8.7c-2-2.8-4.9-4.9-7.7-6.8c-5.7-3.8-12-5.9-18.8-6.5
			c-7.1-0.5-13.8,0.8-20.2,3.9c-6.4,3.1-11.5,7.6-15.5,13.5c-1.5,3-3,6-4.5,9c-1,3-1.6,6-1.9,9c-4.8-2.9-10.1-4.6-15.8-5
			c-3.1,0.2-6.2,0.3-9.3,0.5c-6.5,1.3-12.2,4.1-17.2,8.4c-7,6.2-11.4,15-12.1,24.3c0,0.2-0.4,0.5-0.4,0.7c-2.8-0.5-5.9-0.9-0.4,0.3
			v0C29.4,60.8,8.7,67,1.6,87.7c-0.5,1.5-0.9,3-1.2,4.6H238.7z"/>
		<path fill="#D3D3D3" d="M238.7,91.7c1.5,3.6,2.4,7.5,2.7,11.8c1.5,20.2-14.8,42.2-36.3,42.2c-8.8,0-17.2-2.3-24.1-6.6
			c0.1,0.8,0.2,1.7,0.3,2.6c0.1,0.7,0.1,1.4,0.1,2.1c0.3,2.6,0.1,5.2-0.6,7.8c-0.5,3-1.5,6-2.7,8.9c-0.2,0.4-0.4,0.9-0.6,1.3
			c0,0,0,0.1-0.1,0.1c0,0,0,0,0,0c-1.1,2.3-2.7,4.4-5.8,8.7c-2,2.8-4.9,4.9-7.7,6.8c-5.7,3.8-12,5.9-18.8,6.5
			c-7.1,0.5-13.8-0.8-20.2-3.9c-6.4-3.1-11.5-7.6-15.5-13.5c-1.5-3-3-6-4.5-9c-1-3-1.6-6-1.9-9c-4.8,2.9-10.1,4.6-15.8,5
			c-3.1-0.2-6.2-0.3-9.3-0.5c-6.5-1.3-12.2-4.1-17.2-8.4c-7-6.2-11.4-15-12.1-24.3c0-0.2-0.4-0.5-0.4-0.7c-2.8,0.5-5.9,0.9-0.4-0.3
			v0c-18.4,4-39.1-2.1-46.2-22.8c-0.5-1.5-0.9-3-1.2-4.6H238.7z"/>
	</g>
</g>
</svg>
