<?xml version="1.0" encoding="utf-8"?>
<!-- Generator: Adobe Illustrator 17.1.0, SVG Export Plug-In . SVG Version: 6.00 Build 0)  -->
<!DOCTYPE svg PUBLIC "-//W3C//DTD SVG 1.1//EN" "http://www.w3.org/Graphics/SVG/1.1/DTD/svg11.dtd">
<svg version="1.1" id="Layer_1" xmlns="http://www.w3.org/2000/svg" xmlns:xlink="http://www.w3.org/1999/xlink" x="0px" y="0px"
	 viewBox="0 0 816 295" enable-background="new 0 0 816 295" xml:space="preserve">
<g>
	<g>
		<path fill="#FFFFFF" d="M433.4,147c-2.3,5.8-3.9,12-4.4,18.9c-2.5,32.3,23.8,67.7,58.2,67.7c14.1,0,27.6-3.8,38.8-10.7
			c-0.2,1.4-0.4,2.7-0.5,4.1c-0.1,1.1-0.1,2.2-0.1,3.3c-0.5,4.1-0.2,8.3,1,12.5c0.9,4.9,2.3,9.6,4.4,14.3c0.3,0.7,0.6,1.4,0.9,2.1
			c0,0.1,0.1,0.1,0.1,0.2c0,0,0,0,0,0c1.8,3.7,4.3,7,9.2,13.9c3.2,4.5,7.8,7.9,12.4,10.9c9.2,6.1,19.3,9.5,30.2,10.4
			c11.3,0.8,22.1-1.3,32.4-6.2c10.2-5,18.5-12.2,24.8-21.7c2.4-4.8,4.8-9.6,7.1-14.5c1.6-4.8,2.6-9.6,3.1-14.4
			c7.8,4.6,16.2,7.3,25.3,8.1c5-0.3,10-0.5,15-0.8c10.4-2,19.6-6.5,27.6-13.5c11.3-9.9,18.3-24.1,19.4-39c0-0.4,0.7-0.8,0.7-1.1
			c4.5,0.7,9.5,1.5,0.7-0.4v0c29.5,6.5,62.8-3.5,74.2-36.7c0.8-2.4,1.5-4.9,1.9-7.4H433.4z"/>
		<path fill="#FFFFFF" d="M433.4,148c-2.3-5.8-3.9-12-4.4-18.9c-2.5-32.3,23.8-67.7,58.2-67.7c14.1,0,27.6,3.8,38.8,10.7
			c-0.2-1.4-0.4-2.7-0.5-4.1c-0.1-1.1-0.1-2.2-0.1-3.3c-0.5-4.1-0.2-8.3,1-12.5c0.9-4.9,2.3-9.6,4.4-14.3c0.3-0.7,0.6-1.4,0.9-2.1
			c0-0.1,0.1-0.1,0.1-0.2c0,0,0,0,0,0c1.8-3.7,4.3-7,9.2-13.9c3.2-4.5,7.8-7.9,12.4-10.9c9.2-6.1,19.3-9.5,30.2-10.4
			c11.3-0.8,22.1,1.3,32.4,6.2c10.2,5,18.5,12.2,24.8,21.7c2.4,4.8,4.8,9.6,7.1,14.5c1.6,4.8,2.6,9.6,3.1,14.4
			c7.8-4.6,16.2-7.3,25.3-8.1c5,0.3,10,0.5,15,0.8c10.4,2,19.6,6.5,27.6,13.5c11.3,9.9,18.3,24.1,19.4,39c0,0.4,0.7,0.8,0.7,1.1
			c4.5-0.7,9.5-1.5,0.7,0.4v0c29.5-6.5,62.8,3.5,74.2,36.7c0.8,2.4,1.5,4.9,1.9,7.4H433.4z"/>
	</g>
	<g>
		<path fill="#FFFFFF" d="M382.6,148c2.3-5.8,3.9-12,4.4-18.9c2.5-32.3-23.8-67.7-58.2-67.7c-14.1,0-27.6,3.8-38.8,10.7
			c0.2-1.4,0.4-2.7,0.5-4.1c0.1-1.1,0.1-2.2,0.1-3.3c0.5-4.1,0.2-8.3-1-12.5c-0.9-4.9-2.3-9.6-4.4-14.3c-0.3-0.7-0.6-1.4-0.9-2.1
			c0-0.1-0.1-0.1-0.1-0.2c0,0,0,0,0,0c-1.8-3.7-4.3-7-9.2-13.9c-3.2-4.5-7.8-7.9-12.4-10.9c-9.2-6.1-19.3-9.5-30.2-10.4
			c-11.3-0.8-22.1,1.3-32.4,6.2c-10.2,5-18.5,12.2-24.8,21.7c-2.4,4.8-4.8,9.6-7.1,14.5c-1.6,4.8-2.6,9.6-3.1,14.4
			c-7.8-4.6-16.2-7.3-25.3-8.1c-5,0.3-10,0.5-15,0.8c-10.4,2-19.6,6.5-27.6,13.5c-11.3,9.9-18.3,24.1-19.4,39c0,0.4-0.7,0.8-0.7,1.1
			c-4.5-0.7-9.5-1.5-0.7,0.4v0c-29.5-6.5-62.8,3.5-74.2,36.7C1.1,143,0.5,145.5,0,148H382.6z"/>
		<path fill="#FFFFFF" d="M382.6,147c2.3,5.8,3.9,12,4.4,18.9c2.5,32.3-23.8,67.7-58.2,67.7c-14.1,0-27.6-3.8-38.8-10.7
			c0.2,1.4,0.4,2.7,0.5,4.1c0.1,1.1,0.1,2.2,0.1,3.3c0.5,4.1,0.2,8.3-1,12.5c-0.9,4.9-2.3,9.6-4.4,14.3c-0.3,0.7-0.6,1.4-0.9,2.1
			c0,0.1-0.1,0.1-0.1,0.2c0,0,0,0,0,0c-1.8,3.7-4.3,7-9.2,13.9c-3.2,4.5-7.8,7.9-12.4,10.9c-9.2,6.1-19.3,9.5-30.2,10.4
			c-11.3,0.8-22.1-1.3-32.4-6.2c-10.2-5-18.5-12.2-24.8-21.7c-2.4-4.8-4.8-9.6-7.1-14.5c-1.6-4.8-2.6-9.6-3.1-14.4
			c-7.8,4.6-16.2,7.3-25.3,8.1c-5-0.3-10-0.5-15-0.8c-10.4-2-19.6-6.5-27.6-13.5c-11.3-9.9-18.3-24.1-19.4-39c0-0.4-0.7-0.8-0.7-1.1
			c-4.5,0.7-9.5,1.5-0.7-0.4v0c-29.5,6.5-62.8-3.5-74.2-36.7C1.1,152,0.5,149.5,0,147H382.6z"/>
	</g>
</g>
</svg>
