<?xml version="1.0" encoding="utf-8"?>
<!-- Generator: Adobe Illustrator 17.1.0, SVG Export Plug-In . SVG Version: 6.00 Build 0)  -->
<!DOCTYPE svg PUBLIC "-//W3C//DTD SVG 1.1//EN" "http://www.w3.org/Graphics/SVG/1.1/DTD/svg11.dtd">
<svg version="1.1" id="Layer_1" xmlns="http://www.w3.org/2000/svg" xmlns:xlink="http://www.w3.org/1999/xlink" x="0px" y="0px"
	 viewBox="0 0 702 108" enable-background="new 0 0 702 108" xml:space="preserve">
<g>
	<path fill="#8C8C8C" d="M693,18.2H9c-4.9,0-8.9-4-8.9-8.9V9.1c0-4.9,4-8.9,8.9-8.9H693c4.9,0,8.9,4,8.9,8.9v0.2
		C701.9,14.2,697.9,18.2,693,18.2z"/>
	<g>
		<g>
			<path fill="#5E5E5E" d="M105.6,36.1H47.8c-4.9,0-8.9-4-8.9-8.9V27c0-4.9,4-8.9,8.9-8.9h57.8c4.9,0,8.9,4,8.9,8.9v0.2
				C114.4,32.1,110.5,36.1,105.6,36.1z"/>
			<path fill="#444444" d="M105.6,32.1H47.8c-4.2,0-7.8-3-8.7-7c-0.1,0.6-0.2,1.2-0.2,1.9v0.2c0,4.9,4,8.9,8.9,8.9h57.8
				c4.9,0,8.9-4,8.9-8.9V27c0-0.7-0.1-1.3-0.2-1.9C113.4,29.1,109.8,32.1,105.6,32.1z"/>
			<path fill="#5E5E5E" d="M105.6,54H47.8c-4.9,0-8.9-4-8.9-8.9V45c0-4.9,4-8.9,8.9-8.9h57.8c4.9,0,8.9,4,8.9,8.9v0.2
				C114.4,50,110.5,54,105.6,54z"/>
			<path fill="#444444" d="M105.6,50H47.8c-4.2,0-7.8-3-8.7-7c-0.1,0.6-0.2,1.2-0.2,1.9v0.2c0,4.9,4,8.9,8.9,8.9h57.8
				c4.9,0,8.9-4,8.9-8.9V45c0-0.7-0.1-1.3-0.2-1.9C113.4,47,109.8,50,105.6,50z"/>
			<path fill="#5E5E5E" d="M105.6,71.9H47.8c-4.9,0-8.9-4-8.9-8.9v-0.2c0-4.9,4-8.9,8.9-8.9h57.8c4.9,0,8.9,4,8.9,8.9V63
				C114.4,67.9,110.5,71.9,105.6,71.9z"/>
			<path fill="#444444" d="M105.6,67.9H47.8c-4.2,0-7.8-3-8.7-7c-0.1,0.6-0.2,1.2-0.2,1.9V63c0,4.9,4,8.9,8.9,8.9h57.8
				c4.9,0,8.9-4,8.9-8.9v-0.2c0-0.7-0.1-1.3-0.2-1.9C113.4,64.9,109.8,67.9,105.6,67.9z"/>
			<path fill="#5E5E5E" d="M105.6,89.8H47.8c-4.9,0-8.9-4-8.9-8.9v-0.2c0-4.9,4-8.9,8.9-8.9h57.8c4.9,0,8.9,4,8.9,8.9V81
				C114.4,85.9,110.5,89.8,105.6,89.8z"/>
			<path fill="#444444" d="M105.6,85.8H47.8c-4.2,0-7.8-3-8.7-7c-0.1,0.6-0.2,1.2-0.2,1.9V81c0,4.9,4,8.9,8.9,8.9h57.8
				c4.9,0,8.9-4,8.9-8.9v-0.2c0-0.7-0.1-1.3-0.2-1.9C113.4,82.9,109.8,85.8,105.6,85.8z"/>
			<path fill="#5E5E5E" d="M105.6,107.7H47.8c-4.9,0-8.9-4-8.9-8.9v-0.2c0-4.9,4-8.9,8.9-8.9h57.8c4.9,0,8.9,4,8.9,8.9v0.2
				C114.4,103.8,110.5,107.7,105.6,107.7z"/>
			<path fill="#444444" d="M105.6,103.8H47.8c-4.2,0-7.8-3-8.7-7c-0.1,0.6-0.2,1.2-0.2,1.9v0.2c0,4.9,4,8.9,8.9,8.9h57.8
				c4.9,0,8.9-4,8.9-8.9v-0.2c0-0.7-0.1-1.3-0.2-1.9C113.4,100.8,109.8,103.8,105.6,103.8z"/>
		</g>
		<g>
			<path fill="#5E5E5E" d="M644.2,36.1h-57.8c-4.9,0-8.9-4-8.9-8.9V27c0-4.9,4-8.9,8.9-8.9h57.8c4.9,0,8.9,4,8.9,8.9v0.2
				C653.1,32.1,649.1,36.1,644.2,36.1z"/>
			<path fill="#444444" d="M644.2,32.1h-57.8c-4.2,0-7.8-3-8.7-7c-0.1,0.6-0.2,1.2-0.2,1.9v0.2c0,4.9,4,8.9,8.9,8.9h57.8
				c4.9,0,8.9-4,8.9-8.9V27c0-0.7-0.1-1.3-0.2-1.9C652,29.1,648.5,32.1,644.2,32.1z"/>
			<path fill="#5E5E5E" d="M644.2,54h-57.8c-4.9,0-8.9-4-8.9-8.9V45c0-4.9,4-8.9,8.9-8.9h57.8c4.9,0,8.9,4,8.9,8.9v0.2
				C653.1,50,649.1,54,644.2,54z"/>
			<path fill="#444444" d="M644.2,50h-57.8c-4.2,0-7.8-3-8.7-7c-0.1,0.6-0.2,1.2-0.2,1.9v0.2c0,4.9,4,8.9,8.9,8.9h57.8
				c4.9,0,8.9-4,8.9-8.9V45c0-0.7-0.1-1.3-0.2-1.9C652,47,648.5,50,644.2,50z"/>
			<path fill="#5E5E5E" d="M644.2,71.9h-57.8c-4.9,0-8.9-4-8.9-8.9v-0.2c0-4.9,4-8.9,8.9-8.9h57.8c4.9,0,8.9,4,8.9,8.9V63
				C653.1,67.9,649.1,71.9,644.2,71.9z"/>
			<path fill="#444444" d="M644.2,67.9h-57.8c-4.2,0-7.8-3-8.7-7c-0.1,0.6-0.2,1.2-0.2,1.9V63c0,4.9,4,8.9,8.9,8.9h57.8
				c4.9,0,8.9-4,8.9-8.9v-0.2c0-0.7-0.1-1.3-0.2-1.9C652,64.9,648.5,67.9,644.2,67.9z"/>
			<path fill="#5E5E5E" d="M644.2,89.8h-57.8c-4.9,0-8.9-4-8.9-8.9v-0.2c0-4.9,4-8.9,8.9-8.9h57.8c4.9,0,8.9,4,8.9,8.9V81
				C653.1,85.9,649.1,89.8,644.2,89.8z"/>
			<path fill="#444444" d="M644.2,85.8h-57.8c-4.2,0-7.8-3-8.7-7c-0.1,0.6-0.2,1.2-0.2,1.9V81c0,4.9,4,8.9,8.9,8.9h57.8
				c4.9,0,8.9-4,8.9-8.9v-0.2c0-0.7-0.1-1.3-0.2-1.9C652,82.9,648.5,85.8,644.2,85.8z"/>
			<path fill="#5E5E5E" d="M644.2,107.7h-57.8c-4.9,0-8.9-4-8.9-8.9v-0.2c0-4.9,4-8.9,8.9-8.9h57.8c4.9,0,8.9,4,8.9,8.9v0.2
				C653.1,103.8,649.1,107.7,644.2,107.7z"/>
			<path fill="#444444" d="M644.2,103.8h-57.8c-4.2,0-7.8-3-8.7-7c-0.1,0.6-0.2,1.2-0.2,1.9v0.2c0,4.9,4,8.9,8.9,8.9h57.8
				c4.9,0,8.9-4,8.9-8.9v-0.2c0-0.7-0.1-1.3-0.2-1.9C652,100.8,648.5,103.8,644.2,103.8z"/>
		</g>
	</g>
</g>
</svg>
