<?xml version="1.0" encoding="utf-8"?>
<!-- Generator: Adobe Illustrator 17.1.0, SVG Export Plug-In . SVG Version: 6.00 Build 0)  -->
<!DOCTYPE svg PUBLIC "-//W3C//DTD SVG 1.1//EN" "http://www.w3.org/Graphics/SVG/1.1/DTD/svg11.dtd">
<svg version="1.1" id="Layer_1" xmlns="http://www.w3.org/2000/svg" xmlns:xlink="http://www.w3.org/1999/xlink" x="0px" y="0px"
	 viewBox="0 0 1280 9148" enable-background="new 0 0 1280 9148" xml:space="preserve">
<g>
	<rect y="-40" opacity="0.7" fill="#363445" width="1275" height="9143"/>
	
		<radialGradient id="SVGID_2_" cx="1749.755" cy="4681.1396" r="400.0341" gradientTransform="matrix(1.5998 0 0 11.4346 -2159.2373 -48994.7891)" gradientUnits="userSpaceOnUse">
		<stop  offset="0" style="stop-color:#347A91"/>
		<stop  offset="1" style="stop-color:#000000"/>
	</radialGradient>
	<rect y="-42" fill="url(#SVGID_2_)" width="1280" height="9148"/>
</g>
<rect y="-42" opacity="0.7" fill="#363445" width="1275" height="9228"/>
<radialGradient id="SVGID_4_" cx="1749.755" cy="4690.2876" r="400.0429" gradientTransform="matrix(1.5998 0 0 11.5378 -2159.2373 -49542.1133)" gradientUnits="userSpaceOnUse">
	<stop  offset="0" style="stop-color:#347A91"/>
	<stop  offset="1" style="stop-color:#000000"/>
</radialGradient>
<rect y="-42" fill="url(#SVGID_4_)" width="1280" height="9231"/>
<circle opacity="0.7" fill="#FFFFFF" cx="110.1" cy="562.5" r="2.5"/>
<circle opacity="0.7" fill="#FFFFFF" cx="621.9" cy="952.5" r="2.5"/>
<circle opacity="0.7" fill="#FFFFFF" cx="1169.9" cy="812" r="2.5"/>
<circle opacity="0.7" fill="#FFFFFF" cx="495.5" cy="782" r="2.5"/>
<circle opacity="0.7" fill="#FFFFFF" cx="1006.7" cy="1002.6" r="2.5"/>
<circle opacity="0.7" fill="#FFFFFF" cx="836.2" cy="615.4" r="2.5"/>
<circle opacity="0.7" fill="#FFFFFF" cx="501.1" cy="554.9" r="2.5"/>
<circle opacity="0.7" fill="#FFFFFF" cx="366.6" cy="926.4" r="5.1"/>
<circle opacity="0.7" fill="#FFFFFF" cx="1117" cy="621.9" r="5.1"/>
<circle opacity="0.7" fill="#FFFFFF" cx="267.6" cy="740.1" r="5.1"/>
<circle opacity="0.7" fill="#FFFFFF" cx="272.7" cy="1055.9" r="5.1"/>
<circle opacity="0.7" fill="#FFFFFF" cx="116.5" cy="897.9" r="5.1"/>
<circle opacity="0.7" fill="#FFFFFF" cx="932.3" cy="812" r="5.1"/>
<circle opacity="0.7" fill="#FFFFFF" cx="1158.1" cy="1081.9" r="5.1"/>
<circle opacity="0.7" fill="#FFFFFF" cx="977.3" cy="2190.2" r="2.5"/>
<circle opacity="0.7" fill="#FFFFFF" cx="719.3" cy="1600.7" r="2.5"/>
<circle opacity="0.7" fill="#FFFFFF" cx="172" cy="1457.4" r="2.5"/>
<circle opacity="0.7" fill="#FFFFFF" cx="747" cy="1811.1" r="2.5"/>
<circle opacity="0.7" fill="#FFFFFF" cx="407.2" cy="1370" r="2.5"/>
<circle opacity="0.7" fill="#FFFFFF" cx="368.3" cy="1791.2" r="2.5"/>
<circle opacity="0.7" fill="#FFFFFF" cx="929.9" cy="1747.4" r="5.1"/>
<circle opacity="0.7" fill="#FFFFFF" cx="126" cy="1649.2" r="5.1"/>
<circle opacity="0.7" fill="#FFFFFF" cx="925.9" cy="1958.4" r="5.1"/>
<circle opacity="0.7" fill="#FFFFFF" cx="1074.8" cy="1679.8" r="5.1"/>
<circle opacity="0.7" fill="#FFFFFF" cx="1134.7" cy="1893.8" r="5.1"/>
<circle opacity="0.7" fill="#FFFFFF" cx="379.7" cy="1572.7" r="5.1"/>
<circle opacity="0.7" fill="#FFFFFF" cx="313.4" cy="1227.1" r="5.1"/>
<circle opacity="0.7" fill="#FFFFFF" cx="110.1" cy="1989.3" r="2.5"/>
<circle opacity="0.7" fill="#FFFFFF" cx="1169.9" cy="2238.8" r="2.5"/>
<circle opacity="0.7" fill="#FFFFFF" cx="495.5" cy="2208.8" r="2.5"/>
<circle opacity="0.7" fill="#FFFFFF" cx="1006.7" cy="2429.4" r="2.5"/>
<circle opacity="0.7" fill="#FFFFFF" cx="836.2" cy="2042.2" r="2.5"/>
<circle opacity="0.7" fill="#FFFFFF" cx="366.6" cy="2353.3" r="5.1"/>
<circle opacity="0.7" fill="#FFFFFF" cx="1117" cy="2048.7" r="5.1"/>
<circle opacity="0.7" fill="#FFFFFF" cx="267.6" cy="2166.9" r="5.1"/>
<circle opacity="0.7" fill="#FFFFFF" cx="116.5" cy="2324.7" r="5.1"/>
<circle opacity="0.7" fill="#FFFFFF" cx="932.3" cy="2238.8" r="5.1"/>
<circle opacity="0.7" fill="#FFFFFF" cx="1158.1" cy="2508.7" r="5.1"/>
<circle opacity="0.7" fill="#FFFFFF" cx="977.3" cy="3617" r="2.5"/>
<circle opacity="0.7" fill="#FFFFFF" cx="719.3" cy="3027.5" r="2.5"/>
<circle opacity="0.7" fill="#FFFFFF" cx="172" cy="2884.2" r="2.5"/>
<circle opacity="0.7" fill="#FFFFFF" cx="407.2" cy="2796.8" r="2.5"/>
<circle opacity="0.7" fill="#FFFFFF" cx="368.3" cy="3218" r="2.5"/>
<circle opacity="0.7" fill="#FFFFFF" cx="631.8" cy="3433.7" r="2.5"/>
<circle opacity="0.7" fill="#FFFFFF" cx="929.9" cy="3174.2" r="5.1"/>
<circle opacity="0.7" fill="#FFFFFF" cx="126" cy="3076" r="5.1"/>
<circle opacity="0.7" fill="#FFFFFF" cx="1074.8" cy="3106.6" r="5.1"/>
<circle opacity="0.7" fill="#FFFFFF" cx="1134.7" cy="3320.6" r="5.1"/>
<circle opacity="0.7" fill="#FFFFFF" cx="379.7" cy="2999.5" r="5.1"/>
<circle opacity="0.7" fill="#FFFFFF" cx="977.3" cy="4373.6" r="2.5"/>
<circle opacity="0.7" fill="#FFFFFF" cx="719.3" cy="3784.1" r="2.5"/>
<circle opacity="0.7" fill="#FFFFFF" cx="172" cy="3640.8" r="2.5"/>
<circle opacity="0.7" fill="#FFFFFF" cx="747" cy="3994.5" r="2.5"/>
<circle opacity="0.7" fill="#FFFFFF" cx="407.2" cy="3553.4" r="2.5"/>
<circle opacity="0.7" fill="#FFFFFF" cx="631.8" cy="4190.3" r="2.5"/>
<circle opacity="0.7" fill="#FFFFFF" cx="929.9" cy="3930.9" r="5.1"/>
<circle opacity="0.7" fill="#FFFFFF" cx="126" cy="3832.7" r="5.1"/>
<circle opacity="0.7" fill="#FFFFFF" cx="925.9" cy="4141.8" r="5.1"/>
<circle opacity="0.7" fill="#FFFFFF" cx="1074.8" cy="3863.2" r="5.1"/>
<circle opacity="0.7" fill="#FFFFFF" cx="1134.7" cy="4077.2" r="5.1"/>
<circle opacity="0.7" fill="#FFFFFF" cx="379.7" cy="3756.1" r="5.1"/>
<circle opacity="0.7" fill="#FFFFFF" cx="313.4" cy="3410.6" r="5.1"/>
<circle opacity="0.7" fill="#FFFFFF" cx="621.9" cy="4562.7" r="2.5"/>
<circle opacity="0.7" fill="#FFFFFF" cx="1169.9" cy="4422.2" r="2.5"/>
<circle opacity="0.7" fill="#FFFFFF" cx="1006.7" cy="4612.9" r="2.5"/>
<circle opacity="0.7" fill="#FFFFFF" cx="836.2" cy="4225.7" r="2.5"/>
<circle opacity="0.7" fill="#FFFFFF" cx="366.6" cy="4536.7" r="5.1"/>
<circle opacity="0.7" fill="#FFFFFF" cx="1117" cy="4232.1" r="5.1"/>
<circle opacity="0.7" fill="#FFFFFF" cx="272.7" cy="4666.2" r="5.1"/>
<circle opacity="0.7" fill="#FFFFFF" cx="116.5" cy="4508.2" r="5.1"/>
<circle opacity="0.7" fill="#FFFFFF" cx="932.3" cy="4422.2" r="5.1"/>
<circle opacity="0.7" fill="#FFFFFF" cx="1158.1" cy="4692.1" r="5.1"/>
<circle opacity="0.7" fill="#FFFFFF" cx="977.3" cy="5800.4" r="2.5"/>
<circle opacity="0.7" fill="#FFFFFF" cx="172" cy="5067.6" r="2.5"/>
<circle opacity="0.7" fill="#FFFFFF" cx="407.2" cy="4980.2" r="2.5"/>
<circle opacity="0.7" fill="#FFFFFF" cx="368.3" cy="5401.5" r="2.5"/>
<circle opacity="0.7" fill="#FFFFFF" cx="631.8" cy="5617.1" r="2.5"/>
<circle opacity="0.7" fill="#FFFFFF" cx="929.9" cy="5357.7" r="5.1"/>
<circle opacity="0.7" fill="#FFFFFF" cx="126" cy="5259.5" r="5.1"/>
<circle opacity="0.7" fill="#FFFFFF" cx="925.9" cy="5568.6" r="5.1"/>
<circle opacity="0.7" fill="#FFFFFF" cx="1074.8" cy="5290" r="5.1"/>
<circle opacity="0.7" fill="#FFFFFF" cx="1134.7" cy="5504" r="5.1"/>
<circle opacity="0.7" fill="#FFFFFF" cx="379.7" cy="5183" r="5.1"/>
<circle opacity="0.7" fill="#FFFFFF" cx="313.4" cy="4837.4" r="5.1"/>
<circle opacity="0.7" fill="#FFFFFF" cx="977.3" cy="6519.2" r="2.5"/>
<circle opacity="0.7" fill="#FFFFFF" cx="719.3" cy="5929.7" r="2.5"/>
<circle opacity="0.7" fill="#FFFFFF" cx="172" cy="5786.4" r="2.5"/>
<circle opacity="0.7" fill="#FFFFFF" cx="747" cy="6140.2" r="2.5"/>
<circle opacity="0.7" fill="#FFFFFF" cx="407.2" cy="5699" r="2.5"/>
<circle opacity="0.7" fill="#FFFFFF" cx="368.3" cy="6120.3" r="2.5"/>
<circle opacity="0.7" fill="#FFFFFF" cx="631.8" cy="6336" r="2.5"/>
<circle opacity="0.7" fill="#FFFFFF" cx="929.9" cy="6076.5" r="5.1"/>
<circle opacity="0.7" fill="#FFFFFF" cx="126" cy="5978.3" r="5.1"/>
<circle opacity="0.7" fill="#FFFFFF" cx="925.9" cy="6287.5" r="5.1"/>
<circle opacity="0.7" fill="#FFFFFF" cx="1074.8" cy="6008.9" r="5.1"/>
<circle opacity="0.7" fill="#FFFFFF" cx="1134.7" cy="6222.9" r="5.1"/>
<circle opacity="0.7" fill="#FFFFFF" cx="379.7" cy="5901.8" r="5.1"/>
<circle opacity="0.7" fill="#FFFFFF" cx="313.4" cy="5556.2" r="5.1"/>
<circle opacity="0.7" fill="#FFFFFF" cx="110.1" cy="6318.3" r="2.5"/>
<circle opacity="0.7" fill="#FFFFFF" cx="621.9" cy="6708.4" r="2.5"/>
<circle opacity="0.7" fill="#FFFFFF" cx="1169.9" cy="6567.9" r="2.5"/>
<circle opacity="0.7" fill="#FFFFFF" cx="495.5" cy="6537.9" r="2.5"/>
<circle opacity="0.7" fill="#FFFFFF" cx="1006.7" cy="6758.5" r="2.5"/>
<circle opacity="0.7" fill="#FFFFFF" cx="836.2" cy="6371.3" r="2.5"/>
<circle opacity="0.7" fill="#FFFFFF" cx="366.6" cy="6682.3" r="5.1"/>
<circle opacity="0.7" fill="#FFFFFF" cx="1117" cy="6377.8" r="5.1"/>
<circle opacity="0.7" fill="#FFFFFF" cx="267.6" cy="6495.9" r="5.1"/>
<circle opacity="0.7" fill="#FFFFFF" cx="272.7" cy="6811.8" r="5.1"/>
<circle opacity="0.7" fill="#FFFFFF" cx="116.5" cy="6653.8" r="5.1"/>
<circle opacity="0.7" fill="#FFFFFF" cx="932.3" cy="6567.9" r="5.1"/>
<circle opacity="0.7" fill="#FFFFFF" cx="1158.1" cy="6837.8" r="5.1"/>
<circle opacity="0.7" fill="#FFFFFF" cx="977.3" cy="7946" r="2.5"/>
<circle opacity="0.7" fill="#FFFFFF" cx="719.3" cy="7356.6" r="2.5"/>
<circle opacity="0.7" fill="#FFFFFF" cx="172" cy="7213.2" r="2.5"/>
<circle opacity="0.7" fill="#FFFFFF" cx="407.2" cy="7125.8" r="2.5"/>
<circle opacity="0.7" fill="#FFFFFF" cx="368.3" cy="7547.1" r="2.5"/>
<circle opacity="0.7" fill="#FFFFFF" cx="126" cy="7405.1" r="5.1"/>
<circle opacity="0.7" fill="#FFFFFF" cx="1074.8" cy="7435.7" r="5.1"/>
<circle opacity="0.7" fill="#FFFFFF" cx="1134.7" cy="7649.7" r="5.1"/>
<circle opacity="0.7" fill="#FFFFFF" cx="379.7" cy="7328.6" r="5.1"/>
<circle opacity="0.7" fill="#FFFFFF" cx="977.3" cy="8607.2" r="2.5"/>
<circle opacity="0.7" fill="#FFFFFF" cx="719.3" cy="8017.7" r="2.5"/>
<circle opacity="0.7" fill="#FFFFFF" cx="172" cy="7874.3" r="2.5"/>
<circle opacity="0.7" fill="#FFFFFF" cx="407.2" cy="7786.9" r="2.5"/>
<circle opacity="0.7" fill="#FFFFFF" cx="368.3" cy="8208.2" r="2.5"/>
<circle opacity="0.7" fill="#FFFFFF" cx="929.9" cy="8164.4" r="5.1"/>
<circle opacity="0.7" fill="#FFFFFF" cx="126" cy="8066.2" r="5.1"/>
<circle opacity="0.7" fill="#FFFFFF" cx="925.9" cy="8375.4" r="5.1"/>
<circle opacity="0.7" fill="#FFFFFF" cx="1074.8" cy="8096.8" r="5.1"/>
<circle opacity="0.7" fill="#FFFFFF" cx="1134.7" cy="8310.8" r="5.1"/>
<circle opacity="0.7" fill="#FFFFFF" cx="379.7" cy="7989.7" r="5.1"/>
<circle opacity="0.7" fill="#FFFFFF" cx="313.4" cy="7644.1" r="5.1"/>
<g>
	<circle fill="#FFFFFF" cx="631.8" cy="2006.9" r="2.5"/>
	<circle fill="#FFFFFF" cx="621.9" cy="2379.3" r="2.5"/>
	<circle fill="#FFFFFF" cx="501.1" cy="1981.7" r="2.5"/>
	<circle fill="#FFFFFF" cx="272.7" cy="2482.8" r="5.1"/>
	<circle fill="#FFFFFF" cx="747" cy="3237.9" r="2.5"/>
	<circle fill="#FFFFFF" cx="925.9" cy="3385.2" r="5.1"/>
	<circle fill="#FFFFFF" cx="313.4" cy="2654" r="5.1"/>
	<circle fill="#FFFFFF" cx="368.3" cy="3974.7" r="2.5"/>
	<circle fill="#FFFFFF" cx="110.1" cy="4172.7" r="2.5"/>
	<circle fill="#FFFFFF" cx="495.5" cy="4392.2" r="2.5"/>
	<circle fill="#FFFFFF" cx="501.1" cy="4165.1" r="2.5"/>
	<circle fill="#FFFFFF" cx="267.6" cy="4350.3" r="5.1"/>
	<circle fill="#FFFFFF" cx="719.3" cy="5210.9" r="2.5"/>
	<circle fill="#FFFFFF" cx="747" cy="5421.3" r="2.5"/>
	<circle fill="#FFFFFF" cx="501.1" cy="6310.8" r="2.5"/>
	<circle fill="#FFFFFF" cx="747" cy="7567" r="2.5"/>
	<circle fill="#FFFFFF" cx="631.8" cy="7762.8" r="2.5"/>
	<circle fill="#FFFFFF" cx="929.9" cy="7503.3" r="5.1"/>
	<circle fill="#FFFFFF" cx="925.9" cy="7714.3" r="5.1"/>
	<circle fill="#FFFFFF" cx="313.4" cy="6983" r="5.1"/>
	<circle fill="#FFFFFF" cx="747" cy="8228.1" r="2.5"/>
	<circle fill="#FFFFFF" cx="631.8" cy="8423.9" r="2.5"/>
</g>
</svg>
