<?xml version="1.0" encoding="utf-8"?>
<!-- Generator: Adobe Illustrator 17.1.0, SVG Export Plug-In . SVG Version: 6.00 Build 0)  -->
<!DOCTYPE svg PUBLIC "-//W3C//DTD SVG 1.1//EN" "http://www.w3.org/Graphics/SVG/1.1/DTD/svg11.dtd">
<svg version="1.1" id="Layer_1" xmlns="http://www.w3.org/2000/svg" xmlns:xlink="http://www.w3.org/1999/xlink" x="0px" y="0px"
	 viewBox="0 0 457 217" enable-background="new 0 0 457 217" xml:space="preserve">
<g>
	<path fill="#B2B2B2" d="M8.9,106.9h439.1c4.4,0,8.2-3.2,8.8-7.6c0.6-4.4-2-8.6-6.3-9.8c-25.1-7.5-74-17.9-129.8-24.2
		C307.1,26.5,270.2,0,228.6,0h-0.1c0,0,0,0-0.1,0c-41.6,0-78.5,26.5-92.2,65.2C80.5,71.5,31.5,81.9,6.4,89.4
		c-4.2,1.3-6.9,5.5-6.3,9.8C0.7,103.6,4.5,106.9,8.9,106.9z"/>
	<path fill="#8C8C8C" d="M448,118.7H9c-3.6,0-6.9,2.2-8.2,5.5c-1.4,3.3-0.6,7.2,1.9,9.7c38,38.2,119.8,82.9,225.5,82.9h0.6
		c105.7,0,187.6-44.6,225.5-82.9c2.5-2.6,3.3-6.4,1.9-9.7C454.9,120.9,451.6,118.7,448,118.7z"/>
	<path fill="#A3DAE3" d="M228.6,11.9c36.6,0,69.1,23.3,81.1,57.3c-13,2.6-44.9,8-81.1,8s-68.1-5.5-81.1-8
		C159.5,35.2,192,11.9,228.6,11.9z"/>
	<path fill="#DE7E2B" d="M444.1,119H14.9c-3.3,0-6-2.7-6-6v-0.1c0-3.3,2.7-6,6-6h429.2c3.3,0,6,2.7,6,6v0.1
		C450.1,116.3,447.4,119,444.1,119z"/>
	<path fill="#E6E6E6" d="M137.8,160.3c0-6.8,5.5-12.4,12.4-12.4s12.4,5.5,12.4,12.4s-5.5,12.4-12.4,12.4S137.8,167.1,137.8,160.3z"
		/>
	<path fill="#E6E6E6" d="M216.1,160.3c0-6.8,5.5-12.4,12.4-12.4c6.8,0,12.4,5.5,12.4,12.4s-5.5,12.4-12.4,12.4
		C221.7,172.7,216.1,167.1,216.1,160.3z"/>
	<path fill="#E6E6E6" d="M306.3,172.7c-6.8,0-12.4-5.5-12.4-12.4s5.5-12.4,12.4-12.4s12.4,5.5,12.4,12.4S313.1,172.7,306.3,172.7z"
		/>
	<path fill="#E6E6E6" d="M228.5,17.5c0,0-49.3,2.4-69,45.9c0,0-0.9,2.8,4.6,3.1S204.8,40,220.8,40S250.1,16,228.5,17.5z"/>
</g>
</svg>
