<?xml version="1.0" encoding="utf-8"?>
<!-- Generator: Adobe Illustrator 17.1.0, SVG Export Plug-In . SVG Version: 6.00 Build 0)  -->
<!DOCTYPE svg PUBLIC "-//W3C//DTD SVG 1.1//EN" "http://www.w3.org/Graphics/SVG/1.1/DTD/svg11.dtd">
<svg version="1.1" id="Layer_1" xmlns="http://www.w3.org/2000/svg" xmlns:xlink="http://www.w3.org/1999/xlink" x="0px" y="0px"
	 viewBox="0 0 288 151" enable-background="new 0 0 288 151" xml:space="preserve">
<g opacity="0.3">
	<g>
		<path fill="#133D60" d="M209.9,103c-18.3,27.6-48.5,41.2-74,26.3c-26.9-14.9-43-48.2-25.8-75.9c17.4-28.2,45.7-40.8,72.1-25.3
			C210,43.7,228,75.9,209.9,103z"/>
		<path fill="#133D60" d="M150.5,98.3c-22.8-11.6-35.2-36-29-59.7c-4.3,4.3-8.3,9.3-11.4,14.9c-17.1,27.7-1.1,61,25.8,75.9
			c25.5,14.9,55.7,1.2,74-26.3c3.2-5.2,5.3-10.5,6.4-15.9C198.3,103.6,172.5,109.7,150.5,98.3z"/>
		<path fill="#133D60" d="M216.5,88.9c-0.3-0.2-0.7-0.4-1-0.6c-0.1,0.4-0.2,0.7-0.3,1.1c-0.1,0.3-0.2,0.6-0.3,0.9
			c-0.1,0.2-0.1,0.4-0.2,0.6c0,0,0,0,0,0c-0.1,0.3-0.2,0.6-0.3,0.9c0,0,0,0,0,0c-0.3,0.8-0.5,1.5-0.8,2.3c-0.1,0.2-0.2,0.4-0.2,0.6
			c0.2,0.1,0.3,0.2,0.5,0.3c13.2,9.2,15.7,14.1,14.5,16c-0.5,0.8-2.1,1.3-4.3,1.4c0,0,0,0,0,0c-11.1,0.9-39.2-8.8-71.9-25.3
			C132.3,77,114,66.5,102,57.8c-13.4-9.6-15.9-14.7-14.6-16.6c0.5-0.8,2-1.3,4.2-1.4c5-0.3,13.2,1.4,24.4,5.3
			c0.2,0.1,0.4,0.1,0.6,0.2c0.1-0.2,0.3-0.3,0.4-0.5c0.5-0.6,1-1.2,1.5-1.8c0,0,0-0.1,0.1-0.1c0.3-0.4,0.6-0.7,0.9-1.1
			c0.3-0.3,0.6-0.6,0.8-0.9c0,0,0,0,0,0c0.2-0.2,0.4-0.4,0.6-0.6c-0.4-0.1-0.7-0.3-1.1-0.4c-20.8-8.4-35-11.6-43.3-10.7
			c-3.5,0.4-5.9,1.4-7.4,3.2c-3.5,4.4,0.7,11.2,16.4,22.4c14.8,10.6,38.6,24.2,64.3,37.1c43.2,21.9,75.8,32.8,89.9,30.8c0,0,0,0,0,0
			c3.6-0.4,6.1-1.4,7.6-3.1C253.8,112.7,232.3,98.6,216.5,88.9z M241.4,111.3c0.1,0.1,0.1,0.2,0.2,0.2c0.1,0.1,0.2,0.3,0.3,0.4
			c0.1,0.1,0.1,0.2,0.2,0.2c0.1,0.1,0.2,0.3,0.2,0.4c0,0.1,0.1,0.1,0.1,0.2c0.1,0.2,0.2,0.4,0.3,0.5c0,0,0,0,0,0
			c0.1,0.2,0.2,0.4,0.2,0.5c0,0.1,0,0.1,0.1,0.2c0,0.1,0.1,0.2,0.1,0.3c0,0.1,0,0.1,0.1,0.2c0,0.1,0.1,0.2,0.1,0.3
			c0,0.1,0,0.1,0,0.2c0,0.1,0,0.2,0.1,0.3c0,0,0,0.1,0,0.1c0,0.1,0,0.3,0,0.4c0,0,0,0,0,0c0,0.1,0,0.3,0,0.4c0,0,0,0.1,0,0.1
			c0,0.1,0,0.2,0,0.2c0,0,0,0.1,0,0.1c0,0.1,0,0.1-0.1,0.2c0,0,0,0.1,0,0.1c0,0.1-0.1,0.1-0.1,0.2c0,0,0,0.1,0,0.1
			c-0.1,0.1-0.1,0.2-0.2,0.3c-0.8,1-2.7,1.7-5.5,2c-0.4,0-0.8,0.1-1.2,0.1c-0.1,0-0.2,0-0.4,0c-0.3,0-0.6,0-1,0c-0.1,0-0.2,0-0.4,0
			c-0.4,0-0.9,0-1.4,0c-0.1,0-0.2,0-0.3,0c-0.4,0-0.8,0-1.2-0.1c-0.2,0-0.3,0-0.5,0c-0.4,0-0.8-0.1-1.2-0.1c-0.1,0-0.2,0-0.4,0
			c-0.5-0.1-1.1-0.1-1.6-0.2c-0.2,0-0.3,0-0.5-0.1c-0.4-0.1-0.8-0.1-1.3-0.2c-0.2,0-0.4-0.1-0.6-0.1c-0.5-0.1-1-0.2-1.6-0.3
			c-0.1,0-0.2,0-0.3-0.1c-0.6-0.1-1.2-0.2-1.8-0.4c-0.2,0-0.4-0.1-0.6-0.1c-0.5-0.1-0.9-0.2-1.4-0.3c-0.2-0.1-0.4-0.1-0.6-0.2
			c-0.6-0.2-1.3-0.3-2-0.5c-0.2,0-0.3-0.1-0.5-0.1c-0.4-0.1-0.7-0.2-1.1-0.3c0.1,0,0.3,0.1,0.4,0.1c0.5,0.1,1,0.2,1.5,0.3
			c0.3,0.1,0.6,0.1,0.8,0.2c0.5,0.1,1,0.2,1.4,0.3c0.2,0,0.5,0.1,0.7,0.1c0.6,0.1,1.3,0.2,1.9,0.3c0.1,0,0.1,0,0.2,0
			c0.7,0.1,1.3,0.2,1.9,0.3c0.2,0,0.4,0,0.6,0.1c0.4,0,0.8,0.1,1.2,0.1c0.2,0,0.4,0,0.6,0c0.4,0,0.7,0,1.1,0.1c0.2,0,0.4,0,0.6,0
			c0.4,0,0.7,0,1.1,0c0.2,0,0.3,0,0.5,0c0.5,0,1,0,1.4-0.1c3.3-0.3,5.5-1.2,6.7-2.8c0.1-0.2,0.2-0.3,0.3-0.5c0,0,0.1-0.1,0.1-0.1
			c0.1-0.1,0.1-0.3,0.2-0.4c0,0,0-0.1,0.1-0.1c0.1-0.2,0.1-0.3,0.1-0.5c0,0,0-0.1,0-0.1c0-0.1,0-0.3,0.1-0.4c0-0.1,0-0.1,0-0.2
			c0-0.1,0-0.3,0-0.4c0,0,0-0.1,0-0.1c0-0.2-0.1-0.4-0.1-0.6c0,0,0-0.1,0-0.1c0-0.2-0.1-0.3-0.1-0.5c0-0.1,0-0.1-0.1-0.2
			c-0.1-0.2-0.1-0.4-0.2-0.6c0,0,0,0,0,0c-0.1-0.2-0.2-0.4-0.3-0.6c0-0.1-0.1-0.1-0.1-0.2c-0.1-0.2-0.2-0.3-0.3-0.5
			c0-0.1-0.1-0.1-0.1-0.2c-0.1-0.2-0.3-0.4-0.4-0.7c0,0,0,0,0-0.1c-0.1-0.2-0.3-0.4-0.5-0.6c0-0.1-0.1-0.1-0.1-0.2
			c-0.1-0.2-0.3-0.4-0.5-0.6c0,0-0.1-0.1-0.1-0.1c-0.2-0.2-0.4-0.5-0.6-0.7c0,0-0.1-0.1-0.1-0.1c-0.2-0.2-0.4-0.4-0.6-0.6
			c-0.1-0.1-0.1-0.1-0.2-0.2c-0.2-0.2-0.4-0.4-0.7-0.6c0,0-0.1-0.1-0.1-0.1c-0.3-0.2-0.5-0.5-0.8-0.7c-0.1-0.1-0.1-0.1-0.2-0.2
			c-0.2-0.2-0.4-0.4-0.7-0.6c-0.1-0.1-0.2-0.1-0.2-0.2c-0.3-0.3-0.6-0.5-0.9-0.8c0,0,0,0,0,0c-0.3-0.2-0.6-0.5-0.9-0.8
			c-0.1-0.1-0.2-0.1-0.3-0.2c-0.2-0.2-0.5-0.4-0.7-0.6c-0.1-0.1-0.2-0.1-0.3-0.2c-0.3-0.3-0.7-0.5-1-0.8c-0.1,0-0.1-0.1-0.2-0.1
			c-0.3-0.2-0.6-0.4-0.9-0.6c-0.1-0.1-0.2-0.2-0.3-0.2c-0.1-0.1-0.1-0.1-0.2-0.2c0.2,0.1,0.4,0.3,0.6,0.4c0.2,0.1,0.4,0.3,0.6,0.4
			c0.4,0.3,0.9,0.6,1.3,0.9c0.1,0.1,0.2,0.1,0.2,0.2c0.5,0.3,0.9,0.7,1.4,1c0.2,0.1,0.3,0.2,0.5,0.4c0.3,0.2,0.6,0.4,0.9,0.7
			c0.2,0.1,0.3,0.3,0.5,0.4c0.3,0.2,0.5,0.4,0.8,0.6c0.2,0.1,0.3,0.2,0.5,0.4c0.3,0.2,0.5,0.4,0.8,0.6c0.1,0.1,0.3,0.2,0.4,0.3
			c0.3,0.3,0.7,0.6,1,0.8c0,0,0,0,0.1,0.1c0.3,0.3,0.7,0.6,1,0.9c0.1,0.1,0.2,0.2,0.3,0.3c0.2,0.2,0.4,0.4,0.6,0.6
			c0.1,0.1,0.2,0.2,0.3,0.3c0.2,0.2,0.4,0.3,0.5,0.5c0.1,0.1,0.2,0.2,0.3,0.3c0.2,0.2,0.3,0.3,0.5,0.5c0.1,0.1,0.2,0.2,0.2,0.2
			c0.2,0.2,0.4,0.5,0.6,0.7c0,0,0,0,0,0c0.2,0.2,0.4,0.5,0.6,0.7c0.1,0.1,0.1,0.1,0.2,0.2C241.2,111,241.3,111.2,241.4,111.3z
			 M87.9,53c-0.3-0.2-0.5-0.4-0.8-0.6c-0.2-0.1-0.4-0.3-0.6-0.4c-0.3-0.2-0.5-0.4-0.8-0.6c-0.2-0.1-0.3-0.3-0.5-0.4
			c-0.2-0.2-0.5-0.4-0.7-0.6c-0.2-0.1-0.3-0.3-0.5-0.4c-0.2-0.2-0.4-0.4-0.7-0.5c-0.2-0.1-0.3-0.3-0.5-0.4c-0.2-0.2-0.4-0.3-0.6-0.5
			c-0.2-0.1-0.3-0.3-0.5-0.4c-0.2-0.2-0.3-0.3-0.5-0.4c-0.2-0.1-0.3-0.3-0.5-0.4c-0.2-0.1-0.3-0.3-0.5-0.4c-0.2-0.1-0.3-0.3-0.5-0.4
			c-0.1-0.1-0.3-0.3-0.4-0.4c-0.1-0.1-0.3-0.3-0.4-0.4c-0.1-0.1-0.3-0.3-0.4-0.4c-0.1-0.1-0.3-0.3-0.4-0.4c-0.1-0.1-0.2-0.2-0.3-0.4
			c-0.1-0.1-0.3-0.3-0.4-0.4c-0.1-0.1-0.2-0.2-0.3-0.3c-0.1-0.1-0.2-0.2-0.3-0.4c-0.1-0.1-0.2-0.2-0.3-0.3c-0.1-0.1-0.2-0.2-0.3-0.3
			c-0.1-0.1-0.2-0.2-0.3-0.3c-0.1-0.1-0.2-0.2-0.3-0.3c-0.1-0.1-0.2-0.2-0.2-0.3c-0.1-0.1-0.2-0.2-0.3-0.3c-0.1-0.1-0.1-0.2-0.2-0.3
			c-0.1-0.1-0.2-0.2-0.2-0.3c-0.1-0.1-0.1-0.2-0.2-0.3c-0.1-0.1-0.1-0.2-0.2-0.3c-0.1-0.1-0.1-0.2-0.2-0.3c-0.1-0.1-0.1-0.2-0.2-0.3
			c-0.1-0.1-0.1-0.2-0.1-0.2c-0.1-0.1-0.1-0.2-0.2-0.3c0-0.1-0.1-0.2-0.1-0.2c0-0.1-0.1-0.2-0.1-0.3c0-0.1-0.1-0.2-0.1-0.2
			c0-0.1-0.1-0.2-0.1-0.2c0-0.1-0.1-0.2-0.1-0.2c0-0.1-0.1-0.2-0.1-0.2c0-0.1,0-0.1-0.1-0.2c0-0.1,0-0.1-0.1-0.2c0-0.1,0-0.1,0-0.2
			c0-0.1,0-0.1,0-0.2c0-0.1,0-0.1,0-0.2c0-0.1,0-0.1,0-0.2c0-0.1,0-0.1,0-0.2c0-0.1,0-0.1,0-0.2c0-0.1,0-0.1,0-0.2
			c0-0.1,0-0.1,0-0.2c0-0.1,0-0.1,0-0.2c0,0,0-0.1,0-0.1c0-0.1,0-0.1,0-0.2c0,0,0-0.1,0-0.1c0-0.1,0-0.1,0.1-0.2c0,0,0-0.1,0-0.1
			c0-0.1,0.1-0.1,0.1-0.2c0,0,0,0,0-0.1c0-0.1,0.1-0.2,0.2-0.2c0.8-1.1,2.7-1.8,5.4-2c0.4,0,0.9-0.1,1.3-0.1c0.1,0,0.2,0,0.3,0
			c0.5,0,0.9,0,1.4,0c0,0,0,0,0.1,0c0.5,0,1,0,1.5,0.1c0.1,0,0.3,0,0.4,0c0.5,0,1.1,0.1,1.7,0.2c0.1,0,0.1,0,0.2,0
			c0.5,0.1,1.1,0.1,1.7,0.2c0.2,0,0.3,0,0.5,0.1c0.6,0.1,1.2,0.2,1.9,0.3c0.1,0,0.2,0,0.2,0c0.6,0.1,1.2,0.2,1.8,0.4
			c0.2,0,0.3,0.1,0.5,0.1c0.7,0.1,1.4,0.3,2.1,0.5c0.1,0,0.2,0.1,0.3,0.1c0.6,0.2,1.3,0.3,2,0.5c0.2,0,0.4,0.1,0.6,0.2
			c0.8,0.2,1.5,0.4,2.3,0.6c0.1,0,0.3,0.1,0.4,0.1c0.4,0.1,0.7,0.2,1.1,0.3c-0.1,0-0.2-0.1-0.4-0.1c-0.5-0.1-1.1-0.3-1.6-0.4
			c-0.3-0.1-0.6-0.1-0.9-0.2c-0.6-0.1-1.1-0.3-1.6-0.4c-0.2-0.1-0.5-0.1-0.7-0.2c-0.7-0.2-1.5-0.3-2.2-0.4c-0.1,0-0.2,0-0.3-0.1
			c-0.6-0.1-1.2-0.2-1.7-0.3c-0.2,0-0.4-0.1-0.7-0.1c-0.4-0.1-0.9-0.1-1.3-0.1c-0.2,0-0.5,0-0.7-0.1c-0.4,0-0.8-0.1-1.1-0.1
			c-0.2,0-0.4,0-0.6,0c-0.4,0-0.7,0-1.1,0c-0.2,0-0.3,0-0.5,0c-0.5,0-1,0-1.5,0.1c-3.2,0.3-5.4,1.2-6.6,2.8
			c-0.2,0.2-0.3,0.5-0.4,0.7c0,0.1-0.1,0.2-0.1,0.3c-0.1,0.2-0.1,0.4-0.2,0.5c0,0.1,0,0.2-0.1,0.3c0,0.2-0.1,0.3-0.1,0.5
			c0,0.1,0,0.2,0,0.4c0,0.2,0,0.4,0,0.5c0,0.1,0,0.3,0.1,0.4c0,0.2,0.1,0.4,0.2,0.6c0,0.1,0.1,0.3,0.1,0.4c0.1,0.2,0.2,0.4,0.3,0.6
			c0.1,0.1,0.1,0.3,0.2,0.4c0.1,0.2,0.2,0.5,0.4,0.7c0.1,0.1,0.2,0.3,0.2,0.4c0.2,0.3,0.4,0.6,0.6,0.8c0.1,0.1,0.2,0.2,0.2,0.3
			c0.3,0.4,0.6,0.8,1,1.3c0,0,0,0,0.1,0.1c0.4,0.4,0.7,0.8,1.1,1.3c0.1,0.1,0.3,0.3,0.4,0.4c0.3,0.3,0.6,0.6,1,0.9
			c0.2,0.2,0.4,0.4,0.6,0.5c0.3,0.3,0.7,0.6,1,0.9c0.2,0.2,0.4,0.4,0.7,0.6c0.4,0.3,0.7,0.6,1.1,0.9c0.2,0.2,0.5,0.4,0.8,0.6
			C87.1,52.3,87.5,52.6,87.9,53c0.3,0.2,0.6,0.4,0.9,0.6c0.2,0.1,0.3,0.2,0.5,0.4c-0.3-0.2-0.5-0.4-0.8-0.6
			C88.2,53.2,88.1,53.1,87.9,53z M116.1,43.2c-11-3.8-19.1-5.4-24.2-5.1c-2.9,0.2-4.8,1-5.8,2.5c-2.4,3.6,2,9.5,14.8,18.7
			c12.1,8.7,30.5,19.3,50.5,29.3c33.4,16.8,60.8,26.3,72.3,25.4c0,0,0,0,0,0c3-0.2,5-1,6-2.4c2.4-3.4-1.9-9-14.3-17.6
			c0.1-0.2,0.2-0.4,0.2-0.6c0.2,0.1,0.3,0.2,0.5,0.3c0.3,0.2,0.6,0.4,0.9,0.6c0.3,0.2,0.6,0.4,0.9,0.6c0.3,0.2,0.6,0.4,0.9,0.6
			c0.3,0.2,0.6,0.4,0.9,0.6c0.3,0.2,0.5,0.4,0.8,0.5c0.3,0.2,0.6,0.4,0.8,0.6c0.2,0.2,0.5,0.3,0.7,0.5c0.3,0.2,0.5,0.4,0.8,0.6
			c0.2,0.2,0.5,0.3,0.7,0.5c0.3,0.2,0.5,0.4,0.8,0.6c0.2,0.2,0.4,0.3,0.6,0.5c0.3,0.2,0.5,0.4,0.7,0.6c0.2,0.1,0.4,0.3,0.6,0.4
			c0.2,0.2,0.5,0.4,0.7,0.5c0.2,0.1,0.3,0.3,0.5,0.4c0.2,0.2,0.5,0.4,0.7,0.5c0.2,0.1,0.3,0.2,0.5,0.4c0.2,0.2,0.4,0.4,0.6,0.5
			c0.1,0.1,0.3,0.2,0.4,0.3c0.2,0.2,0.4,0.3,0.6,0.5c0.1,0.1,0.3,0.2,0.4,0.3c0.2,0.2,0.4,0.3,0.6,0.5c0.1,0.1,0.2,0.2,0.3,0.3
			c0.2,0.2,0.4,0.3,0.5,0.5c0.1,0.1,0.2,0.2,0.3,0.3c0.2,0.2,0.3,0.3,0.5,0.5c0.1,0.1,0.2,0.2,0.3,0.3c0.2,0.2,0.3,0.3,0.5,0.5
			c0.1,0.1,0.2,0.2,0.2,0.3c0.1,0.2,0.3,0.3,0.4,0.4c0.1,0.1,0.1,0.2,0.2,0.2c0.1,0.1,0.3,0.3,0.4,0.4c0.1,0.1,0.1,0.2,0.2,0.2
			c0.1,0.1,0.2,0.3,0.3,0.4c0.1,0.1,0.1,0.1,0.2,0.2c0.1,0.1,0.2,0.3,0.3,0.4c0,0.1,0.1,0.1,0.1,0.2c0.1,0.1,0.2,0.3,0.3,0.4
			c0,0.1,0.1,0.1,0.1,0.2c0.1,0.1,0.2,0.2,0.2,0.4c0,0.1,0.1,0.1,0.1,0.2c0.1,0.1,0.1,0.2,0.2,0.3c0,0.1,0.1,0.1,0.1,0.2
			c0.1,0.1,0.1,0.2,0.2,0.3c0,0.1,0,0.1,0.1,0.2c0,0.1,0.1,0.2,0.1,0.3c0,0,0,0.1,0.1,0.1c0,0.1,0.1,0.2,0.1,0.3c0,0,0,0.1,0,0.1
			c0,0.1,0,0.2,0.1,0.3c0,0,0,0.1,0,0.1c0,0.1,0,0.2,0,0.2c0,0,0,0.1,0,0.1c0,0.1,0,0.2,0,0.2c0,0,0,0.1,0,0.1c0,0.1,0,0.1,0,0.2
			c0,0,0,0.1,0,0.1c0,0.1,0,0.1-0.1,0.2c0,0,0,0.1,0,0.1c0,0.1-0.1,0.1-0.1,0.2c0,0,0,0.1,0,0.1c0,0.1-0.1,0.2-0.2,0.2
			c-0.7,0.9-2.5,1.5-5,1.7c-12.4,1.3-43.4-9.3-80.8-28.1c-1.5-0.7-3-1.5-4.4-2.2c-0.5-0.3-1-0.5-1.5-0.8c-0.9-0.5-1.9-1-2.8-1.5
			c-0.5-0.3-1.1-0.6-1.6-0.8c-0.9-0.5-1.8-1-2.7-1.4c-0.4-0.2-0.9-0.5-1.3-0.7c-1-0.5-2-1.1-3-1.6c-0.3-0.2-0.6-0.3-0.8-0.5
			c-1.2-0.6-2.4-1.3-3.5-1.9c-0.1,0-0.1-0.1-0.2-0.1c-24.1-13.3-40.5-24.5-47.1-31.7c-3.5-3.8-4.3-6.4-3.8-7.9
			c0.1-0.2,0.2-0.3,0.3-0.5c0.7-0.9,2.4-1.6,4.9-1.8c0.4,0,0.8-0.1,1.3-0.1c0.2,0,0.3,0,0.5,0c0.3,0,0.6,0,0.9,0c0.2,0,0.4,0,0.6,0
			c0.3,0,0.6,0,0.9,0c0.2,0,0.5,0,0.7,0.1c0.3,0,0.6,0.1,0.9,0.1c0.3,0,0.5,0.1,0.8,0.1c0.3,0,0.6,0.1,0.9,0.1
			c0.3,0,0.6,0.1,0.9,0.1c0.3,0.1,0.6,0.1,1,0.2c0.3,0.1,0.6,0.1,0.9,0.2c0.3,0.1,0.7,0.1,1,0.2c0.3,0.1,0.7,0.1,1,0.2
			c0.3,0.1,0.7,0.1,1,0.2c0.3,0.1,0.7,0.2,1,0.2c0.4,0.1,0.7,0.2,1.1,0.3c0.4,0.1,0.7,0.2,1.1,0.3c0.4,0.1,0.8,0.2,1.2,0.3
			c0.4,0.1,0.8,0.2,1.2,0.3c0.4,0.1,0.8,0.2,1.2,0.3c0.4,0.1,0.8,0.2,1.2,0.4c0.4,0.1,0.8,0.3,1.3,0.4c0.4,0.1,0.8,0.3,1.2,0.4
			c0.4,0.1,0.9,0.3,1.3,0.4c0.4,0.1,0.9,0.3,1.3,0.4c0.5,0.2,0.9,0.3,1.4,0.5c0.4,0.2,0.9,0.3,1.3,0.5c0.5,0.2,1,0.3,1.4,0.5
			c0.4,0.2,0.9,0.3,1.4,0.5c0.3,0.1,0.7,0.2,1,0.4C116.3,42.9,116.2,43,116.1,43.2z M70.2,32.8c0.9-1.1,2.8-1.9,5.6-2.1
			c1.1-0.1,2.3-0.1,3.6-0.1c-0.1,0-0.2,0-0.2,0c-0.1,0-0.1,0-0.2,0c-0.2,0-0.3,0-0.5,0.1c-0.2,0-0.4,0-0.5,0.1
			c-0.3,0-0.5,0.1-0.7,0.1c-0.1,0-0.3,0.1-0.4,0.1c-0.2,0.1-0.5,0.1-0.7,0.2c-0.1,0-0.3,0.1-0.4,0.1c-0.2,0.1-0.4,0.1-0.6,0.2
			c-0.1,0-0.2,0.1-0.4,0.1c-0.2,0.1-0.4,0.2-0.5,0.3c-0.1,0.1-0.2,0.1-0.3,0.2c-0.2,0.1-0.3,0.2-0.5,0.3c-0.1,0.1-0.2,0.1-0.3,0.2
			c-0.2,0.1-0.3,0.2-0.4,0.4c-0.1,0.1-0.1,0.1-0.2,0.2c-0.2,0.2-0.4,0.4-0.6,0.6c-0.2,0.2-0.4,0.5-0.5,0.8c0,0.1-0.1,0.2-0.1,0.3
			c-0.1,0.2-0.2,0.4-0.2,0.6c0,0.1-0.1,0.2-0.1,0.3c0,0.2-0.1,0.4-0.1,0.6c0,0.1,0,0.3,0,0.4c0,0.2,0,0.4,0,0.6c0,0.1,0,0.3,0.1,0.4
			c0,0.2,0.1,0.4,0.1,0.6c0,0.1,0.1,0.3,0.1,0.4c0.1,0.2,0.2,0.4,0.3,0.7c0.1,0.1,0.1,0.3,0.2,0.4c0.1,0.3,0.3,0.5,0.4,0.8
			c0.1,0.1,0.1,0.2,0.2,0.4c0,0,0,0,0,0.1C69.5,37.3,68.9,34.6,70.2,32.8z M246,118.9c-0.9,1.1-2.9,1.8-5.8,2.1c0,0,0,0,0,0
			c-1.1,0.1-2.4,0.2-3.7,0.1c0.1,0,0.2,0,0.2,0c0.1,0,0.2,0,0.2,0c0.2,0,0.3,0,0.4-0.1c0.2,0,0.4,0,0.6-0.1c0.2,0,0.4-0.1,0.6-0.1
			c0.2,0,0.4-0.1,0.6-0.1c0.2,0,0.4-0.1,0.5-0.1c0.2,0,0.4-0.1,0.6-0.1c0.2-0.1,0.3-0.1,0.5-0.2c0.2-0.1,0.3-0.1,0.5-0.2
			c0.2-0.1,0.3-0.1,0.5-0.2c0.1-0.1,0.3-0.1,0.4-0.2c0.2-0.1,0.3-0.2,0.4-0.3c0.1-0.1,0.2-0.1,0.3-0.2c0.2-0.1,0.3-0.2,0.4-0.3
			c0.1-0.1,0.2-0.1,0.2-0.2c0.2-0.2,0.4-0.4,0.6-0.6c0.2-0.2,0.3-0.4,0.5-0.7c0-0.1,0.1-0.2,0.1-0.2c0.1-0.2,0.1-0.3,0.2-0.5
			c0-0.1,0.1-0.2,0.1-0.3c0-0.1,0.1-0.3,0.1-0.4c0-0.1,0-0.2,0-0.3c0-0.2,0-0.3,0-0.5c0-0.1,0-0.2,0-0.3c0-0.2,0-0.3-0.1-0.5
			c0-0.1,0-0.2-0.1-0.4c0-0.2-0.1-0.3-0.1-0.5c0-0.1-0.1-0.2-0.1-0.4c-0.1-0.2-0.2-0.4-0.2-0.5c-0.1-0.1-0.1-0.2-0.2-0.3
			c-0.1-0.2-0.2-0.5-0.4-0.7c0-0.1-0.1-0.1-0.1-0.2C246.8,115.1,247.1,117.5,246,118.9z"/>
	</g>
	<g>
		<path fill="#133D60" d="M118.3,108.8c0.3,5-3.2,8.9-8,8.7c-4.8-0.2-9.2-4.3-9.8-9.2c-0.5-4.9,3.2-8.8,8.2-8.7
			C113.7,99.8,118,103.9,118.3,108.8z"/>
		<path fill="#133D60" d="M116.5,110.8c-4.9-0.1-9.2-4.2-9.6-9.2c0-0.6,0-1.2,0.1-1.8c-4.1,0.7-6.9,4.3-6.4,8.6c0.5,4.9,5,9,9.8,9.2
			c4.2,0.2,7.4-2.9,7.9-7C117.7,110.7,117.1,110.8,116.5,110.8z"/>
	</g>
	<g>
		<path fill="#133D60" d="M284.2,122.2c-9.2,11.4-29.9,24.2-41,27.7c-11.2,3.5-13.6-5.7-8.4-19.7c5.4-14,19.4-25.9,34.5-26.8
			C284.3,102.5,293.3,110.9,284.2,122.2z"/>
		<path fill="#133D60" d="M265.9,134.3c-12.5,3.3-16.1-5.6-11.8-19.1c1.2-3.3,2.8-6.4,4.9-9.3c-10.9,4.2-20,13.8-24.2,24.4
			c-5.1,14-2.8,23.2,8.4,19.7c8.6-2.6,22-10.8,32.5-19.2C272.3,132.3,268.9,133.5,265.9,134.3z"/>
	</g>
	<path fill="#133D60" d="M25.6,72c-0.6,5.9-6,10.7-13.1,10.5c-7-0.1-13.1-4.5-12.3-9.8c0.7-5.3,7.8-10.1,14.6-10.6
		C21.7,61.7,26.2,66.1,25.6,72z"/>
	<path fill="#133D60" d="M25.6,72c-0.6,5.9-6,10.7-13.1,10.5c-7-0.1-13.1-4.5-12.3-9.8c0.7-5.3,7.8-10.1,14.6-10.6
		C21.7,61.7,26.2,66.1,25.6,72z"/>
	<path fill="#133D60" d="M22.7,76.2c-7,0-12.6-4.4-11.4-9.9c0.3-1.4,0.9-2.7,1.9-3.9c-6.3,1.1-12.4,5.5-13,10.4
		c-0.7,5.3,5.3,9.7,12.3,9.8c5.3,0.1,9.8-2.6,11.9-6.5C23.8,76.1,23.3,76.2,22.7,76.2z"/>
	<g>
		<path fill="#133D60" d="M104.9,8.3c-1.4,4.9-5.9,9.1-10.2,9.6c-4.3,0.4-6.5-3-4.6-7.7c2-4.7,6.8-9.1,10.6-9.7
			C104.5-0.2,106.3,3.4,104.9,8.3z"/>
		<path fill="#133D60" d="M100.3,11.1c-4.2,0.5-6.2-3-4.2-7.8c0.2-0.4,0.3-0.8,0.5-1.1C94,4,91.4,7,90.1,10.1
			c-2,4.7,0.2,8.2,4.6,7.7c4-0.4,8.1-4,9.8-8.4C103.1,10.3,101.7,10.9,100.3,11.1z"/>
	</g>
	<g>
		<path fill="#133D60" d="M265.4,61c0.9,4.3-2.8,7.6-7.8,7.5c-5-0.1-9.4-3.9-10.2-8.4c-0.7-4.5,2.3-7.9,7.1-7.5
			C259.5,52.9,264.5,56.7,265.4,61z"/>
		<path fill="#133D60" d="M263.3,64.2c-5-0.2-9.5-4-10.5-8.4c-0.3-1.2-0.3-2.3,0-3.2c-3.7,0.5-5.9,3.6-5.2,7.5
			c0.8,4.5,5.2,8.3,10.2,8.4c3.7,0.1,6.6-1.7,7.6-4.3C264.6,64.2,264,64.3,263.3,64.2z"/>
	</g>
</g>
</svg>
