<?xml version="1.0" encoding="UTF-8" standalone="no"?>
<!-- Created with Inkscape (http://www.inkscape.org/) -->

<svg
   xmlns:dc="http://purl.org/dc/elements/1.1/"
   xmlns:cc="http://creativecommons.org/ns#"
   xmlns:rdf="http://www.w3.org/1999/02/22-rdf-syntax-ns#"
   xmlns:svg="http://www.w3.org/2000/svg"
   xmlns="http://www.w3.org/2000/svg"
   xmlns:sodipodi="http://sodipodi.sourceforge.net/DTD/sodipodi-0.dtd"
   xmlns:inkscape="http://www.inkscape.org/namespaces/inkscape"
   version="1.1"
   width="270.04688"
   height="184.73438"
   id="svg2"
   xml:space="preserve"
   inkscape:version="0.48.3.1 r9886"
   sodipodi:docname="model14.svg"><sodipodi:namedview
     pagecolor="#ffffff"
     bordercolor="#666666"
     borderopacity="1"
     objecttolerance="10"
     gridtolerance="10"
     guidetolerance="10"
     inkscape:pageopacity="0"
     inkscape:pageshadow="2"
     inkscape:window-width="1600"
     inkscape:window-height="876"
     id="namedview185"
     showgrid="false"
     fit-margin-top="1"
     fit-margin-left="1"
     fit-margin-right="1"
     fit-margin-bottom="1"
     inkscape:zoom="3.9894518"
     inkscape:cx="135.02281"
     inkscape:cy="110.69906"
     inkscape:window-x="1360"
     inkscape:window-y="24"
     inkscape:window-maximized="1"
     inkscape:current-layer="svg2" /><metadata
     id="metadata8"><rdf:RDF><cc:Work
         rdf:about=""><dc:format>image/svg+xml</dc:format><dc:type
           rdf:resource="http://purl.org/dc/dcmitype/StillImage" /><dc:title></dc:title></cc:Work></rdf:RDF></metadata><defs
     id="defs6" /><path
     d="m 253.96875,77.251357 c 0,5.976563 -4.84625,10.822501 -10.82406,10.822501 -5.97656,0 -10.82282,-4.845938 -10.82282,-10.822501 0,-5.977812 4.84626,-10.824062 10.82282,-10.824062 5.97781,0 10.82406,4.84625 10.82406,10.824062 z"
     inkscape:connector-curvature="0"
     id="path14"
     style="fill:#c8c8c8;fill-opacity:1;fill-rule:nonzero;stroke:none" /><path
     d="m 245.19437,72.307295 0.0609,-0.095 0.0609,-0.08812 0.0588,-0.08156 0.0588,-0.07688 0.0584,-0.07469 0.0584,-0.06719 0.0575,-0.06344 0.0588,-0.05844 0.0559,-0.0525 0.0562,-0.05125 0.055,-0.04531 0.0538,-0.04281 0.0559,-0.03656 0.0525,-0.03406 0.0563,-0.03312 0.05,-0.02906 0.0538,-0.02344 0.0525,-0.02438 0.0512,-0.01812 0.0525,-0.01844 0.0513,-0.01594 0.05,-0.01344 0.0478,-0.01094 0.0513,-0.0072 0.0475,-0.0087 0.05,-0.0072 0.0966,-0.01094 0.0928,-0.005 0.0925,-0.0059 c 0.16,-0.01344 0.16969,-0.236875 0.16969,-0.255313 0,-0.10375 -0.0656,-0.15625 -0.16969,-0.15625 -0.34532,0 -0.73094,0.04281 -1.08625,0.04281 -0.43719,0 -0.89125,-0.04281 -1.31344,-0.04281 -0.0794,0 -0.25031,0 -0.25031,0.252813 0,0.145312 0.12343,0.15875 0.21375,0.15875 0.355,0.02437 0.61031,0.1575 0.61031,0.435625 0,0.199062 -0.19906,0.489687 -0.19906,0.503125 l -4.06625,6.46 L 239.9,71.60667 c 0,-0.225938 0.30281,-0.399062 0.91437,-0.399062 0.18563,0 0.33219,0 0.33219,-0.26625 0,-0.115938 -0.10875,-0.145313 -0.18812,-0.145313 -0.52594,0 -1.10094,0.04281 -1.64063,0.04281 -0.23812,0 -0.48812,-0.01344 -0.73,-0.01344 -0.23687,0 -0.48937,-0.02937 -0.71531,-0.02937 -0.0903,0 -0.24656,0 -0.24656,0.252813 0,0.15875 0.11344,0.15875 0.32594,0.15875 0.74468,0 0.75562,0.119687 0.79843,0.446562 l 1.04125,8.171563 c 0.0428,0.265937 0.0953,0.302812 0.26594,0.302812 0.2125,0 0.265,-0.06594 0.375,-0.235625 l 4.76187,-7.585625 z"
     inkscape:connector-curvature="0"
     id="path16"
     style="fill:#000000;fill-opacity:1;fill-rule:nonzero;stroke:none" /><path
     d="m 248.66469,76.028233 -0.002,-0.01594 0,-0.01594 -0.002,-0.01344 -0.004,-0.01594 -0.005,-0.03156 -0.005,-0.01344 -0.006,-0.01594 -0.005,-0.01594 -0.007,-0.01344 -0.008,-0.01594 -0.009,-0.01344 -0.007,-0.01563 -0.0219,-0.02688 -0.01,-0.01219 -0.0109,-0.01344 -0.0134,-0.01125 -0.0134,-0.01313 -0.0134,-0.01125 -0.0156,-0.0097 -0.0159,-0.0084 -0.0159,-0.01094 -0.0159,-0.0075 -0.0181,-0.0059 -0.0184,-0.0075 -0.0194,-0.0047 -0.0209,-0.0062 -0.0181,-0.0025 -0.0222,-0.0025 -0.0231,-0.0022 -0.0244,0 c -0.26844,0 -0.5175,0.26 -0.5175,0.51 0,0.149063 0.11094,0.352813 0.36844,0.352813 0.25031,0 0.52125,-0.241563 0.52125,-0.51 z"
     inkscape:connector-curvature="0"
     id="path18"
     style="fill:#000000;fill-opacity:1;fill-rule:nonzero;stroke:none" /><path
     d="m 246.69812,82.268233 -0.0134,0.06125 -0.0366,0.117187 -0.0219,0.05469 -0.0231,0.05625 -0.0244,0.05625 -0.0269,0.05594 -0.0294,0.0525 -0.0294,0.05125 -0.0634,0.100313 -0.0341,0.0475 -0.0344,0.04531 -0.0353,0.045 -0.0391,0.04281 -0.0378,0.04031 -0.0403,0.04031 -0.0416,0.03656 -0.0428,0.03406 -0.0425,0.03563 -0.0428,0.02906 -0.0453,0.02938 -0.045,0.02562 -0.0475,0.02438 -0.0478,0.02094 -0.0475,0.01937 -0.0487,0.01594 -0.0478,0.01344 -0.05,0.0097 -0.0512,0.0084 -0.05,0.005 -0.05,0 c -0.11968,0 -0.23187,-0.01594 -0.33812,-0.0525 0.24156,-0.112188 0.31594,-0.333125 0.31594,-0.47375 0,-0.220938 -0.17188,-0.340313 -0.36125,-0.340313 -0.28688,0 -0.52594,0.25 -0.52594,0.543125 0,0.352813 0.36125,0.587188 0.91656,0.587188 0.55781,0 1.63719,-0.332188 1.9275,-1.4625 l 0.83125,-3.319063 c 0.0294,-0.0975 0.0453,-0.180625 0.0453,-0.323437 0,-0.505313 -0.43343,-0.866875 -0.98875,-0.866875 -1.03156,0 -1.61874,1.286875 -1.61874,1.41625 0,0.119687 0.12812,0.119687 0.1575,0.119687 0.10875,0 0.11968,-0.02938 0.18312,-0.165 0.23063,-0.541875 0.71156,-1.113125 1.24875,-1.113125 0.23438,0 0.31625,0.1575 0.31625,0.451562 0,0.10375 -0.0159,0.234375 -0.0294,0.279688 l -0.89,3.544687 z"
     inkscape:connector-curvature="0"
     id="path20"
     style="fill:#000000;fill-opacity:1;fill-rule:nonzero;stroke:none" /><g
     transform="matrix(0.3125,0,0,0.3125,1,1.0000044)"
     id="g22"><path
       d="m 809.629,244.121 c 0,19.125 -15.504,34.633 -34.633,34.633 -19.129,0 -34.637,-15.508 -34.637,-34.633 0,-19.129 15.508,-34.637 34.637,-34.637 19.129,0 34.633,15.508 34.633,34.637 z"
       inkscape:connector-curvature="0"
       id="path24"
       style="fill:none;stroke:#000000;stroke-width:2;stroke-linecap:round;stroke-linejoin:miter;stroke-miterlimit:4;stroke-opacity:1;stroke-dasharray:none" /></g><path
     d="m 181.43344,77.251357 c 0,5.976563 -4.845,10.822501 -10.82282,10.822501 -5.97781,0 -10.82281,-4.845938 -10.82281,-10.822501 0,-5.977812 4.845,-10.824062 10.82281,-10.824062 5.97782,0 10.82282,4.84625 10.82282,10.824062 z"
     inkscape:connector-curvature="0"
     id="path26"
     style="fill:#c8c8c8;fill-opacity:1;fill-rule:nonzero;stroke:none" /><g
     transform="matrix(0.3125,0,0,0.3125,1,1.0000044)"
     id="g28"><path
       d="m 577.52,244.121 c 0,19.125 -15.508,34.633 -34.633,34.633 -19.129,0 -34.637,-15.508 -34.637,-34.633 0,-19.129 15.508,-34.637 34.637,-34.637 19.125,0 34.633,15.508 34.633,34.637 z"
       inkscape:connector-curvature="0"
       id="path30"
       style="fill:none;stroke:#000000;stroke-width:2;stroke-linecap:round;stroke-linejoin:miter;stroke-miterlimit:4;stroke-opacity:1;stroke-dasharray:none" /></g><path
     d="m 176.77156,76.028233 0,-0.01594 -0.002,-0.01594 0,-0.01344 -0.002,-0.01594 -0.005,-0.01594 -0.002,-0.01563 -0.006,-0.01344 -0.005,-0.01594 -0.006,-0.01594 -0.007,-0.01344 -0.005,-0.01594 -0.0109,-0.01344 -0.009,-0.01563 -0.01,-0.01344 -0.008,-0.01344 -0.0134,-0.01344 -0.0109,-0.01219 -0.0122,-0.01125 -0.0134,-0.01313 -0.0134,-0.01125 -0.0159,-0.0097 -0.0159,-0.0084 -0.0159,-0.01094 -0.0156,-0.0075 -0.0197,-0.0059 -0.0181,-0.0075 -0.0184,-0.0047 -0.0184,-0.0062 -0.0219,-0.0025 -0.0206,-0.0025 -0.0247,-0.0022 -0.0206,0 c -0.27094,0 -0.52125,0.26 -0.52125,0.51 0,0.149063 0.11469,0.352813 0.37,0.352813 0.24906,0 0.52,-0.241563 0.52,-0.51 z"
     inkscape:connector-curvature="0"
     id="path32"
     style="fill:#000000;fill-opacity:1;fill-rule:nonzero;stroke:none" /><path
     d="m 173.21312,71.114795 0.004,-0.01094 0.002,-0.01 0.002,-0.01094 0.005,-0.01094 0.002,-0.01094 0.004,-0.01219 0.002,-0.01094 0.002,-0.01344 0.002,-0.01094 0.002,-0.01344 0.002,-0.01219 0.003,-0.01344 0.003,-0.01344 0,-0.03781 0.002,-0.0075 c 0,-0.119687 -0.0659,-0.119687 -0.32969,-0.119687 l -5.58844,0 c -0.31593,0 -0.33187,0.01344 -0.4125,0.265 l -0.725,2.384062 c -0.0294,0.06719 -0.0428,0.1575 -0.0428,0.186875 0,0.01344 0,0.145 0.1625,0.145 0.11719,0 0.14625,-0.095 0.16969,-0.132812 0.50281,-1.565 1.19375,-2.436563 3.25562,-2.436563 l 2.16063,0 -7.40125,8.275 c 0,0.01094 -0.0525,0.200313 -0.0525,0.236875 0,0.119688 0.0903,0.119688 0.33218,0.119688 l 5.75782,0 c 0.31625,0 0.32968,-0.01344 0.41281,-0.26625 l 0.9375,-2.922188 c 0.0134,-0.05375 0.0538,-0.149062 0.0538,-0.200312 0,-0.06594 -0.0538,-0.145313 -0.17344,-0.145313 -0.11718,0 -0.13312,0.05 -0.22593,0.329688 -0.57844,1.801875 -1.21469,2.755 -3.46563,2.755 l -2.26687,0 7.40124,-8.275 z"
     inkscape:connector-curvature="0"
     id="path34"
     style="fill:#000000;fill-opacity:1;fill-rule:nonzero;stroke:none" /><path
     d="m 174.80875,82.268233 -0.0159,0.06125 -0.0197,0.05844 -0.0181,0.05875 -0.0209,0.05469 -0.0488,0.1125 -0.0256,0.05594 -0.0294,0.0525 -0.0294,0.05125 -0.0291,0.05031 -0.0344,0.05 -0.0328,0.0475 -0.0366,0.04531 -0.0344,0.045 -0.0378,0.04281 -0.0403,0.04031 -0.0391,0.04031 -0.0425,0.03656 -0.0403,0.03406 -0.0453,0.03563 -0.0416,0.02906 -0.0463,0.02938 -0.0453,0.02562 -0.0475,0.02438 -0.0453,0.02094 -0.0475,0.01937 -0.05,0.01594 -0.0475,0.01344 -0.0512,0.0097 -0.0503,0.0084 -0.0512,0.005 -0.05,0 c -0.11969,0 -0.23063,-0.01594 -0.33438,-0.0525 0.23906,-0.112188 0.31375,-0.333125 0.31375,-0.47375 0,-0.220938 -0.17344,-0.340313 -0.36125,-0.340313 -0.28469,0 -0.52625,0.25 -0.52625,0.543125 0,0.352813 0.36125,0.587188 0.91688,0.587188 0.55781,0 1.63687,-0.332188 1.92625,-1.4625 l 0.83125,-3.319063 c 0.0291,-0.0975 0.045,-0.180625 0.045,-0.323437 0,-0.505313 -0.42969,-0.866875 -0.9875,-0.866875 -1.02907,0 -1.61875,1.286875 -1.61875,1.41625 0,0.119687 0.12719,0.119687 0.15625,0.119687 0.10875,0 0.11968,-0.02938 0.18312,-0.165 0.23219,-0.541875 0.71532,-1.113125 1.25,-1.113125 0.23313,0 0.31625,0.1575 0.31625,0.451562 0,0.10375 -0.0159,0.234375 -0.0294,0.279688 l -0.88719,3.544687 z"
     inkscape:connector-curvature="0"
     id="path36"
     style="fill:#000000;fill-opacity:1;fill-rule:nonzero;stroke:none" /><g
     transform="matrix(0.3125,0,0,0.3125,1,1.0000044)"
     id="g38"><path
       d="m 461.902,181.02 393.234,0 0,315.352 -393.234,0 0,-315.352 z"
       inkscape:connector-curvature="0"
       id="path40"
       style="fill:none;stroke:#000000;stroke-width:2;stroke-linecap:round;stroke-linejoin:miter;stroke-miterlimit:4;stroke-opacity:1;stroke-dasharray:none" /></g><path
     d="m 225.87437,145.79604 0,-0.0156 -0.001,-0.0134 -0.002,-0.0159 -0.001,-0.0147 -0.007,-0.0269 -0.005,-0.0159 -0.005,-0.0134 -0.005,-0.0122 -0.007,-0.0134 -0.006,-0.0134 -0.007,-0.0122 -0.008,-0.0122 -0.008,-0.0109 -0.01,-0.0122 -0.0206,-0.0209 -0.0122,-0.01 -0.0122,-0.008 -0.0109,-0.0109 -0.0134,-0.006 -0.0122,-0.008 -0.0159,-0.008 -0.0134,-0.006 -0.0147,-0.005 -0.0159,-0.006 -0.0169,-0.005 -0.0172,-0.004 -0.0172,-0.001 -0.0169,-0.003 -0.0184,0 -0.0184,-0.001 c -0.1975,0 -0.44906,0.19657 -0.44906,0.44907 0,0.16968 0.11719,0.30531 0.3125,0.30531 0.22938,0 0.45781,-0.22094 0.45781,-0.44813 z"
     inkscape:connector-curvature="0"
     id="path42"
     style="fill:#000000;fill-opacity:1;fill-rule:nonzero;stroke:none" /><path
     d="m 224.17125,151.51511 -0.0341,0.11968 -0.0184,0.0575 -0.0206,0.0559 -0.0194,0.0563 -0.0247,0.055 -0.0231,0.0525 -0.0244,0.0513 -0.0269,0.0512 -0.0269,0.0488 -0.0281,0.0475 -0.0609,0.0881 -0.0306,0.0425 -0.0341,0.0416 -0.0319,0.0391 -0.0341,0.0366 -0.0353,0.0344 -0.0366,0.0328 -0.0369,0.0319 -0.0378,0.0269 -0.0391,0.0281 -0.0391,0.0231 -0.0391,0.0219 -0.0412,0.0206 -0.0403,0.0172 -0.0856,0.0269 -0.0416,0.008 -0.0425,0.007 -0.0453,0.005 -0.0441,0.001 c -0.0513,0 -0.17813,0 -0.33063,-0.0781 0.25501,-0.0609 0.38219,-0.27813 0.38219,-0.44907 0,-0.13437 -0.0941,-0.29656 -0.32125,-0.29656 -0.21219,0 -0.45781,0.17812 -0.45781,0.48438 0,0.33937 0.33687,0.525 0.74344,0.525 0.59343,0 1.38187,-0.44907 1.59562,-1.28907 l 0.77875,-3.10062 c 0.0428,-0.16969 0.0428,-0.28688 0.0428,-0.315 0,-0.48219 -0.35781,-0.77625 -0.78,-0.77625 -0.86562,0 -1.34656,1.22562 -1.34656,1.30375 0,0.0853 0.0819,0.0853 0.1,0.0853 0.0769,0 0.0856,-0.0122 0.15156,-0.16969 0.21219,-0.51875 0.60407,-1.03375 1.06813,-1.03375 0.12062,0 0.27219,0.0328 0.27219,0.38688 0,0.19781 -0.0269,0.28937 -0.06,0.43469 l -0.79594,3.15906 z"
     inkscape:connector-curvature="0"
     id="path44"
     style="fill:#000000;fill-opacity:1;fill-rule:nonzero;stroke:none" /><path
     d="m 234.65844,148.31948 0.0731,0 0.0122,-0.001 0.0134,0 0.0122,-0.001 0.0125,-0.002 0.0109,-0.001 0.0122,-0.002 0.0122,-0.001 0.01,-0.003 0.0122,-0.004 0.01,-0.002 0.0113,-0.004 0.01,-0.005 0.01,-0.006 0.008,-0.006 0.009,-0.005 0.0159,-0.0159 0.006,-0.008 0.007,-0.01 0.001,-0.004 0.004,-0.005 0.002,-0.005 0.002,-0.008 0.002,-0.005 9.4e-4,-0.008 0.002,-0.005 0.001,-0.006 0,-0.007 0.001,-0.007 0,-0.006 0.002,-0.007 0,-0.0147 c 0,-0.17094 -0.1625,-0.17094 -0.27969,-0.17094 l -5.07437,0 c -0.12094,0 -0.27937,0 -0.27937,0.17094 0,0.16625 0.15843,0.16625 0.28562,0.16625 l 5.05969,0 z"
     inkscape:connector-curvature="0"
     id="path46"
     style="fill:#000000;fill-opacity:1;fill-rule:nonzero;stroke:none" /><path
     d="m 234.66687,149.96604 0.0222,0 0.0244,-0.001 0.0353,0 0.0122,-0.002 0.0122,-0.001 0.0109,0 0.0112,-0.002 0.0122,-0.002 0.0109,-0.002 0.0109,-0.004 0.0109,-0.002 0.0109,-0.003 0.01,-0.004 0.01,-0.005 0.008,-0.005 0.008,-0.008 0.009,-0.006 0.008,-0.008 0.007,-0.008 0.003,-0.004 0.002,-0.005 0.004,-0.004 0.003,-0.005 0.001,-0.005 0.004,-0.005 0.002,-0.005 0.005,-0.0122 9.4e-4,-0.005 0.002,-0.007 0.001,-0.007 0,-0.006 0.001,-0.007 0,-0.006 0.002,-0.007 0,-0.0147 c 0,-0.17094 -0.1625,-0.17094 -0.28812,-0.17094 l -5.05969,0 c -0.12719,0 -0.28563,0 -0.28563,0.17094 0,0.16968 0.15844,0.16968 0.27938,0.16968 l 5.07437,0 z"
     inkscape:connector-curvature="0"
     id="path48"
     style="fill:#000000;fill-opacity:1;fill-rule:nonzero;stroke:none" /><path
     d="m 240.28719,145.66792 0,-0.0744 -0.002,-0.007 0,-0.0256 -0.001,-0.006 0,-0.005 -0.003,-0.0122 -0.001,-0.01 -0.001,-0.008 -0.005,-0.0172 -0.007,-0.0147 -0.003,-0.005 -0.01,-0.01 -0.007,-0.005 -0.006,-0.004 -0.007,-0.004 -0.005,-0.001 -0.003,-0.002 -0.005,0 -0.004,-0.001 -0.005,-9.4e-4 -0.005,0 -0.005,-0.002 -0.007,0 -0.005,-0.001 -0.0122,0 -0.006,-0.002 -0.0344,0 -0.008,-0.001 -0.0341,0 c -0.52751,0.54219 -1.27094,0.54219 -1.54063,0.54219 l 0,0.26344 c 0.16969,0 0.66781,0 1.10719,-0.22094 l 0,4.38969 c 0,0.30656 -0.0244,0.40656 -0.78625,0.40656 l -0.27219,0 0,0.26375 c 0.29781,-0.0269 1.03406,-0.0269 1.37219,-0.0269 0.34062,0 1.07531,0 1.37312,0.0269 l 0,-0.26375 -0.27093,0 c -0.76157,0 -0.78844,-0.0916 -0.78844,-0.40656 l 0,-4.75344 z"
     inkscape:connector-curvature="0"
     id="path50"
     style="fill:#000000;fill-opacity:1;fill-rule:nonzero;stroke:none" /><path
     d="m 245.07594,150.64355 -0.001,-0.0231 -0.002,-0.0231 -0.002,-0.0222 -0.003,-0.0219 -0.005,-0.0206 -0.006,-0.0222 -0.009,-0.0206 -0.006,-0.0209 -0.01,-0.0194 -0.008,-0.0197 -0.0244,-0.0366 -0.0122,-0.0169 -0.0269,-0.0344 -0.0306,-0.0303 -0.0341,-0.0269 -0.0172,-0.0122 -0.0366,-0.0247 -0.0194,-0.01 -0.0209,-0.008 -0.0194,-0.009 -0.0209,-0.007 -0.0219,-0.006 -0.0206,-0.005 -0.0222,-0.004 -0.0231,-0.004 -0.0231,-9.4e-4 -0.0231,0 c -0.24312,0 -0.44937,0.20375 -0.44937,0.44907 0,0.24406 0.20625,0.44812 0.44937,0.44812 0.24782,0 0.45032,-0.20406 0.45032,-0.44812 z"
     inkscape:connector-curvature="0"
     id="path52"
     style="fill:#000000;fill-opacity:1;fill-rule:nonzero;stroke:none" /><path
     d="m 248.82969,150.64355 0,-0.0231 -0.001,-0.0231 -0.007,-0.0441 -0.005,-0.0206 -0.007,-0.0222 -0.006,-0.0206 -0.009,-0.0209 -0.008,-0.0194 -0.01,-0.0197 -0.0109,-0.0181 -0.0122,-0.0184 -0.0113,-0.0169 -0.0134,-0.0172 -0.0144,-0.0172 -0.0147,-0.0159 -0.0159,-0.0144 -0.0341,-0.0269 -0.0159,-0.0122 -0.0197,-0.0125 -0.0181,-0.0122 -0.0184,-0.01 -0.0416,-0.0172 -0.0206,-0.007 -0.0219,-0.006 -0.0222,-0.005 -0.0437,-0.007 -0.0222,-9.4e-4 -0.0244,0 c -0.24281,0 -0.44906,0.20375 -0.44906,0.44906 0,0.24407 0.20625,0.44813 0.44906,0.44813 0.24906,0 0.44938,-0.20406 0.44938,-0.44813 z"
     inkscape:connector-curvature="0"
     id="path54"
     style="fill:#000000;fill-opacity:1;fill-rule:nonzero;stroke:none" /><path
     d="m 252.58562,150.64355 0,-0.0231 -0.002,-0.0231 -0.003,-0.0222 -0.002,-0.0219 -0.006,-0.0206 -0.006,-0.0222 -0.007,-0.0206 -0.008,-0.0209 -0.008,-0.0194 -0.01,-0.0197 -0.01,-0.0181 -0.0122,-0.0184 -0.0122,-0.0169 -0.0134,-0.0172 -0.0159,-0.0172 -0.0134,-0.0159 -0.0169,-0.0144 -0.0147,-0.0134 -0.0172,-0.0134 -0.0172,-0.0122 -0.0181,-0.0125 -0.0197,-0.0122 -0.0194,-0.01 -0.0197,-0.008 -0.0206,-0.009 -0.0219,-0.007 -0.0197,-0.006 -0.0219,-0.005 -0.0231,-0.004 -0.0222,-0.004 -0.0219,-9.4e-4 -0.0231,0 c -0.24531,0 -0.44937,0.20375 -0.44937,0.44906 0,0.24407 0.20406,0.44813 0.44937,0.44813 0.24656,0 0.44906,-0.20406 0.44906,-0.44813 z"
     inkscape:connector-curvature="0"
     id="path56"
     style="fill:#000000;fill-opacity:1;fill-rule:nonzero;stroke:none" /><path
     d="m 262.58094,145.9573 0.008,-0.0269 0.005,-0.0281 0.007,-0.0244 0.006,-0.0244 0.007,-0.0231 0.006,-0.0234 0.008,-0.0194 0.007,-0.0197 0.009,-0.0181 0.01,-0.0184 0.0109,-0.0156 0.0109,-0.0147 0.0122,-0.0159 0.0134,-0.0134 0.0159,-0.0122 0.0172,-0.0122 0.0181,-0.01 0.0209,-0.01 0.0194,-0.008 0.0256,-0.008 0.0256,-0.007 0.0134,-0.004 0.0159,-0.002 0.0147,-0.004 0.0159,-0.004 0.0156,-0.001 0.0159,-0.003 0.0197,-0.002 0.0169,-0.001 0.0197,-0.004 0.0391,-0.002 0.0231,0 0.0197,-0.002 0.0244,-9.4e-4 0.0231,-0.002 0.05,0 0.0256,-0.001 0.1125,0 c 0.19281,0 0.26968,0 0.26968,-0.16969 0,-0.0941 -0.0856,-0.0941 -0.22843,-0.0941 l -1.11813,0 c -0.22219,0 -0.22937,0 -0.33062,0.16125 l -3.09344,4.82906 -0.66156,-4.7925 c -0.0256,-0.19781 -0.0428,-0.19781 -0.2625,-0.19781 l -1.16094,0 c -0.15969,0 -0.25375,0 -0.25375,0.16125 0,0.1025 0.0744,0.1025 0.24531,0.1025 0.11219,0 0.26375,0.007 0.36375,0.0147 0.13563,0.0194 0.18688,0.0425 0.18688,0.13656 0,0.0344 -0.009,0.0613 -0.0319,0.16125 l -1.07656,4.31406 c -0.0856,0.33906 -0.22844,0.61032 -0.91688,0.63344 -0.0425,0 -0.15125,0.008 -0.15125,0.16344 0,0.0734 0.0513,0.10031 0.11844,0.10031 0.27219,0 0.56625,-0.0269 0.84594,-0.0269 0.28937,0 0.59437,0.0269 0.87406,0.0269 0.0425,0 0.15125,0 0.15125,-0.16969 0,-0.0941 -0.0941,-0.0941 -0.15125,-0.0941 -0.48344,-0.006 -0.57625,-0.17719 -0.57625,-0.37 0,-0.0597 0.008,-0.1025 0.0341,-0.19406 l 1.15125,-4.61907 0.01,0 0.7275,5.25376 c 0.0172,0.10031 0.0244,0.19312 0.12813,0.19312 0.0941,0 0.14406,-0.0928 0.18687,-0.15156 l 3.42156,-5.365 0.009,0 -1.21218,4.85469 c -0.0856,0.33218 -0.10032,0.39812 -0.77032,0.39812 -0.14281,0 -0.23687,0 -0.23687,0.16344 0,0.10031 0.1025,0.10031 0.12812,0.10031 0.23563,0 0.81313,-0.0269 1.04875,-0.0269 0.34907,0 0.71282,0.0269 1.06188,0.0269 0.0487,0 0.16,0 0.16,-0.16969 0,-0.0941 -0.0781,-0.0941 -0.23813,-0.0941 -0.31375,0 -0.54937,0 -0.54937,-0.15125 0,-0.0331 0,-0.0491 0.0428,-0.20406 l 1.12563,-4.51532 z"
     inkscape:connector-curvature="0"
     id="path58"
     style="fill:#000000;fill-opacity:1;fill-rule:nonzero;stroke:none" /><g
     transform="matrix(0.3125,0,0,0.3125,1,1.0000044)"
     id="g60"><path
       d="m 577.52,374.598 c 0,19.129 -15.508,34.632 -34.637,34.632 -19.125,0 -34.633,-15.503 -34.633,-34.632 0,-19.129 15.508,-34.637 34.633,-34.637 19.129,0 34.637,15.508 34.637,34.637 z"
       inkscape:connector-curvature="0"
       id="path62"
       style="fill:none;stroke:#000000;stroke-width:2;stroke-linecap:round;stroke-linejoin:miter;stroke-miterlimit:4;stroke-opacity:1;stroke-dasharray:none" /></g><path
     d="m 167.56125,115.34198 -1.11094,-2.63406 c -0.0403,-0.10875 -0.0669,-0.15625 -0.0669,-0.16969 0,-0.0819 0.22562,-0.33218 0.78125,-0.38594 0.13281,-0.0122 0.26593,-0.0256 0.26593,-0.25499 0,-0.15625 -0.16218,-0.15625 -0.19906,-0.15625 -0.54437,0 -1.11312,0.0425 -1.66844,0.0425 -0.33218,0 -1.15125,-0.0425 -1.48343,-0.0425 -0.0769,0 -0.23906,0 -0.23906,0.26593 0,0.14531 0.13312,0.14531 0.30499,0.14531 0.79469,0 0.87157,0.13313 0.995,0.42375 l 1.55876,3.69626 -2.79282,3.00531 -0.16969,0.14656 c -0.64812,0.70062 -1.27312,0.91062 -1.94843,0.94844 -0.16969,0.0134 -0.29156,0.0134 -0.29156,0.26593 0,0.0134 0,0.14532 0.17562,0.14532 0.39312,0 0.82906,-0.0416 1.24031,-0.0416 0.49188,0 1.01063,0.0416 1.48313,0.0416 0.0831,0 0.24187,0 0.24187,-0.26469 0,-0.13313 -0.13312,-0.14656 -0.15875,-0.14656 -0.11969,-0.0109 -0.53218,-0.0378 -0.53218,-0.40907 0,-0.21218 0.19874,-0.42593 0.35875,-0.59562 l 1.34781,-1.43188 1.1925,-1.29531 1.33656,3.16313 c 0.0538,0.14625 0.0672,0.15968 0.0672,0.18906 0,0.10375 -0.25031,0.32594 -0.76781,0.37969 -0.14657,0.0134 -0.26375,0.0294 -0.26375,0.255 0,0.15625 0.14656,0.15625 0.19656,0.15625 0.375,0 1.30031,-0.0416 1.66875,-0.0416 0.33219,0 1.13781,0.0416 1.46969,0.0416 0.0928,0 0.25281,0 0.25281,-0.25125 0,-0.16 -0.13313,-0.16 -0.23938,-0.16 -0.885,-0.0109 -0.91406,-0.0537 -1.1375,-0.58 -0.51531,-1.23282 -1.40281,-3.29688 -1.70531,-4.08938 0.90063,-0.93 2.285,-2.50594 2.71,-2.87594 0.38563,-0.31843 0.88719,-0.63468 1.68188,-0.675 0.17343,-0.0122 0.29062,-0.0122 0.29062,-0.26468 0,-0.0134 0,-0.14657 -0.17094,-0.14657 -0.39781,0 -0.83375,0.0425 -1.24625,0.0425 -0.48843,0 -0.99125,-0.0425 -1.46968,-0.0425 -0.0794,0 -0.24907,0 -0.24907,0.26594 0,0.0903 0.0659,0.13313 0.15875,0.14531 0.11938,0.0109 0.53219,0.0403 0.53219,0.41032 0,0.18781 -0.14656,0.35875 -0.25531,0.47843 l -2.14469,2.30094 z"
     inkscape:connector-curvature="0"
     id="path64"
     style="fill:#000000;fill-opacity:1;fill-rule:nonzero;stroke:none" /><path
     d="m 174.72312,116.61167 0,-0.002 0.002,-0.003 0,-0.005 0.003,-0.002 0,-0.006 0.002,-0.005 0,-0.005 0.003,-0.006 0.002,-0.005 0,-0.006 0.002,-0.005 0,-0.008 0.002,-0.006 0.002,-0.0134 0.002,-0.01 0.004,-0.008 0,-0.005 0.002,-0.006 0,-0.005 0.002,-0.005 0,-0.006 0.002,-0.005 0,-0.008 0.002,-0.002 0,-0.007 c 0,-0.0512 -0.0366,-0.13313 -0.14875,-0.13313 -0.18313,0 -0.95594,0.0744 -1.18531,0.0953 -0.0659,0.008 -0.19282,0.0159 -0.19282,0.21218 0,0.12844 0.12688,0.12844 0.23063,0.12844 0.44656,0 0.44656,0.0659 0.44656,0.14031 0,0.0647 -0.0219,0.12188 -0.0378,0.205 l -1.14969,4.57032 c -0.0294,0.0966 -0.0378,0.19656 -0.0378,0.28687 0,0.59313 0.52594,0.88 0.97031,0.88 0.22594,0 0.50188,-0.0744 0.74344,-0.48812 0.19406,-0.34063 0.32469,-0.89125 0.32469,-0.92782 0,-0.11968 -0.11969,-0.11968 -0.14875,-0.11968 -0.13063,0 -0.14657,0.0525 -0.18313,0.22343 -0.11969,0.46157 -0.30031,1.05469 -0.69969,1.05469 -0.24656,0 -0.31125,-0.23062 -0.31125,-0.45156 0,-0.10375 0.0269,-0.27969 0.0562,-0.38344 l 1.28657,-5.1475 z"
     inkscape:connector-curvature="0"
     id="path66"
     style="fill:#000000;fill-opacity:1;fill-rule:nonzero;stroke:none" /><path
     d="m 179.58656,116.97417 0,-0.0331 -0.002,-0.0122 -0.004,-0.0169 -0.005,-0.0319 -0.005,-0.0134 -0.006,-0.0159 -0.005,-0.0156 -0.007,-0.0134 -0.008,-0.0159 -0.009,-0.0122 -0.007,-0.0172 -0.0109,-0.0122 -0.0109,-0.0134 -0.01,-0.0134 -0.0112,-0.0134 -0.0134,-0.0109 -0.0134,-0.0134 -0.0156,-0.01 -0.0134,-0.0109 -0.0159,-0.009 -0.0159,-0.01 -0.0159,-0.008 -0.0181,-0.005 -0.0184,-0.008 -0.0194,-0.005 -0.0209,-0.005 -0.0206,-0.003 -0.0219,-0.003 -0.0209,-0.002 -0.0244,0 c -0.26844,0 -0.5175,0.26 -0.5175,0.51031 0,0.14875 0.11094,0.35406 0.36844,0.35406 0.25031,0 0.51906,-0.24312 0.51906,-0.51031 z"
     inkscape:connector-curvature="0"
     id="path68"
     style="fill:#000000;fill-opacity:1;fill-rule:nonzero;stroke:none" /><path
     d="m 177.62219,123.21323 -0.0156,0.0609 -0.0159,0.0588 -0.0219,0.0584 -0.0209,0.0562 -0.0206,0.0547 -0.0537,0.1125 -0.0269,0.0525 -0.0294,0.0512 -0.0316,0.05 -0.0319,0.0512 -0.0341,0.0475 -0.0344,0.0453 -0.0378,0.0453 -0.0366,0.0425 -0.0378,0.0391 -0.0403,0.0403 -0.0416,0.0366 -0.0428,0.0356 -0.0425,0.0341 -0.0453,0.0294 -0.0425,0.0291 -0.0478,0.0269 -0.045,0.0234 -0.0478,0.0219 -0.0475,0.0184 -0.0487,0.0156 -0.05,0.0134 -0.0478,0.0109 -0.0512,0.007 -0.05,0.005 -0.05,0 c -0.12219,0 -0.23438,-0.0159 -0.33813,-0.0525 0.24157,-0.1125 0.31594,-0.33219 0.31594,-0.47375 0,-0.21969 -0.17438,-0.33938 -0.36125,-0.33938 -0.28687,0 -0.52594,0.24907 -0.52594,0.54188 0,0.35281 0.36125,0.58719 0.91656,0.58719 0.55563,0 1.63719,-0.33188 1.92751,-1.46125 l 0.83124,-3.32032 c 0.0269,-0.0975 0.0453,-0.18062 0.0453,-0.32343 0,-0.50532 -0.43344,-0.86657 -0.98875,-0.86657 -1.03157,0 -1.62125,1.28657 -1.62125,1.41719 0,0.11844 0.13062,0.11844 0.16,0.11844 0.10625,0 0.11968,-0.0281 0.18062,-0.16344 0.23313,-0.54344 0.71406,-1.11469 1.25125,-1.11469 0.23188,0 0.31625,0.1575 0.31625,0.45156 0,0.10376 -0.0184,0.23438 -0.0294,0.27969 l -0.89,3.545 z"
     inkscape:connector-curvature="0"
     id="path70"
     style="fill:#000000;fill-opacity:1;fill-rule:nonzero;stroke:none" /><g
     transform="matrix(0.3125,0,0,0.3125,1,1.0000044)"
     id="g72"><path
       d="m 542.555,334.457 0.441,-47.812"
       inkscape:connector-curvature="0"
       id="path74"
       style="fill:none;stroke:#000000;stroke-width:2;stroke-linecap:butt;stroke-linejoin:miter;stroke-miterlimit:4;stroke-opacity:1;stroke-dasharray:none" /></g><g
     transform="matrix(-0.00286695,0.3125,-0.3125,-0.00286695,1,1.0000044)"
     id="g76"><path
       d="m 289.639,-545.579 3.999,-3.998 -13.999,4 13.998,3.996 -3.998,-3.998 z"
       inkscape:connector-curvature="0"
       id="path78"
       style="fill:#000000;fill-opacity:1;fill-rule:evenodd;stroke:#000000;stroke-width:0.99995798;stroke-linecap:butt;stroke-linejoin:miter;stroke-miterlimit:4;stroke-opacity:1;stroke-dasharray:none" /></g><g
     transform="matrix(0.3125,0,0,0.3125,1,1.0000044)"
     id="g80"><path
       d="m 474.578,313.156 205.656,0 0,140.312 -205.656,0 0,-140.312 z"
       inkscape:connector-curvature="0"
       id="path82"
       style="fill:none;stroke:#000000;stroke-width:2;stroke-linecap:round;stroke-linejoin:miter;stroke-miterlimit:4;stroke-opacity:1;stroke-dasharray:none" /></g><path
     d="m 171.2125,132.31823 0,-0.01 -0.001,-0.004 0,-0.007 -0.002,-0.004 0,-0.003 -0.001,-0.004 -0.002,-0.004 0,-0.006 -0.003,-0.004 -0.001,-0.005 -0.002,-0.005 -0.004,-0.005 -0.007,-0.007 -0.004,-0.006 -0.002,-0.001 -0.004,-0.003 -0.003,-0.003 -0.004,-0.001 -0.001,-0.002 -0.004,-0.001 -0.003,-0.002 -0.004,-0.001 -0.002,-0.002 -0.004,0 -0.003,-0.002 -0.004,-0.001 -0.006,0 -0.003,-0.002 -0.004,-0.001 -0.008,0 -0.004,-0.002 -0.0122,0 -0.005,-0.001 -0.0109,0 c -0.2125,0 -0.89,0.0756 -1.13156,0.0928 -0.0719,0.01 -0.17344,0.0184 -0.17344,0.19532 0,0.1025 0.0903,0.1025 0.22969,0.1025 0.44438,0 0.45531,0.0831 0.45531,0.15625 l -0.0281,0.18562 -1.16813,4.63375 c -0.0256,0.10125 -0.0466,0.16719 -0.0466,0.31625 0,0.52719 0.40906,0.85188 0.84344,0.85188 0.30656,0 0.53719,-0.18532 0.69719,-0.51625 0.16593,-0.35531 0.27593,-0.89344 0.27593,-0.90938 0,-0.0941 -0.0806,-0.0941 -0.11,-0.0941 -0.0941,0 -0.1025,0.0378 -0.13062,0.16719 -0.15875,0.60312 -0.33313,1.14875 -0.70563,1.14875 -0.27812,0 -0.27812,-0.29657 -0.27812,-0.42594 0,-0.22219 0.0134,-0.26875 0.0559,-0.44437 l 1.33687,-5.35782 z"
     inkscape:connector-curvature="0"
     id="path84"
     style="fill:#000000;fill-opacity:1;fill-rule:nonzero;stroke:none" /><path
     d="m 180.72406,135.61667 0.0806,0 0.0122,-0.002 0.0147,0 0.0134,-0.001 0.0134,-0.002 0.0122,-0.002 0.0134,-0.001 0.0134,-0.002 0.0109,-0.004 0.0134,-0.003 0.0219,-0.007 0.0109,-0.005 0.0112,-0.006 0.01,-0.007 0.008,-0.006 0.01,-0.008 0.007,-0.008 0.0109,-0.0147 0.002,-0.006 0.004,-0.004 0.003,-0.006 0.001,-0.005 0.002,-0.007 0.004,-0.006 0.001,-0.007 0.002,-0.006 0,-0.007 0.001,-0.007 0.002,-0.007 0,-0.007 0.002,-0.007 0,-0.0172 c 0,-0.18562 -0.17687,-0.18562 -0.30531,-0.18562 l -5.55281,0 c -0.13063,0 -0.30532,0 -0.30532,0.18562 0,0.18313 0.17469,0.18313 0.31375,0.18313 l 5.53469,0 z"
     inkscape:connector-curvature="0"
     id="path86"
     style="fill:#000000;fill-opacity:1;fill-rule:nonzero;stroke:none" /><path
     d="m 180.73375,137.4173 0.0234,0 0.0269,-0.002 0.0391,0 0.0122,-0.001 0.0122,-0.002 0.0122,0 0.0134,-0.001 0.0134,-0.003 0.0122,-0.002 0.0109,-0.004 0.0244,-0.007 0.0109,-0.004 0.01,-0.006 0.0112,-0.005 0.01,-0.007 0.008,-0.007 0.01,-0.008 0.007,-0.009 0.004,-0.003 0.003,-0.006 0.004,-0.004 0.002,-0.005 0.007,-0.0122 0.001,-0.005 0.002,-0.006 0.004,-0.007 0.001,-0.005 0.002,-0.007 0,-0.008 0.001,-0.008 0.002,-0.007 0,-0.008 0.002,-0.007 0,-0.0172 c 0,-0.18562 -0.17687,-0.18562 -0.315,-0.18562 l -5.53469,0 c -0.13906,0 -0.31375,0 -0.31375,0.18562 0,0.18688 0.17469,0.18688 0.30532,0.18688 l 5.55281,0 z"
     inkscape:connector-curvature="0"
     id="path88"
     style="fill:#000000;fill-opacity:1;fill-rule:nonzero;stroke:none" /><path
     d="m 186.85687,132.71636 0,-0.0659 -0.001,-0.008 0,-0.0428 -0.002,-0.007 0,-0.006 -9.3e-4,-0.0134 -0.002,-0.0109 -0.001,-0.009 -0.002,-0.01 -0.004,-0.01 -0.007,-0.0147 -0.006,-0.005 -0.003,-0.006 -0.007,-0.005 -0.005,-0.006 -0.007,-0.004 -0.01,-0.004 -0.004,-0.002 -0.004,-9.4e-4 -0.006,0 -0.005,-0.002 -0.003,-0.001 -0.006,0 -0.007,-0.002 -0.006,0 -0.005,-0.001 -0.0134,0 -0.007,-0.002 -0.0391,0 -0.007,-0.001 -0.0369,0 c -0.57718,0.59344 -1.39031,0.59344 -1.68812,0.59344 l 0,0.28812 c 0.18687,0 0.73375,0 1.21344,-0.24187 l 0,4.80125 c 0,0.33437 -0.0256,0.44406 -0.86188,0.44406 l -0.29531,0 0,0.28938 c 0.32594,-0.0303 1.13156,-0.0303 1.49906,-0.0303 0.37219,0 1.17781,0 1.50375,0.0303 l 0,-0.28938 -0.29656,0 c -0.835,0 -0.86312,-0.1 -0.86312,-0.44406 l 0,-5.19906 z"
     inkscape:connector-curvature="0"
     id="path90"
     style="fill:#000000;fill-opacity:1;fill-rule:nonzero;stroke:none" /><path
     d="m 192.09625,138.15698 -0.002,-0.0244 -0.001,-0.0256 -0.002,-0.0244 -0.006,-0.0244 -0.005,-0.0222 -0.006,-0.0244 -0.007,-0.0219 -0.008,-0.0219 -0.01,-0.0222 -0.0113,-0.0206 -0.0134,-0.0209 -0.0122,-0.0206 -0.0134,-0.0184 -0.0144,-0.0181 -0.0159,-0.0197 -0.0331,-0.0328 -0.0366,-0.0294 -0.0391,-0.0269 -0.0206,-0.0122 -0.0209,-0.0109 -0.0219,-0.01 -0.0231,-0.01 -0.0222,-0.007 -0.0244,-0.007 -0.0219,-0.005 -0.0244,-0.005 -0.0244,-0.003 -0.0256,-0.001 -0.0244,0 c -0.2675,0 -0.49343,0.22344 -0.49343,0.49062 0,0.26844 0.22593,0.49188 0.49343,0.49188 0.26969,0 0.49188,-0.22344 0.49188,-0.49188 z"
     inkscape:connector-curvature="0"
     id="path92"
     style="fill:#000000;fill-opacity:1;fill-rule:nonzero;stroke:none" /><path
     d="m 196.2025,138.15698 -9.4e-4,-0.0244 -0.002,-0.0256 -0.007,-0.0487 -0.005,-0.0222 -0.006,-0.0244 -0.01,-0.0219 -0.007,-0.0219 -0.0109,-0.0222 -0.008,-0.0206 -0.0269,-0.0416 -0.0122,-0.0184 -0.0159,-0.0181 -0.0147,-0.0197 -0.0328,-0.0328 -0.0184,-0.0147 -0.0194,-0.0147 -0.0184,-0.0134 -0.0206,-0.0134 -0.0197,-0.0122 -0.0206,-0.0109 -0.0219,-0.01 -0.0234,-0.01 -0.0219,-0.007 -0.0244,-0.007 -0.0244,-0.005 -0.0234,-0.005 -0.0244,-0.003 -0.0244,-0.001 -0.0256,0 c -0.26593,0 -0.49187,0.22344 -0.49187,0.49062 0,0.26844 0.22594,0.49188 0.49187,0.49188 0.27094,0 0.49188,-0.22344 0.49188,-0.49188 z"
     inkscape:connector-curvature="0"
     id="path94"
     style="fill:#000000;fill-opacity:1;fill-rule:nonzero;stroke:none" /><path
     d="m 200.30906,138.15698 0,-0.0244 -0.002,-0.0256 -0.007,-0.0487 -0.006,-0.0222 -0.007,-0.0244 -0.008,-0.0219 -0.008,-0.0219 -0.01,-0.0222 -0.0222,-0.0416 -0.0131,-0.0206 -0.0294,-0.0366 -0.0147,-0.0197 -0.0172,-0.0156 -0.0169,-0.0172 -0.0172,-0.0147 -0.0184,-0.0147 -0.0206,-0.0134 -0.0184,-0.0134 -0.0219,-0.0122 -0.0206,-0.0109 -0.0222,-0.01 -0.0231,-0.01 -0.0441,-0.0144 -0.0488,-0.01 -0.0244,-0.003 -0.0256,-0.001 -0.0244,0 c -0.2675,0 -0.49063,0.22344 -0.49063,0.49062 0,0.26844 0.22313,0.49188 0.49063,0.49188 0.26969,0 0.49187,-0.22344 0.49187,-0.49188 z"
     inkscape:connector-curvature="0"
     id="path96"
     style="fill:#000000;fill-opacity:1;fill-rule:nonzero;stroke:none" /><path
     d="m 206.12687,133.04104 0.009,-0.0294 0.007,-0.0294 0.0147,-0.0559 0.0147,-0.0491 0.01,-0.0231 0.0109,-0.0206 0.0109,-0.0219 0.0112,-0.0197 0.0131,-0.0184 0.0147,-0.0169 0.0172,-0.0159 0.0184,-0.0159 0.0206,-0.0147 0.0219,-0.0122 0.0256,-0.0122 0.0269,-0.0109 0.0306,-0.0109 0.0319,-0.008 0.0194,-0.005 0.0159,-0.004 0.0206,-0.004 0.0184,-0.003 0.0231,-0.004 0.0197,-0.004 0.0231,-0.003 0.0244,-0.001 0.0231,-0.002 0.0244,-0.004 0.0256,-0.001 0.0281,-0.002 0.0281,-9.4e-4 0.0281,-0.002 0.0316,-0.002 0.0294,-0.001 0.0341,0 0.0331,-0.002 0.0341,0 0.0356,-0.001 0.15375,0 c 0.27593,0 0.35156,0 0.35156,-0.17813 0,-0.11 -0.1025,-0.11 -0.14906,-0.11 -0.30875,0 -1.06563,0.0294 -1.37094,0.0294 -0.27938,0 -0.95563,-0.0294 -1.23281,-0.0294 -0.0672,0 -0.17688,0 -0.17688,0.18563 0,0.1025 0.0828,0.1025 0.25875,0.1025 0.0206,0 0.19531,0 0.35281,0.0172 0.16719,0.0194 0.25125,0.0294 0.25125,0.14906 0,0.0366 -0.0109,0.0656 -0.0366,0.17562 l -1.2425,4.97688 c -0.0941,0.3625 -0.1125,0.43437 -0.84469,0.43437 -0.15875,0 -0.25156,0 -0.25156,0.18688 0,0.1025 0.0853,0.1025 0.25156,0.1025 l 4.29063,0 c 0.22219,0 0.23062,0 0.28937,-0.15625 l 0.72875,-2.00438 c 0.0391,-0.1025 0.0391,-0.11843 0.0391,-0.12937 0,-0.0353 -0.0256,-0.1025 -0.11125,-0.1025 -0.0841,0 -0.0937,0.0462 -0.15719,0.19531 -0.31625,0.85313 -0.72281,1.90781 -2.32813,1.90781 l -0.86906,0 c -0.13062,0 -0.14906,0 -0.2025,-0.007 -0.0928,-0.008 -0.12344,-0.0184 -0.12344,-0.0928 0,-0.0256 0,-0.0462 0.0466,-0.2125 l 1.25343,-5.00593 z"
     inkscape:connector-curvature="0"
     id="path98"
     style="fill:#000000;fill-opacity:1;fill-rule:nonzero;stroke:none" /><path
     d="m 211.82531,135.98042 -0.001,-0.0109 0,-0.0109 -0.002,-0.01 -0.001,-0.0112 -0.002,-0.0109 -0.001,-0.0109 -0.005,-0.01 -0.007,-0.0219 -0.005,-0.01 -0.006,-0.0109 -0.005,-0.008 -0.006,-0.0122 -0.007,-0.009 -0.007,-0.01 -0.007,-0.008 -0.007,-0.01 -0.01,-0.007 -0.01,-0.01 -0.009,-0.007 -0.0109,-0.007 -0.0109,-0.005 -0.0122,-0.008 -0.0109,-0.005 -0.0122,-0.003 -0.0134,-0.006 -0.0134,-0.004 -0.0147,-0.003 -0.0134,-0.001 -0.0147,-0.002 -0.0159,-0.001 -0.0169,0 c -0.18812,0 -0.36281,0.18187 -0.36281,0.35656 0,0.105 0.0781,0.24781 0.25781,0.24781 0.17563,0 0.365,-0.16968 0.365,-0.35781 z"
     inkscape:connector-curvature="0"
     id="path100"
     style="fill:#000000;fill-opacity:1;fill-rule:nonzero;stroke:none" /><path
     d="m 210.44812,140.34823 -0.008,0.0425 -0.0134,0.0416 -0.0122,0.0403 -0.0319,0.0781 -0.0169,0.0391 -0.0184,0.0391 -0.0206,0.0378 -0.0209,0.0356 -0.0437,0.0706 -0.0244,0.0331 -0.0491,0.0634 -0.0281,0.0291 -0.0256,0.0281 -0.0278,0.0281 -0.0294,0.0269 -0.0306,0.0231 -0.0294,0.0244 -0.0291,0.0209 -0.0319,0.0206 -0.0316,0.0184 -0.0344,0.0172 -0.0328,0.0144 -0.0344,0.0122 -0.0328,0.0125 -0.0331,0.008 -0.0353,0.007 -0.0353,0.006 -0.0353,0.004 -0.0356,0 c -0.0841,0 -0.16218,-0.0113 -0.23687,-0.0381 0.16969,-0.0781 0.22219,-0.23188 0.22219,-0.33062 0,-0.15375 -0.12063,-0.23813 -0.25375,-0.23813 -0.20032,0 -0.3675,0.17469 -0.3675,0.37969 0,0.24781 0.25281,0.41125 0.64093,0.41125 0.39063,0 1.14625,-0.23313 1.34875,-1.02281 l 0.5825,-2.32438 c 0.0206,-0.0681 0.0316,-0.12562 0.0316,-0.22688 0,-0.35281 -0.30282,-0.60562 -0.69219,-0.60562 -0.72125,0 -1.13281,0.89969 -1.13281,0.99125 0,0.0831 0.0891,0.0831 0.11,0.0831 0.0756,0 0.0841,-0.0197 0.12812,-0.11468 0.1625,-0.37969 0.49938,-0.78 0.87406,-0.78 0.16344,0 0.22219,0.10968 0.22219,0.31594 0,0.0734 -0.0109,0.165 -0.0209,0.19531 l -0.62375,2.48187 z"
     inkscape:connector-curvature="0"
     id="path102"
     style="fill:#000000;fill-opacity:1;fill-rule:nonzero;stroke:none" /><path
     d="m 163.48156,20.290733 0.004,-0.02188 0.005,-0.02312 0.0122,-0.04656 0.007,-0.02562 0.0184,-0.07688 0.0134,-0.0525 0.0122,-0.05375 0.0134,-0.05125 0.0122,-0.0525 0.005,-0.02313 0.006,-0.02562 0.006,-0.02313 0.003,-0.02437 0.007,-0.02094 0.003,-0.02063 0.005,-0.02219 0.004,-0.01687 0.005,-0.01844 0.001,-0.01594 0.005,-0.01437 0.002,-0.01469 0.001,-0.01125 0,-0.0097 0.002,-0.0072 0,-0.0063 c 0,-0.178125 -0.12593,-0.284375 -0.30656,-0.284375 -0.0319,0 -0.32719,0.0084 -0.42469,0.378437 l -1.52468,6.135313 c -0.0294,0.125625 -0.0294,0.144062 -0.0294,0.168437 0,0.1575 0.11719,0.286875 0.29531,0.286875 0.22344,0 0.34938,-0.194062 0.3725,-0.223437 0.0403,-0.09531 0.17813,-0.648125 0.57969,-2.279063 0.34063,0.284375 0.81438,0.329688 1.02656,0.329688 0.74219,0 1.15719,-0.47625 1.41,-0.774063 0.0953,0.478438 0.48719,0.774063 0.95219,0.774063 0.37219,0 0.61531,-0.243125 0.785,-0.5825 0.17813,-0.380625 0.31844,-1.02875 0.31844,-1.048438 0,-0.10625 -0.095,-0.10625 -0.12563,-0.10625 -0.10625,0 -0.11593,0.04281 -0.15031,0.191563 -0.17937,0.68875 -0.37219,1.31125 -0.80437,1.31125 -0.28438,0 -0.31844,-0.273438 -0.31844,-0.487188 0,-0.233125 0.12812,-0.73125 0.21219,-1.098437 l 0.29562,-1.1475 c 0.0341,-0.16 0.13656,-0.561563 0.18063,-0.721563 0.0537,-0.241562 0.15968,-0.644375 0.15968,-0.705625 0,-0.194062 -0.15125,-0.286875 -0.30625,-0.286875 -0.0525,0 -0.32968,0.01094 -0.41375,0.37 l -0.50062,1.98125 c -0.12438,0.529688 -0.24156,0.974063 -0.27594,1.080313 -0.008,0.0525 -0.51625,1.015625 -1.37312,1.015625 -0.52969,0 -0.785,-0.348125 -0.785,-0.918125 0,-0.31 0.0722,-0.605313 0.14906,-0.903125 l 0.44656,-1.7775 z"
     inkscape:connector-curvature="0"
     id="path104"
     style="fill:#000000;fill-opacity:1;fill-rule:nonzero;stroke:none" /><path
     d="m 173.21062,20.818233 0.01,-0.01125 0.0112,-0.01094 0.0109,-0.01219 0.01,-0.01094 0.008,-0.01094 0.009,-0.0097 0.005,-0.0075 0.002,-0.0059 0.008,-0.01219 0.002,-0.0062 0.005,-0.0072 0.001,-0.0062 0.005,-0.0059 0.002,-0.0063 0.001,-0.0072 0.002,-0.0063 0.002,-0.0084 0.002,-0.0063 0,-0.0084 0.001,-0.0084 0.002,-0.0063 0,-0.03406 c 0,-0.08063 -0.0547,-0.08063 -0.1975,-0.08063 l -3.45843,0 c -0.19157,0 -0.2025,0.0059 -0.24532,0.146562 l -0.41625,1.335313 c -0.0294,0.08906 -0.0294,0.09531 -0.0294,0.118437 0,0.03656 0.0294,0.105 0.12719,0.105 0.095,0 0.11218,-0.0475 0.13156,-0.122187 0.35531,-1.04125 0.93406,-1.318125 1.88969,-1.318125 l 1.33312,0 -4.32,4.46875 c -0.0491,0.04906 -0.12469,0.125937 -0.12469,0.243125 0,0.08281 0.0659,0.08281 0.20157,0.08281 l 3.58406,0 c 0.19406,0 0.2,-0.0059 0.24656,-0.14875 l 0.53219,-1.651562 c 0.0291,-0.09656 0.0291,-0.11125 0.0291,-0.119688 0,-0.0063 0,-0.10375 -0.11812,-0.10375 -0.0978,0 -0.11125,0.02906 -0.16375,0.192813 -0.33813,1.016875 -0.71657,1.535625 -2.00813,1.535625 l -1.41344,0 4.31875,-4.475 z"
     inkscape:connector-curvature="0"
     id="path106"
     style="fill:#000000;fill-opacity:1;fill-rule:nonzero;stroke:none" /><path
     d="m 174.79156,25.468858 -0.001,0.07719 -0.002,0.07813 -0.006,0.08156 -0.009,0.08063 -0.007,0.04031 -0.0172,0.08531 -0.008,0.04031 -0.01,0.04156 -0.0134,0.04281 -0.0125,0.04281 -0.0144,0.0425 -0.0159,0.04281 -0.0159,0.04406 -0.0219,0.0425 -0.0197,0.04531 -0.0231,0.04281 -0.0231,0.04375 -0.0269,0.04281 -0.0281,0.045 -0.0306,0.04406 -0.0316,0.04281 -0.0344,0.045 -0.0378,0.04406 -0.0378,0.04531 -0.0403,0.0425 -0.0425,0.04406 -0.0466,0.045 c -0.0303,0.02937 -0.0537,0.0525 -0.0537,0.08938 0,0.0525 0.06,0.10375 0.1025,0.10375 0.10375,0 0.735,-0.590938 0.735,-1.470938 0,-0.464062 -0.18062,-0.808125 -0.51875,-0.808125 -0.24656,0 -0.4225,0.191563 -0.4225,0.420938 0,0.235625 0.16969,0.429687 0.42844,0.429687 0.18187,0 0.29687,-0.119687 0.30656,-0.119687 z"
     inkscape:connector-curvature="0"
     id="path108"
     style="fill:#000000;fill-opacity:1;fill-rule:nonzero;stroke:none" /><path
     d="m 178.07031,20.66917 0.002,-0.0025 0,-0.0034 0.001,-0.0025 0,-0.005 0.002,-0.0013 0,-0.0047 0.002,-0.0038 0,-0.005 0.002,-0.0034 0.001,-0.005 0,-0.0038 0.002,-0.0072 0,-0.0038 0.005,-0.01094 9.4e-4,-0.0084 0,-0.0063 0.002,-0.0038 0,-0.0047 0.003,-0.0038 0,-0.005 0.001,-0.0034 0,-0.0075 0.002,-0.0013 0,-0.01094 c 0,-0.04031 -0.0294,-0.10625 -0.11844,-0.10625 -0.14656,0 -0.76187,0.06 -0.94625,0.07688 -0.0597,0.0062 -0.16344,0.01219 -0.16344,0.169687 0,0.101563 0.10375,0.101563 0.19282,0.101563 0.35531,0 0.35531,0.05344 0.35531,0.113437 0,0.05125 -0.0172,0.0975 -0.0294,0.163438 l -1.04593,4.191875 c -0.0369,0.131875 -0.0369,0.145312 -0.0369,0.1625 0,0.109687 0.0894,0.235625 0.25156,0.235625 0.19906,0 0.29656,-0.146563 0.34188,-0.309063 0.0147,-0.02906 0.33312,-1.334062 0.36375,-1.439062 0.525,0.05375 0.94594,0.223437 0.94594,0.609062 0,0.03531 0,0.07344 -0.0134,0.146563 -0.0291,0.112187 -0.0291,0.149062 -0.0291,0.231875 0,0.525 0.42718,0.760625 0.78218,0.760625 0.72282,0 0.94375,-1.124375 0.94375,-1.132813 0,-0.09656 -0.0953,-0.09656 -0.11843,-0.09656 -0.1025,0 -0.11344,0.03656 -0.14907,0.179375 -0.0878,0.31875 -0.28906,0.84375 -0.65281,0.84375 -0.19781,0 -0.25781,-0.184375 -0.25781,-0.384688 0,-0.125625 0,-0.140312 0.0428,-0.331875 0.0109,-0.02344 0.0403,-0.149062 0.0403,-0.233125 0,-0.658125 -0.89125,-0.759375 -1.20375,-0.7825 0.2175,-0.134375 0.48969,-0.378437 0.61532,-0.489687 0.37843,-0.355313 0.75093,-0.703125 1.16218,-0.703125 0.0903,0 0.18563,0.02313 0.24657,0.09531 -0.31875,0.05375 -0.38688,0.301563 -0.38688,0.415 0,0.163438 0.12812,0.273438 0.29656,0.273438 0.20375,0 0.4225,-0.163438 0.4225,-0.47125 0,-0.246563 -0.17594,-0.51875 -0.56781,-0.51875 -0.42219,0 -0.80813,0.301562 -1.18656,0.650625 -0.3125,0.295312 -0.55407,0.525 -0.86063,0.650625 l 0.73375,-2.955313 z"
     inkscape:connector-curvature="0"
     id="path110"
     style="fill:#000000;fill-opacity:1;fill-rule:nonzero;stroke:none" /><path
     d="m 166.64437,34.016357 0.0806,0 0.0184,-0.0025 0.0194,0 0.0197,-0.0012 0.0206,-0.0025 0.0222,-0.0047 0.0206,-0.0038 0.0231,-0.0037 0.0222,-0.0047 0.0412,-0.01219 0.0222,-0.0087 0.0206,-0.0084 0.0219,-0.01094 0.0184,-0.01094 0.0194,-0.01219 0.0172,-0.01469 0.0172,-0.01594 0.0172,-0.01719 0.006,-0.0072 0.008,-0.01094 0.006,-0.0088 0.006,-0.01094 0.008,-0.01094 0.006,-0.0097 0.006,-0.01094 0.005,-0.01219 0.003,-0.01344 0.005,-0.01219 0.004,-0.01344 0.005,-0.01219 0.001,-0.01469 0.003,-0.01594 0.002,-0.01469 0,-0.01719 0.002,-0.01469 0,-0.01687 c 0,-0.252812 -0.22344,-0.252812 -0.41282,-0.252812 l -2.41562,0 c -1.60031,0 -2.77594,1.746875 -2.77594,3.006562 0,0.932813 0.625,1.675 1.58813,1.675 l 0.0122,-0.234375 c -0.52125,0 -0.94343,-0.379687 -0.94343,-1.141562 0,-0.318438 0.12687,-1.1875 0.49906,-1.81375 0.44437,-0.73125 1.08031,-0.877813 1.43687,-0.877813 0.89125,0 0.97907,0.696875 0.97907,1.026563 0,0.498125 -0.21375,1.365937 -0.5725,1.908125 -0.415,0.625 -0.98657,0.898437 -1.39907,0.898437 l -0.0122,0.234375 c 1.25125,0 2.65875,-1.281875 2.65875,-2.915 0,-0.178437 0,-0.68625 -0.32719,-1.1525 l 1.16562,0 z"
     inkscape:connector-curvature="0"
     id="path112"
     style="fill:#000000;fill-opacity:1;fill-rule:nonzero;stroke:none" /><path
     d="m 171.32719,32.791983 -0.25281,0 c -0.0206,0.16125 -0.0975,0.601874 -0.19282,0.67375 -0.0563,0.04281 -0.6275,0.04281 -0.7325,0.04281 l -1.36469,0 c 0.77876,-0.687187 1.03751,-0.893437 1.48188,-1.241562 0.54937,-0.438126 1.06094,-0.897188 1.06094,-1.601563 0,-0.897187 -0.78375,-1.445312 -1.73469,-1.445312 -0.91563,0 -1.54063,0.644687 -1.54063,1.324687 0,0.380625 0.31876,0.4175 0.39438,0.4175 0.17719,0 0.39187,-0.128438 0.39187,-0.394375 0,-0.131875 -0.0538,-0.390625 -0.43812,-0.390625 0.22937,-0.525 0.73344,-0.687188 1.08281,-0.687188 0.74094,0 1.12656,0.574688 1.12656,1.175313 0,0.644688 -0.46031,1.155 -0.69812,1.420938 l -1.78344,1.764062 c -0.0759,0.06594 -0.0759,0.08281 -0.0759,0.289375 l 3.05188,0 0.22344,-1.347812 z"
     inkscape:connector-curvature="0"
     id="path114"
     style="fill:#000000;fill-opacity:1;fill-rule:nonzero;stroke:none" /><path
     d="m 173.00312,36.206357 0.01,-0.01094 0.0112,-0.01 0.0109,-0.01094 0.0109,-0.01344 0.008,-0.0097 0.007,-0.01094 0.005,-0.0063 0.004,-0.0059 0.002,-0.0075 0.005,-0.0034 0.004,-0.0063 0.002,-0.0072 0.002,-0.0062 0.004,-0.0059 0.002,-0.0087 0.003,-0.0059 0.001,-0.0063 0.002,-0.0084 0.002,-0.0075 0.002,-0.0084 0,-0.0059 0.001,-0.0087 0,-0.01687 0.002,-0.0087 0,-0.0084 c 0,-0.08063 -0.0572,-0.08063 -0.2,-0.08063 l -3.45843,0 c -0.19157,0 -0.2025,0.0084 -0.24532,0.146563 l -0.41625,1.335312 c -0.0294,0.08906 -0.0294,0.09781 -0.0294,0.120938 0,0.03656 0.0294,0.1025 0.12687,0.1025 0.0966,0 0.11375,-0.04625 0.13188,-0.119688 0.35531,-1.04375 0.93406,-1.319374 1.88969,-1.319374 l 1.33312,0 -4.31781,4.46875 c -0.0512,0.04906 -0.12688,0.125937 -0.12688,0.241874 0,0.08281 0.0659,0.08281 0.20407,0.08281 l 3.5825,0 c 0.19312,0 0.19906,-0.0059 0.24656,-0.14875 l 0.53125,-1.651563 c 0.0291,-0.09531 0.0291,-0.10875 0.0291,-0.118437 0,-0.0075 0,-0.1025 -0.11844,-0.1025 -0.0962,0 -0.11093,0.02906 -0.16343,0.191562 -0.33813,1.015625 -0.71657,1.534375 -2.00563,1.534375 l -1.41469,0 4.3175,-4.475 z"
     inkscape:connector-curvature="0"
     id="path116"
     style="fill:#000000;fill-opacity:1;fill-rule:nonzero;stroke:none" /><path
     d="m 174.58406,40.858545 -0.001,0.07563 -0.002,0.07937 -0.006,0.08031 -0.0112,0.08063 -0.006,0.04281 -0.006,0.04031 -0.008,0.04281 -0.008,0.04031 -0.0113,0.0425 -0.0122,0.04281 -0.0134,0.04281 -0.0144,0.04125 -0.0147,0.04531 -0.0391,0.08531 -0.0209,0.04406 -0.0206,0.04281 -0.0256,0.045 -0.0256,0.04156 -0.0281,0.04531 -0.0294,0.045 -0.0341,0.04406 -0.0344,0.04281 -0.0366,0.045 -0.0378,0.04406 -0.0403,0.045 -0.045,0.04406 -0.0441,0.04281 c -0.0306,0.02906 -0.0538,0.05344 -0.0538,0.09156 0,0.05344 0.06,0.1025 0.1025,0.1025 0.10375,0 0.735,-0.592188 0.735,-1.472188 0,-0.461562 -0.18062,-0.806875 -0.51875,-0.806875 -0.24656,0 -0.4225,0.192813 -0.4225,0.422188 0,0.234375 0.16969,0.427187 0.42969,0.427187 0.17812,0 0.29562,-0.118125 0.30531,-0.118125 z"
     inkscape:connector-curvature="0"
     id="path118"
     style="fill:#000000;fill-opacity:1;fill-rule:nonzero;stroke:none" /><path
     d="m 177.86281,36.057295 0.002,-0.0025 0,-0.0034 0.002,-0.0025 0,-0.0025 9.4e-4,-0.0037 0,-0.0047 0.002,-0.0037 0,-0.005 0.002,-0.0034 0,-0.0038 0.001,-0.005 0.002,-0.0034 0,-0.0075 0.002,-0.0084 0.003,-0.0097 0,-0.005 0.002,-0.0063 0,-0.0047 0.002,-0.0037 0,-0.0084 0.002,-0.0025 0,-0.0063 0.001,-0.0022 0,-0.0087 c 0,-0.03781 -0.0294,-0.10625 -0.11844,-0.10625 -0.14656,0 -0.76187,0.06 -0.94625,0.07719 -0.0597,0.0059 -0.16344,0.01438 -0.16344,0.169375 0,0.102813 0.10375,0.102813 0.19282,0.102813 0.35531,0 0.35531,0.0525 0.35531,0.114687 0,0.04875 -0.0172,0.095 -0.0294,0.160938 l -1.04593,4.193125 c -0.0394,0.131875 -0.0394,0.146562 -0.0394,0.16375 0,0.108437 0.0916,0.233125 0.25406,0.233125 0.19907,0 0.29532,-0.144063 0.34188,-0.3075 0.0134,-0.02938 0.33187,-1.335625 0.36125,-1.436875 0.525,0.0525 0.94844,0.220937 0.94844,0.607812 0,0.03531 0,0.07219 -0.0122,0.144063 -0.0328,0.1125 -0.0328,0.151562 -0.0328,0.234375 0,0.525 0.42968,0.758125 0.78468,0.758125 0.72032,0 0.94375,-1.124375 0.94375,-1.130313 0,-0.09781 -0.0953,-0.09781 -0.11843,-0.09781 -0.105,0 -0.11344,0.03781 -0.15125,0.180625 -0.0856,0.31875 -0.28938,0.84375 -0.65063,0.84375 -0.19906,0 -0.25906,-0.186876 -0.25906,-0.387188 0,-0.124375 0,-0.137812 0.0441,-0.330625 0.008,-0.02437 0.0391,-0.149062 0.0391,-0.231875 0,-0.659375 -0.88875,-0.761875 -1.20125,-0.785 0.215,-0.134375 0.48594,-0.378437 0.61406,-0.488437 0.37844,-0.355 0.75063,-0.704375 1.16344,-0.704375 0.0891,0 0.18438,0.02344 0.24406,0.09531 -0.31843,0.05375 -0.38437,0.304062 -0.38437,0.4175 0,0.16125 0.12437,0.272187 0.29531,0.272187 0.20125,0 0.42219,-0.163437 0.42219,-0.472499 0,-0.246563 -0.17563,-0.518751 -0.56875,-0.518751 -0.42125,0 -0.80563,0.301563 -1.18406,0.650625 -0.3125,0.295626 -0.55532,0.525 -0.86188,0.653125 l 0.73375,-2.957812 z"
     inkscape:connector-curvature="0"
     id="path120"
     style="fill:#000000;fill-opacity:1;fill-rule:nonzero;stroke:none" /><g
     transform="matrix(0.3125,0,0,0.3125,1,1.0000044)"
     id="g122"><path
       d="m 526.215,50.828 33.34,0 c 17.496,0 31.582,14.086 31.582,31.586 l 0,26.32 c 0,17.496 -14.086,31.582 -31.582,31.582 l -33.34,0 c -17.496,0 -31.582,-14.086 -31.582,-31.582 l 0,-26.32 c 0,-17.5 14.086,-31.586 31.582,-31.586 z"
       inkscape:connector-curvature="0"
       id="path124"
       style="fill:none;stroke:#000000;stroke-width:2;stroke-linecap:round;stroke-linejoin:bevel;stroke-miterlimit:4;stroke-opacity:1;stroke-dasharray:6, 6;stroke-dashoffset:0" /></g><path
     d="m 239.35687,34.016357 0.0806,0 0.0194,-0.0025 0.0197,0 0.0184,-0.0012 0.0219,-0.0025 0.0206,-0.0047 0.0222,-0.0038 0.0231,-0.0037 0.0206,-0.0047 0.0222,-0.0062 0.0206,-0.0059 0.0206,-0.0087 0.0222,-0.0084 0.0206,-0.01094 0.0197,-0.01094 0.0194,-0.01219 0.0172,-0.01469 0.0169,-0.01594 0.007,-0.0084 0.0159,-0.01594 0.008,-0.01094 0.006,-0.0087 0.0122,-0.02188 0.007,-0.0097 0.006,-0.01094 0.003,-0.01219 0.005,-0.01344 0.004,-0.01219 0.005,-0.01344 0.004,-0.01219 0.002,-0.01469 0.002,-0.01594 0.001,-0.01469 0,-0.01719 0.002,-0.01469 0,-0.01687 c 0,-0.252812 -0.22313,-0.252812 -0.41251,-0.252812 l -2.41468,0 c -1.60157,0 -2.77688,1.746875 -2.77688,3.006562 0,0.932813 0.625,1.675 1.58813,1.675 l 0.0134,-0.234375 c -0.52126,0 -0.945,-0.379687 -0.945,-1.141562 0,-0.318438 0.12812,-1.1875 0.50062,-1.81375 0.44438,-0.73125 1.07906,-0.877813 1.43687,-0.877813 0.89094,0 0.97751,0.696875 0.97751,1.026563 0,0.498125 -0.21219,1.365937 -0.57125,1.908125 -0.415,0.625 -0.98625,0.898437 -1.39875,0.898437 l -0.0134,0.234375 c 1.2525,0 2.65968,-1.281875 2.65968,-2.914999 0,-0.178438 0,-0.686251 -0.32687,-1.152501 l 1.16437,0 z"
     inkscape:connector-curvature="0"
     id="path126"
     style="fill:#000000;fill-opacity:1;fill-rule:nonzero;stroke:none" /><path
     d="m 244.04062,32.791983 -0.2525,0 c -0.0219,0.16125 -0.0978,0.601874 -0.19406,0.67375 -0.055,0.04281 -0.6275,0.04281 -0.73125,0.04281 l -1.36468,0 c 0.7775,-0.687187 1.0375,-0.893437 1.48187,-1.241562 0.54813,-0.438126 1.06062,-0.897188 1.06062,-1.601563 0,-0.897187 -0.78468,-1.445312 -1.73437,-1.445312 -0.91687,0 -1.54187,0.644687 -1.54187,1.324687 0,0.380625 0.31875,0.4175 0.39562,0.4175 0.17688,0 0.39188,-0.128438 0.39188,-0.394375 0,-0.131875 -0.0538,-0.390625 -0.43844,-0.390625 0.22969,-0.525 0.73375,-0.687188 1.08156,-0.687188 0.74219,0 1.12688,0.574688 1.12688,1.175313 0,0.644688 -0.45907,1.155 -0.69719,1.420938 l -1.78344,1.764062 c -0.0769,0.06594 -0.0769,0.08281 -0.0769,0.289375 l 3.05312,0 0.22313,-1.347812 z"
     inkscape:connector-curvature="0"
     id="path128"
     style="fill:#000000;fill-opacity:1;fill-rule:nonzero;stroke:none" /><path
     d="m 245.2125,36.796983 0.0247,-0.03531 0.0256,-0.03406 0.0256,-0.03656 0.0256,-0.03187 0.0231,-0.03188 0.0256,-0.03156 0.0256,-0.02813 0.0256,-0.02938 0.0256,-0.02812 0.0256,-0.02563 0.0256,-0.02313 0.0256,-0.02562 0.0256,-0.02063 0.0244,-0.02219 0.0281,-0.02062 0.0256,-0.01938 0.0281,-0.01844 0.0269,-0.01719 0.0281,-0.01563 0.0294,-0.01469 0.0278,-0.01469 0.0294,-0.01219 0.0306,-0.01344 0.0316,-0.01094 0.0319,-0.01 0.0634,-0.01687 0.0341,-0.0063 0.0344,-0.0072 0.0366,-0.0037 0.0353,-0.005 0.0366,-0.0034 c 0.0916,-0.0063 0.16968,-0.01344 0.16968,-0.16125 0,-0.02437 -0.0122,-0.105 -0.1025,-0.105 -0.18062,0 -0.41,0.03063 -0.59437,0.03063 -0.23688,0 -0.54938,-0.03063 -0.76782,-0.03063 -0.0697,0 -0.14906,0.02313 -0.14906,0.163437 0,0.09656 0.1025,0.102813 0.13188,0.102813 0.23562,0.01687 0.30156,0.10375 0.30156,0.217187 0,0.10125 -0.0488,0.175625 -0.13187,0.295313 l -2.42657,3.584062 -0.67531,-3.784062 c -0.0144,-0.06594 -0.0144,-0.08313 -0.0144,-0.1125 0,-0.2 0.4125,-0.2 0.46625,-0.2 0.12437,0 0.22343,0 0.22343,-0.16125 0,-0.0072 -0.007,-0.105 -0.12843,-0.105 -0.21469,0 -0.73969,0.03063 -0.95688,0.03063 -0.18187,0 -0.63344,-0.03063 -0.82031,-0.03063 -0.0659,0 -0.14906,0.02313 -0.14906,0.163437 0,0.102813 0.105,0.102813 0.18687,0.102813 0.415,0 0.42125,0.04625 0.45781,0.240312 l 0.80813,4.500625 c 0.0294,0.1575 0.0353,0.201562 0.17812,0.201562 0.14032,0 0.17719,-0.0525 0.25282,-0.161249 l 2.82812,-4.1675 z"
     inkscape:connector-curvature="0"
     id="path130"
     style="fill:#000000;fill-opacity:1;fill-rule:nonzero;stroke:none" /><path
     d="m 246.94125,40.858545 0,0.07563 -0.005,0.07937 -0.006,0.08031 -0.009,0.08063 -0.006,0.04281 -0.009,0.04031 -0.007,0.04281 -0.01,0.04031 -0.0222,0.08531 -0.0147,0.04281 -0.0122,0.04125 -0.0169,0.04531 -0.0172,0.04281 -0.0194,0.0425 -0.0209,0.04406 -0.0231,0.04281 -0.0244,0.045 -0.0269,0.04156 -0.0281,0.04531 -0.0294,0.045 -0.0316,0.04406 -0.0344,0.04281 -0.0366,0.045 -0.0403,0.04406 -0.0403,0.045 -0.0425,0.04406 -0.0466,0.04281 c -0.0306,0.02906 -0.0538,0.05344 -0.0538,0.09156 0,0.05344 0.06,0.1025 0.105,0.1025 0.10125,0 0.7325,-0.592188 0.7325,-1.472188 0,-0.461562 -0.18062,-0.806875 -0.51875,-0.806875 -0.24406,0 -0.42,0.192813 -0.42,0.422188 0,0.234375 0.16719,0.427187 0.42719,0.427187 0.18062,0 0.29562,-0.118125 0.30656,-0.118125 z"
     inkscape:connector-curvature="0"
     id="path132"
     style="fill:#000000;fill-opacity:1;fill-rule:nonzero;stroke:none" /><path
     d="m 250.22125,36.057295 0,-0.0034 0.002,-0.0025 0,-0.005 0.001,0 0,-0.0037 0.002,-0.0047 0,-0.0037 0.002,-0.005 0,-0.0034 0.002,-0.0038 0,-0.005 0.004,-0.01094 0.002,-0.0084 0.001,-0.0097 0,-0.005 0.003,-0.0063 0,-0.0047 0.002,-0.0037 0,-0.0038 0.002,-0.0047 0,-0.0025 0.001,-0.0038 0,-0.01094 0.002,0 0,-0.0025 c 0,-0.03781 -0.0294,-0.10625 -0.12094,-0.10625 -0.14531,0 -0.75938,0.06 -0.94594,0.07719 -0.06,0.0059 -0.16375,0.01438 -0.16375,0.169375 0,0.102813 0.10375,0.102813 0.19281,0.102813 0.35532,0 0.35532,0.0525 0.35532,0.114687 0,0.04875 -0.0172,0.095 -0.0294,0.160937 l -1.04594,4.193126 c -0.0369,0.131875 -0.0369,0.146562 -0.0369,0.163749 0,0.108438 0.0894,0.233125 0.25406,0.233125 0.19656,0 0.29531,-0.144062 0.34188,-0.3075 0.0122,-0.02937 0.33187,-1.335625 0.36124,-1.436874 0.525,0.0525 0.94594,0.220937 0.94594,0.607812 0,0.03531 0,0.07219 -0.0122,0.144062 -0.0306,0.112501 -0.0306,0.151563 -0.0306,0.234375 0,0.525 0.43,0.758125 0.785,0.758125 0.72031,0 0.94125,-1.124375 0.94125,-1.130312 0,-0.09781 -0.0953,-0.09781 -0.11844,-0.09781 -0.1025,0 -0.11219,0.03781 -0.14906,0.180625 -0.0866,0.31875 -0.28906,0.84375 -0.65062,0.84375 -0.20001,0 -0.25875,-0.186875 -0.25875,-0.387187 0,-0.124375 0,-0.137812 0.0416,-0.330625 0.0109,-0.02437 0.0403,-0.149063 0.0403,-0.231875 0,-0.659375 -0.89,-0.761875 -1.2025,-0.785 0.21625,-0.134375 0.48844,-0.378438 0.61406,-0.488437 0.37844,-0.355001 0.75094,-0.704376 1.16344,-0.704376 0.0891,0 0.18688,0.02344 0.24656,0.09531 -0.31968,0.05375 -0.38562,0.304062 -0.38562,0.4175 0,0.16125 0.12562,0.272187 0.29406,0.272187 0.20375,0 0.4225,-0.163437 0.4225,-0.4725 0,-0.246562 -0.17594,-0.51875 -0.56781,-0.51875 -0.42219,0 -0.80688,0.301563 -1.18532,0.650625 -0.3125,0.295625 -0.55531,0.525 -0.86187,0.653125 l 0.73625,-2.957812 z"
     inkscape:connector-curvature="0"
     id="path134"
     style="fill:#000000;fill-opacity:1;fill-rule:nonzero;stroke:none" /><path
     d="m 236.19531,20.290733 0.004,-0.02188 0.005,-0.02312 0.0122,-0.04656 0.0122,-0.05125 0.0134,-0.05125 0.0122,-0.0525 0.0134,-0.05375 0.0125,-0.05125 0.0134,-0.0525 0.003,-0.02313 0.006,-0.02562 0.007,-0.02313 0.004,-0.02437 0.006,-0.02094 0.005,-0.02063 0.004,-0.02219 0.005,-0.01687 0.004,-0.01844 0.002,-0.01594 0.004,-0.01437 0.002,-0.01469 0.002,-0.01125 0,-0.0097 0.002,-0.0072 0,-0.0063 c 0,-0.178125 -0.12562,-0.284375 -0.30625,-0.284375 -0.0319,0 -0.32719,0.0084 -0.425,0.378437 l -1.52469,6.135313 c -0.0303,0.125625 -0.0303,0.144062 -0.0303,0.168437 0,0.1575 0.11719,0.286875 0.29656,0.286875 0.22219,0 0.34782,-0.194062 0.37094,-0.223437 0.0403,-0.09531 0.17969,-0.648125 0.58125,-2.279063 0.33938,0.284375 0.81406,0.329688 1.02656,0.329688 0.74219,0 1.15594,-0.47625 1.41,-0.774063 0.095,0.478438 0.48688,0.774063 0.95219,0.774063 0.37219,0 0.61375,-0.243125 0.78469,-0.5825 0.17844,-0.380625 0.31875,-1.02875 0.31875,-1.048438 0,-0.10625 -0.0966,-0.10625 -0.12594,-0.10625 -0.10594,0 -0.11719,0.04281 -0.15125,0.191563 -0.17812,0.68875 -0.37094,1.31125 -0.80312,1.31125 -0.28438,0 -0.31875,-0.273438 -0.31875,-0.487188 0,-0.233125 0.12687,-0.73125 0.2125,-1.098437 l 0.29531,-1.1475 c 0.0344,-0.16 0.13687,-0.561563 0.18062,-0.721563 0.0538,-0.241562 0.16,-0.644375 0.16,-0.705625 0,-0.194062 -0.15125,-0.286875 -0.30625,-0.286875 -0.0537,0 -0.32968,0.01094 -0.41531,0.37 l -0.49906,1.98125 c -0.12594,0.529688 -0.24188,0.974063 -0.27594,1.080313 -0.008,0.0525 -0.5175,1.015625 -1.37344,1.015625 -0.52968,0 -0.78468,-0.348125 -0.78468,-0.918125 0,-0.31 0.0719,-0.605313 0.14875,-0.903125 l 0.44687,-1.7775 z"
     inkscape:connector-curvature="0"
     id="path136"
     style="fill:#000000;fill-opacity:1;fill-rule:nonzero;stroke:none" /><path
     d="m 245.41906,21.408858 0.0256,-0.03656 0.0256,-0.03531 0.0256,-0.03438 0.0256,-0.03156 0.0231,-0.03313 0.0256,-0.03156 0.0256,-0.02938 0.0256,-0.02812 0.0256,-0.02688 0.0513,-0.05125 0.0244,-0.02313 0.0256,-0.02312 0.0256,-0.02219 0.0281,-0.01938 0.0256,-0.01844 0.0269,-0.01938 0.0563,-0.03406 0.0269,-0.01469 0.0303,-0.01219 0.0294,-0.01344 0.0294,-0.01219 0.0328,-0.01125 0.0294,-0.01094 0.0344,-0.0084 0.0316,-0.0084 0.0684,-0.0125 0.0353,-0.0047 0.0366,-0.0038 0.0366,-0.0047 c 0.0906,-0.0063 0.16969,-0.0125 0.16969,-0.16125 0,-0.02313 -0.0134,-0.10375 -0.10375,-0.10375 -0.17937,0 -0.40875,0.02938 -0.59312,0.02938 -0.23688,0 -0.54938,-0.02938 -0.76782,-0.02938 -0.0709,0 -0.14906,0.02313 -0.14906,0.163437 0,0.09531 0.10281,0.101563 0.13188,0.101563 0.23562,0.01687 0.30156,0.104687 0.30156,0.217187 0,0.1025 -0.0487,0.176875 -0.13188,0.295313 l -2.42781,3.585312 -0.675,-3.785312 c -0.0134,-0.065 -0.0134,-0.08188 -0.0134,-0.1125 0,-0.2 0.4125,-0.2 0.46624,-0.2 0.12438,0 0.22219,0 0.22219,-0.16125 0,-0.0084 -0.009,-0.10375 -0.12719,-0.10375 -0.21468,0 -0.73968,0.02938 -0.95687,0.02938 -0.18313,0 -0.63344,-0.02938 -0.82031,-0.02938 -0.0659,0 -0.14907,0.02313 -0.14907,0.163437 0,0.101563 0.10282,0.101563 0.18563,0.101563 0.41625,0 0.4225,0.0475 0.45906,0.240312 l 0.80813,4.500625 c 0.0294,0.155 0.0353,0.202813 0.17812,0.202813 0.14032,0 0.17594,-0.05375 0.25282,-0.1625 l 2.82718,-4.16625 z"
     inkscape:connector-curvature="0"
     id="path138"
     style="fill:#000000;fill-opacity:1;fill-rule:nonzero;stroke:none" /><path
     d="m 247.1475,25.468858 -0.001,0.07719 -0.002,0.07813 -0.006,0.08156 -0.009,0.08063 -0.007,0.04031 -0.0172,0.08531 -0.007,0.04031 -0.0109,0.04156 -0.0112,0.04281 -0.0437,0.128125 -0.0172,0.04406 -0.0194,0.0425 -0.0209,0.04531 -0.0244,0.04281 -0.0231,0.04375 -0.0269,0.04281 -0.0281,0.045 -0.0294,0.04406 -0.0328,0.04281 -0.0331,0.045 -0.0391,0.04406 -0.0378,0.04531 -0.0403,0.0425 -0.0425,0.04406 -0.0466,0.045 c -0.0303,0.02937 -0.0537,0.0525 -0.0537,0.08938 0,0.0525 0.06,0.10375 0.1025,0.10375 0.10375,0 0.735,-0.590938 0.735,-1.470938 0,-0.464062 -0.18063,-0.808125 -0.51875,-0.808125 -0.24656,0 -0.4225,0.191563 -0.4225,0.420938 0,0.235625 0.16969,0.429687 0.42969,0.429687 0.18062,0 0.29562,-0.119687 0.30531,-0.119687 z"
     inkscape:connector-curvature="0"
     id="path140"
     style="fill:#000000;fill-opacity:1;fill-rule:nonzero;stroke:none" /><path
     d="m 250.42625,20.66917 0.002,-0.0025 0,-0.0034 0.001,-0.0025 0,-0.005 0.002,-0.0013 0,-0.0047 0.002,-0.0038 0.002,-0.005 0,-0.0034 0.001,-0.005 0,-0.0038 0.002,-0.0072 0,-0.0038 0.005,-0.01094 9.4e-4,-0.0084 0,-0.0063 0.002,-0.0038 0,-0.0047 0.002,-0.0038 0,-0.005 0.002,-0.0034 0,-0.0075 0.001,-0.0013 0,-0.01094 c 0,-0.04031 -0.0294,-0.10625 -0.11844,-0.10625 -0.14531,0 -0.76188,0.06 -0.94594,0.07688 -0.06,0.0062 -0.16375,0.01219 -0.16375,0.169687 0,0.101563 0.10375,0.101563 0.19281,0.101563 0.35532,0 0.35532,0.05344 0.35532,0.113437 0,0.05125 -0.0172,0.0975 -0.0294,0.163438 l -1.04594,4.191875 c -0.0369,0.131875 -0.0369,0.145312 -0.0369,0.1625 0,0.109687 0.0894,0.235625 0.25281,0.235625 0.19781,0 0.29531,-0.146563 0.34062,-0.309063 0.0147,-0.02906 0.33313,-1.334062 0.36376,-1.439062 0.52499,0.05375 0.94593,0.223437 0.94593,0.609062 0,0.03531 0,0.07344 -0.0134,0.146563 -0.0291,0.112187 -0.0291,0.149062 -0.0291,0.231875 0,0.525 0.42719,0.760625 0.78219,0.760625 0.72281,0 0.94375,-1.124375 0.94375,-1.132813 0,-0.09656 -0.0953,-0.09656 -0.11844,-0.09656 -0.1025,0 -0.11344,0.03656 -0.14875,0.179375 -0.0881,0.31875 -0.28937,0.84375 -0.65312,0.84375 -0.19782,0 -0.25782,-0.184375 -0.25782,-0.384688 0,-0.125625 0,-0.140312 0.0428,-0.331875 0.0109,-0.02344 0.0403,-0.149062 0.0403,-0.233125 0,-0.658125 -0.89,-0.759375 -1.20344,-0.7825 0.21719,-0.134375 0.48938,-0.378437 0.615,-0.489687 0.37844,-0.355313 0.75094,-0.703125 1.16219,-0.703125 0.0903,0 0.18562,0.02313 0.24781,0.09531 -0.31969,0.05375 -0.38687,0.301563 -0.38687,0.415 0,0.163438 0.12687,0.273438 0.29531,0.273438 0.20375,0 0.4225,-0.163438 0.4225,-0.47125 0,-0.246563 -0.17594,-0.51875 -0.56781,-0.51875 -0.42219,0 -0.80813,0.301562 -1.18657,0.650625 -0.3125,0.295312 -0.55406,0.525 -0.86062,0.650625 l 0.73375,-2.955313 z"
     inkscape:connector-curvature="0"
     id="path142"
     style="fill:#000000;fill-opacity:1;fill-rule:nonzero;stroke:none" /><g
     transform="matrix(0.3125,0,0,0.3125,1,1.0000044)"
     id="g144"><path
       d="m 758.324,50.828 33.34,0 c 17.5,0 31.586,14.086 31.586,31.586 l 0,26.32 c 0,17.496 -14.086,31.582 -31.586,31.582 l -33.34,0 c -17.496,0 -31.582,-14.086 -31.582,-31.582 l 0,-26.32 c 0,-17.5 14.086,-31.586 31.582,-31.586 z"
       inkscape:connector-curvature="0"
       id="path146"
       style="fill:none;stroke:#000000;stroke-width:2;stroke-linecap:round;stroke-linejoin:bevel;stroke-miterlimit:4;stroke-opacity:1;stroke-dasharray:6, 6;stroke-dashoffset:0" /></g><g
     transform="matrix(0.3125,0,0,0.3125,1,1.0000044)"
     id="g148"><path
       d="m 542.887,144.812 0,58.219"
       inkscape:connector-curvature="0"
       id="path150"
       style="fill:none;stroke:#000000;stroke-width:2;stroke-linecap:butt;stroke-linejoin:miter;stroke-miterlimit:4;stroke-opacity:1;stroke-dasharray:none" /></g><g
     transform="matrix(0,-0.3125,0.3125,0,1,1.0000044)"
     id="g152"><path
       d="m -195.031,542.887 4,-4 -14,4 14,4 -4,-4 z"
       inkscape:connector-curvature="0"
       id="path154"
       style="fill:#000000;fill-opacity:1;fill-rule:evenodd;stroke:#000000;stroke-width:1;stroke-linecap:butt;stroke-linejoin:miter;stroke-miterlimit:4;stroke-opacity:1;stroke-dasharray:none" /></g><g
     transform="matrix(0.3125,0,0,0.3125,1,1.0000044)"
     id="g156"><path
       d="m 774.996,143.777 0,59.641"
       inkscape:connector-curvature="0"
       id="path158"
       style="fill:none;stroke:#000000;stroke-width:2;stroke-linecap:butt;stroke-linejoin:miter;stroke-miterlimit:4;stroke-opacity:1;stroke-dasharray:none" /></g><g
     transform="matrix(-4.19175e-8,-0.3125,0.3125,-4.19175e-8,1,1.0000044)"
     id="g160"><path
       d="m -195.418,774.996 4,-4 -14,4 14,4 -4,-4 z"
       inkscape:connector-curvature="0"
       id="path162"
       style="fill:#000000;fill-opacity:1;fill-rule:evenodd;stroke:#000000;stroke-width:1;stroke-linecap:butt;stroke-linejoin:miter;stroke-miterlimit:4;stroke-opacity:1;stroke-dasharray:none" /></g><g
     transform="matrix(0.3125,0,0,0.3125,1,1.0000044)"
     id="g164"><path
       d="m 462.695,1 394.051,0 0,161.633 -394.051,0 0,-161.633 z"
       inkscape:connector-curvature="0"
       id="path166"
       style="fill:none;stroke:#000000;stroke-width:2;stroke-linecap:round;stroke-linejoin:miter;stroke-miterlimit:4;stroke-opacity:1;stroke-dasharray:none" /></g><path
     d="m 205.90719,70.906045 0,-0.0063 -0.003,-0.0047 0,-0.01844 -0.002,-0.0059 0,-0.005 -0.002,-0.005 -0.002,-0.0059 -0.002,-0.0075 -0.004,-0.0059 -0.002,-0.0075 -0.002,-0.0059 -0.005,-0.0075 -0.006,-0.0047 -0.005,-0.0062 -0.005,-0.0072 -0.006,-0.0062 -0.005,-0.0022 -0.002,-0.0025 -0.006,-0.0025 -0.002,-0.0025 -0.005,-0.0038 -0.002,-0.0022 -0.006,-0.0025 -0.005,-0.0025 -0.005,0 -0.006,-0.0025 -0.005,-0.0025 -0.005,0 -0.006,-0.0034 -0.005,-0.0025 -0.0134,0 -0.008,-0.0025 -0.0125,0 -0.008,-0.0025 -0.0134,0 c -0.3075,0 -1.27312,0.10875 -1.615,0.133125 -0.10969,0.01344 -0.255,0.02563 -0.255,0.265 0,0.159687 0.12188,0.159687 0.32094,0.159687 0.63469,0 0.65906,0.09031 0.65906,0.223438 l -0.04,0.26625 -1.91906,7.626875 c -0.055,0.183125 -0.055,0.2125 -0.055,0.291875 0,0.3025 0.265,0.369687 0.38812,0.369687 0.16969,0 0.36875,-0.121875 0.44563,-0.279375 0.0672,-0.119687 0.66531,-2.567187 0.74469,-2.899375 0.44906,0.04031 1.53562,0.250313 1.53562,1.126875 0,0.09031 0,0.14625 -0.0403,0.279375 -0.0256,0.15625 -0.055,0.3125 -0.055,0.459063 0,0.78375 0.53125,1.313437 1.22219,1.313437 0.39281,0 0.75187,-0.213437 1.04468,-0.701875 0.32969,-0.582187 0.475,-1.313437 0.475,-1.336562 0,-0.133125 -0.11593,-0.133125 -0.15875,-0.133125 -0.13312,0 -0.14406,0.05375 -0.18687,0.239375 -0.2625,0.964062 -0.5675,1.639375 -1.14969,1.639375 -0.25031,0 -0.4225,-0.142813 -0.4225,-0.621563 0,-0.223125 0.0525,-0.525937 0.10625,-0.738437 0.05,-0.229375 0.05,-0.279375 0.05,-0.4125 0,-0.863125 -0.83375,-1.246563 -1.95812,-1.389375 0.40906,-0.242813 0.83375,-0.665 1.14031,-0.98125 0.63469,-0.701875 1.24031,-1.269688 1.89437,-1.269688 0.0769,0 0.0903,0 0.11719,0.01219 0.15875,0.02469 0.17219,0.02469 0.27594,0.10375 0.0294,0.01594 0.0294,0.02937 0.0563,0.05375 -0.63844,0.04281 -0.75813,0.555625 -0.75813,0.715312 0,0.21 0.14657,0.465313 0.50282,0.465313 0.34562,0 0.73,-0.293125 0.73,-0.805625 0,-0.399375 -0.305,-0.835 -0.90063,-0.835 -0.36875,0 -0.98031,0.10375 -1.93375,1.161875 -0.44906,0.501875 -0.96312,1.034062 -1.46719,1.233125 l 1.37563,-5.588438 z"
     inkscape:connector-curvature="0"
     id="path168"
     style="fill:#000000;fill-opacity:1;fill-rule:nonzero;stroke:none" /><path
     d="m 213.06187,76.13792 0,-0.01594 -0.002,-0.01563 0,-0.01344 -0.002,-0.01594 -0.006,-0.01594 -0.002,-0.01594 -0.005,-0.01344 -0.006,-0.01594 -0.005,-0.01563 -0.007,-0.01344 -0.006,-0.01594 -0.007,-0.01344 -0.0112,-0.01594 -0.008,-0.01344 -0.01,-0.01344 -0.0134,-0.01344 -0.0109,-0.01344 -0.0134,-0.0097 -0.0134,-0.01344 -0.0134,-0.01094 -0.0159,-0.01094 -0.0134,-0.0075 -0.0184,-0.01094 -0.0156,-0.0072 -0.0184,-0.0062 -0.0184,-0.0072 -0.0194,-0.0062 -0.0184,-0.0047 -0.0206,-0.0025 -0.0219,-0.0025 -0.0234,-0.0025 -0.0219,0 c -0.27093,0 -0.52,0.26 -0.52,0.510313 0,0.147812 0.11344,0.352813 0.37125,0.352813 0.2475,0 0.51875,-0.241876 0.51875,-0.510313 z"
     inkscape:connector-curvature="0"
     id="path170"
     style="fill:#000000;fill-opacity:1;fill-rule:nonzero;stroke:none" /><path
     d="m 211.0975,82.378232 -0.0156,0.06094 -0.0366,0.117188 -0.0222,0.055 -0.0231,0.05625 -0.0244,0.05594 -0.0269,0.055 -0.0294,0.05375 -0.0294,0.05 -0.0291,0.05125 -0.0344,0.05 -0.0316,0.04781 -0.0344,0.045 -0.0378,0.04531 -0.0366,0.0425 -0.0403,0.04031 -0.0403,0.03906 -0.0391,0.03781 -0.0853,0.06844 -0.0903,0.05875 -0.0453,0.02687 -0.0475,0.02438 -0.0453,0.02062 -0.0475,0.01844 -0.0513,0.01594 -0.0475,0.01344 -0.0503,0.01094 -0.0513,0.0084 -0.05,0.005 -0.05,0 c -0.11969,0 -0.23187,-0.01594 -0.33562,-0.05375 0.23937,-0.11125 0.31625,-0.332188 0.31625,-0.4725 0,-0.220938 -0.17469,-0.340625 -0.36157,-0.340625 -0.28687,0 -0.52843,0.250312 -0.52843,0.542187 0,0.35375 0.36124,0.586875 0.91687,0.586875 0.55781,0 1.63687,-0.331875 1.9275,-1.460937 l 0.83125,-3.319063 c 0.0291,-0.09906 0.045,-0.180937 0.045,-0.324687 0,-0.504375 -0.43094,-0.865625 -0.98875,-0.865625 -1.02781,0 -1.61875,1.285312 -1.61875,1.415937 0,0.119688 0.12844,0.119688 0.1575,0.119688 0.10875,0 0.12219,-0.02938 0.18313,-0.164688 0.23437,-0.542187 0.71531,-1.113437 1.24874,-1.113437 0.23438,0 0.31625,0.15625 0.31625,0.451875 0,0.10375 -0.0159,0.234375 -0.0294,0.279375 l -0.8875,3.545 z"
     inkscape:connector-curvature="0"
     id="path172"
     style="fill:#000000;fill-opacity:1;fill-rule:nonzero;stroke:none" /><g
     transform="matrix(0.3125,0,0,0.3125,1,1.0000044)"
     id="g174"><path
       d="m 696.867,244.121 c 0,19.125 -15.508,34.633 -34.637,34.633 -19.125,0 -34.632,-15.508 -34.632,-34.633 0,-19.129 15.507,-34.637 34.632,-34.637 19.129,0 34.637,15.508 34.637,34.637 z"
       inkscape:connector-curvature="0"
       id="path176"
       style="fill:none;stroke:#000000;stroke-width:2;stroke-linecap:round;stroke-linejoin:miter;stroke-miterlimit:4;stroke-opacity:1;stroke-dasharray:none" /></g><path
     d="m 226.3675,4.21167 0,-0.00375 -0.001,-0.00344 0,-0.012188 -0.001,-0.00375 0,-0.0025 -0.002,-0.00375 -0.001,-0.00344 -0.003,-0.005 -9.4e-4,-0.00375 -0.001,-0.00469 -0.002,-0.00375 -0.004,-0.005 -0.002,-0.00344 -0.003,-0.00375 -0.004,-0.005 -0.004,-0.00375 -0.004,-9.375e-4 -0.001,-0.00125 -0.003,-0.0025 -0.001,-0.00125 -0.004,-0.0025 -0.001,-0.00125 -0.003,-0.00125 -0.004,-0.0025 -0.004,0 -0.002,-9.375e-4 -0.003,-0.0025 -0.004,0 -0.007,-0.0025 -0.008,0 -0.005,-0.0025 -0.008,0 -0.005,-0.00125 -0.008,0 c -0.19656,0 -0.81406,0.069687 -1.03375,0.085625 -0.0697,0.00844 -0.16375,0.016875 -0.16375,0.1696875 0,0.1025 0.0781,0.1025 0.20625,0.1025 0.40656,0 0.42125,0.057188 0.42125,0.1428125 l -0.0244,0.1696875 -1.22813,4.8815625 c -0.0366,0.1171875 -0.0366,0.1353125 -0.0366,0.186875 0,0.1940625 0.17094,0.2365625 0.24906,0.2365625 0.10844,0 0.23563,-0.07937 0.28563,-0.179375 0.0428,-0.075625 0.42468,-1.643125 0.47593,-1.8553125 0.28688,0.025625 0.98282,0.1596875 0.98282,0.72125 0,0.0575 0,0.094062 -0.0256,0.1784375 -0.0172,0.1 -0.0356,0.20125 -0.0356,0.2940625 0,0.5015625 0.34062,0.8409375 0.7825,0.8409375 0.25156,0 0.48093,-0.1365625 0.66906,-0.4490625 0.21,-0.3725 0.30406,-0.84125 0.30406,-0.855625 0,-0.085625 -0.0747,-0.085625 -0.1025,-0.085625 -0.0844,0 -0.0916,0.034063 -0.11844,0.15375 -0.16843,0.6165625 -0.36375,1.04875 -0.73625,1.04875 -0.16,0 -0.27093,-0.091563 -0.27093,-0.398125 0,-0.1428125 0.0341,-0.336875 0.0684,-0.4721875 0.0316,-0.1465625 0.0316,-0.1784375 0.0316,-0.26375 0,-0.553125 -0.53344,-0.7984375 -1.25344,-0.89 0.26219,-0.155 0.53469,-0.4246875 0.73,-0.6275 0.40625,-0.4490625 0.79469,-0.8128125 1.21187,-0.8128125 0.0503,0 0.0588,0 0.0759,0.00844 0.10125,0.015938 0.10969,0.015938 0.17688,0.065938 0.0184,0.010937 0.0184,0.019687 0.0353,0.034063 -0.4075,0.028125 -0.48438,0.3565625 -0.48438,0.4578125 0,0.134375 0.0925,0.2978125 0.32094,0.2978125 0.22094,0 0.4675,-0.1865625 0.4675,-0.515 0,-0.255 -0.19531,-0.5346875 -0.57625,-0.5346875 -0.23687,0 -0.6275,0.067188 -1.23781,0.7434375 -0.28813,0.3209375 -0.61625,0.6615625 -0.93875,0.7896875 L 226.3675,4.21167 z"
     inkscape:connector-curvature="0"
     id="path178"
     style="fill:#000000;fill-opacity:1;fill-rule:nonzero;stroke:none" /><path
     d="m 236.79844,7.22667 0.0731,0 0.0122,-0.00219 0.0134,0 0.0244,-0.0025 0.0109,-0.0025 0.0122,-0.00125 0.0122,-0.0025 0.01,-0.0025 0.0122,-0.00344 0.01,-0.00375 0.0109,-0.00375 0.0197,-0.00969 0.008,-0.00719 0.008,-0.005 0.009,-0.00844 0.007,-0.00625 0.007,-0.00844 0.002,-0.005 0.004,-0.00594 0.001,-0.0025 0.004,-0.00625 0.002,-0.00469 0.001,-0.00625 0.003,-0.00594 0.001,-0.00625 0.002,-0.005 0.001,-0.00719 0,-0.00625 0.001,-0.00719 0,-0.00719 0.002,-0.00625 0,-0.015938 c 0,-0.1696875 -0.1625,-0.1696875 -0.27969,-0.1696875 l -5.07437,0 c -0.12094,0 -0.28094,0 -0.28094,0.1696875 0,0.1671875 0.16,0.1671875 0.28688,0.1671875 l 5.06,0 z"
     inkscape:connector-curvature="0"
     id="path180"
     style="fill:#000000;fill-opacity:1;fill-rule:nonzero;stroke:none" /><path
     d="m 236.80687,8.873545 0.0219,0 0.0244,-0.0025 0.0356,0 0.0122,-0.00125 0.0122,-0.0025 0.01,0 0.0122,-9.375e-4 0.0122,-0.00375 0.0109,-0.00125 0.0331,-0.010938 0.01,-0.0025 0.008,-0.00625 0.01,-0.00469 0.008,-0.00625 0.008,-0.00719 0.009,-0.00625 0.007,-0.00844 0.004,-0.00375 0.004,-0.00469 0.002,-0.00375 0.004,-0.005 0.001,-0.00594 0.004,-0.005 0.002,-0.005 0.001,-0.00469 0.003,-0.0075 0.001,-0.00469 0.002,-0.00625 0.001,-0.00719 0,-0.0075 0.001,-0.00594 0,-0.0075 0.002,-0.00594 0,-0.015938 c 0,-0.1696875 -0.1625,-0.1696875 -0.28812,-0.1696875 l -5.06,0 c -0.12688,0 -0.28688,0 -0.28688,0.1696875 0,0.1709375 0.16,0.1709375 0.28094,0.1709375 l 5.07437,0 z"
     inkscape:connector-curvature="0"
     id="path182"
     style="fill:#000000;fill-opacity:1;fill-rule:nonzero;stroke:none" /><path
     d="m 242.40625,4.57542 0,-0.059687 -0.001,-0.00875 0,-0.039063 -0.002,-0.00719 0,-0.005 -0.001,-0.012187 -0.002,-0.00969 -0.002,-0.017188 -0.004,-0.00844 -0.004,-0.00625 -0.003,-0.00719 -0.005,-0.005 -0.004,-0.00469 -0.0109,-0.010937 -0.007,-0.0025 -0.009,-0.00375 -0.003,-0.0025 -0.004,-0.00125 -0.005,0 -0.005,-0.00125 -0.004,-0.00219 -0.005,0 -0.005,-0.00125 -0.008,0 -0.005,-0.0025 -0.0122,0 -0.006,-0.00125 -0.0353,0 -0.007,-0.00125 -0.0341,0 c -0.5275,0.541875 -1.27094,0.541875 -1.54313,0.541875 l 0,0.26375 c 0.17094,0 0.67032,0 1.10969,-0.2209375 l 0,4.3896875 c 0,0.30625 -0.0244,0.4065625 -0.78719,0.4065625 l -0.27125,0 0,0.26375 c 0.29813,-0.026875 1.03407,-0.026875 1.37094,-0.026875 0.34063,0 1.07688,0 1.37469,0.026875 l 0,-0.26375 -0.27125,0 c -0.76281,0 -0.78844,-0.091563 -0.78844,-0.4065625 l 0,-4.7534375 z"
     inkscape:connector-curvature="0"
     id="path184"
     style="fill:#000000;fill-opacity:1;fill-rule:nonzero;stroke:none" /><path
     d="m 247.19375,9.549795 0,-0.021875 -0.001,-0.024375 -0.007,-0.044063 -0.005,-0.019687 -0.007,-0.023125 -0.006,-0.019375 -0.0169,-0.041562 -0.01,-0.018438 -0.0109,-0.018125 -0.0122,-0.019687 -0.0109,-0.016875 -0.0134,-0.017187 -0.0147,-0.017188 -0.0303,-0.030313 -0.0344,-0.026875 -0.0169,-0.012188 -0.0184,-0.01125 -0.0184,-0.012188 -0.0181,-0.010937 -0.0209,-0.00719 -0.0206,-0.00875 -0.0209,-0.00719 -0.0219,-0.00719 -0.0219,-0.005 -0.0219,-0.00375 -0.0441,-0.00469 -0.0244,0 c -0.24313,0 -0.44938,0.20375 -0.44938,0.4490625 0,0.2453125 0.20625,0.449375 0.44938,0.449375 0.24906,0 0.44906,-0.2040625 0.44906,-0.449375 z"
     inkscape:connector-curvature="0"
     id="path186"
     style="fill:#000000;fill-opacity:1;fill-rule:nonzero;stroke:none" /><path
     d="m 250.94875,9.549795 0,-0.021875 -0.001,-0.024375 -0.004,-0.022188 -0.002,-0.021875 -0.006,-0.019687 -0.006,-0.023125 -0.007,-0.019375 -0.0172,-0.041562 -0.0194,-0.036563 -0.0122,-0.019687 -0.0122,-0.016875 -0.0134,-0.017187 -0.0159,-0.017188 -0.0134,-0.014688 -0.0172,-0.015625 -0.0147,-0.013438 -0.0169,-0.013437 -0.0172,-0.012188 -0.0184,-0.01125 -0.0194,-0.012188 -0.0206,-0.010937 -0.0184,-0.00719 -0.0206,-0.00875 -0.0222,-0.00719 -0.0194,-0.00719 -0.0231,-0.005 -0.0222,-0.00375 -0.0438,-0.00469 -0.0234,0 c -0.24532,0 -0.44907,0.20375 -0.44907,0.4490625 0,0.2453125 0.20375,0.449375 0.44907,0.449375 0.24656,0 0.44812,-0.2040625 0.44812,-0.449375 z"
     inkscape:connector-curvature="0"
     id="path188"
     style="fill:#000000;fill-opacity:1;fill-rule:nonzero;stroke:none" /><path
     d="m 254.70469,9.549795 0,-0.021875 -0.002,-0.024375 -0.002,-0.022188 -0.004,-0.021875 -0.005,-0.019687 -0.007,-0.023125 -0.006,-0.019375 -0.0172,-0.041562 -0.0109,-0.018438 -0.01,-0.018125 -0.0122,-0.019687 -0.0134,-0.016875 -0.0122,-0.017187 -0.0147,-0.017188 -0.0156,-0.014688 -0.0147,-0.015625 -0.0159,-0.013438 -0.0172,-0.013437 -0.0181,-0.012188 -0.0172,-0.01125 -0.0184,-0.012188 -0.0206,-0.010937 -0.0206,-0.00719 -0.0209,-0.00875 -0.0194,-0.00719 -0.0209,-0.00719 -0.0219,-0.005 -0.0219,-0.00375 -0.0222,-0.0025 -0.0244,-0.00219 -0.0219,0 c -0.24531,0 -0.44937,0.20375 -0.44937,0.4490625 0,0.2453125 0.20406,0.449375 0.44937,0.449375 0.24657,0 0.44907,-0.2040625 0.44907,-0.449375 z"
     inkscape:connector-curvature="0"
     id="path190"
     style="fill:#000000;fill-opacity:1;fill-rule:nonzero;stroke:none" /><path
     d="m 261.16594,6.577295 0,-0.00344 -0.001,-0.00375 -0.002,-0.00125 0,-0.00375 -0.001,-0.00344 -0.002,-0.00375 -0.001,-0.005 -0.001,-0.00375 -0.002,-0.00219 -0.001,-0.00375 -0.002,-0.005 -9.4e-4,-0.00344 -0.004,-0.00875 -0.004,-0.010937 -0.003,-0.00844 -0.003,-0.0075 -0.002,-0.00344 -0.001,-0.005 -0.001,-0.00375 -0.002,-0.00344 0,-0.005 -0.001,-0.00375 0,-0.00375 -0.002,-0.00344 0,-0.0025 -9.3e-4,-0.00375 0,-0.00469 c 0,-0.0075 0.15125,-0.1284375 0.24656,-0.1940625 l 1.48312,-1.1453125 c 0.79594,-0.5846875 1.12782,-0.6175 1.37938,-0.641875 0.0694,-0.00875 0.155,-0.017187 0.155,-0.1709375 0,-0.031875 -0.0269,-0.092812 -0.0941,-0.092812 -0.18782,0 -0.39782,0.026875 -0.60188,0.026875 -0.30625,0 -0.63594,-0.026875 -0.94219,-0.026875 -0.0575,0 -0.1575,0 -0.1575,0.1696875 0,0.0575 0.0416,0.085312 0.1,0.094062 0.18563,0.014687 0.26375,0.057188 0.26375,0.175625 0,0.1515625 -0.25531,0.3490625 -0.30656,0.391875 l -3.30687,2.5403125 0.68125,-2.7184375 c 0.0744,-0.3053125 0.0928,-0.389375 0.71031,-0.389375 0.21125,0 0.28937,0 0.28937,-0.1709375 0,-0.074375 -0.0694,-0.092812 -0.11968,-0.092812 -0.23782,0 -0.84813,0.026875 -1.085,0.026875 -0.24407,0 -0.84594,-0.026875 -1.09125,-0.026875 -0.0613,0 -0.16969,0 -0.16969,0.16125 0,0.1025 0.0756,0.1025 0.24406,0.1025 0.11094,0 0.2625,0.00594 0.36375,0.014687 0.13531,0.018125 0.18906,0.0425 0.18906,0.1365625 0,0.033125 -0.0122,0.060938 -0.0353,0.16125 L 258.185,9.337295 c -0.0853,0.3321875 -0.10375,0.398125 -0.77375,0.398125 -0.14281,0 -0.23688,0 -0.23688,0.1634375 0,0.1003125 0.10125,0.1003125 0.12688,0.1003125 0.23687,0 0.84094,-0.026875 1.07656,-0.026875 0.17969,0 0.365,0.010937 0.54344,0.010937 0.18531,0 0.37219,0.015937 0.54906,0.015937 0.0613,0 0.16969,0 0.16969,-0.1696875 0,-0.094062 -0.0769,-0.094062 -0.23656,-0.094062 -0.3125,0 -0.54938,0 -0.54938,-0.1515625 0,-0.060938 0.05,-0.2465625 0.0756,-0.3746875 0.11843,-0.438125 0.22718,-0.8875 0.33937,-1.328125 l 1.26219,-0.9825 0.98375,2.2790625 c 0.10031,0.229375 0.10031,0.2453125 0.10031,0.2953125 0,0.255 -0.36375,0.2625 -0.44062,0.2625 -0.0941,0 -0.18563,0 -0.18563,0.1696875 0,0.094062 0.1,0.094062 0.11969,0.094062 0.33562,0 0.69312,-0.026875 1.03375,-0.026875 0.18562,0 0.64219,0.026875 0.82781,0.026875 0.0425,0 0.155,0 0.155,-0.1696875 0,-0.094062 -0.0953,-0.094062 -0.16969,-0.094062 -0.34906,-0.0075 -0.45781,-0.085625 -0.58593,-0.3796875 L 261.16594,6.577295 z"
     inkscape:connector-curvature="0"
     id="path192"
     style="fill:#000000;fill-opacity:1;fill-rule:nonzero;stroke:none" /><path
     d="m 204.87438,27.74792 1.49562,0 c -0.43594,1.961875 -0.55812,2.529375 -0.55812,3.414375 0,0.200312 0,0.555625 0.10874,1.007188 0.13313,0.582187 0.27969,0.662812 0.47844,0.662812 0.26125,0 0.53969,-0.236875 0.53969,-0.502812 0,-0.07938 0,-0.108751 -0.0794,-0.291876 -0.38343,-0.954687 -0.38343,-1.812812 -0.38343,-2.185 0,-0.701874 0.0941,-1.418437 0.23687,-2.104687 l 1.5125,0 c 0.16969,0 0.64813,0 0.64813,-0.451563 0,-0.31625 -0.27938,-0.31625 -0.53094,-0.31625 l -4.43594,0 c -0.28937,0 -0.79219,0 -1.37344,0.62375 -0.465,0.514063 -0.81062,1.124375 -0.81062,1.191563 0,0.01344 0,0.126875 0.15875,0.126875 0.10625,0 0.13312,-0.0475 0.21,-0.15625 0.65438,-1.018125 1.42219,-1.018125 1.68219,-1.018125 l 0.75812,0 c -0.42594,1.600625 -1.14031,3.202188 -1.69562,4.405625 -0.10875,0.200313 -0.10875,0.229375 -0.10875,0.32 0,0.255 0.2125,0.35875 0.38719,0.35875 0.39906,0 0.50281,-0.37 0.65906,-0.861875 0.18906,-0.607813 0.18906,-0.634687 0.35875,-1.29875 l 0.74219,-2.92375 z"
     inkscape:connector-curvature="0"
     id="path194"
     style="fill:#000000;fill-opacity:1;fill-rule:nonzero;stroke:none" /><path
     d="m 211.82406,28.513545 0,-0.005 0.002,0 0,-0.0084 0.002,-0.0025 0,-0.0025 0.002,-0.0059 0,-0.005 0.002,-0.005 0,-0.0059 0.002,-0.005 0.004,-0.005 0,-0.0084 0.002,-0.0047 0.003,-0.01344 0.002,-0.01125 0.002,-0.0072 0,-0.0063 0.002,-0.0047 0,-0.0063 0.003,-0.0047 0,-0.01125 0.002,-0.0022 0,-0.0075 0.002,-0.0025 0,-0.0059 c 0,-0.05 -0.0366,-0.133125 -0.14907,-0.133125 -0.18312,0 -0.95093,0.07437 -1.18531,0.09656 -0.0744,0.0072 -0.20125,0.01563 -0.20125,0.212188 0,0.127187 0.12688,0.127187 0.23906,0.127187 0.44313,0 0.44313,0.06687 0.44313,0.141563 0,0.06344 -0.0181,0.121875 -0.0366,0.203749 l -1.30719,5.240625 c -0.0453,0.164688 -0.0453,0.180625 -0.0453,0.202501 0,0.137812 0.11125,0.295312 0.31625,0.295312 0.24906,0 0.36875,-0.184063 0.42718,-0.385625 0.0159,-0.03781 0.415,-1.66875 0.45157,-1.799375 0.65687,0.06594 1.18312,0.279687 1.18312,0.760625 0,0.045 0,0.09281 -0.0159,0.183125 -0.0378,0.140313 -0.0378,0.185313 -0.0378,0.289375 0,0.656563 0.53687,0.951875 0.98125,0.951875 0.90094,0 1.17938,-1.40625 1.17938,-1.417187 0,-0.119688 -0.12219,-0.119688 -0.15157,-0.119688 -0.12687,0 -0.14031,0.04531 -0.18531,0.223438 -0.10875,0.399375 -0.36156,1.054687 -0.81312,1.054687 -0.25032,0 -0.32469,-0.230625 -0.32469,-0.480937 0,-0.15625 0,-0.174375 0.0537,-0.41375 0.0134,-0.02938 0.05,-0.186876 0.05,-0.293125 0,-0.820313 -1.11344,-0.948438 -1.50406,-0.9775 0.27125,-0.1675 0.61187,-0.4725 0.76812,-0.611563 0.47344,-0.443125 0.9375,-0.879062 1.45375,-0.879062 0.11094,0 0.23313,0.02938 0.3075,0.119687 -0.39781,0.06594 -0.48094,0.377188 -0.48094,0.5175 0,0.205 0.1575,0.343125 0.37,0.343125 0.2525,0 0.52594,-0.204062 0.52594,-0.589687 0,-0.30875 -0.22094,-0.648125 -0.70906,-0.648125 -0.52969,0 -1.01094,0.377187 -1.48313,0.812812 -0.39062,0.36875 -0.69343,0.656875 -1.07687,0.813125 l 0.92062,-3.69375 z"
     inkscape:connector-curvature="0"
     id="path196"
     style="fill:#000000;fill-opacity:1;fill-rule:nonzero;stroke:none" /><g
     transform="matrix(0.3125,0,0,0.3125,1,1.0000044)"
     id="g198"><path
       d="m 696.867,95.574 c 0,19.125 -15.508,34.633 -34.637,34.633 -19.125,0 -34.632,-15.508 -34.632,-34.633 0,-19.129 15.507,-34.636 34.632,-34.636 19.129,0 34.637,15.507 34.637,34.636 z"
       inkscape:connector-curvature="0"
       id="path200"
       style="fill:none;stroke:#000000;stroke-width:2;stroke-linecap:round;stroke-linejoin:miter;stroke-miterlimit:4;stroke-opacity:1;stroke-dasharray:6, 6;stroke-dashoffset:0" /></g><g
     transform="matrix(0.3125,0,0,0.3125,1,1.0000044)"
     id="g202"><path
       d="M 700.066,244.332 735,243.895"
       inkscape:connector-curvature="0"
       id="path204"
       style="fill:none;stroke:#000000;stroke-width:2;stroke-linecap:butt;stroke-linejoin:miter;stroke-miterlimit:4;stroke-opacity:1;stroke-dasharray:none" /></g><g
     transform="matrix(-0.3125,0.00392416,-0.00392416,-0.3125,1,1.0000044)"
     id="g206"><path
       d="m -723.822,-253.081 3.999,-4.001 -13.999,4 14.001,4 -4.001,-3.999 z"
       inkscape:connector-curvature="0"
       id="path208"
       style="fill:#000000;fill-opacity:1;fill-rule:evenodd;stroke:#000000;stroke-width:0.99992102;stroke-linecap:butt;stroke-linejoin:miter;stroke-miterlimit:4;stroke-opacity:1;stroke-dasharray:none" /></g><g
     transform="matrix(0.3125,0,0,0.3125,1,1.0000044)"
     id="g210"><path
       d="m 662.23,134.742 0,68.625"
       inkscape:connector-curvature="0"
       id="path212"
       style="fill:none;stroke:#000000;stroke-width:2;stroke-linecap:butt;stroke-linejoin:miter;stroke-miterlimit:4;stroke-opacity:1;stroke-dasharray:none" /></g><g
     transform="matrix(0,-0.3125,0.3125,0,1,1.0000044)"
     id="g214"><path
       d="m -195.367,662.23 4,-4 -14,4 14,4 -4,-4 z"
       inkscape:connector-curvature="0"
       id="path216"
       style="fill:#000000;fill-opacity:1;fill-rule:evenodd;stroke:#000000;stroke-width:1;stroke-linecap:butt;stroke-linejoin:miter;stroke-miterlimit:4;stroke-opacity:1;stroke-dasharray:none" /></g><g
     transform="matrix(0.3125,0,0,0.3125,1,1.0000044)"
     id="g218"><path
       d="m 624.164,243.906 -39.476,0.442"
       inkscape:connector-curvature="0"
       id="path220"
       style="fill:none;stroke:#000000;stroke-width:2;stroke-linecap:butt;stroke-linejoin:miter;stroke-miterlimit:4;stroke-opacity:1;stroke-dasharray:none" /></g><g
     transform="matrix(0.3125,-0.00347247,0.00347247,0.3125,1,1.0000044)"
     id="g222"><path
       d="m 589.9,250.813 4.002,-3.999 -14.001,3.997 13.998,3.999 -3.999,-3.997 z"
       inkscape:connector-curvature="0"
       id="path224"
       style="fill:#000000;fill-opacity:1;fill-rule:evenodd;stroke:#000000;stroke-width:0.99993801;stroke-linecap:butt;stroke-linejoin:miter;stroke-miterlimit:4;stroke-opacity:1;stroke-dasharray:none" /></g></svg>