<?xml version="1.0" encoding="UTF-8" standalone="no"?>
<!-- Created with Inkscape (http://www.inkscape.org/) -->

<svg
   xmlns:dc="http://purl.org/dc/elements/1.1/"
   xmlns:cc="http://creativecommons.org/ns#"
   xmlns:rdf="http://www.w3.org/1999/02/22-rdf-syntax-ns#"
   xmlns:svg="http://www.w3.org/2000/svg"
   xmlns="http://www.w3.org/2000/svg"
   xmlns:sodipodi="http://sodipodi.sourceforge.net/DTD/sodipodi-0.dtd"
   xmlns:inkscape="http://www.inkscape.org/namespaces/inkscape"
   version="1.1"
   width="270.04688"
   height="184.73438"
   id="svg2"
   xml:space="preserve"
   inkscape:version="0.48.3.1 r9886"
   sodipodi:docname="model2.svg"><sodipodi:namedview
     pagecolor="#ffffff"
     bordercolor="#666666"
     borderopacity="1"
     objecttolerance="10"
     gridtolerance="10"
     guidetolerance="10"
     inkscape:pageopacity="0"
     inkscape:pageshadow="2"
     inkscape:window-width="1600"
     inkscape:window-height="876"
     id="namedview185"
     showgrid="false"
     fit-margin-top="1"
     fit-margin-left="1"
     fit-margin-right="1"
     fit-margin-bottom="1"
     inkscape:zoom="3.9894518"
     inkscape:cx="135.02281"
     inkscape:cy="102.39487"
     inkscape:window-x="1360"
     inkscape:window-y="24"
     inkscape:window-maximized="1"
     inkscape:current-layer="svg2" /><metadata
     id="metadata8"><rdf:RDF><cc:Work
         rdf:about=""><dc:format>image/svg+xml</dc:format><dc:type
           rdf:resource="http://purl.org/dc/dcmitype/StillImage" /><dc:title></dc:title></cc:Work></rdf:RDF></metadata><defs
     id="defs6" /><path
     d="m 253.96875,77.251357 c 0,5.976563 -4.84625,10.822501 -10.82406,10.822501 -5.97656,0 -10.82282,-4.845938 -10.82282,-10.822501 0,-5.977812 4.84626,-10.824062 10.82282,-10.824062 5.97781,0 10.82406,4.84625 10.82406,10.824062 z"
     inkscape:connector-curvature="0"
     id="path14"
     style="fill:#c8c8c8;fill-opacity:1;fill-rule:nonzero;stroke:none" /><path
     d="m 245.19437,72.307295 0.0609,-0.095 0.0609,-0.08812 0.0588,-0.08156 0.0588,-0.07688 0.0584,-0.07469 0.0584,-0.06719 0.0575,-0.06344 0.0588,-0.05844 0.0559,-0.0525 0.0562,-0.05125 0.055,-0.04531 0.0538,-0.04281 0.0559,-0.03656 0.0525,-0.03406 0.0563,-0.03312 0.05,-0.02906 0.0538,-0.02344 0.0525,-0.02438 0.0512,-0.01812 0.0525,-0.01844 0.0513,-0.01594 0.05,-0.01344 0.0478,-0.01094 0.0513,-0.0072 0.0475,-0.0087 0.05,-0.0072 0.0966,-0.01094 0.0928,-0.005 0.0925,-0.0059 c 0.16,-0.01344 0.16969,-0.236875 0.16969,-0.255313 0,-0.10375 -0.0656,-0.15625 -0.16969,-0.15625 -0.34532,0 -0.73094,0.04281 -1.08625,0.04281 -0.43719,0 -0.89125,-0.04281 -1.31344,-0.04281 -0.0794,0 -0.25031,0 -0.25031,0.252813 0,0.145312 0.12343,0.15875 0.21375,0.15875 0.355,0.02437 0.61031,0.1575 0.61031,0.435625 0,0.199062 -0.19906,0.489687 -0.19906,0.503125 l -4.06625,6.46 L 239.9,71.60667 c 0,-0.225938 0.30281,-0.399062 0.91437,-0.399062 0.18563,0 0.33219,0 0.33219,-0.26625 0,-0.115938 -0.10875,-0.145313 -0.18812,-0.145313 -0.52594,0 -1.10094,0.04281 -1.64063,0.04281 -0.23812,0 -0.48812,-0.01344 -0.73,-0.01344 -0.23687,0 -0.48937,-0.02937 -0.71531,-0.02937 -0.0903,0 -0.24656,0 -0.24656,0.252813 0,0.15875 0.11344,0.15875 0.32594,0.15875 0.74468,0 0.75562,0.119687 0.79843,0.446562 l 1.04125,8.171563 c 0.0428,0.265937 0.0953,0.302812 0.26594,0.302812 0.2125,0 0.265,-0.06594 0.375,-0.235625 l 4.76187,-7.585625 z"
     inkscape:connector-curvature="0"
     id="path16"
     style="fill:#000000;fill-opacity:1;fill-rule:nonzero;stroke:none" /><path
     d="m 248.66469,76.028233 -0.002,-0.01594 0,-0.01594 -0.002,-0.01344 -0.004,-0.01594 -0.005,-0.03156 -0.005,-0.01344 -0.006,-0.01594 -0.005,-0.01594 -0.007,-0.01344 -0.008,-0.01594 -0.009,-0.01344 -0.007,-0.01563 -0.0219,-0.02688 -0.01,-0.01219 -0.0109,-0.01344 -0.0134,-0.01125 -0.0134,-0.01313 -0.0134,-0.01125 -0.0156,-0.0097 -0.0159,-0.0084 -0.0159,-0.01094 -0.0159,-0.0075 -0.0181,-0.0059 -0.0184,-0.0075 -0.0194,-0.0047 -0.0209,-0.0062 -0.0181,-0.0025 -0.0222,-0.0025 -0.0231,-0.0022 -0.0244,0 c -0.26844,0 -0.5175,0.26 -0.5175,0.51 0,0.149063 0.11094,0.352813 0.36844,0.352813 0.25031,0 0.52125,-0.241563 0.52125,-0.51 z"
     inkscape:connector-curvature="0"
     id="path18"
     style="fill:#000000;fill-opacity:1;fill-rule:nonzero;stroke:none" /><path
     d="m 246.69812,82.268233 -0.0134,0.06125 -0.0366,0.117187 -0.0219,0.05469 -0.0231,0.05625 -0.0244,0.05625 -0.0269,0.05594 -0.0294,0.0525 -0.0294,0.05125 -0.0634,0.100313 -0.0341,0.0475 -0.0344,0.04531 -0.0353,0.045 -0.0391,0.04281 -0.0378,0.04031 -0.0403,0.04031 -0.0416,0.03656 -0.0428,0.03406 -0.0425,0.03563 -0.0428,0.02906 -0.0453,0.02938 -0.045,0.02562 -0.0475,0.02438 -0.0478,0.02094 -0.0475,0.01937 -0.0487,0.01594 -0.0478,0.01344 -0.05,0.0097 -0.0512,0.0084 -0.05,0.005 -0.05,0 c -0.11968,0 -0.23187,-0.01594 -0.33812,-0.0525 0.24156,-0.112188 0.31594,-0.333125 0.31594,-0.47375 0,-0.220938 -0.17188,-0.340313 -0.36125,-0.340313 -0.28688,0 -0.52594,0.25 -0.52594,0.543125 0,0.352813 0.36125,0.587188 0.91656,0.587188 0.55781,0 1.63719,-0.332188 1.9275,-1.4625 l 0.83125,-3.319063 c 0.0294,-0.0975 0.0453,-0.180625 0.0453,-0.323437 0,-0.505313 -0.43343,-0.866875 -0.98875,-0.866875 -1.03156,0 -1.61874,1.286875 -1.61874,1.41625 0,0.119687 0.12812,0.119687 0.1575,0.119687 0.10875,0 0.11968,-0.02938 0.18312,-0.165 0.23063,-0.541875 0.71156,-1.113125 1.24875,-1.113125 0.23438,0 0.31625,0.1575 0.31625,0.451562 0,0.10375 -0.0159,0.234375 -0.0294,0.279688 l -0.89,3.544687 z"
     inkscape:connector-curvature="0"
     id="path20"
     style="fill:#000000;fill-opacity:1;fill-rule:nonzero;stroke:none" /><path
     style="fill:none;stroke:#000000;stroke-width:0.625;stroke-linecap:round;stroke-linejoin:miter;stroke-miterlimit:4;stroke-opacity:1;stroke-dasharray:none"
     id="path24"
     inkscape:connector-curvature="0"
     d="m 254.00906,77.287817 c 0,5.976562 -4.845,10.822812 -10.82281,10.822812 -5.97781,0 -10.82406,-4.84625 -10.82406,-10.822812 0,-5.977813 4.84625,-10.824063 10.82406,-10.824063 5.97781,0 10.82281,4.84625 10.82281,10.824063 z" /><path
     d="m 181.43344,77.251357 c 0,5.976563 -4.845,10.822501 -10.82282,10.822501 -5.97781,0 -10.82281,-4.845938 -10.82281,-10.822501 0,-5.977812 4.845,-10.824062 10.82281,-10.824062 5.97782,0 10.82282,4.84625 10.82282,10.824062 z"
     inkscape:connector-curvature="0"
     id="path26"
     style="fill:#c8c8c8;fill-opacity:1;fill-rule:nonzero;stroke:none" /><path
     style="fill:none;stroke:#000000;stroke-width:0.625;stroke-linecap:round;stroke-linejoin:miter;stroke-miterlimit:4;stroke-opacity:1;stroke-dasharray:none"
     id="path30"
     inkscape:connector-curvature="0"
     d="m 181.475,77.287817 c 0,5.976562 -4.84625,10.822812 -10.82281,10.822812 -5.97782,0 -10.82407,-4.84625 -10.82407,-10.822812 0,-5.977813 4.84625,-10.824063 10.82407,-10.824063 5.97656,0 10.82281,4.84625 10.82281,10.824063 z" /><path
     d="m 176.77156,76.028233 0,-0.01594 -0.002,-0.01594 0,-0.01344 -0.002,-0.01594 -0.005,-0.01594 -0.002,-0.01563 -0.006,-0.01344 -0.005,-0.01594 -0.006,-0.01594 -0.007,-0.01344 -0.005,-0.01594 -0.0109,-0.01344 -0.009,-0.01563 -0.01,-0.01344 -0.008,-0.01344 -0.0134,-0.01344 -0.0109,-0.01219 -0.0122,-0.01125 -0.0134,-0.01313 -0.0134,-0.01125 -0.0159,-0.0097 -0.0159,-0.0084 -0.0159,-0.01094 -0.0156,-0.0075 -0.0197,-0.0059 -0.0181,-0.0075 -0.0184,-0.0047 -0.0184,-0.0062 -0.0219,-0.0025 -0.0206,-0.0025 -0.0247,-0.0022 -0.0206,0 c -0.27094,0 -0.52125,0.26 -0.52125,0.51 0,0.149063 0.11469,0.352813 0.37,0.352813 0.24906,0 0.52,-0.241563 0.52,-0.51 z"
     inkscape:connector-curvature="0"
     id="path32"
     style="fill:#000000;fill-opacity:1;fill-rule:nonzero;stroke:none" /><path
     d="m 173.21312,71.114795 0.004,-0.01094 0.002,-0.01 0.002,-0.01094 0.005,-0.01094 0.002,-0.01094 0.004,-0.01219 0.002,-0.01094 0.002,-0.01344 0.002,-0.01094 0.002,-0.01344 0.002,-0.01219 0.003,-0.01344 0.003,-0.01344 0,-0.03781 0.002,-0.0075 c 0,-0.119687 -0.0659,-0.119687 -0.32969,-0.119687 l -5.58844,0 c -0.31593,0 -0.33187,0.01344 -0.4125,0.265 l -0.725,2.384062 c -0.0294,0.06719 -0.0428,0.1575 -0.0428,0.186875 0,0.01344 0,0.145 0.1625,0.145 0.11719,0 0.14625,-0.095 0.16969,-0.132812 0.50281,-1.565 1.19375,-2.436563 3.25562,-2.436563 l 2.16063,0 -7.40125,8.275 c 0,0.01094 -0.0525,0.200313 -0.0525,0.236875 0,0.119688 0.0903,0.119688 0.33218,0.119688 l 5.75782,0 c 0.31625,0 0.32968,-0.01344 0.41281,-0.26625 l 0.9375,-2.922188 c 0.0134,-0.05375 0.0538,-0.149062 0.0538,-0.200312 0,-0.06594 -0.0538,-0.145313 -0.17344,-0.145313 -0.11718,0 -0.13312,0.05 -0.22593,0.329688 -0.57844,1.801875 -1.21469,2.755 -3.46563,2.755 l -2.26687,0 7.40124,-8.275 z"
     inkscape:connector-curvature="0"
     id="path34"
     style="fill:#000000;fill-opacity:1;fill-rule:nonzero;stroke:none" /><path
     d="m 174.80875,82.268233 -0.0159,0.06125 -0.0197,0.05844 -0.0181,0.05875 -0.0209,0.05469 -0.0488,0.1125 -0.0256,0.05594 -0.0294,0.0525 -0.0294,0.05125 -0.0291,0.05031 -0.0344,0.05 -0.0328,0.0475 -0.0366,0.04531 -0.0344,0.045 -0.0378,0.04281 -0.0403,0.04031 -0.0391,0.04031 -0.0425,0.03656 -0.0403,0.03406 -0.0453,0.03563 -0.0416,0.02906 -0.0463,0.02938 -0.0453,0.02562 -0.0475,0.02438 -0.0453,0.02094 -0.0475,0.01937 -0.05,0.01594 -0.0475,0.01344 -0.0512,0.0097 -0.0503,0.0084 -0.0512,0.005 -0.05,0 c -0.11969,0 -0.23063,-0.01594 -0.33438,-0.0525 0.23906,-0.112188 0.31375,-0.333125 0.31375,-0.47375 0,-0.220938 -0.17344,-0.340313 -0.36125,-0.340313 -0.28469,0 -0.52625,0.25 -0.52625,0.543125 0,0.352813 0.36125,0.587188 0.91688,0.587188 0.55781,0 1.63687,-0.332188 1.92625,-1.4625 l 0.83125,-3.319063 c 0.0291,-0.0975 0.045,-0.180625 0.045,-0.323437 0,-0.505313 -0.42969,-0.866875 -0.9875,-0.866875 -1.02907,0 -1.61875,1.286875 -1.61875,1.41625 0,0.119687 0.12719,0.119687 0.15625,0.119687 0.10875,0 0.11968,-0.02938 0.18312,-0.165 0.23219,-0.541875 0.71532,-1.113125 1.25,-1.113125 0.23313,0 0.31625,0.1575 0.31625,0.451562 0,0.10375 -0.0159,0.234375 -0.0294,0.279688 l -0.88719,3.544687 z"
     inkscape:connector-curvature="0"
     id="path36"
     style="fill:#000000;fill-opacity:1;fill-rule:nonzero;stroke:none" /><path
     style="fill:none;stroke:#000000;stroke-width:0.625;stroke-linecap:round;stroke-linejoin:miter;stroke-miterlimit:4;stroke-opacity:1;stroke-dasharray:none"
     id="path40"
     inkscape:connector-curvature="0"
     d="m 145.34437,57.568754 122.88563,0 0,98.547496 -122.88563,0 0,-98.547496 z" /><path
     d="m 225.87437,145.79604 0,-0.0156 -0.001,-0.0134 -0.002,-0.0159 -0.001,-0.0147 -0.007,-0.0269 -0.005,-0.0159 -0.005,-0.0134 -0.005,-0.0122 -0.007,-0.0134 -0.006,-0.0134 -0.007,-0.0122 -0.008,-0.0122 -0.008,-0.0109 -0.01,-0.0122 -0.0206,-0.0209 -0.0122,-0.01 -0.0122,-0.008 -0.0109,-0.0109 -0.0134,-0.006 -0.0122,-0.008 -0.0159,-0.008 -0.0134,-0.006 -0.0147,-0.005 -0.0159,-0.006 -0.0169,-0.005 -0.0172,-0.004 -0.0172,-0.001 -0.0169,-0.003 -0.0184,0 -0.0184,-0.001 c -0.1975,0 -0.44906,0.19657 -0.44906,0.44907 0,0.16968 0.11719,0.30531 0.3125,0.30531 0.22938,0 0.45781,-0.22094 0.45781,-0.44813 z"
     inkscape:connector-curvature="0"
     id="path42"
     style="fill:#000000;fill-opacity:1;fill-rule:nonzero;stroke:none" /><path
     d="m 224.17125,151.51511 -0.0341,0.11968 -0.0184,0.0575 -0.0206,0.0559 -0.0194,0.0563 -0.0247,0.055 -0.0231,0.0525 -0.0244,0.0513 -0.0269,0.0512 -0.0269,0.0488 -0.0281,0.0475 -0.0609,0.0881 -0.0306,0.0425 -0.0341,0.0416 -0.0319,0.0391 -0.0341,0.0366 -0.0353,0.0344 -0.0366,0.0328 -0.0369,0.0319 -0.0378,0.0269 -0.0391,0.0281 -0.0391,0.0231 -0.0391,0.0219 -0.0412,0.0206 -0.0403,0.0172 -0.0856,0.0269 -0.0416,0.008 -0.0425,0.007 -0.0453,0.005 -0.0441,0.001 c -0.0513,0 -0.17813,0 -0.33063,-0.0781 0.25501,-0.0609 0.38219,-0.27813 0.38219,-0.44907 0,-0.13437 -0.0941,-0.29656 -0.32125,-0.29656 -0.21219,0 -0.45781,0.17812 -0.45781,0.48438 0,0.33937 0.33687,0.525 0.74344,0.525 0.59343,0 1.38187,-0.44907 1.59562,-1.28907 l 0.77875,-3.10062 c 0.0428,-0.16969 0.0428,-0.28688 0.0428,-0.315 0,-0.48219 -0.35781,-0.77625 -0.78,-0.77625 -0.86562,0 -1.34656,1.22562 -1.34656,1.30375 0,0.0853 0.0819,0.0853 0.1,0.0853 0.0769,0 0.0856,-0.0122 0.15156,-0.16969 0.21219,-0.51875 0.60407,-1.03375 1.06813,-1.03375 0.12062,0 0.27219,0.0328 0.27219,0.38688 0,0.19781 -0.0269,0.28937 -0.06,0.43469 l -0.79594,3.15906 z"
     inkscape:connector-curvature="0"
     id="path44"
     style="fill:#000000;fill-opacity:1;fill-rule:nonzero;stroke:none" /><path
     d="m 234.65844,148.31948 0.0731,0 0.0122,-0.001 0.0134,0 0.0122,-0.001 0.0125,-0.002 0.0109,-0.001 0.0122,-0.002 0.0122,-0.001 0.01,-0.003 0.0122,-0.004 0.01,-0.002 0.0113,-0.004 0.01,-0.005 0.01,-0.006 0.008,-0.006 0.009,-0.005 0.0159,-0.0159 0.006,-0.008 0.007,-0.01 0.001,-0.004 0.004,-0.005 0.002,-0.005 0.002,-0.008 0.002,-0.005 9.4e-4,-0.008 0.002,-0.005 0.001,-0.006 0,-0.007 0.001,-0.007 0,-0.006 0.002,-0.007 0,-0.0147 c 0,-0.17094 -0.1625,-0.17094 -0.27969,-0.17094 l -5.07437,0 c -0.12094,0 -0.27937,0 -0.27937,0.17094 0,0.16625 0.15843,0.16625 0.28562,0.16625 l 5.05969,0 z"
     inkscape:connector-curvature="0"
     id="path46"
     style="fill:#000000;fill-opacity:1;fill-rule:nonzero;stroke:none" /><path
     d="m 234.66687,149.96604 0.0222,0 0.0244,-0.001 0.0353,0 0.0122,-0.002 0.0122,-0.001 0.0109,0 0.0112,-0.002 0.0122,-0.002 0.0109,-0.002 0.0109,-0.004 0.0109,-0.002 0.0109,-0.003 0.01,-0.004 0.01,-0.005 0.008,-0.005 0.008,-0.008 0.009,-0.006 0.008,-0.008 0.007,-0.008 0.003,-0.004 0.002,-0.005 0.004,-0.004 0.003,-0.005 0.001,-0.005 0.004,-0.005 0.002,-0.005 0.005,-0.0122 9.4e-4,-0.005 0.002,-0.007 0.001,-0.007 0,-0.006 0.001,-0.007 0,-0.006 0.002,-0.007 0,-0.0147 c 0,-0.17094 -0.1625,-0.17094 -0.28812,-0.17094 l -5.05969,0 c -0.12719,0 -0.28563,0 -0.28563,0.17094 0,0.16968 0.15844,0.16968 0.27938,0.16968 l 5.07437,0 z"
     inkscape:connector-curvature="0"
     id="path48"
     style="fill:#000000;fill-opacity:1;fill-rule:nonzero;stroke:none" /><path
     d="m 240.28719,145.66792 0,-0.0744 -0.002,-0.007 0,-0.0256 -0.001,-0.006 0,-0.005 -0.003,-0.0122 -0.001,-0.01 -0.001,-0.008 -0.005,-0.0172 -0.007,-0.0147 -0.003,-0.005 -0.01,-0.01 -0.007,-0.005 -0.006,-0.004 -0.007,-0.004 -0.005,-0.001 -0.003,-0.002 -0.005,0 -0.004,-0.001 -0.005,-9.4e-4 -0.005,0 -0.005,-0.002 -0.007,0 -0.005,-0.001 -0.0122,0 -0.006,-0.002 -0.0344,0 -0.008,-0.001 -0.0341,0 c -0.52751,0.54219 -1.27094,0.54219 -1.54063,0.54219 l 0,0.26344 c 0.16969,0 0.66781,0 1.10719,-0.22094 l 0,4.38969 c 0,0.30656 -0.0244,0.40656 -0.78625,0.40656 l -0.27219,0 0,0.26375 c 0.29781,-0.0269 1.03406,-0.0269 1.37219,-0.0269 0.34062,0 1.07531,0 1.37312,0.0269 l 0,-0.26375 -0.27093,0 c -0.76157,0 -0.78844,-0.0916 -0.78844,-0.40656 l 0,-4.75344 z"
     inkscape:connector-curvature="0"
     id="path50"
     style="fill:#000000;fill-opacity:1;fill-rule:nonzero;stroke:none" /><path
     d="m 245.07594,150.64355 -0.001,-0.0231 -0.002,-0.0231 -0.002,-0.0222 -0.003,-0.0219 -0.005,-0.0206 -0.006,-0.0222 -0.009,-0.0206 -0.006,-0.0209 -0.01,-0.0194 -0.008,-0.0197 -0.0244,-0.0366 -0.0122,-0.0169 -0.0269,-0.0344 -0.0306,-0.0303 -0.0341,-0.0269 -0.0172,-0.0122 -0.0366,-0.0247 -0.0194,-0.01 -0.0209,-0.008 -0.0194,-0.009 -0.0209,-0.007 -0.0219,-0.006 -0.0206,-0.005 -0.0222,-0.004 -0.0231,-0.004 -0.0231,-9.4e-4 -0.0231,0 c -0.24312,0 -0.44937,0.20375 -0.44937,0.44907 0,0.24406 0.20625,0.44812 0.44937,0.44812 0.24782,0 0.45032,-0.20406 0.45032,-0.44812 z"
     inkscape:connector-curvature="0"
     id="path52"
     style="fill:#000000;fill-opacity:1;fill-rule:nonzero;stroke:none" /><path
     d="m 248.82969,150.64355 0,-0.0231 -0.001,-0.0231 -0.007,-0.0441 -0.005,-0.0206 -0.007,-0.0222 -0.006,-0.0206 -0.009,-0.0209 -0.008,-0.0194 -0.01,-0.0197 -0.0109,-0.0181 -0.0122,-0.0184 -0.0113,-0.0169 -0.0134,-0.0172 -0.0144,-0.0172 -0.0147,-0.0159 -0.0159,-0.0144 -0.0341,-0.0269 -0.0159,-0.0122 -0.0197,-0.0125 -0.0181,-0.0122 -0.0184,-0.01 -0.0416,-0.0172 -0.0206,-0.007 -0.0219,-0.006 -0.0222,-0.005 -0.0437,-0.007 -0.0222,-9.4e-4 -0.0244,0 c -0.24281,0 -0.44906,0.20375 -0.44906,0.44906 0,0.24407 0.20625,0.44813 0.44906,0.44813 0.24906,0 0.44938,-0.20406 0.44938,-0.44813 z"
     inkscape:connector-curvature="0"
     id="path54"
     style="fill:#000000;fill-opacity:1;fill-rule:nonzero;stroke:none" /><path
     d="m 252.58562,150.64355 0,-0.0231 -0.002,-0.0231 -0.003,-0.0222 -0.002,-0.0219 -0.006,-0.0206 -0.006,-0.0222 -0.007,-0.0206 -0.008,-0.0209 -0.008,-0.0194 -0.01,-0.0197 -0.01,-0.0181 -0.0122,-0.0184 -0.0122,-0.0169 -0.0134,-0.0172 -0.0159,-0.0172 -0.0134,-0.0159 -0.0169,-0.0144 -0.0147,-0.0134 -0.0172,-0.0134 -0.0172,-0.0122 -0.0181,-0.0125 -0.0197,-0.0122 -0.0194,-0.01 -0.0197,-0.008 -0.0206,-0.009 -0.0219,-0.007 -0.0197,-0.006 -0.0219,-0.005 -0.0231,-0.004 -0.0222,-0.004 -0.0219,-9.4e-4 -0.0231,0 c -0.24531,0 -0.44937,0.20375 -0.44937,0.44906 0,0.24407 0.20406,0.44813 0.44937,0.44813 0.24656,0 0.44906,-0.20406 0.44906,-0.44813 z"
     inkscape:connector-curvature="0"
     id="path56"
     style="fill:#000000;fill-opacity:1;fill-rule:nonzero;stroke:none" /><path
     d="m 262.58094,145.9573 0.008,-0.0269 0.005,-0.0281 0.007,-0.0244 0.006,-0.0244 0.007,-0.0231 0.006,-0.0234 0.008,-0.0194 0.007,-0.0197 0.009,-0.0181 0.01,-0.0184 0.0109,-0.0156 0.0109,-0.0147 0.0122,-0.0159 0.0134,-0.0134 0.0159,-0.0122 0.0172,-0.0122 0.0181,-0.01 0.0209,-0.01 0.0194,-0.008 0.0256,-0.008 0.0256,-0.007 0.0134,-0.004 0.0159,-0.002 0.0147,-0.004 0.0159,-0.004 0.0156,-0.001 0.0159,-0.003 0.0197,-0.002 0.0169,-0.001 0.0197,-0.004 0.0391,-0.002 0.0231,0 0.0197,-0.002 0.0244,-9.4e-4 0.0231,-0.002 0.05,0 0.0256,-0.001 0.1125,0 c 0.19281,0 0.26968,0 0.26968,-0.16969 0,-0.0941 -0.0856,-0.0941 -0.22843,-0.0941 l -1.11813,0 c -0.22219,0 -0.22937,0 -0.33062,0.16125 l -3.09344,4.82906 -0.66156,-4.7925 c -0.0256,-0.19781 -0.0428,-0.19781 -0.2625,-0.19781 l -1.16094,0 c -0.15969,0 -0.25375,0 -0.25375,0.16125 0,0.1025 0.0744,0.1025 0.24531,0.1025 0.11219,0 0.26375,0.007 0.36375,0.0147 0.13563,0.0194 0.18688,0.0425 0.18688,0.13656 0,0.0344 -0.009,0.0613 -0.0319,0.16125 l -1.07656,4.31406 c -0.0856,0.33906 -0.22844,0.61032 -0.91688,0.63344 -0.0425,0 -0.15125,0.008 -0.15125,0.16344 0,0.0734 0.0513,0.10031 0.11844,0.10031 0.27219,0 0.56625,-0.0269 0.84594,-0.0269 0.28937,0 0.59437,0.0269 0.87406,0.0269 0.0425,0 0.15125,0 0.15125,-0.16969 0,-0.0941 -0.0941,-0.0941 -0.15125,-0.0941 -0.48344,-0.006 -0.57625,-0.17719 -0.57625,-0.37 0,-0.0597 0.008,-0.1025 0.0341,-0.19406 l 1.15125,-4.61907 0.01,0 0.7275,5.25376 c 0.0172,0.10031 0.0244,0.19312 0.12813,0.19312 0.0941,0 0.14406,-0.0928 0.18687,-0.15156 l 3.42156,-5.365 0.009,0 -1.21218,4.85469 c -0.0856,0.33218 -0.10032,0.39812 -0.77032,0.39812 -0.14281,0 -0.23687,0 -0.23687,0.16344 0,0.10031 0.1025,0.10031 0.12812,0.10031 0.23563,0 0.81313,-0.0269 1.04875,-0.0269 0.34907,0 0.71282,0.0269 1.06188,0.0269 0.0487,0 0.16,0 0.16,-0.16969 0,-0.0941 -0.0781,-0.0941 -0.23813,-0.0941 -0.31375,0 -0.54937,0 -0.54937,-0.15125 0,-0.0331 0,-0.0491 0.0428,-0.20406 l 1.12563,-4.51532 z"
     inkscape:connector-curvature="0"
     id="path58"
     style="fill:#000000;fill-opacity:1;fill-rule:nonzero;stroke:none" /><text
     xml:space="preserve"
     style="font-size:8px;font-style:normal;font-weight:normal;line-height:125%;letter-spacing:0px;word-spacing:0px;fill:#000000;fill-opacity:1;stroke:none;font-family:Sans"
     x="140.55873"
     y="51.083138"
     id="text3720-5"
     sodipodi:linespacing="125%"><tspan
       sodipodi:role="line"
       id="tspan3722-2"
       x="140.55873"
       y="51.083138">&quot;parcel weight&quot;</tspan></text>
<text
     xml:space="preserve"
     style="font-size:8px;font-style:normal;font-weight:normal;line-height:125%;letter-spacing:0px;word-spacing:0px;fill:#000000;fill-opacity:1;stroke:none;font-family:Sans"
     x="205.98126"
     y="51.083141"
     id="text3720-8"
     sodipodi:linespacing="125%"><tspan
       sodipodi:role="line"
       id="tspan3722-0"
       x="205.98126"
       y="51.083141">&quot;parcel volume&quot;</tspan></text>
</svg>