<?xml version="1.0" encoding="UTF-8" standalone="no"?>
<!-- Created with Inkscape (http://www.inkscape.org/) -->

<svg
   xmlns:dc="http://purl.org/dc/elements/1.1/"
   xmlns:cc="http://creativecommons.org/ns#"
   xmlns:rdf="http://www.w3.org/1999/02/22-rdf-syntax-ns#"
   xmlns:svg="http://www.w3.org/2000/svg"
   xmlns="http://www.w3.org/2000/svg"
   xmlns:sodipodi="http://sodipodi.sourceforge.net/DTD/sodipodi-0.dtd"
   xmlns:inkscape="http://www.inkscape.org/namespaces/inkscape"
   version="1.1"
   width="270.04688"
   height="184.73438"
   id="svg2"
   xml:space="preserve"
   inkscape:version="0.48.3.1 r9886"
   sodipodi:docname="model2.svg"><sodipodi:namedview
     pagecolor="#ffffff"
     bordercolor="#666666"
     borderopacity="1"
     objecttolerance="10"
     gridtolerance="10"
     guidetolerance="10"
     inkscape:pageopacity="0"
     inkscape:pageshadow="2"
     inkscape:window-width="1600"
     inkscape:window-height="876"
     id="namedview185"
     showgrid="false"
     fit-margin-top="1"
     fit-margin-left="1"
     fit-margin-right="1"
     fit-margin-bottom="1"
     inkscape:zoom="3.9894518"
     inkscape:cx="135.02281"
     inkscape:cy="102.39487"
     inkscape:window-x="1360"
     inkscape:window-y="24"
     inkscape:window-maximized="1"
     inkscape:current-layer="svg2" /><metadata
     id="metadata8"><rdf:RDF><cc:Work
         rdf:about=""><dc:format>image/svg+xml</dc:format><dc:type
           rdf:resource="http://purl.org/dc/dcmitype/StillImage" /><dc:title></dc:title></cc:Work></rdf:RDF></metadata><defs
     id="defs6" /><path
     d="m 253.96875,77.251357 c 0,5.976563 -4.84625,10.822501 -10.82406,10.822501 -5.97656,0 -10.82282,-4.845938 -10.82282,-10.822501 0,-5.977812 4.84626,-10.824062 10.82282,-10.824062 5.97781,0 10.82406,4.84625 10.82406,10.824062 z"
     inkscape:connector-curvature="0"
     id="path14"
     style="fill:#c8c8c8;fill-opacity:1;fill-rule:nonzero;stroke:none" /><path
     d="m 245.19437,72.307295 0.0609,-0.095 0.0609,-0.08812 0.0588,-0.08156 0.0588,-0.07688 0.0584,-0.07469 0.0584,-0.06719 0.0575,-0.06344 0.0588,-0.05844 0.0559,-0.0525 0.0562,-0.05125 0.055,-0.04531 0.0538,-0.04281 0.0559,-0.03656 0.0525,-0.03406 0.0563,-0.03312 0.05,-0.02906 0.0538,-0.02344 0.0525,-0.02438 0.0512,-0.01812 0.0525,-0.01844 0.0513,-0.01594 0.05,-0.01344 0.0478,-0.01094 0.0513,-0.0072 0.0475,-0.0087 0.05,-0.0072 0.0966,-0.01094 0.0928,-0.005 0.0925,-0.0059 c 0.16,-0.01344 0.16969,-0.236875 0.16969,-0.255313 0,-0.10375 -0.0656,-0.15625 -0.16969,-0.15625 -0.34532,0 -0.73094,0.04281 -1.08625,0.04281 -0.43719,0 -0.89125,-0.04281 -1.31344,-0.04281 -0.0794,0 -0.25031,0 -0.25031,0.252813 0,0.145312 0.12343,0.15875 0.21375,0.15875 0.355,0.02437 0.61031,0.1575 0.61031,0.435625 0,0.199062 -0.19906,0.489687 -0.19906,0.503125 l -4.06625,6.46 L 239.9,71.60667 c 0,-0.225938 0.30281,-0.399062 0.91437,-0.399062 0.18563,0 0.33219,0 0.33219,-0.26625 0,-0.115938 -0.10875,-0.145313 -0.18812,-0.145313 -0.52594,0 -1.10094,0.04281 -1.64063,0.04281 -0.23812,0 -0.48812,-0.01344 -0.73,-0.01344 -0.23687,0 -0.48937,-0.02937 -0.71531,-0.02937 -0.0903,0 -0.24656,0 -0.24656,0.252813 0,0.15875 0.11344,0.15875 0.32594,0.15875 0.74468,0 0.75562,0.119687 0.79843,0.446562 l 1.04125,8.171563 c 0.0428,0.265937 0.0953,0.302812 0.26594,0.302812 0.2125,0 0.265,-0.06594 0.375,-0.235625 l 4.76187,-7.585625 z"
     inkscape:connector-curvature="0"
     id="path16"
     style="fill:#000000;fill-opacity:1;fill-rule:nonzero;stroke:none" /><path
     d="m 248.66469,76.028233 -0.002,-0.01594 0,-0.01594 -0.002,-0.01344 -0.004,-0.01594 -0.005,-0.03156 -0.005,-0.01344 -0.006,-0.01594 -0.005,-0.01594 -0.007,-0.01344 -0.008,-0.01594 -0.009,-0.01344 -0.007,-0.01563 -0.0219,-0.02688 -0.01,-0.01219 -0.0109,-0.01344 -0.0134,-0.01125 -0.0134,-0.01313 -0.0134,-0.01125 -0.0156,-0.0097 -0.0159,-0.0084 -0.0159,-0.01094 -0.0159,-0.0075 -0.0181,-0.0059 -0.0184,-0.0075 -0.0194,-0.0047 -0.0209,-0.0062 -0.0181,-0.0025 -0.0222,-0.0025 -0.0231,-0.0022 -0.0244,0 c -0.26844,0 -0.5175,0.26 -0.5175,0.51 0,0.149063 0.11094,0.352813 0.36844,0.352813 0.25031,0 0.52125,-0.241563 0.52125,-0.51 z"
     inkscape:connector-curvature="0"
     id="path18"
     style="fill:#000000;fill-opacity:1;fill-rule:nonzero;stroke:none" /><path
     d="m 246.69812,82.268233 -0.0134,0.06125 -0.0366,0.117187 -0.0219,0.05469 -0.0231,0.05625 -0.0244,0.05625 -0.0269,0.05594 -0.0294,0.0525 -0.0294,0.05125 -0.0634,0.100313 -0.0341,0.0475 -0.0344,0.04531 -0.0353,0.045 -0.0391,0.04281 -0.0378,0.04031 -0.0403,0.04031 -0.0416,0.03656 -0.0428,0.03406 -0.0425,0.03563 -0.0428,0.02906 -0.0453,0.02938 -0.045,0.02562 -0.0475,0.02438 -0.0478,0.02094 -0.0475,0.01937 -0.0487,0.01594 -0.0478,0.01344 -0.05,0.0097 -0.0512,0.0084 -0.05,0.005 -0.05,0 c -0.11968,0 -0.23187,-0.01594 -0.33812,-0.0525 0.24156,-0.112188 0.31594,-0.333125 0.31594,-0.47375 0,-0.220938 -0.17188,-0.340313 -0.36125,-0.340313 -0.28688,0 -0.52594,0.25 -0.52594,0.543125 0,0.352813 0.36125,0.587188 0.91656,0.587188 0.55781,0 1.63719,-0.332188 1.9275,-1.4625 l 0.83125,-3.319063 c 0.0294,-0.0975 0.0453,-0.180625 0.0453,-0.323437 0,-0.505313 -0.43343,-0.866875 -0.98875,-0.866875 -1.03156,0 -1.61874,1.286875 -1.61874,1.41625 0,0.119687 0.12812,0.119687 0.1575,0.119687 0.10875,0 0.11968,-0.02938 0.18312,-0.165 0.23063,-0.541875 0.71156,-1.113125 1.24875,-1.113125 0.23438,0 0.31625,0.1575 0.31625,0.451562 0,0.10375 -0.0159,0.234375 -0.0294,0.279688 l -0.89,3.544687 z"
     inkscape:connector-curvature="0"
     id="path20"
     style="fill:#000000;fill-opacity:1;fill-rule:nonzero;stroke:none" /><path
     style="fill:none;stroke:#000000;stroke-width:0.625;stroke-linecap:round;stroke-linejoin:miter;stroke-miterlimit:4;stroke-opacity:1;stroke-dasharray:none"
     id="path24"
     inkscape:connector-curvature="0"
     d="m 254.00906,77.287817 c 0,5.976562 -4.845,10.822812 -10.82281,10.822812 -5.97781,0 -10.82406,-4.84625 -10.82406,-10.822812 0,-5.977813 4.84625,-10.824063 10.82406,-10.824063 5.97781,0 10.82281,4.84625 10.82281,10.824063 z" /><path
     d="m 181.43344,77.251357 c 0,5.976563 -4.845,10.822501 -10.82282,10.822501 -5.97781,0 -10.82281,-4.845938 -10.82281,-10.822501 0,-5.977812 4.845,-10.824062 10.82281,-10.824062 5.97782,0 10.82282,4.84625 10.82282,10.824062 z"
     inkscape:connector-curvature="0"
     id="path26"
     style="fill:#c8c8c8;fill-opacity:1;fill-rule:nonzero;stroke:none" /><path
     style="fill:none;stroke:#000000;stroke-width:0.625;stroke-linecap:round;stroke-linejoin:miter;stroke-miterlimit:4;stroke-opacity:1;stroke-dasharray:none"
     id="path30"
     inkscape:connector-curvature="0"
     d="m 181.475,77.287817 c 0,5.976562 -4.84625,10.822812 -10.82281,10.822812 -5.97782,0 -10.82407,-4.84625 -10.82407,-10.822812 0,-5.977813 4.84625,-10.824063 10.82407,-10.824063 5.97656,0 10.82281,4.84625 10.82281,10.824063 z" /><path
     d="m 176.77156,76.028233 0,-0.01594 -0.002,-0.01594 0,-0.01344 -0.002,-0.01594 -0.005,-0.01594 -0.002,-0.01563 -0.006,-0.01344 -0.005,-0.01594 -0.006,-0.01594 -0.007,-0.01344 -0.005,-0.01594 -0.0109,-0.01344 -0.009,-0.01563 -0.01,-0.01344 -0.008,-0.01344 -0.0134,-0.01344 -0.0109,-0.01219 -0.0122,-0.01125 -0.0134,-0.01313 -0.0134,-0.01125 -0.0159,-0.0097 -0.0159,-0.0084 -0.0159,-0.01094 -0.0156,-0.0075 -0.0197,-0.0059 -0.0181,-0.0075 -0.0184,-0.0047 -0.0184,-0.0062 -0.0219,-0.0025 -0.0206,-0.0025 -0.0247,-0.0022 -0.0206,0 c -0.27094,0 -0.52125,0.26 -0.52125,0.51 0,0.149063 0.11469,0.352813 0.37,0.352813 0.24906,0 0.52,-0.241563 0.52,-0.51 z"
     inkscape:connector-curvature="0"
     id="path32"
     style="fill:#000000;fill-opacity:1;fill-rule:nonzero;stroke:none" /><path
     d="m 173.21312,71.114795 0.004,-0.01094 0.002,-0.01 0.002,-0.01094 0.005,-0.01094 0.002,-0.01094 0.004,-0.01219 0.002,-0.01094 0.002,-0.01344 0.002,-0.01094 0.002,-0.01344 0.002,-0.01219 0.003,-0.01344 0.003,-0.01344 0,-0.03781 0.002,-0.0075 c 0,-0.119687 -0.0659,-0.119687 -0.32969,-0.119687 l -5.58844,0 c -0.31593,0 -0.33187,0.01344 -0.4125,0.265 l -0.725,2.384062 c -0.0294,0.06719 -0.0428,0.1575 -0.0428,0.186875 0,0.01344 0,0.145 0.1625,0.145 0.11719,0 0.14625,-0.095 0.16969,-0.132812 0.50281,-1.565 1.19375,-2.436563 3.25562,-2.436563 l 2.16063,0 -7.40125,8.275 c 0,0.01094 -0.0525,0.200313 -0.0525,0.236875 0,0.119688 0.0903,0.119688 0.33218,0.119688 l 5.75782,0 c 0.31625,0 0.32968,-0.01344 0.41281,-0.26625 l 0.9375,-2.922188 c 0.0134,-0.05375 0.0538,-0.149062 0.0538,-0.200312 0,-0.06594 -0.0538,-0.145313 -0.17344,-0.145313 -0.11718,0 -0.13312,0.05 -0.22593,0.329688 -0.57844,1.801875 -1.21469,2.755 -3.46563,2.755 l -2.26687,0 7.40124,-8.275 z"
     inkscape:connector-curvature="0"
     id="path34"
     style="fill:#000000;fill-opacity:1;fill-rule:nonzero;stroke:none" /><path
     d="m 174.80875,82.268233 -0.0159,0.06125 -0.0197,0.05844 -0.0181,0.05875 -0.0209,0.05469 -0.0488,0.1125 -0.0256,0.05594 -0.0294,0.0525 -0.0294,0.05125 -0.0291,0.05031 -0.0344,0.05 -0.0328,0.0475 -0.0366,0.04531 -0.0344,0.045 -0.0378,0.04281 -0.0403,0.04031 -0.0391,0.04031 -0.0425,0.03656 -0.0403,0.03406 -0.0453,0.03563 -0.0416,0.02906 -0.0463,0.02938 -0.0453,0.02562 -0.0475,0.02438 -0.0453,0.02094 -0.0475,0.01937 -0.05,0.01594 -0.0475,0.01344 -0.0512,0.0097 -0.0503,0.0084 -0.0512,0.005 -0.05,0 c -0.11969,0 -0.23063,-0.01594 -0.33438,-0.0525 0.23906,-0.112188 0.31375,-0.333125 0.31375,-0.47375 0,-0.220938 -0.17344,-0.340313 -0.36125,-0.340313 -0.28469,0 -0.52625,0.25 -0.52625,0.543125 0,0.352813 0.36125,0.587188 0.91688,0.587188 0.55781,0 1.63687,-0.332188 1.92625,-1.4625 l 0.83125,-3.319063 c 0.0291,-0.0975 0.045,-0.180625 0.045,-0.323437 0,-0.505313 -0.42969,-0.866875 -0.9875,-0.866875 -1.02907,0 -1.61875,1.286875 -1.61875,1.41625 0,0.119687 0.12719,0.119687 0.15625,0.119687 0.10875,0 0.11968,-0.02938 0.18312,-0.165 0.23219,-0.541875 0.71532,-1.113125 1.25,-1.113125 0.23313,0 0.31625,0.1575 0.31625,0.451562 0,0.10375 -0.0159,0.234375 -0.0294,0.279688 l -0.88719,3.544687 z"
     inkscape:connector-curvature="0"
     id="path36"
     style="fill:#000000;fill-opacity:1;fill-rule:nonzero;stroke:none" /><path
     style="fill:none;stroke:#000000;stroke-width:0.625;stroke-linecap:round;stroke-linejoin:miter;stroke-miterlimit:4;stroke-opacity:1;stroke-dasharray:none"
     id="path40"
     inkscape:connector-curvature="0"
     d="m 145.34437,57.568754 122.88563,0 0,98.547496 -122.88563,0 0,-98.547496 z" /><path
     d="m 225.87437,145.79604 0,-0.0156 -0.001,-0.0134 -0.002,-0.0159 -0.001,-0.0147 -0.007,-0.0269 -0.005,-0.0159 -0.005,-0.0134 -0.005,-0.0122 -0.007,-0.0134 -0.006,-0.0134 -0.007,-0.0122 -0.008,-0.0122 -0.008,-0.0109 -0.01,-0.0122 -0.0206,-0.0209 -0.0122,-0.01 -0.0122,-0.008 -0.0109,-0.0109 -0.0134,-0.006 -0.0122,-0.008 -0.0159,-0.008 -0.0134,-0.006 -0.0147,-0.005 -0.0159,-0.006 -0.0169,-0.005 -0.0172,-0.004 -0.0172,-0.001 -0.0169,-0.003 -0.0184,0 -0.0184,-0.001 c -0.1975,0 -0.44906,0.19657 -0.44906,0.44907 0,0.16968 0.11719,0.30531 0.3125,0.30531 0.22938,0 0.45781,-0.22094 0.45781,-0.44813 z"
     inkscape:connector-curvature="0"
     id="path42"
     style="fill:#000000;fill-opacity:1;fill-rule:nonzero;stroke:none" /><path
     d="m 224.17125,151.51511 -0.0341,0.11968 -0.0184,0.0575 -0.0206,0.0559 -0.0194,0.0563 -0.0247,0.055 -0.0231,0.0525 -0.0244,0.0513 -0.0269,0.0512 -0.0269,0.0488 -0.0281,0.0475 -0.0609,0.0881 -0.0306,0.0425 -0.0341,0.0416 -0.0319,0.0391 -0.0341,0.0366 -0.0353,0.0344 -0.0366,0.0328 -0.0369,0.0319 -0.0378,0.0269 -0.0391,0.0281 -0.0391,0.0231 -0.0391,0.0219 -0.0412,0.0206 -0.0403,0.0172 -0.0856,0.0269 -0.0416,0.008 -0.0425,0.007 -0.0453,0.005 -0.0441,0.001 c -0.0513,0 -0.17813,0 -0.33063,-0.0781 0.25501,-0.0609 0.38219,-0.27813 0.38219,-0.44907 0,-0.13437 -0.0941,-0.29656 -0.32125,-0.29656 -0.21219,0 -0.45781,0.17812 -0.45781,0.48438 0,0.33937 0.33687,0.525 0.74344,0.525 0.59343,0 1.38187,-0.44907 1.59562,-1.28907 l 0.77875,-3.10062 c 0.0428,-0.16969 0.0428,-0.28688 0.0428,-0.315 0,-0.48219 -0.35781,-0.77625 -0.78,-0.77625 -0.86562,0 -1.34656,1.22562 -1.34656,1.30375 0,0.0853 0.0819,0.0853 0.1,0.0853 0.0769,0 0.0856,-0.0122 0.15156,-0.16969 0.21219,-0.51875 0.60407,-1.03375 1.06813,-1.03375 0.12062,0 0.27219,0.0328 0.27219,0.38688 0,0.19781 -0.0269,0.28937 -0.06,0.43469 l -0.79594,3.15906 z"
     inkscape:connector-curvature="0"
     id="path44"
     style="fill:#000000;fill-opacity:1;fill-rule:nonzero;stroke:none" /><path
     d="m 234.65844,148.31948 0.0731,0 0.0122,-0.001 0.0134,0 0.0122,-0.001 0.0125,-0.002 0.0109,-0.001 0.0122,-0.002 0.0122,-0.001 0.01,-0.003 0.0122,-0.004 0.01,-0.002 0.0113,-0.004 0.01,-0.005 0.01,-0.006 0.008,-0.006 0.009,-0.005 0.0159,-0.0159 0.006,-0.008 0.007,-0.01 0.001,-0.004 0.004,-0.005 0.002,-0.005 0.002,-0.008 0.002,-0.005 9.4e-4,-0.008 0.002,-0.005 0.001,-0.006 0,-0.007 0.001,-0.007 0,-0.006 0.002,-0.007 0,-0.0147 c 0,-0.17094 -0.1625,-0.17094 -0.27969,-0.17094 l -5.07437,0 c -0.12094,0 -0.27937,0 -0.27937,0.17094 0,0.16625 0.15843,0.16625 0.28562,0.16625 l 5.05969,0 z"
     inkscape:connector-curvature="0"
     id="path46"
     style="fill:#000000;fill-opacity:1;fill-rule:nonzero;stroke:none" /><path
     d="m 234.66687,149.96604 0.0222,0 0.0244,-0.001 0.0353,0 0.0122,-0.002 0.0122,-0.001 0.0109,0 0.0112,-0.002 0.0122,-0.002 0.0109,-0.002 0.0109,-0.004 0.0109,-0.002 0.0109,-0.003 0.01,-0.004 0.01,-0.005 0.008,-0.005 0.008,-0.008 0.009,-0.006 0.008,-0.008 0.007,-0.008 0.003,-0.004 0.002,-0.005 0.004,-0.004 0.003,-0.005 0.001,-0.005 0.004,-0.005 0.002,-0.005 0.005,-0.0122 9.4e-4,-0.005 0.002,-0.007 0.001,-0.007 0,-0.006 0.001,-0.007 0,-0.006 0.002,-0.007 0,-0.0147 c 0,-0.17094 -0.1625,-0.17094 -0.28812,-0.17094 l -5.05969,0 c -0.12719,0 -0.28563,0 -0.28563,0.17094 0,0.16968 0.15844,0.16968 0.27938,0.16968 l 5.07437,0 z"
     inkscape:connector-curvature="0"
     id="path48"
     style="fill:#000000;fill-opacity:1;fill-rule:nonzero;stroke:none" /><path
     d="m 240.28719,145.66792 0,-0.0744 -0.002,-0.007 0,-0.0256 -0.001,-0.006 0,-0.005 -0.003,-0.0122 -0.001,-0.01 -0.001,-0.008 -0.005,-0.0172 -0.007,-0.0147 -0.003,-0.005 -0.01,-0.01 -0.007,-0.005 -0.006,-0.004 -0.007,-0.004 -0.005,-0.001 -0.003,-0.002 -0.005,0 -0.004,-0.001 -0.005,-9.4e-4 -0.005,0 -0.005,-0.002 -0.007,0 -0.005,-0.001 -0.0122,0 -0.006,-0.002 -0.0344,0 -0.008,-0.001 -0.0341,0 c -0.52751,0.54219 -1.27094,0.54219 -1.54063,0.54219 l 0,0.26344 c 0.16969,0 0.66781,0 1.10719,-0.22094 l 0,4.38969 c 0,0.30656 -0.0244,0.40656 -0.78625,0.40656 l -0.27219,0 0,0.26375 c 0.29781,-0.0269 1.03406,-0.0269 1.37219,-0.0269 0.34062,0 1.07531,0 1.37312,0.0269 l 0,-0.26375 -0.27093,0 c -0.76157,0 -0.78844,-0.0916 -0.78844,-0.40656 l 0,-4.75344 z"
     inkscape:connector-curvature="0"
     id="path50"
     style="fill:#000000;fill-opacity:1;fill-rule:nonzero;stroke:none" /><path
     d="m 245.07594,150.64355 -0.001,-0.0231 -0.002,-0.0231 -0.002,-0.0222 -0.003,-0.0219 -0.005,-0.0206 -0.006,-0.0222 -0.009,-0.0206 -0.006,-0.0209 -0.01,-0.0194 -0.008,-0.0197 -0.0244,-0.0366 -0.0122,-0.0169 -0.0269,-0.0344 -0.0306,-0.0303 -0.0341,-0.0269 -0.0172,-0.0122 -0.0366,-0.0247 -0.0194,-0.01 -0.0209,-0.008 -0.0194,-0.009 -0.0209,-0.007 -0.0219,-0.006 -0.0206,-0.005 -0.0222,-0.004 -0.0231,-0.004 -0.0231,-9.4e-4 -0.0231,0 c -0.24312,0 -0.44937,0.20375 -0.44937,0.44907 0,0.24406 0.20625,0.44812 0.44937,0.44812 0.24782,0 0.45032,-0.20406 0.45032,-0.44812 z"
     inkscape:connector-curvature="0"
     id="path52"
     style="fill:#000000;fill-opacity:1;fill-rule:nonzero;stroke:none" /><path
     d="m 248.82969,150.64355 0,-0.0231 -0.001,-0.0231 -0.007,-0.0441 -0.005,-0.0206 -0.007,-0.0222 -0.006,-0.0206 -0.009,-0.0209 -0.008,-0.0194 -0.01,-0.0197 -0.0109,-0.0181 -0.0122,-0.0184 -0.0113,-0.0169 -0.0134,-0.0172 -0.0144,-0.0172 -0.0147,-0.0159 -0.0159,-0.0144 -0.0341,-0.0269 -0.0159,-0.0122 -0.0197,-0.0125 -0.0181,-0.0122 -0.0184,-0.01 -0.0416,-0.0172 -0.0206,-0.007 -0.0219,-0.006 -0.0222,-0.005 -0.0437,-0.007 -0.0222,-9.4e-4 -0.0244,0 c -0.24281,0 -0.44906,0.20375 -0.44906,0.44906 0,0.24407 0.20625,0.44813 0.44906,0.44813 0.24906,0 0.44938,-0.20406 0.44938,-0.44813 z"
     inkscape:connector-curvature="0"
     id="path54"
     style="fill:#000000;fill-opacity:1;fill-rule:nonzero;stroke:none" /><path
     d="m 252.58562,150.64355 0,-0.0231 -0.002,-0.0231 -0.003,-0.0222 -0.002,-0.0219 -0.006,-0.0206 -0.006,-0.0222 -0.007,-0.0206 -0.008,-0.0209 -0.008,-0.0194 -0.01,-0.0197 -0.01,-0.0181 -0.0122,-0.0184 -0.0122,-0.0169 -0.0134,-0.0172 -0.0159,-0.0172 -0.0134,-0.0159 -0.0169,-0.0144 -0.0147,-0.0134 -0.0172,-0.0134 -0.0172,-0.0122 -0.0181,-0.0125 -0.0197,-0.0122 -0.0194,-0.01 -0.0197,-0.008 -0.0206,-0.009 -0.0219,-0.007 -0.0197,-0.006 -0.0219,-0.005 -0.0231,-0.004 -0.0222,-0.004 -0.0219,-9.4e-4 -0.0231,0 c -0.24531,0 -0.44937,0.20375 -0.44937,0.44906 0,0.24407 0.20406,0.44813 0.44937,0.44813 0.24656,0 0.44906,-0.20406 0.44906,-0.44813 z"
     inkscape:connector-curvature="0"
     id="path56"
     style="fill:#000000;fill-opacity:1;fill-rule:nonzero;stroke:none" /><path
     d="m 262.58094,145.9573 0.008,-0.0269 0.005,-0.0281 0.007,-0.0244 0.006,-0.0244 0.007,-0.0231 0.006,-0.0234 0.008,-0.0194 0.007,-0.0197 0.009,-0.0181 0.01,-0.0184 0.0109,-0.0156 0.0109,-0.0147 0.0122,-0.0159 0.0134,-0.0134 0.0159,-0.0122 0.0172,-0.0122 0.0181,-0.01 0.0209,-0.01 0.0194,-0.008 0.0256,-0.008 0.0256,-0.007 0.0134,-0.004 0.0159,-0.002 0.0147,-0.004 0.0159,-0.004 0.0156,-0.001 0.0159,-0.003 0.0197,-0.002 0.0169,-0.001 0.0197,-0.004 0.0391,-0.002 0.0231,0 0.0197,-0.002 0.0244,-9.4e-4 0.0231,-0.002 0.05,0 0.0256,-0.001 0.1125,0 c 0.19281,0 0.26968,0 0.26968,-0.16969 0,-0.0941 -0.0856,-0.0941 -0.22843,-0.0941 l -1.11813,0 c -0.22219,0 -0.22937,0 -0.33062,0.16125 l -3.09344,4.82906 -0.66156,-4.7925 c -0.0256,-0.19781 -0.0428,-0.19781 -0.2625,-0.19781 l -1.16094,0 c -0.15969,0 -0.25375,0 -0.25375,0.16125 0,0.1025 0.0744,0.1025 0.24531,0.1025 0.11219,0 0.26375,0.007 0.36375,0.0147 0.13563,0.0194 0.18688,0.0425 0.18688,0.13656 0,0.0344 -0.009,0.0613 -0.0319,0.16125 l -1.07656,4.31406 c -0.0856,0.33906 -0.22844,0.61032 -0.91688,0.63344 -0.0425,0 -0.15125,0.008 -0.15125,0.16344 0,0.0734 0.0513,0.10031 0.11844,0.10031 0.27219,0 0.56625,-0.0269 0.84594,-0.0269 0.28937,0 0.59437,0.0269 0.87406,0.0269 0.0425,0 0.15125,0 0.15125,-0.16969 0,-0.0941 -0.0941,-0.0941 -0.15125,-0.0941 -0.48344,-0.006 -0.57625,-0.17719 -0.57625,-0.37 0,-0.0597 0.008,-0.1025 0.0341,-0.19406 l 1.15125,-4.61907 0.01,0 0.7275,5.25376 c 0.0172,0.10031 0.0244,0.19312 0.12813,0.19312 0.0941,0 0.14406,-0.0928 0.18687,-0.15156 l 3.42156,-5.365 0.009,0 -1.21218,4.85469 c -0.0856,0.33218 -0.10032,0.39812 -0.77032,0.39812 -0.14281,0 -0.23687,0 -0.23687,0.16344 0,0.10031 0.1025,0.10031 0.12812,0.10031 0.23563,0 0.81313,-0.0269 1.04875,-0.0269 0.34907,0 0.71282,0.0269 1.06188,0.0269 0.0487,0 0.16,0 0.16,-0.16969 0,-0.0941 -0.0781,-0.0941 -0.23813,-0.0941 -0.31375,0 -0.54937,0 -0.54937,-0.15125 0,-0.0331 0,-0.0491 0.0428,-0.20406 l 1.12563,-4.51532 z"
     inkscape:connector-curvature="0"
     id="path58"
     style="fill:#000000;fill-opacity:1;fill-rule:nonzero;stroke:none" /><path
     style="fill:none;stroke:#000000;stroke-width:0.625;stroke-linecap:round;stroke-linejoin:miter;stroke-miterlimit:4;stroke-opacity:1;stroke-dasharray:none"
     id="path62"
     inkscape:connector-curvature="0"
     d="m 181.475,118.06188 c 0,5.97781 -4.84625,10.8225 -10.82406,10.8225 -5.97657,0 -10.82281,-4.84469 -10.82281,-10.8225 0,-5.97781 4.84624,-10.82406 10.82281,-10.82406 5.97781,0 10.82406,4.84625 10.82406,10.82406 z" /><path
     d="m 167.56125,115.34198 -1.11094,-2.63406 c -0.0403,-0.10875 -0.0669,-0.15625 -0.0669,-0.16969 0,-0.0819 0.22562,-0.33218 0.78125,-0.38594 0.13281,-0.0122 0.26593,-0.0256 0.26593,-0.25499 0,-0.15625 -0.16218,-0.15625 -0.19906,-0.15625 -0.54437,0 -1.11312,0.0425 -1.66844,0.0425 -0.33218,0 -1.15125,-0.0425 -1.48343,-0.0425 -0.0769,0 -0.23906,0 -0.23906,0.26593 0,0.14531 0.13312,0.14531 0.30499,0.14531 0.79469,0 0.87157,0.13313 0.995,0.42375 l 1.55876,3.69626 -2.79282,3.00531 -0.16969,0.14656 c -0.64812,0.70062 -1.27312,0.91062 -1.94843,0.94844 -0.16969,0.0134 -0.29156,0.0134 -0.29156,0.26593 0,0.0134 0,0.14532 0.17562,0.14532 0.39312,0 0.82906,-0.0416 1.24031,-0.0416 0.49188,0 1.01063,0.0416 1.48313,0.0416 0.0831,0 0.24187,0 0.24187,-0.26469 0,-0.13313 -0.13312,-0.14656 -0.15875,-0.14656 -0.11969,-0.0109 -0.53218,-0.0378 -0.53218,-0.40907 0,-0.21218 0.19874,-0.42593 0.35875,-0.59562 l 1.34781,-1.43188 1.1925,-1.29531 1.33656,3.16313 c 0.0538,0.14625 0.0672,0.15968 0.0672,0.18906 0,0.10375 -0.25031,0.32594 -0.76781,0.37969 -0.14657,0.0134 -0.26375,0.0294 -0.26375,0.255 0,0.15625 0.14656,0.15625 0.19656,0.15625 0.375,0 1.30031,-0.0416 1.66875,-0.0416 0.33219,0 1.13781,0.0416 1.46969,0.0416 0.0928,0 0.25281,0 0.25281,-0.25125 0,-0.16 -0.13313,-0.16 -0.23938,-0.16 -0.885,-0.0109 -0.91406,-0.0537 -1.1375,-0.58 -0.51531,-1.23282 -1.40281,-3.29688 -1.70531,-4.08938 0.90063,-0.93 2.285,-2.50594 2.71,-2.87594 0.38563,-0.31843 0.88719,-0.63468 1.68188,-0.675 0.17343,-0.0122 0.29062,-0.0122 0.29062,-0.26468 0,-0.0134 0,-0.14657 -0.17094,-0.14657 -0.39781,0 -0.83375,0.0425 -1.24625,0.0425 -0.48843,0 -0.99125,-0.0425 -1.46968,-0.0425 -0.0794,0 -0.24907,0 -0.24907,0.26594 0,0.0903 0.0659,0.13313 0.15875,0.14531 0.11938,0.0109 0.53219,0.0403 0.53219,0.41032 0,0.18781 -0.14656,0.35875 -0.25531,0.47843 l -2.14469,2.30094 z"
     inkscape:connector-curvature="0"
     id="path64"
     style="fill:#000000;fill-opacity:1;fill-rule:nonzero;stroke:none" /><path
     d="m 174.72312,116.61167 0,-0.002 0.002,-0.003 0,-0.005 0.003,-0.002 0,-0.006 0.002,-0.005 0,-0.005 0.003,-0.006 0.002,-0.005 0,-0.006 0.002,-0.005 0,-0.008 0.002,-0.006 0.002,-0.0134 0.002,-0.01 0.004,-0.008 0,-0.005 0.002,-0.006 0,-0.005 0.002,-0.005 0,-0.006 0.002,-0.005 0,-0.008 0.002,-0.002 0,-0.007 c 0,-0.0512 -0.0366,-0.13313 -0.14875,-0.13313 -0.18313,0 -0.95594,0.0744 -1.18531,0.0953 -0.0659,0.008 -0.19282,0.0159 -0.19282,0.21218 0,0.12844 0.12688,0.12844 0.23063,0.12844 0.44656,0 0.44656,0.0659 0.44656,0.14031 0,0.0647 -0.0219,0.12188 -0.0378,0.205 l -1.14969,4.57032 c -0.0294,0.0966 -0.0378,0.19656 -0.0378,0.28687 0,0.59313 0.52594,0.88 0.97031,0.88 0.22594,0 0.50188,-0.0744 0.74344,-0.48812 0.19406,-0.34063 0.32469,-0.89125 0.32469,-0.92782 0,-0.11968 -0.11969,-0.11968 -0.14875,-0.11968 -0.13063,0 -0.14657,0.0525 -0.18313,0.22343 -0.11969,0.46157 -0.30031,1.05469 -0.69969,1.05469 -0.24656,0 -0.31125,-0.23062 -0.31125,-0.45156 0,-0.10375 0.0269,-0.27969 0.0562,-0.38344 l 1.28657,-5.1475 z"
     inkscape:connector-curvature="0"
     id="path66"
     style="fill:#000000;fill-opacity:1;fill-rule:nonzero;stroke:none" /><path
     d="m 179.58656,116.97417 0,-0.0331 -0.002,-0.0122 -0.004,-0.0169 -0.005,-0.0319 -0.005,-0.0134 -0.006,-0.0159 -0.005,-0.0156 -0.007,-0.0134 -0.008,-0.0159 -0.009,-0.0122 -0.007,-0.0172 -0.0109,-0.0122 -0.0109,-0.0134 -0.01,-0.0134 -0.0112,-0.0134 -0.0134,-0.0109 -0.0134,-0.0134 -0.0156,-0.01 -0.0134,-0.0109 -0.0159,-0.009 -0.0159,-0.01 -0.0159,-0.008 -0.0181,-0.005 -0.0184,-0.008 -0.0194,-0.005 -0.0209,-0.005 -0.0206,-0.003 -0.0219,-0.003 -0.0209,-0.002 -0.0244,0 c -0.26844,0 -0.5175,0.26 -0.5175,0.51031 0,0.14875 0.11094,0.35406 0.36844,0.35406 0.25031,0 0.51906,-0.24312 0.51906,-0.51031 z"
     inkscape:connector-curvature="0"
     id="path68"
     style="fill:#000000;fill-opacity:1;fill-rule:nonzero;stroke:none" /><path
     d="m 177.62219,123.21323 -0.0156,0.0609 -0.0159,0.0588 -0.0219,0.0584 -0.0209,0.0562 -0.0206,0.0547 -0.0537,0.1125 -0.0269,0.0525 -0.0294,0.0512 -0.0316,0.05 -0.0319,0.0512 -0.0341,0.0475 -0.0344,0.0453 -0.0378,0.0453 -0.0366,0.0425 -0.0378,0.0391 -0.0403,0.0403 -0.0416,0.0366 -0.0428,0.0356 -0.0425,0.0341 -0.0453,0.0294 -0.0425,0.0291 -0.0478,0.0269 -0.045,0.0234 -0.0478,0.0219 -0.0475,0.0184 -0.0487,0.0156 -0.05,0.0134 -0.0478,0.0109 -0.0512,0.007 -0.05,0.005 -0.05,0 c -0.12219,0 -0.23438,-0.0159 -0.33813,-0.0525 0.24157,-0.1125 0.31594,-0.33219 0.31594,-0.47375 0,-0.21969 -0.17438,-0.33938 -0.36125,-0.33938 -0.28687,0 -0.52594,0.24907 -0.52594,0.54188 0,0.35281 0.36125,0.58719 0.91656,0.58719 0.55563,0 1.63719,-0.33188 1.92751,-1.46125 l 0.83124,-3.32032 c 0.0269,-0.0975 0.0453,-0.18062 0.0453,-0.32343 0,-0.50532 -0.43344,-0.86657 -0.98875,-0.86657 -1.03157,0 -1.62125,1.28657 -1.62125,1.41719 0,0.11844 0.13062,0.11844 0.16,0.11844 0.10625,0 0.11968,-0.0281 0.18062,-0.16344 0.23313,-0.54344 0.71406,-1.11469 1.25125,-1.11469 0.23188,0 0.31625,0.1575 0.31625,0.45156 0,0.10376 -0.0184,0.23438 -0.0294,0.27969 l -0.89,3.545 z"
     inkscape:connector-curvature="0"
     id="path70"
     style="fill:#000000;fill-opacity:1;fill-rule:nonzero;stroke:none" /><path
     style="fill:none;stroke:#000000;stroke-width:0.625;stroke-linecap:butt;stroke-linejoin:miter;stroke-miterlimit:4;stroke-opacity:1;stroke-dasharray:none"
     id="path74"
     inkscape:connector-curvature="0"
     d="m 170.54844,105.51782 0.13781,-14.941253" /><path
     style="fill:#000000;fill-opacity:1;fill-rule:evenodd;stroke:#000000;stroke-width:0.31250003;stroke-linecap:butt;stroke-linejoin:miter;stroke-miterlimit:4;stroke-opacity:1;stroke-dasharray:none"
     id="path78"
     inkscape:connector-curvature="0"
     d="m 170.66306,93.07634 1.23791,1.261149 -1.20987,-4.386155 -1.28888,4.362919 1.26084,-1.237913 z" /><path
     style="fill:none;stroke:#000000;stroke-width:0.625;stroke-linecap:round;stroke-linejoin:miter;stroke-miterlimit:4;stroke-opacity:1;stroke-dasharray:none"
     id="path82"
     inkscape:connector-curvature="0"
     d="m 149.30562,98.861254 64.2675,0 0,43.847496 -64.2675,0 0,-43.847496 z" /><path
     d="m 171.2125,132.31823 0,-0.01 -0.001,-0.004 0,-0.007 -0.002,-0.004 0,-0.003 -0.001,-0.004 -0.002,-0.004 0,-0.006 -0.003,-0.004 -0.001,-0.005 -0.002,-0.005 -0.004,-0.005 -0.007,-0.007 -0.004,-0.006 -0.002,-0.001 -0.004,-0.003 -0.003,-0.003 -0.004,-0.001 -0.001,-0.002 -0.004,-0.001 -0.003,-0.002 -0.004,-0.001 -0.002,-0.002 -0.004,0 -0.003,-0.002 -0.004,-0.001 -0.006,0 -0.003,-0.002 -0.004,-0.001 -0.008,0 -0.004,-0.002 -0.0122,0 -0.005,-0.001 -0.0109,0 c -0.2125,0 -0.89,0.0756 -1.13156,0.0928 -0.0719,0.01 -0.17344,0.0184 -0.17344,0.19532 0,0.1025 0.0903,0.1025 0.22969,0.1025 0.44438,0 0.45531,0.0831 0.45531,0.15625 l -0.0281,0.18562 -1.16813,4.63375 c -0.0256,0.10125 -0.0466,0.16719 -0.0466,0.31625 0,0.52719 0.40906,0.85188 0.84344,0.85188 0.30656,0 0.53719,-0.18532 0.69719,-0.51625 0.16593,-0.35531 0.27593,-0.89344 0.27593,-0.90938 0,-0.0941 -0.0806,-0.0941 -0.11,-0.0941 -0.0941,0 -0.1025,0.0378 -0.13062,0.16719 -0.15875,0.60312 -0.33313,1.14875 -0.70563,1.14875 -0.27812,0 -0.27812,-0.29657 -0.27812,-0.42594 0,-0.22219 0.0134,-0.26875 0.0559,-0.44437 l 1.33687,-5.35782 z"
     inkscape:connector-curvature="0"
     id="path84"
     style="fill:#000000;fill-opacity:1;fill-rule:nonzero;stroke:none" /><path
     d="m 180.72406,135.61667 0.0806,0 0.0122,-0.002 0.0147,0 0.0134,-0.001 0.0134,-0.002 0.0122,-0.002 0.0134,-0.001 0.0134,-0.002 0.0109,-0.004 0.0134,-0.003 0.0219,-0.007 0.0109,-0.005 0.0112,-0.006 0.01,-0.007 0.008,-0.006 0.01,-0.008 0.007,-0.008 0.0109,-0.0147 0.002,-0.006 0.004,-0.004 0.003,-0.006 0.001,-0.005 0.002,-0.007 0.004,-0.006 0.001,-0.007 0.002,-0.006 0,-0.007 0.001,-0.007 0.002,-0.007 0,-0.007 0.002,-0.007 0,-0.0172 c 0,-0.18562 -0.17687,-0.18562 -0.30531,-0.18562 l -5.55281,0 c -0.13063,0 -0.30532,0 -0.30532,0.18562 0,0.18313 0.17469,0.18313 0.31375,0.18313 l 5.53469,0 z"
     inkscape:connector-curvature="0"
     id="path86"
     style="fill:#000000;fill-opacity:1;fill-rule:nonzero;stroke:none" /><path
     d="m 180.73375,137.4173 0.0234,0 0.0269,-0.002 0.0391,0 0.0122,-0.001 0.0122,-0.002 0.0122,0 0.0134,-0.001 0.0134,-0.003 0.0122,-0.002 0.0109,-0.004 0.0244,-0.007 0.0109,-0.004 0.01,-0.006 0.0112,-0.005 0.01,-0.007 0.008,-0.007 0.01,-0.008 0.007,-0.009 0.004,-0.003 0.003,-0.006 0.004,-0.004 0.002,-0.005 0.007,-0.0122 0.001,-0.005 0.002,-0.006 0.004,-0.007 0.001,-0.005 0.002,-0.007 0,-0.008 0.001,-0.008 0.002,-0.007 0,-0.008 0.002,-0.007 0,-0.0172 c 0,-0.18562 -0.17687,-0.18562 -0.315,-0.18562 l -5.53469,0 c -0.13906,0 -0.31375,0 -0.31375,0.18562 0,0.18688 0.17469,0.18688 0.30532,0.18688 l 5.55281,0 z"
     inkscape:connector-curvature="0"
     id="path88"
     style="fill:#000000;fill-opacity:1;fill-rule:nonzero;stroke:none" /><path
     d="m 186.85687,132.71636 0,-0.0659 -0.001,-0.008 0,-0.0428 -0.002,-0.007 0,-0.006 -9.3e-4,-0.0134 -0.002,-0.0109 -0.001,-0.009 -0.002,-0.01 -0.004,-0.01 -0.007,-0.0147 -0.006,-0.005 -0.003,-0.006 -0.007,-0.005 -0.005,-0.006 -0.007,-0.004 -0.01,-0.004 -0.004,-0.002 -0.004,-9.4e-4 -0.006,0 -0.005,-0.002 -0.003,-0.001 -0.006,0 -0.007,-0.002 -0.006,0 -0.005,-0.001 -0.0134,0 -0.007,-0.002 -0.0391,0 -0.007,-0.001 -0.0369,0 c -0.57718,0.59344 -1.39031,0.59344 -1.68812,0.59344 l 0,0.28812 c 0.18687,0 0.73375,0 1.21344,-0.24187 l 0,4.80125 c 0,0.33437 -0.0256,0.44406 -0.86188,0.44406 l -0.29531,0 0,0.28938 c 0.32594,-0.0303 1.13156,-0.0303 1.49906,-0.0303 0.37219,0 1.17781,0 1.50375,0.0303 l 0,-0.28938 -0.29656,0 c -0.835,0 -0.86312,-0.1 -0.86312,-0.44406 l 0,-5.19906 z"
     inkscape:connector-curvature="0"
     id="path90"
     style="fill:#000000;fill-opacity:1;fill-rule:nonzero;stroke:none" /><path
     d="m 192.09625,138.15698 -0.002,-0.0244 -0.001,-0.0256 -0.002,-0.0244 -0.006,-0.0244 -0.005,-0.0222 -0.006,-0.0244 -0.007,-0.0219 -0.008,-0.0219 -0.01,-0.0222 -0.0113,-0.0206 -0.0134,-0.0209 -0.0122,-0.0206 -0.0134,-0.0184 -0.0144,-0.0181 -0.0159,-0.0197 -0.0331,-0.0328 -0.0366,-0.0294 -0.0391,-0.0269 -0.0206,-0.0122 -0.0209,-0.0109 -0.0219,-0.01 -0.0231,-0.01 -0.0222,-0.007 -0.0244,-0.007 -0.0219,-0.005 -0.0244,-0.005 -0.0244,-0.003 -0.0256,-0.001 -0.0244,0 c -0.2675,0 -0.49343,0.22344 -0.49343,0.49062 0,0.26844 0.22593,0.49188 0.49343,0.49188 0.26969,0 0.49188,-0.22344 0.49188,-0.49188 z"
     inkscape:connector-curvature="0"
     id="path92"
     style="fill:#000000;fill-opacity:1;fill-rule:nonzero;stroke:none" /><path
     d="m 196.2025,138.15698 -9.4e-4,-0.0244 -0.002,-0.0256 -0.007,-0.0487 -0.005,-0.0222 -0.006,-0.0244 -0.01,-0.0219 -0.007,-0.0219 -0.0109,-0.0222 -0.008,-0.0206 -0.0269,-0.0416 -0.0122,-0.0184 -0.0159,-0.0181 -0.0147,-0.0197 -0.0328,-0.0328 -0.0184,-0.0147 -0.0194,-0.0147 -0.0184,-0.0134 -0.0206,-0.0134 -0.0197,-0.0122 -0.0206,-0.0109 -0.0219,-0.01 -0.0234,-0.01 -0.0219,-0.007 -0.0244,-0.007 -0.0244,-0.005 -0.0234,-0.005 -0.0244,-0.003 -0.0244,-0.001 -0.0256,0 c -0.26593,0 -0.49187,0.22344 -0.49187,0.49062 0,0.26844 0.22594,0.49188 0.49187,0.49188 0.27094,0 0.49188,-0.22344 0.49188,-0.49188 z"
     inkscape:connector-curvature="0"
     id="path94"
     style="fill:#000000;fill-opacity:1;fill-rule:nonzero;stroke:none" /><path
     d="m 200.30906,138.15698 0,-0.0244 -0.002,-0.0256 -0.007,-0.0487 -0.006,-0.0222 -0.007,-0.0244 -0.008,-0.0219 -0.008,-0.0219 -0.01,-0.0222 -0.0222,-0.0416 -0.0131,-0.0206 -0.0294,-0.0366 -0.0147,-0.0197 -0.0172,-0.0156 -0.0169,-0.0172 -0.0172,-0.0147 -0.0184,-0.0147 -0.0206,-0.0134 -0.0184,-0.0134 -0.0219,-0.0122 -0.0206,-0.0109 -0.0222,-0.01 -0.0231,-0.01 -0.0441,-0.0144 -0.0488,-0.01 -0.0244,-0.003 -0.0256,-0.001 -0.0244,0 c -0.2675,0 -0.49063,0.22344 -0.49063,0.49062 0,0.26844 0.22313,0.49188 0.49063,0.49188 0.26969,0 0.49187,-0.22344 0.49187,-0.49188 z"
     inkscape:connector-curvature="0"
     id="path96"
     style="fill:#000000;fill-opacity:1;fill-rule:nonzero;stroke:none" /><path
     d="m 206.12687,133.04104 0.009,-0.0294 0.007,-0.0294 0.0147,-0.0559 0.0147,-0.0491 0.01,-0.0231 0.0109,-0.0206 0.0109,-0.0219 0.0112,-0.0197 0.0131,-0.0184 0.0147,-0.0169 0.0172,-0.0159 0.0184,-0.0159 0.0206,-0.0147 0.0219,-0.0122 0.0256,-0.0122 0.0269,-0.0109 0.0306,-0.0109 0.0319,-0.008 0.0194,-0.005 0.0159,-0.004 0.0206,-0.004 0.0184,-0.003 0.0231,-0.004 0.0197,-0.004 0.0231,-0.003 0.0244,-0.001 0.0231,-0.002 0.0244,-0.004 0.0256,-0.001 0.0281,-0.002 0.0281,-9.4e-4 0.0281,-0.002 0.0316,-0.002 0.0294,-0.001 0.0341,0 0.0331,-0.002 0.0341,0 0.0356,-0.001 0.15375,0 c 0.27593,0 0.35156,0 0.35156,-0.17813 0,-0.11 -0.1025,-0.11 -0.14906,-0.11 -0.30875,0 -1.06563,0.0294 -1.37094,0.0294 -0.27938,0 -0.95563,-0.0294 -1.23281,-0.0294 -0.0672,0 -0.17688,0 -0.17688,0.18563 0,0.1025 0.0828,0.1025 0.25875,0.1025 0.0206,0 0.19531,0 0.35281,0.0172 0.16719,0.0194 0.25125,0.0294 0.25125,0.14906 0,0.0366 -0.0109,0.0656 -0.0366,0.17562 l -1.2425,4.97688 c -0.0941,0.3625 -0.1125,0.43437 -0.84469,0.43437 -0.15875,0 -0.25156,0 -0.25156,0.18688 0,0.1025 0.0853,0.1025 0.25156,0.1025 l 4.29063,0 c 0.22219,0 0.23062,0 0.28937,-0.15625 l 0.72875,-2.00438 c 0.0391,-0.1025 0.0391,-0.11843 0.0391,-0.12937 0,-0.0353 -0.0256,-0.1025 -0.11125,-0.1025 -0.0841,0 -0.0937,0.0462 -0.15719,0.19531 -0.31625,0.85313 -0.72281,1.90781 -2.32813,1.90781 l -0.86906,0 c -0.13062,0 -0.14906,0 -0.2025,-0.007 -0.0928,-0.008 -0.12344,-0.0184 -0.12344,-0.0928 0,-0.0256 0,-0.0462 0.0466,-0.2125 l 1.25343,-5.00593 z"
     inkscape:connector-curvature="0"
     id="path98"
     style="fill:#000000;fill-opacity:1;fill-rule:nonzero;stroke:none" /><path
     d="m 211.82531,135.98042 -0.001,-0.0109 0,-0.0109 -0.002,-0.01 -0.001,-0.0112 -0.002,-0.0109 -0.001,-0.0109 -0.005,-0.01 -0.007,-0.0219 -0.005,-0.01 -0.006,-0.0109 -0.005,-0.008 -0.006,-0.0122 -0.007,-0.009 -0.007,-0.01 -0.007,-0.008 -0.007,-0.01 -0.01,-0.007 -0.01,-0.01 -0.009,-0.007 -0.0109,-0.007 -0.0109,-0.005 -0.0122,-0.008 -0.0109,-0.005 -0.0122,-0.003 -0.0134,-0.006 -0.0134,-0.004 -0.0147,-0.003 -0.0134,-0.001 -0.0147,-0.002 -0.0159,-0.001 -0.0169,0 c -0.18812,0 -0.36281,0.18187 -0.36281,0.35656 0,0.105 0.0781,0.24781 0.25781,0.24781 0.17563,0 0.365,-0.16968 0.365,-0.35781 z"
     inkscape:connector-curvature="0"
     id="path100"
     style="fill:#000000;fill-opacity:1;fill-rule:nonzero;stroke:none" /><path
     d="m 210.44812,140.34823 -0.008,0.0425 -0.0134,0.0416 -0.0122,0.0403 -0.0319,0.0781 -0.0169,0.0391 -0.0184,0.0391 -0.0206,0.0378 -0.0209,0.0356 -0.0437,0.0706 -0.0244,0.0331 -0.0491,0.0634 -0.0281,0.0291 -0.0256,0.0281 -0.0278,0.0281 -0.0294,0.0269 -0.0306,0.0231 -0.0294,0.0244 -0.0291,0.0209 -0.0319,0.0206 -0.0316,0.0184 -0.0344,0.0172 -0.0328,0.0144 -0.0344,0.0122 -0.0328,0.0125 -0.0331,0.008 -0.0353,0.007 -0.0353,0.006 -0.0353,0.004 -0.0356,0 c -0.0841,0 -0.16218,-0.0113 -0.23687,-0.0381 0.16969,-0.0781 0.22219,-0.23188 0.22219,-0.33062 0,-0.15375 -0.12063,-0.23813 -0.25375,-0.23813 -0.20032,0 -0.3675,0.17469 -0.3675,0.37969 0,0.24781 0.25281,0.41125 0.64093,0.41125 0.39063,0 1.14625,-0.23313 1.34875,-1.02281 l 0.5825,-2.32438 c 0.0206,-0.0681 0.0316,-0.12562 0.0316,-0.22688 0,-0.35281 -0.30282,-0.60562 -0.69219,-0.60562 -0.72125,0 -1.13281,0.89969 -1.13281,0.99125 0,0.0831 0.0891,0.0831 0.11,0.0831 0.0756,0 0.0841,-0.0197 0.12812,-0.11468 0.1625,-0.37969 0.49938,-0.78 0.87406,-0.78 0.16344,0 0.22219,0.10968 0.22219,0.31594 0,0.0734 -0.0109,0.165 -0.0209,0.19531 l -0.62375,2.48187 z"
     inkscape:connector-curvature="0"
     id="path102"
     style="fill:#000000;fill-opacity:1;fill-rule:nonzero;stroke:none" /><text
     xml:space="preserve"
     style="font-size:8px;font-style:normal;font-weight:normal;line-height:125%;letter-spacing:0px;word-spacing:0px;fill:#000000;fill-opacity:1;stroke:none;font-family:Sans"
     x="54.731533"
     y="119.22411"
     id="text3720"
     sodipodi:linespacing="125%"><tspan
       sodipodi:role="line"
       id="tspan3722"
       x="54.731533"
       y="119.22411">&quot;parcel item weights&quot;</tspan></text>
<text
     xml:space="preserve"
     style="font-size:8px;font-style:normal;font-weight:normal;line-height:125%;letter-spacing:0px;word-spacing:0px;fill:#000000;fill-opacity:1;stroke:none;font-family:Sans"
     x="140.55873"
     y="51.083138"
     id="text3720-5"
     sodipodi:linespacing="125%"><tspan
       sodipodi:role="line"
       id="tspan3722-2"
       x="140.55873"
       y="51.083138">&quot;parcel weight&quot;</tspan></text>
<text
     xml:space="preserve"
     style="font-size:8px;font-style:normal;font-weight:normal;line-height:125%;letter-spacing:0px;word-spacing:0px;fill:#000000;fill-opacity:1;stroke:none;font-family:Sans"
     x="205.98126"
     y="51.083141"
     id="text3720-8"
     sodipodi:linespacing="125%"><tspan
       sodipodi:role="line"
       id="tspan3722-0"
       x="205.98126"
       y="51.083141">&quot;parcel volume&quot;</tspan></text>
</svg>