<?xml version="1.0" encoding="UTF-8" standalone="no"?>
<!-- Created with Inkscape (http://www.inkscape.org/) -->

<svg
   xmlns:dc="http://purl.org/dc/elements/1.1/"
   xmlns:cc="http://creativecommons.org/ns#"
   xmlns:rdf="http://www.w3.org/1999/02/22-rdf-syntax-ns#"
   xmlns:svg="http://www.w3.org/2000/svg"
   xmlns="http://www.w3.org/2000/svg"
   xmlns:sodipodi="http://sodipodi.sourceforge.net/DTD/sodipodi-0.dtd"
   xmlns:inkscape="http://www.inkscape.org/namespaces/inkscape"
   version="1.1"
   width="270.04688"
   height="184.73438"
   id="svg2"
   xml:space="preserve"
   inkscape:version="0.48.3.1 r9886"
   sodipodi:docname="model14.svg"><sodipodi:namedview
     pagecolor="#ffffff"
     bordercolor="#666666"
     borderopacity="1"
     objecttolerance="10"
     gridtolerance="10"
     guidetolerance="10"
     inkscape:pageopacity="0"
     inkscape:pageshadow="2"
     inkscape:window-width="1600"
     inkscape:window-height="876"
     id="namedview185"
     showgrid="false"
     fit-margin-top="1"
     fit-margin-left="1"
     fit-margin-right="1"
     fit-margin-bottom="1"
     inkscape:zoom="3.9894518"
     inkscape:cx="135.02281"
     inkscape:cy="92.368433"
     inkscape:window-x="1360"
     inkscape:window-y="24"
     inkscape:window-maximized="1"
     inkscape:current-layer="svg2" /><metadata
     id="metadata8"><rdf:RDF><cc:Work
         rdf:about=""><dc:format>image/svg+xml</dc:format><dc:type
           rdf:resource="http://purl.org/dc/dcmitype/StillImage" /><dc:title></dc:title></cc:Work></rdf:RDF></metadata><defs
     id="defs6" /><g
     transform="matrix(0.3125,0,0,0.3125,1,1.0000044)"
     id="g226"><path
       d="m 426.922,500.98 c 0,19.129 -15.508,34.637 -34.633,34.637 -19.129,0 -34.637,-15.508 -34.637,-34.637 0,-19.125 15.508,-34.632 34.637,-34.632 19.125,0 34.633,15.507 34.633,34.632 z"
       inkscape:connector-curvature="0"
       id="path228"
       style="fill:none;stroke:#000000;stroke-width:2;stroke-linecap:round;stroke-linejoin:miter;stroke-miterlimit:4;stroke-opacity:1;stroke-dasharray:none" /></g><path
     d="m 122.72594,155.60198 -1.11063,-2.63312 c -0.0403,-0.10969 -0.0659,-0.15719 -0.0659,-0.17063 0,-0.0819 0.22562,-0.33219 0.78125,-0.38469 0.13187,-0.0134 0.26468,-0.0269 0.26468,-0.255 0,-0.1575 -0.16093,-0.1575 -0.19875,-0.1575 -0.54437,0 -1.11344,0.0428 -1.66875,0.0428 -0.33218,0 -1.15125,-0.0428 -1.48312,-0.0428 -0.0769,0 -0.23938,0 -0.23938,0.26594 0,0.14656 0.13313,0.14656 0.30657,0.14656 0.79343,0 0.87156,0.13313 0.99343,0.42251 l 1.56031,3.69624 -2.79312,3.00532 -0.17094,0.14656 c -0.64812,0.70187 -1.27187,0.91187 -1.94687,0.94844 -0.17094,0.0134 -0.29313,0.0134 -0.29313,0.26594 0,0.0134 0,0.14656 0.17594,0.14656 0.39312,0 0.82875,-0.0428 1.24,-0.0428 0.49219,0 1.01094,0.0428 1.48344,0.0428 0.0828,0 0.24156,0 0.24156,-0.26594 0,-0.13312 -0.13312,-0.14656 -0.15875,-0.14656 -0.11969,-0.01 -0.53219,-0.0366 -0.53219,-0.40907 0,-0.21218 0.20032,-0.42468 0.35875,-0.59562 l 1.34782,-1.43188 1.1925,-1.29406 1.33687,3.16188 c 0.0538,0.14625 0.0672,0.15968 0.0672,0.18906 0,0.10375 -0.25031,0.32719 -0.76781,0.37969 -0.14657,0.0134 -0.26375,0.0294 -0.26375,0.255 0,0.1575 0.14656,0.1575 0.19656,0.1575 0.37469,0 1.3,-0.0428 1.66875,-0.0428 0.33312,0 1.1375,0.0428 1.46969,0.0428 0.0937,0 0.25249,0 0.25249,-0.2525 0,-0.16 -0.13312,-0.16 -0.23906,-0.16 -0.885,-0.01 -0.91437,-0.0525 -1.13781,-0.57875 -0.515,-1.23282 -1.4025,-3.29813 -1.70531,-4.09063 0.90093,-0.93 2.285,-2.50594 2.71,-2.87469 0.38562,-0.31968 0.8875,-0.63593 1.68219,-0.675 0.17312,-0.0134 0.29031,-0.0134 0.29031,-0.26593 0,-0.0134 0,-0.14657 -0.17094,-0.14657 -0.39781,0 -0.83375,0.0428 -1.24625,0.0428 -0.48813,0 -0.99125,-0.0428 -1.46969,-0.0428 -0.0794,0 -0.24906,0 -0.24906,0.26594 0,0.0903 0.0659,0.13313 0.15875,0.14656 0.11969,0.01 0.53219,0.0391 0.53219,0.40907 0,0.18906 -0.14657,0.35875 -0.255,0.47843 l -2.145,2.30094 z"
     inkscape:connector-curvature="0"
     id="path230"
     style="fill:#000000;fill-opacity:1;fill-rule:nonzero;stroke:none" /><path
     d="m 130.27844,157.23417 0,-0.0134 -0.002,-0.0159 0,-0.0134 -0.002,-0.0159 -0.002,-0.0134 -0.006,-0.0156 -0.002,-0.0134 -0.005,-0.0159 -0.008,-0.0159 -0.005,-0.0134 -0.008,-0.0159 -0.007,-0.0134 -0.008,-0.0156 -0.0109,-0.0134 -0.007,-0.0134 -0.0134,-0.0134 -0.0109,-0.0122 -0.0134,-0.0134 -0.0122,-0.0109 -0.0134,-0.0134 -0.0159,-0.0113 -0.0156,-0.007 -0.0172,-0.0109 -0.0159,-0.007 -0.0181,-0.008 -0.0184,-0.007 -0.0206,-0.006 -0.0222,-0.005 -0.0206,-0.002 -0.0219,-0.004 -0.0234,-0.002 -0.0244,0 c -0.25031,0 -0.5175,0.24187 -0.5175,0.51031 0,0.1575 0.11969,0.35406 0.37094,0.35406 0.26625,0 0.52125,-0.26375 0.52125,-0.51031 z"
     inkscape:connector-curvature="0"
     id="path232"
     style="fill:#000000;fill-opacity:1;fill-rule:nonzero;stroke:none" /><path
     d="m 128.38906,161.93761 -0.0159,0.045 -0.0134,0.0453 -0.007,0.0219 -0.006,0.0231 -0.007,0.0222 -0.006,0.0231 -0.005,0.0244 -0.005,0.0231 -0.006,0.0269 -0.002,0.0244 -0.005,0.0269 0,0.0122 -0.002,0.0134 0,0.0588 c 0,0.43563 0.36843,0.78344 0.87406,0.78344 0.9275,0 1.33656,-1.27188 1.33656,-1.41594 0,-0.11968 -0.11968,-0.11968 -0.14906,-0.11968 -0.12687,0 -0.14031,0.0537 -0.17813,0.1575 -0.21249,0.74093 -0.61874,1.12062 -0.98031,1.12062 -0.18531,0 -0.23062,-0.11969 -0.23062,-0.32344 0,-0.21 0.0659,-0.38812 0.14781,-0.59312 0.0903,-0.24907 0.19406,-0.49688 0.29531,-0.73875 0.0831,-0.22313 0.42,-1.06813 0.45781,-1.18031 0.0231,-0.0903 0.0525,-0.20126 0.0525,-0.29407 0,-0.43594 -0.37,-0.785 -0.88,-0.785 -0.91688,0 -1.34157,1.25719 -1.34157,1.41719 0,0.11969 0.13063,0.11969 0.15969,0.11969 0.12719,0 0.13563,-0.0453 0.165,-0.14907 0.24156,-0.79687 0.64813,-1.12906 0.98875,-1.12906 0.1475,0 0.23063,0.0744 0.23063,0.32344 0,0.21 -0.0538,0.35156 -0.28438,0.92531 l -0.58219,1.49063 z"
     inkscape:connector-curvature="0"
     id="path234"
     style="fill:#000000;fill-opacity:1;fill-rule:nonzero;stroke:none" /><g
     transform="matrix(0.3125,0,0,0.3125,1,1.0000044)"
     id="g236"><path
       d="m 309.742,467.082 c 0,19.125 -15.508,34.633 -34.637,34.633 -19.128,0 -34.632,-15.508 -34.632,-34.633 0,-19.129 15.504,-34.637 34.632,-34.637 19.129,0 34.637,15.508 34.637,34.637 z"
       inkscape:connector-curvature="0"
       id="path238"
       style="fill:none;stroke:#000000;stroke-width:2;stroke-linecap:round;stroke-linejoin:miter;stroke-miterlimit:4;stroke-opacity:1;stroke-dasharray:none" /></g><path
     d="m 78.324375,149.63167 -0.0025,0.005 0,0.006 -0.0012,0.006 0,0.005 -0.0025,0.006 -0.0025,0.003 0,0.005 -0.0025,0.006 0,0.004 -0.0012,0.005 0,0.008 -0.0022,0.004 0,0.005 -0.0025,0.008 -0.0025,0.006 0,0.006 -0.0012,0.006 -0.0025,0.007 0,0.006 -0.0025,0.004 0,0.0109 -0.0022,0.005 0,0.0122 -0.0012,0.005 0,0.0231 c 0,0.1575 0.115937,0.28687 0.295312,0.28687 0.223438,0 0.347813,-0.19406 0.372188,-0.22343 0.04906,-0.0953 0.390625,-1.51625 0.6775,-2.6625 0.20875,0.42625 0.548125,0.71312 1.04625,0.71312 l -0.01094,-0.23437 c -0.739687,0 -0.909375,-0.84594 -0.909375,-0.94125 0,-0.0453 0.0525,-0.25282 0.08281,-0.39313 0.299062,-1.18656 0.405312,-1.56719 0.637187,-1.99094 0.455313,-0.77406 0.985313,-1.00468 1.3125,-1.00468 0.392813,0 0.73125,0.30531 0.73125,1.03531 0,0.58469 -0.306562,1.77125 -0.590937,2.29 -0.352813,0.66656 -0.861875,1.00469 -1.263438,1.00469 l 0.01094,0.23437 c 1.239062,0 2.60875,-1.49437 2.60875,-3.07375 0,-1.12312 -0.701875,-1.7225 -1.475938,-1.7225 -1.026562,0 -2.13875,1.05844 -2.454687,2.35094 l -1.04,4.16281 z"
     inkscape:connector-curvature="0"
     id="path240"
     style="fill:#000000;fill-opacity:1;fill-rule:nonzero;stroke:none" /><path
     d="M 87.580938,146.54917 88.285,145.84386 c 0.94625,-0.93407 1.234375,-1.22313 1.901875,-1.25875 0.09656,-0.007 0.188125,-0.007 0.188125,-0.15625 0,-0.0866 -0.08312,-0.10969 -0.1075,-0.10969 -0.212187,0 -0.47125,0.0294 -0.694375,0.0294 -0.194375,0 -0.667812,-0.0294 -0.860625,-0.0294 -0.06,0 -0.149062,0.0231 -0.149062,0.16344 0,0.006 0,0.0953 0.112187,0.1025 0.06594,0.006 0.252813,0.0234 0.252813,0.18687 0,0.10875 -0.112188,0.22719 -0.186875,0.30157 -0.05969,0.0537 -0.999688,0.96906 -1.275625,1.2525 l -0.745625,-1.45282 c -0.01344,-0.0231 -0.03656,-0.0719 -0.03656,-0.10125 0,-0.0538 0.137812,-0.17094 0.391562,-0.18687 0.0525,0 0.155313,-0.007 0.155313,-0.16219 0,-0.009 -0.0075,-0.10375 -0.125938,-0.10375 -0.155,0 -0.338125,0.0231 -0.495625,0.0231 -0.155,0 -0.324687,0.006 -0.479687,0.006 -0.128125,0 -0.30625,0 -0.440625,-0.006 -0.125625,-0.0109 -0.278438,-0.0231 -0.398125,-0.0231 -0.03531,0 -0.155,0 -0.155,0.16344 0,0.1025 0.09656,0.1025 0.215,0.1025 0.429687,0 0.46625,0.0734 0.538437,0.22218 l 1.03875,2.04594 -0.41375,0.4125 c -0.142812,0.13563 -0.489687,0.46781 -0.625,0.60813 -0.903437,0.89719 -1.20625,1.20969 -1.874062,1.23906 -0.10125,0.006 -0.181875,0.006 -0.181875,0.16094 0,0.0306 0.01844,0.105 0.101562,0.105 0.212188,0 0.46625,-0.0303 0.688438,-0.0303 0.125625,0 0.3125,0 0.438125,0.007 0.134375,0.01 0.295312,0.0231 0.42375,0.0231 0.03531,0 0.155,0 0.155,-0.1575 0,-0.1025 -0.08938,-0.10844 -0.136875,-0.10844 -0.07187,-0.0112 -0.229375,-0.0294 -0.229375,-0.18688 0,-0.11968 0.09625,-0.21499 0.26,-0.37843 l 1.505,-1.47594 0.897187,1.75906 c 0.03563,0.0722 0.04281,0.0891 0.04281,0.0953 0,0.0441 -0.131875,0.16343 -0.391875,0.18687 -0.06719,0.006 -0.163438,0.006 -0.163438,0.16094 0,0.009 0.0059,0.105 0.125625,0.105 0.1575,0 0.341875,-0.0231 0.495625,-0.0231 0.1575,0 0.329688,-0.007 0.482188,-0.007 0.125625,0 0.30625,0 0.438125,0.007 0.125937,0.01 0.282187,0.0231 0.399375,0.0231 0.03656,0 0.155,0 0.155,-0.16344 0,-0.1025 -0.09531,-0.1025 -0.2125,-0.1025 -0.430938,0 -0.4675,-0.0831 -0.535938,-0.21 l -1.19,-2.35375 z"
     inkscape:connector-curvature="0"
     id="path242"
     style="fill:#000000;fill-opacity:1;fill-rule:nonzero;stroke:none" /><path
     d="m 92.0925,149.25917 -0.0025,0.0769 -0.0025,0.0781 -0.0059,0.0819 -0.0084,0.0806 -0.0063,0.0403 -0.01719,0.0853 -0.0084,0.0403 -0.01094,0.0416 -0.01219,0.0428 -0.01344,0.0425 -0.02938,0.0856 -0.01719,0.0441 -0.02062,0.0425 -0.01937,0.0453 -0.02344,0.0428 -0.02313,0.0437 -0.02812,0.0428 -0.02813,0.045 -0.02906,0.0441 -0.03187,0.0428 -0.03656,0.045 -0.03531,0.0441 -0.03906,0.045 -0.04031,0.0428 -0.08906,0.0891 c -0.02937,0.0294 -0.05375,0.0525 -0.05375,0.0891 0,0.0525 0.05969,0.10375 0.1025,0.10375 0.10375,0 0.735938,-0.59062 0.735938,-1.47093 0,-0.46376 -0.180625,-0.80782 -0.51875,-0.80782 -0.246563,0 -0.42125,0.19156 -0.42125,0.42094 0,0.23562 0.1675,0.42969 0.4275,0.42969 0.178125,0 0.295312,-0.11969 0.30625,-0.11969 z"
     inkscape:connector-curvature="0"
     id="path244"
     style="fill:#000000;fill-opacity:1;fill-rule:nonzero;stroke:none" /><path
     d="m 95.453125,144.74886 0,-0.0244 -0.0025,-0.01 -0.0012,-0.0134 -0.0025,-0.01 -0.0022,-0.0134 -0.0037,-0.0109 -0.005,-0.0122 -0.0034,-0.0122 -0.005,-0.0109 -0.0062,-0.0134 -0.0059,-0.01 -0.0062,-0.0134 -0.0084,-0.01 -0.02563,-0.0328 -0.01094,-0.01 -0.01094,-0.009 -0.01,-0.0109 -0.01344,-0.008 -0.01219,-0.006 -0.01344,-0.008 -0.01438,-0.006 -0.01469,-0.007 -0.01469,-0.006 -0.01469,-0.003 -0.01719,-0.005 -0.01687,-0.002 -0.01719,-0.001 -0.01969,-0.002 -0.01938,0 c -0.199062,0 -0.41375,0.19281 -0.41375,0.4075 0,0.12594 0.095,0.28313 0.297813,0.28313 0.212187,0 0.41375,-0.20969 0.41375,-0.4075 z"
     inkscape:connector-curvature="0"
     id="path246"
     style="fill:#000000;fill-opacity:1;fill-rule:nonzero;stroke:none" /><path
     d="m 93.941875,148.51105 -0.01094,0.0366 -0.0097,0.0353 -0.0075,0.0172 -0.0059,0.0194 -0.0038,0.0172 -0.005,0.0197 -0.0059,0.0181 -0.005,0.0197 -0.0012,0.0206 -0.0047,0.0197 -0.0025,0.0219 -0.0012,0.01 0,0.0231 -0.0025,0.0112 0,0.0231 c 0,0.34906 0.295313,0.6275 0.701875,0.6275 0.739688,0 1.069375,-1.01813 1.069375,-1.13282 0,-0.0966 -0.09656,-0.0966 -0.119687,-0.0966 -0.10375,0 -0.112188,0.0428 -0.142813,0.12563 -0.169687,0.59343 -0.494375,0.89718 -0.78375,0.89718 -0.14875,0 -0.186562,-0.095 -0.186562,-0.25875 0,-0.16844 0.0525,-0.31125 0.120625,-0.47468 0.07219,-0.19907 0.155313,-0.39688 0.235625,-0.59094 0.06594,-0.17813 0.334688,-0.85438 0.36375,-0.94344 0.02094,-0.0722 0.04531,-0.1625 0.04531,-0.23562 0,-0.34907 -0.296562,-0.6275 -0.706874,-0.6275 -0.733438,0 -1.070313,1.00593 -1.070313,1.13281 0,0.0953 0.10125,0.0953 0.124375,0.0953 0.105,0 0.110938,-0.0356 0.134375,-0.11844 0.191562,-0.63843 0.51625,-0.90344 0.790938,-0.90344 0.118437,0 0.184374,0.0587 0.184374,0.25876 0,0.16843 -0.04156,0.28093 -0.229687,0.73968 l -0.465,1.19282 z"
     inkscape:connector-curvature="0"
     id="path248"
     style="fill:#000000;fill-opacity:1;fill-rule:nonzero;stroke:none" /><path
     d="m 79.978125,115.04792 0.005,-0.0222 0.0037,-0.0231 0.01219,-0.0463 0.0072,-0.0256 0.01844,-0.0769 0.01344,-0.0525 0.01219,-0.0538 0.01344,-0.0512 0.01219,-0.0525 0.005,-0.0231 0.0059,-0.0256 0.0062,-0.0234 0.0047,-0.0244 0.0062,-0.0206 0.0037,-0.0209 0.0047,-0.0219 0.0037,-0.0172 0.005,-0.0181 9.37e-4,-0.0159 0.005,-0.0147 0.0025,-0.0147 0.0012,-0.0109 0,-0.01 0.0025,-0.007 0,-0.006 c 0,-0.17812 -0.125937,-0.28437 -0.306562,-0.28437 -0.03156,0 -0.327188,0.008 -0.424688,0.37843 l -1.524687,6.13532 c -0.02938,0.12562 -0.02938,0.145 -0.02938,0.16843 0,0.15719 0.117187,0.28688 0.295312,0.28688 0.223438,0 0.349375,-0.19438 0.3725,-0.22344 0.04031,-0.0953 0.178125,-0.64844 0.579688,-2.27906 0.340625,0.28437 0.814375,0.32937 1.026562,0.32937 0.742188,0 1.1575,-0.47593 1.41,-0.77375 0.09656,0.47844 0.487188,0.77375 0.952188,0.77375 0.372187,0 0.615312,-0.24281 0.785,-0.58218 0.178125,-0.38094 0.318437,-1.02907 0.318437,-1.04844 0,-0.10625 -0.095,-0.10625 -0.124375,-0.10625 -0.1075,0 -0.117187,0.0428 -0.151562,0.19156 -0.178125,0.68844 -0.372188,1.31094 -0.803125,1.31094 -0.285625,0 -0.319688,-0.27344 -0.319688,-0.48688 0,-0.23312 0.128125,-0.73125 0.212188,-1.09875 l 0.296875,-1.1475 c 0.03281,-0.15968 0.135312,-0.56156 0.180625,-0.72125 0.0525,-0.24187 0.15875,-0.64468 0.15875,-0.70562 0,-0.19406 -0.150313,-0.28688 -0.306563,-0.28688 -0.0525,0 -0.329687,0.0109 -0.41375,0.37 l -0.499375,1.98094 c -0.125625,0.53 -0.242812,0.97438 -0.277187,1.08031 -0.0084,0.0525 -0.51625,1.01563 -1.373125,1.01563 -0.529688,0 -0.785,-0.34781 -0.785,-0.91781 0,-0.31 0.07344,-0.60563 0.149062,-0.90344 l 0.446563,-1.77719 z"
     inkscape:connector-curvature="0"
     id="path250"
     style="fill:#000000;fill-opacity:1;fill-rule:nonzero;stroke:none" /><path
     d="m 88.025,117.51605 0.705625,-0.70563 c 0.94625,-0.93375 1.235312,-1.22312 1.903125,-1.25844 0.09531,-0.007 0.185625,-0.007 0.185625,-0.15625 0,-0.0866 -0.08187,-0.10968 -0.1075,-0.10968 -0.2125,0 -0.46875,0.0291 -0.692187,0.0291 -0.194063,0 -0.667501,-0.0291 -0.861875,-0.0291 -0.05844,0 -0.148751,0.0231 -0.148751,0.16343 0,0.006 0,0.0953 0.113438,0.1025 0.06594,0.006 0.252813,0.0231 0.252813,0.18688 0,0.10844 -0.1125,0.22687 -0.186875,0.30156 -0.05969,0.0534 -0.999688,0.96906 -1.275625,1.25219 l -0.747188,-1.4525 c -0.01219,-0.0231 -0.03531,-0.0722 -0.03531,-0.10125 0,-0.0538 0.138125,-0.17094 0.390625,-0.18688 0.05375,0 0.155,-0.007 0.155,-0.16218 0,-0.009 -0.0059,-0.10375 -0.124376,-0.10375 -0.154999,0 -0.338125,0.0231 -0.495625,0.0231 -0.155,0 -0.325937,0.006 -0.480937,0.006 -0.126875,0 -0.306563,0 -0.439375,-0.006 -0.125938,-0.0109 -0.278438,-0.0231 -0.398125,-0.0231 -0.03656,0 -0.1575,0 -0.1575,0.16343 0,0.1025 0.09781,0.1025 0.2175,0.1025 0.429687,0 0.465,0.0731 0.536875,0.22219 l 1.04,2.04594 -0.415,0.4125 c -0.141562,0.13562 -0.488125,0.4675 -0.625,0.60812 -0.903125,0.89719 -1.204688,1.20969 -1.8725,1.23875 -0.10375,0.006 -0.183125,0.006 -0.183125,0.16125 0,0.0306 0.01969,0.105 0.1025,0.105 0.2125,0 0.465312,-0.0306 0.688437,-0.0306 0.125938,0 0.3125,0 0.438438,0.007 0.134062,0.01 0.295312,0.0231 0.423437,0.0231 0.03562,0 0.155,0 0.155,-0.1575 0,-0.1025 -0.08906,-0.10875 -0.136562,-0.10875 -0.07219,-0.0109 -0.229688,-0.0291 -0.229688,-0.18656 0,-0.11969 0.09656,-0.215 0.260313,-0.37844 l 1.505,-1.47593 0.897187,1.75906 c 0.03531,0.0719 0.04156,0.0891 0.04156,0.0953 0,0.0438 -0.133125,0.16344 -0.390625,0.18656 -0.06844,0.006 -0.16375,0.006 -0.16375,0.16125 0,0.008 0.0062,0.105 0.125937,0.105 0.1575,0 0.341563,-0.0231 0.494375,-0.0231 0.1575,0 0.329375,-0.007 0.483438,-0.007 0.125625,0 0.30625,0 0.438125,0.007 0.124375,0.01 0.281875,0.0231 0.396875,0.0231 0.03875,0 0.157187,0 0.157187,-0.16375 0,-0.1025 -0.095,-0.1025 -0.212187,-0.1025 -0.432188,0 -0.4675,-0.0828 -0.535938,-0.21 L 88.025,117.51605 z"
     inkscape:connector-curvature="0"
     id="path252"
     style="fill:#000000;fill-opacity:1;fill-rule:nonzero;stroke:none" /><path
     d="m 92.538125,120.22605 -0.0012,0.0769 -0.0025,0.0781 -0.0059,0.0819 -0.01125,0.0806 -0.0034,0.0403 -0.01719,0.0853 -0.0084,0.0403 -0.01094,0.0416 -0.01219,0.0428 -0.01344,0.0425 -0.02938,0.0856 -0.01969,0.0437 -0.01937,0.0428 -0.01844,0.0453 -0.02438,0.0425 -0.02437,0.0441 -0.02563,0.0428 -0.02812,0.045 -0.02938,0.0441 -0.03156,0.0425 -0.03656,0.0453 -0.03687,0.0441 -0.03781,0.045 -0.04031,0.0428 -0.045,0.0441 -0.04406,0.045 c -0.03031,0.0294 -0.05375,0.0525 -0.05375,0.0891 0,0.0525 0.06,0.10375 0.1025,0.10375 0.10375,0 0.735,-0.59063 0.735,-1.47094 0,-0.46375 -0.180625,-0.80813 -0.51875,-0.80813 -0.246563,0 -0.4225,0.19188 -0.4225,0.42125 0,0.23563 0.169687,0.42969 0.429687,0.42969 0.178438,0 0.295625,-0.11968 0.305313,-0.11968 z"
     inkscape:connector-curvature="0"
     id="path254"
     style="fill:#000000;fill-opacity:1;fill-rule:nonzero;stroke:none" /><path
     d="m 95.9,115.71573 0,-0.0247 -0.0025,-0.01 -0.0025,-0.0134 -0.0012,-0.01 -0.0025,-0.0134 -0.0047,-0.0109 -0.0075,-0.0244 -0.0047,-0.0109 -0.0062,-0.0134 -0.0059,-0.01 -0.0075,-0.0134 -0.0084,-0.01 -0.01719,-0.0219 -0.0072,-0.0109 -0.01094,-0.01 -0.01125,-0.008 -0.01094,-0.0109 -0.01219,-0.008 -0.01344,-0.006 -0.01219,-0.008 -0.01469,-0.006 -0.01469,-0.007 -0.01563,-0.006 -0.01469,-0.004 -0.01719,-0.005 -0.01719,-0.002 -0.01687,-0.001 -0.01844,-0.003 -0.01937,0 c -0.200312,0 -0.41625,0.19282 -0.41625,0.40782 0,0.12562 0.0975,0.28312 0.299063,0.28312 0.212187,0 0.415,-0.21 0.415,-0.4075 z"
     inkscape:connector-curvature="0"
     id="path256"
     style="fill:#000000;fill-opacity:1;fill-rule:nonzero;stroke:none" /><path
     d="m 94.38875,119.47792 -0.01094,0.0366 -0.01125,0.0353 -0.0059,0.0172 -0.0062,0.0194 -0.0047,0.0172 -0.0038,0.0194 -0.0059,0.0184 -0.005,0.0197 -0.0025,0.0206 -0.0037,0.0194 -0.0022,0.0222 -0.0025,0.01 0,0.0231 -0.0012,0.0109 0,0.0234 c 0,0.34906 0.295313,0.62719 0.700625,0.62719 0.739688,0 1.069376,-1.01781 1.069376,-1.13281 0,-0.0962 -0.09531,-0.0962 -0.118438,-0.0962 -0.10375,0 -0.112187,0.0428 -0.145312,0.12562 -0.167188,0.59344 -0.493125,0.89719 -0.78125,0.89719 -0.14875,0 -0.187813,-0.095 -0.187813,-0.25875 0,-0.16844 0.05344,-0.31125 0.119375,-0.47469 0.07469,-0.19906 0.1575,-0.39687 0.238125,-0.59094 0.06594,-0.17812 0.333125,-0.85437 0.36375,-0.94375 0.02094,-0.0719 0.04406,-0.16218 0.04406,-0.23531 0,-0.34937 -0.295625,-0.6275 -0.705625,-0.6275 -0.73375,0 -1.071875,1.00563 -1.071875,1.13281 0,0.095 0.1025,0.095 0.125937,0.095 0.1025,0 0.110938,-0.0353 0.134063,-0.11843 0.191875,-0.63813 0.516562,-0.90313 0.79125,-0.90313 0.118125,0 0.184062,0.0584 0.184062,0.25875 0,0.16844 -0.0425,0.28063 -0.229375,0.73969 l -0.465,1.19281 z"
     inkscape:connector-curvature="0"
     id="path258"
     style="fill:#000000;fill-opacity:1;fill-rule:nonzero;stroke:none" /><g
     transform="matrix(0.3125,0,0,0.3125,1,1.0000044)"
     id="g260"><path
       d="m 309.742,374.176 c 0,19.125 -15.508,34.633 -34.637,34.633 -19.128,0 -34.632,-15.508 -34.632,-34.633 0,-19.129 15.504,-34.637 34.632,-34.637 19.129,0 34.637,15.508 34.637,34.637 z"
       inkscape:connector-curvature="0"
       id="path262"
       style="fill:none;stroke:#000000;stroke-width:2;stroke-linecap:round;stroke-linejoin:miter;stroke-miterlimit:4;stroke-opacity:1;stroke-dasharray:none" /></g><g
     transform="matrix(0.3125,0,0,0.3125,1,1.0000044)"
     id="g264"><path
       d="m 312.152,478.953 41.422,8.219"
       inkscape:connector-curvature="0"
       id="path266"
       style="fill:none;stroke:#000000;stroke-width:2;stroke-linecap:butt;stroke-linejoin:miter;stroke-miterlimit:4;stroke-opacity:1;stroke-dasharray:none" /></g><g
     transform="matrix(-0.3125,-0.06202187,0.06202187,-0.3125,1,1.0000044)"
     id="g268"><path
       d="m -425.356,-401.197 3.924,-3.923 -13.732,3.925 13.731,3.923 -3.923,-3.925 z"
       inkscape:connector-curvature="0"
       id="path270"
       style="fill:#000000;fill-opacity:1;fill-rule:evenodd;stroke:#000000;stroke-width:0.98086798;stroke-linecap:butt;stroke-linejoin:miter;stroke-miterlimit:4;stroke-opacity:1;stroke-dasharray:none" /></g><g
     transform="matrix(0.3125,0,0,0.3125,1,1.0000044)"
     id="g272"><path
       d="m 298.746,403.465 60.348,74.308"
       inkscape:connector-curvature="0"
       id="path274"
       style="fill:none;stroke:#000000;stroke-width:2;stroke-linecap:butt;stroke-linejoin:miter;stroke-miterlimit:4;stroke-opacity:1;stroke-dasharray:none" /></g><g
     transform="matrix(-0.25378531,-0.3125,0.3125,-0.25378531,1,1.0000044)"
     id="g276"><path
       d="m -457.417,-17.423 3.106,-3.103 -10.868,3.104 10.867,3.106 -3.105,-3.107 z"
       inkscape:connector-curvature="0"
       id="path278"
       style="fill:#000000;fill-opacity:1;fill-rule:evenodd;stroke:#000000;stroke-width:0.77626097;stroke-linecap:butt;stroke-linejoin:miter;stroke-miterlimit:4;stroke-opacity:1;stroke-dasharray:none" /></g><g
     transform="matrix(0.3125,0,0,0.3125,1,1.0000044)"
     id="g280"><path
       d="m 200.934,315.715 242.566,0 0,268.027 -242.566,0 0,-268.027 z"
       inkscape:connector-curvature="0"
       id="path282"
       style="fill:none;stroke:#000000;stroke-width:2;stroke-linecap:round;stroke-linejoin:miter;stroke-miterlimit:4;stroke-opacity:1;stroke-dasharray:none" /></g><path
     d="m 100.51781,175.48355 -0.002,-0.0147 0,-0.0156 -0.001,-0.0172 -0.003,-0.0134 -0.001,-0.0147 -0.005,-0.0159 -0.004,-0.0134 -0.005,-0.0134 -0.0122,-0.0269 -0.008,-0.0144 -0.008,-0.0112 -0.006,-0.0122 -0.0109,-0.0122 -0.008,-0.01 -0.01,-0.0109 -0.01,-0.01 -0.0109,-0.01 -0.0109,-0.008 -0.0122,-0.008 -0.0134,-0.009 -0.0122,-0.007 -0.0159,-0.006 -0.0134,-0.007 -0.0134,-0.005 -0.0147,-0.005 -0.0169,-0.004 -0.0159,-0.004 -0.0172,-0.003 -0.0172,-0.001 -0.0169,0 -0.0184,-0.001 c -0.231873,0 -0.45906,0.22093 -0.45906,0.44781 0,0.16375 0.118437,0.30656 0.325,0.30656 0.19406,0 0.44906,-0.19406 0.44906,-0.44937 z"
     inkscape:connector-curvature="0"
     id="path284"
     style="fill:#000000;fill-opacity:1;fill-rule:nonzero;stroke:none" /><path
     d="m 99.870937,178.6698 0.0084,-0.0222 0.01719,-0.0412 0.0084,-0.0184 0.0075,-0.0172 0.0059,-0.0169 0.005,-0.0147 0.0072,-0.0159 0.005,-0.0147 0.0072,-0.0134 0.005,-0.0147 0.0037,-0.0134 0.0047,-0.0122 0.005,-0.0109 0.0084,-0.0256 0.0084,-0.0244 0.0087,-0.0231 0.0047,-0.0122 0.005,-0.0134 0.0062,-0.0134 0.002,-0.0134 0.008,-0.0147 0.005,-0.0147 0.005,-0.0172 0.008,-0.0159 0.005,-0.0181 0.008,-0.0184 0.008,-0.0194 0.006,-0.0222 c 0.0697,-0.16969 0.1125,-0.28563 0.1125,-0.44782 0,-0.37968 -0.269687,-0.69343 -0.695937,-0.69343 -0.795938,0 -1.119375,1.22687 -1.119375,1.305 0,0.0853 0.08563,0.0853 0.10375,0.0853 0.08562,0 0.09281,-0.0194 0.135625,-0.155 0.229375,-0.79719 0.565,-1.04969 0.854375,-1.04969 0.06844,0 0.21375,0 0.21375,0.27094 0,0.17812 -0.06,0.35656 -0.09656,0.44187 -0.06594,0.21969 -0.447812,1.20125 -0.584687,1.56875 -0.08187,0.21719 -0.194063,0.49782 -0.194063,0.67626 0,0.39656 0.288125,0.69437 0.698125,0.69437 0.79375,0 1.10719,-1.22781 1.10719,-1.30469 0,-0.0856 -0.0731,-0.0856 -0.10125,-0.0856 -0.0841,0 -0.0841,0.0256 -0.12688,0.15375 -0.15125,0.53218 -0.430935,1.04875 -0.864372,1.04875 -0.142813,0 -0.20375,-0.0844 -0.20375,-0.27844 0,-0.2125 0.0525,-0.33188 0.246562,-0.84719 l 0.329688,-0.89094 z"
     inkscape:connector-curvature="0"
     id="path286"
     style="fill:#000000;fill-opacity:1;fill-rule:nonzero;stroke:none" /><path
     d="m 109.21656,178.00792 0.0731,0 0.0122,-9.4e-4 0.0134,0 0.0122,-0.002 0.0125,-0.001 0.0109,-0.002 0.0244,-0.002 0.01,-0.004 0.0122,-0.003 0.01,-0.004 0.0113,-0.002 0.01,-0.006 0.0109,-0.005 0.007,-0.006 0.009,-0.006 0.008,-0.008 0.007,-0.006 0.008,-0.008 0.002,-0.005 0.003,-0.005 0.002,-0.004 0.002,-0.005 0.002,-0.006 0.001,-0.006 0.004,-0.005 9.4e-4,-0.008 0.002,-0.005 0.001,-0.007 0,-0.006 0.001,-0.007 0,-0.006 0.002,-0.007 0,-0.0159 c 0,-0.16968 -0.1625,-0.16968 -0.27969,-0.16968 l -5.07437,0 c -0.12094,0 -0.28063,0 -0.28063,0.16968 0,0.16719 0.15969,0.16719 0.28688,0.16719 l 5.05968,0 z"
     inkscape:connector-curvature="0"
     id="path288"
     style="fill:#000000;fill-opacity:1;fill-rule:nonzero;stroke:none" /><path
     d="m 109.225,179.65479 0.0222,0 0.0244,-0.002 0.0353,0 0.0122,-0.001 0.01,-0.001 0.0122,0 0.0122,-0.002 0.0125,-0.004 0.0109,-0.001 0.0219,-0.007 0.0109,-0.002 0.01,-0.004 0.009,-0.005 0.0109,-0.006 0.007,-0.006 0.009,-0.007 0.008,-0.006 0.007,-0.008 0.004,-0.004 0.004,-0.005 0.002,-0.004 0.003,-0.005 0.002,-0.005 0.002,-0.006 0.002,-0.005 0.001,-0.005 0.004,-0.006 9.4e-4,-0.006 0.002,-0.006 0.001,-0.007 0,-0.006 0.001,-0.007 0,-0.006 0.002,-0.007 0,-0.0159 c 0,-0.16969 -0.1625,-0.16969 -0.28813,-0.16969 l -5.05968,0 c -0.12719,0 -0.28688,0 -0.28688,0.16969 0,0.17093 0.15969,0.17093 0.28063,0.17093 l 5.07437,0 z"
     inkscape:connector-curvature="0"
     id="path290"
     style="fill:#000000;fill-opacity:1;fill-rule:nonzero;stroke:none" /><path
     d="m 114.82312,175.35667 0,-0.0953 -0.002,-0.007 0,-0.0172 -0.001,-0.0109 -0.002,-0.0109 -0.001,-0.008 -0.004,-0.009 -0.001,-0.008 -0.003,-0.006 -0.004,-0.007 -0.0147,-0.0147 -0.007,-0.006 -0.006,-0.002 -0.007,-0.004 -0.004,-0.001 -0.005,-0.002 -0.003,0 -0.005,-0.001 -0.005,-0.002 -0.005,0 -0.005,-0.001 -0.006,0 -0.005,-0.001 -0.0122,0 -0.006,-0.002 -0.0353,0 -0.008,-0.001 -0.0344,0 c -0.52594,0.54188 -1.27062,0.54188 -1.54156,0.54188 l 0,0.26375 c 0.17094,0 0.67,0 1.10844,-0.22094 l 0,4.38969 c 0,0.30625 -0.0234,0.40656 -0.78625,0.40656 l -0.27094,0 0,0.26375 c 0.29781,-0.0269 1.03375,-0.0269 1.37062,-0.0269 0.34063,0 1.07688,0 1.37469,0.0269 l 0,-0.26375 -0.27219,0 c -0.76187,0 -0.78875,-0.0916 -0.78875,-0.40656 l 0,-4.75344 z"
     inkscape:connector-curvature="0"
     id="path292"
     style="fill:#000000;fill-opacity:1;fill-rule:nonzero;stroke:none" /><path
     d="m 119.61219,180.33105 0,-0.0219 -0.001,-0.0231 -0.004,-0.0222 -0.004,-0.0231 -0.005,-0.0197 -0.007,-0.0219 -0.006,-0.0206 -0.0172,-0.0416 -0.01,-0.0184 -0.0109,-0.0181 -0.0125,-0.0197 -0.0109,-0.0159 -0.0134,-0.0169 -0.0144,-0.0172 -0.0147,-0.0159 -0.0159,-0.0147 -0.0172,-0.0144 -0.0172,-0.0134 -0.0156,-0.0112 -0.0197,-0.0122 -0.0181,-0.0122 -0.0184,-0.01 -0.0416,-0.0172 -0.0206,-0.007 -0.0441,-0.0122 -0.0219,-0.002 -0.0219,-0.004 -0.0222,-0.002 -0.0244,0 c -0.24281,0 -0.44906,0.205 -0.44906,0.44907 0,0.24531 0.20625,0.44937 0.44906,0.44937 0.24906,0 0.44938,-0.20406 0.44938,-0.44937 z"
     inkscape:connector-curvature="0"
     id="path294"
     style="fill:#000000;fill-opacity:1;fill-rule:nonzero;stroke:none" /><path
     d="m 123.36812,180.33105 0,-0.0219 -0.002,-0.0231 -0.003,-0.0222 -0.002,-0.0231 -0.006,-0.0197 -0.006,-0.0219 -0.007,-0.0206 -0.0169,-0.0416 -0.0197,-0.0366 -0.0122,-0.0197 -0.0122,-0.0159 -0.0134,-0.0169 -0.0159,-0.0172 -0.0134,-0.0159 -0.0169,-0.0147 -0.0147,-0.0144 -0.0172,-0.0134 -0.0194,-0.0112 -0.0159,-0.0122 -0.0197,-0.0122 -0.0194,-0.01 -0.0197,-0.008 -0.0206,-0.009 -0.0222,-0.007 -0.0194,-0.006 -0.0219,-0.006 -0.0234,-0.002 -0.0219,-0.004 -0.0219,-0.002 -0.0231,0 c -0.24562,0 -0.44937,0.205 -0.44937,0.44907 0,0.24531 0.20375,0.44937 0.44937,0.44937 0.24657,0 0.44907,-0.20406 0.44907,-0.44937 z"
     inkscape:connector-curvature="0"
     id="path296"
     style="fill:#000000;fill-opacity:1;fill-rule:nonzero;stroke:none" /><path
     d="m 127.12063,180.33105 0,-0.0219 -0.001,-0.0231 -0.004,-0.0222 -0.003,-0.0231 -0.006,-0.0197 -0.005,-0.0219 -0.008,-0.0206 -0.006,-0.0209 -0.0109,-0.0206 -0.008,-0.0184 -0.0109,-0.0181 -0.0122,-0.0197 -0.0122,-0.0159 -0.0269,-0.0341 -0.0306,-0.0306 -0.0172,-0.0144 -0.0169,-0.0134 -0.0172,-0.0112 -0.0184,-0.0122 -0.0194,-0.0122 -0.0184,-0.01 -0.0413,-0.0172 -0.0197,-0.007 -0.0219,-0.006 -0.0209,-0.006 -0.0219,-0.002 -0.0244,-0.004 -0.0219,-0.002 -0.0222,0 c -0.24531,0 -0.45031,0.205 -0.45031,0.44907 0,0.24531 0.205,0.44937 0.45031,0.44937 0.24656,0 0.44687,-0.20406 0.44687,-0.44937 z"
     inkscape:connector-curvature="0"
     id="path298"
     style="fill:#000000;fill-opacity:1;fill-rule:nonzero;stroke:none" /><path
     d="m 135.67781,175.88167 0.0169,-0.0622 0.009,-0.0306 0.01,-0.0294 0.0109,-0.0306 0.0109,-0.0291 0.0122,-0.0269 0.0134,-0.0269 0.0147,-0.0281 0.0147,-0.0269 0.0172,-0.0256 0.0181,-0.0231 0.0197,-0.0244 0.0194,-0.0234 0.0247,-0.0219 0.0231,-0.0206 0.0256,-0.0209 0.0281,-0.0181 0.0303,-0.0184 0.0319,-0.0194 0.0328,-0.0147 0.0356,-0.0159 0.0391,-0.0147 0.04,-0.0122 0.0428,-0.0122 0.0466,-0.0122 0.0475,-0.008 0.0488,-0.009 0.055,-0.006 0.0563,-0.007 0.0572,-0.005 0.0306,-0.001 0.0328,0 c 0.0428,0 0.14281,-0.009 0.14281,-0.17094 0,-0.008 0,-0.0928 -0.10844,-0.0928 -0.28094,0 -0.5775,0.0269 -0.85562,0.0269 -0.28938,0 -0.58594,-0.0269 -0.86563,-0.0269 -0.0513,0 -0.15125,0 -0.15125,0.16969 0,0.0941 0.0841,0.0941 0.15125,0.0941 0.48219,0.006 0.57625,0.18562 0.57625,0.36969 0,0.0281 -0.0172,0.155 -0.0244,0.17968 l -0.94875,3.77063 -1.87375,-4.4225 c -0.0681,-0.15281 -0.0769,-0.16125 -0.27094,-0.16125 l -1.13406,0 c -0.17094,0 -0.24907,0 -0.24907,0.16969 0,0.0941 0.0781,0.0941 0.23813,0.0941 0.0428,0 0.5775,0 0.5775,0.0756 l -1.13657,4.54968 c -0.0853,0.34031 -0.22812,0.61156 -0.91312,0.63469 -0.0525,0 -0.14656,0.008 -0.14656,0.16969 0,0.0597 0.0428,0.0941 0.1125,0.0941 0.26968,0 0.56406,-0.0269 0.84719,-0.0269 0.28687,0 0.59187,0.0269 0.87156,0.0269 0.0428,0 0.15125,0 0.15125,-0.16969 0,-0.0856 -0.0744,-0.0941 -0.16719,-0.0941 -0.49188,-0.0147 -0.56156,-0.20031 -0.56156,-0.37125 0,-0.0584 0.008,-0.10125 0.0353,-0.19281 l 1.11937,-4.4775 c 0.0344,0.0513 0.0344,0.0672 0.0759,0.15125 l 2.11156,4.99281 c 0.0575,0.14656 0.0806,0.16125 0.1575,0.16125 0.0941,0 0.0941,-0.0269 0.13688,-0.17844 l 1.18656,-4.72031 z"
     inkscape:connector-curvature="0"
     id="path300"
     style="fill:#000000;fill-opacity:1;fill-rule:nonzero;stroke:none" /><g
     transform="matrix(0.3125,0,0,0.3125,1,1.0000044)"
     id="g366"><path
       d="m 427.285,500.473 c 0,19.125 -15.504,34.632 -34.633,34.632 -19.129,0 -34.632,-15.507 -34.632,-34.632 0,-19.129 15.503,-34.637 34.632,-34.637 19.129,0 34.633,15.508 34.633,34.637 z"
       inkscape:connector-curvature="0"
       id="path368"
       style="fill:none;stroke:#cb5500;stroke-width:3.5999999;stroke-linecap:round;stroke-linejoin:miter;stroke-miterlimit:4;stroke-opacity:1;stroke-dasharray:none" /></g><text
     xml:space="preserve"
     style="font-size:8px;font-style:normal;font-weight:normal;line-height:125%;letter-spacing:0px;word-spacing:0px;fill:#000000;fill-opacity:1;stroke:none;font-family:Sans"
     x="3.0201924"
     y="119.20686"
     id="text3904"
     sodipodi:linespacing="125%"><tspan
       sodipodi:role="line"
       id="tspan3906"
       x="3.0201924"
       y="119.20686">&quot;article mean&quot;</tspan></text>
<text
     xml:space="preserve"
     style="font-size:8px;font-style:normal;font-weight:normal;line-height:125%;letter-spacing:0px;word-spacing:0px;fill:#000000;fill-opacity:1;stroke:none;font-family:Sans"
     x="-0.27349725"
     y="149.78343"
     id="text3908"
     sodipodi:linespacing="125%"><tspan
       sodipodi:role="line"
       id="tspan3910"
       x="-0.27349725"
       y="149.78343">article precision</tspan></text>
<text
     xml:space="preserve"
     style="font-size:8px;font-style:normal;font-weight:normal;line-height:125%;letter-spacing:0px;word-spacing:0px;fill:#000000;fill-opacity:1;stroke:none;font-family:Sans"
     x="141.88396"
     y="158.81798"
     id="text3912"
     sodipodi:linespacing="125%"><tspan
       sodipodi:role="line"
       id="tspan3914"
       x="141.88396"
       y="158.81798">&quot;article weight&quot;</tspan></text>
</svg>